<svg viewBox="0 0 886.3333740234375 400" xmlns="http://www.w3.org/2000/svg"><g><g><g><g><g><line x1="53.1875" y1="376" x2="48.1875" y2="376" style="visibility: inherit;" fill="rgb(0, 0, 0)" stroke="rgb(204, 204, 204)" stroke-width="1px"></line><line x1="53.1875" y1="350.9333333333333" x2="48.1875" y2="350.9333333333333" style="visibility: inherit;" fill="rgb(0, 0, 0)" stroke="rgb(204, 204, 204)" stroke-width="1px"></line><line x1="53.1875" y1="325.8666666666666" x2="48.1875" y2="325.8666666666666" style="visibility: inherit;" fill="rgb(0, 0, 0)" stroke="rgb(204, 204, 204)" stroke-width="1px"></line><line x1="53.1875" y1="300.79999999999995" x2="48.1875" y2="300.79999999999995" style="visibility: inherit;" fill="rgb(0, 0, 0)" stroke="rgb(204, 204, 204)" stroke-width="1px"></line><line x1="53.1875" y1="275.7333333333333" x2="48.1875" y2="275.7333333333333" style="visibility: inherit;" fill="rgb(0, 0, 0)" stroke="rgb(204, 204, 204)" stroke-width="1px"></line><line x1="53.1875" y1="250.66666666666669" x2="48.1875" y2="250.66666666666669" style="visibility: inherit;" fill="rgb(0, 0, 0)" stroke="rgb(204, 204, 204)" stroke-width="1px"></line><line x1="53.1875" y1="225.60000000000002" x2="48.1875" y2="225.60000000000002" style="visibility: inherit;" fill="rgb(0, 0, 0)" stroke="rgb(204, 204, 204)" stroke-width="1px"></line><line x1="53.1875" y1="200.53333333333336" x2="48.1875" y2="200.53333333333336" style="visibility: inherit;" fill="rgb(0, 0, 0)" stroke="rgb(204, 204, 204)" stroke-width="1px"></line><line x1="53.1875" y1="175.46666666666667" x2="48.1875" y2="175.46666666666667" style="visibility: inherit;" fill="rgb(0, 0, 0)" stroke="rgb(204, 204, 204)" stroke-width="1px"></line><line x1="53.1875" y1="150.39999999999998" x2="48.1875" y2="150.39999999999998" style="visibility: inherit;" fill="rgb(0, 0, 0)" stroke="rgb(204, 204, 204)" stroke-width="1px"></line><line x1="53.1875" y1="125.3333333333333" x2="48.1875" y2="125.3333333333333" style="visibility: inherit;" fill="rgb(0, 0, 0)" stroke="rgb(204, 204, 204)" stroke-width="1px"></line><line x1="53.1875" y1="100.26666666666672" x2="48.1875" y2="100.26666666666672" style="visibility: inherit;" fill="rgb(0, 0, 0)" stroke="rgb(204, 204, 204)" stroke-width="1px"></line><line x1="53.1875" y1="75.20000000000007" x2="48.1875" y2="75.20000000000007" style="visibility: inherit;" fill="rgb(0, 0, 0)" stroke="rgb(204, 204, 204)" stroke-width="1px"></line><line x1="53.1875" y1="50.13333333333336" x2="48.1875" y2="50.13333333333336" style="visibility: inherit;" fill="rgb(0, 0, 0)" stroke="rgb(204, 204, 204)" stroke-width="1px"></line><line x1="53.1875" y1="25.066666666666702" x2="48.1875" y2="25.066666666666702" style="visibility: inherit;" fill="rgb(0, 0, 0)" stroke="rgb(204, 204, 204)" stroke-width="1px"></line><line x1="53.1875" y1="0" x2="48.1875" y2="0" style="visibility: inherit;" fill="rgb(0, 0, 0)" stroke="rgb(204, 204, 204)" stroke-width="1px"></line></g><g transform="translate(43.1875, 0)"><text x="0" y="376" dx="0em" dy="0.3em" style="text-anchor: end; visibility: hidden; font-family: Roboto, sans-serif; font-size: 12px; font-weight: 200;" fill="rgb(33, 33, 33)" stroke="none" stroke-width="1px">0.72</text><text x="0" y="350.9333333333333" dx="0em" dy="0.3em" style="text-anchor: end; visibility: inherit; font-family: Roboto, sans-serif; font-size: 12px; font-weight: 200;" fill="rgb(33, 33, 33)" stroke="none" stroke-width="1px">0.74</text><text x="0" y="325.8666666666666" dx="0em" dy="0.3em" style="text-anchor: end; visibility: inherit; font-family: Roboto, sans-serif; font-size: 12px; font-weight: 200;" fill="rgb(33, 33, 33)" stroke="none" stroke-width="1px">0.76</text><text x="0" y="300.79999999999995" dx="0em" dy="0.3em" style="text-anchor: end; visibility: inherit; font-family: Roboto, sans-serif; font-size: 12px; font-weight: 200;" fill="rgb(33, 33, 33)" stroke="none" stroke-width="1px">0.78</text><text x="0" y="275.7333333333333" dx="0em" dy="0.3em" style="text-anchor: end; visibility: inherit; font-family: Roboto, sans-serif; font-size: 12px; font-weight: 200;" fill="rgb(33, 33, 33)" stroke="none" stroke-width="1px">0.8</text><text x="0" y="250.66666666666669" dx="0em" dy="0.3em" style="text-anchor: end; visibility: inherit; font-family: Roboto, sans-serif; font-size: 12px; font-weight: 200;" fill="rgb(33, 33, 33)" stroke="none" stroke-width="1px">0.82</text><text x="0" y="225.60000000000002" dx="0em" dy="0.3em" style="text-anchor: end; visibility: inherit; font-family: Roboto, sans-serif; font-size: 12px; font-weight: 200;" fill="rgb(33, 33, 33)" stroke="none" stroke-width="1px">0.84</text><text x="0" y="200.53333333333336" dx="0em" dy="0.3em" style="text-anchor: end; visibility: inherit; font-family: Roboto, sans-serif; font-size: 12px; font-weight: 200;" fill="rgb(33, 33, 33)" stroke="none" stroke-width="1px">0.86</text><text x="0" y="175.46666666666667" dx="0em" dy="0.3em" style="text-anchor: end; visibility: inherit; font-family: Roboto, sans-serif; font-size: 12px; font-weight: 200;" fill="rgb(33, 33, 33)" stroke="none" stroke-width="1px">0.88</text><text x="0" y="150.39999999999998" dx="0em" dy="0.3em" style="text-anchor: end; visibility: inherit; font-family: Roboto, sans-serif; font-size: 12px; font-weight: 200;" fill="rgb(33, 33, 33)" stroke="none" stroke-width="1px">0.9</text><text x="0" y="125.3333333333333" dx="0em" dy="0.3em" style="text-anchor: end; visibility: inherit; font-family: Roboto, sans-serif; font-size: 12px; font-weight: 200;" fill="rgb(33, 33, 33)" stroke="none" stroke-width="1px">0.92</text><text x="0" y="100.26666666666672" dx="0em" dy="0.3em" style="text-anchor: end; visibility: inherit; font-family: Roboto, sans-serif; font-size: 12px; font-weight: 200;" fill="rgb(33, 33, 33)" stroke="none" stroke-width="1px">0.94</text><text x="0" y="75.20000000000007" dx="0em" dy="0.3em" style="text-anchor: end; visibility: inherit; font-family: Roboto, sans-serif; font-size: 12px; font-weight: 200;" fill="rgb(33, 33, 33)" stroke="none" stroke-width="1px">0.96</text><text x="0" y="50.13333333333336" dx="0em" dy="0.3em" style="text-anchor: end; visibility: inherit; font-family: Roboto, sans-serif; font-size: 12px; font-weight: 200;" fill="rgb(33, 33, 33)" stroke="none" stroke-width="1px">0.98</text><text x="0" y="25.066666666666702" dx="0em" dy="0.3em" style="text-anchor: end; visibility: inherit; font-family: Roboto, sans-serif; font-size: 12px; font-weight: 200;" fill="rgb(33, 33, 33)" stroke="none" stroke-width="1px">1</text><text x="0" y="0" dx="0em" dy="0.3em" style="text-anchor: end; visibility: hidden; font-family: Roboto, sans-serif; font-size: 12px; font-weight: 200;" fill="rgb(33, 33, 33)" stroke="none" stroke-width="1px">1.02</text></g><line x1="53.1875" y1="0" x2="53.1875" y2="376" fill="rgb(0, 0, 0)" stroke="rgb(204, 204, 204)" stroke-width="1px"></line></g></g><g transform="translate(53, 0)" clip-path="url(#clip_0)"><clipPath id="clip_0"><rect width="833" height="376"></rect></clipPath><g><g><g><line x1="0" y1="0" x2="0" y2="376" fill="rgb(0, 0, 0)" stroke="rgb(66, 66, 66)" stroke-width="1px" opacity="0.25"></line><line x1="92.57172222222222" y1="0" x2="92.57172222222222" y2="376" fill="rgb(0, 0, 0)" stroke="rgb(66, 66, 66)" stroke-width="1px" opacity="0.25"></line><line x1="185.14344444444444" y1="0" x2="185.14344444444444" y2="376" fill="rgb(0, 0, 0)" stroke="rgb(66, 66, 66)" stroke-width="1px" opacity="0.25"></line><line x1="277.7151666666666" y1="0" x2="277.7151666666666" y2="376" fill="rgb(0, 0, 0)" stroke="rgb(66, 66, 66)" stroke-width="1px" opacity="0.25"></line><line x1="370.2868888888889" y1="0" x2="370.2868888888889" y2="376" fill="rgb(0, 0, 0)" stroke="rgb(66, 66, 66)" stroke-width="1px" opacity="0.25"></line><line x1="462.8586111111111" y1="0" x2="462.8586111111111" y2="376" fill="rgb(0, 0, 0)" stroke="rgb(66, 66, 66)" stroke-width="1px" opacity="0.25"></line><line x1="555.4303333333332" y1="0" x2="555.4303333333332" y2="376" fill="rgb(0, 0, 0)" stroke="rgb(66, 66, 66)" stroke-width="1px" opacity="0.25"></line><line x1="648.0020555555556" y1="0" x2="648.0020555555556" y2="376" fill="rgb(0, 0, 0)" stroke="rgb(66, 66, 66)" stroke-width="1px" opacity="0.25"></line><line x1="740.5737777777778" y1="0" x2="740.5737777777778" y2="376" fill="rgb(0, 0, 0)" stroke="rgb(66, 66, 66)" stroke-width="1px" opacity="0.25"></line><line x1="833.1455" y1="0" x2="833.1455" y2="376" fill="rgb(0, 0, 0)" stroke="rgb(66, 66, 66)" stroke-width="1px" opacity="0.25"></line></g><g><line x1="0" y1="376" x2="833.1455" y2="376" fill="rgb(0, 0, 0)" stroke="rgb(66, 66, 66)" stroke-width="1px" opacity="0.25"></line><line x1="0" y1="350.9333333333333" x2="833.1455" y2="350.9333333333333" fill="rgb(0, 0, 0)" stroke="rgb(66, 66, 66)" stroke-width="1px" opacity="0.25"></line><line x1="0" y1="325.8666666666666" x2="833.1455" y2="325.8666666666666" fill="rgb(0, 0, 0)" stroke="rgb(66, 66, 66)" stroke-width="1px" opacity="0.25"></line><line x1="0" y1="300.79999999999995" x2="833.1455" y2="300.79999999999995" fill="rgb(0, 0, 0)" stroke="rgb(66, 66, 66)" stroke-width="1px" opacity="0.25"></line><line x1="0" y1="275.7333333333333" x2="833.1455" y2="275.7333333333333" fill="rgb(0, 0, 0)" stroke="rgb(66, 66, 66)" stroke-width="1px" opacity="0.25"></line><line x1="0" y1="250.66666666666669" x2="833.1455" y2="250.66666666666669" fill="rgb(0, 0, 0)" stroke="rgb(66, 66, 66)" stroke-width="1px" opacity="0.25"></line><line x1="0" y1="225.60000000000002" x2="833.1455" y2="225.60000000000002" fill="rgb(0, 0, 0)" stroke="rgb(66, 66, 66)" stroke-width="1px" opacity="0.25"></line><line x1="0" y1="200.53333333333336" x2="833.1455" y2="200.53333333333336" fill="rgb(0, 0, 0)" stroke="rgb(66, 66, 66)" stroke-width="1px" opacity="0.25"></line><line x1="0" y1="175.46666666666667" x2="833.1455" y2="175.46666666666667" fill="rgb(0, 0, 0)" stroke="rgb(66, 66, 66)" stroke-width="1px" opacity="0.25"></line><line x1="0" y1="150.39999999999998" x2="833.1455" y2="150.39999999999998" fill="rgb(0, 0, 0)" stroke="rgb(66, 66, 66)" stroke-width="1px" opacity="0.25"></line><line x1="0" y1="125.3333333333333" x2="833.1455" y2="125.3333333333333" fill="rgb(0, 0, 0)" stroke="rgb(66, 66, 66)" stroke-width="1px" opacity="0.25"></line><line x1="0" y1="100.26666666666672" x2="833.1455" y2="100.26666666666672" fill="rgb(0, 0, 0)" stroke="rgb(66, 66, 66)" stroke-width="1px" opacity="0.25"></line><line x1="0" y1="75.20000000000007" x2="833.1455" y2="75.20000000000007" fill="rgb(0, 0, 0)" stroke="rgb(66, 66, 66)" stroke-width="1px" opacity="0.25"></line><line x1="0" y1="50.13333333333336" x2="833.1455" y2="50.13333333333336" fill="rgb(0, 0, 0)" stroke="rgb(66, 66, 66)" stroke-width="1px" opacity="0.25"></line><line x1="0" y1="25.066666666666702" x2="833.1455" y2="25.066666666666702" fill="rgb(0, 0, 0)" stroke="rgb(66, 66, 66)" stroke-width="1px" opacity="0.25"></line><line x1="0" y1="0" x2="833.1455" y2="0" fill="rgb(0, 0, 0)" stroke="rgb(66, 66, 66)" stroke-width="1px" opacity="0.25"></line></g></g></g><g><g><line x1="0" y1="1278.3999999999999" x2="833.1455" y2="1278.3999999999999" fill="rgb(0, 0, 0)" stroke="rgb(153, 153, 153)" stroke-width="1.5px"></line></g></g><g><g><line x1="92.57172222222222" y1="0" x2="92.57172222222222" y2="376" fill="rgb(0, 0, 0)" stroke="rgb(153, 153, 153)" stroke-width="1.5px"></line></g></g><g><g><g><g><g><path stroke="rgb(255, 112, 67)" stroke-width="2px" d="M120.34323888888888,378.59054396919925L122.19467333333333,369.09469663700764L124.04610777777776,361.61250597013094L125.89754222222221,350.3871545514999L127.74897666666665,342.6319984618602L129.6004111111111,334.61098744568L131.45184555555554,328.82897264667764L133.30328,322.195829174305L135.15471444444444,317.90982767549207L137.0061488888889,312.225297668685L138.8575833333333,305.4465205400932L140.70901777777777,304.44116973386707L142.5604522222222,299.5512929049142L144.41188666666667,296.7704844234535L146.2633211111111,290.66225129916506L148.11475555555555,285.67050109908956L149.96618999999998,278.490864287397L151.81762444444445,275.25473371812456L153.66905888888888,272.8537723265105L155.52049333333335,275.0364231060655L157.37192777777776,269.15059664168956L159.22336222222222,262.9654479735043L161.07479666666666,258.18270798383315L162.92623111111112,253.11869436683313L164.77766555555556,248.4472759765544L166.6291,250.4924175346705L168.48053444444443,247.53491562157961L170.3319688888889,245.45424560099102L172.18340333333333,240.2253792886094L174.0348377777778,236.6798144154063L175.8862722222222,233.73595543665746L177.73770666666667,232.6840838922187L179.5891411111111,228.78694050852528L181.44057555555554,224.2032766198722L183.29201,225.43354258631976L185.14344444444444,222.44639851624507L186.99487888888888,222.79744360193638L188.8463133333333,222.65083379116646L190.69774777777778,216.43910195925915L192.5491822222222,215.67188456117498L194.40061666666665,212.81306194499578L196.2520511111111,208.03590034346857L198.10348555555555,205.1696033825535L199.95492,200.79617237905936L201.80635444444445,202.10153997020117L203.6577888888889,201.20074207192377L205.50922333333332,202.5484043292545L207.36065777777776,199.73377424631565L209.21209222222222,199.26976133835734L211.0635266666667,197.10318271549016L212.9149611111111,195.0887916991998L214.76639555555553,193.01262880980306L216.61783,190.74628847769506L218.46926444444446,188.62103221137286L220.32069888888887,187.55000099491465L222.17213333333333,185.68261712323442L224.02356777777777,182.82713024098177L225.87500222222224,183.20610165126226L227.72643666666664,182.6680324303731L229.5778711111111,183.05963474040985L231.42930555555554,178.90588674024198L233.28074,177.0770436764287L235.13217444444442,178.93955953919047L236.98360888888888,176.99517114323265L238.83504333333335,175.67545366860548L240.68647777777775,175.03670762088174L242.5379122222222,175.06173496071256L244.38934666666665,172.0148534509962L246.24078111111112,171.6156122303064L248.09221555555553,169.2837740764651L249.94365,168.75219946378257L251.79508444444443,165.2693104517884L253.6465188888889,166.80280448192912L255.4979533333333,167.36566403783084L257.34938777777774,166.52968261764477L259.2008222222222,166.02809376553316L261.05225666666666,165.47197980464864L262.9036911111111,164.5769520226003L264.75512555555554,163.2744534045187L266.60656,160.4006906940377L268.45799444444447,162.4017068358562L270.3094288888889,160.7445710324626L272.16086333333334,157.40283547938157L274.0122977777778,156.46944497049037L275.8637322222222,158.25686473620038L277.7151666666666,153.15451254390942L279.5666011111111,151.26682826405735L281.41803555555555,149.62389639691096L283.26947,149.91391064291545L285.1209044444444,150.8023630330882L286.9723388888889,149.54933980166436L288.82377333333335,147.62379882728771L290.6752077777778,148.81592831370662L292.5266422222222,149.22500724965792L294.37807666666663,147.83744438275374L296.2295111111111,144.50436815451397L298.0809455555555,145.77054287451983L299.93237999999997,142.70289772585136L301.78381444444443,141.37263193588512L303.6352488888889,140.06415116267038L305.4866833333333,140.70795038388152L307.33811777777777,140.17566353070328L309.18955222222223,138.73357260776112L311.0409866666667,138.12347870361347L312.8924211111111,139.7476694517824L314.7438555555555,137.60924788078628L316.59529,135.40762855228363L318.44672444444444,134.9541852348044L320.29815888888885,134.8862716694471L322.1495933333333,132.65115389624017L324.0010277777778,130.74872382679848L325.85246222222224,131.34235222617346L327.70389666666665,130.77996287989345L329.5553311111111,130.8507743587955L331.4067655555555,133.29175342346417L333.2582,130.87795277531066L335.1096344444444,130.3482387723235L336.96106888888886,128.04016327987347L338.8125033333333,127.88008312620858L340.6639377777778,128.5495169828623L342.5153722222222,125.58308062733944L344.36680666666666,123.08877497145563L346.2182411111111,124.80717392859269L348.0696755555556,123.69491165696017L349.92111,120.52701578588345L351.7725444444444,122.50466635019214L353.62397888888887,121.08864196811491L355.47541333333334,120.0349047955336L357.32684777777774,121.59700224418222L359.1782822222222,119.93167587450418L361.0297166666667,121.43301856079464L362.8811511111111,119.16987992818419L364.73258555555554,117.86300497310528L366.58402,118.0995225985278L368.4354544444444,115.53677212234899L370.2868888888889,113.33568621855915L372.1383233333333,115.89345264503527L373.98975777777775,116.4074699024509L375.8411922222222,113.24573725661534L377.6926266666666,110.5832157202615L379.5440611111111,109.59810031024934L381.39549555555556,109.16011550129444L383.24693,108.48907952925165L385.0983644444444,106.09624073716355L386.9497988888889,104.20125426895831L388.8012333333333,106.024084089085L390.65266777777776,105.68889429602102L392.5041022222222,103.95684640427268L394.35553666666664,105.06091931513848L396.2069711111111,105.46820241204047L398.05840555555557,106.37597800646911L399.90984,104.26702041797662L401.76127444444444,103.35885284526839L403.6127088888889,100.92581130534629L405.46414333333337,99.97627779883274L407.3155777777778,98.69214373414998L409.1670122222222,98.22783216944521L411.01844666666665,100.50082184500208L412.8698811111111,99.87439844147394L414.7213155555555,98.17173292678217L416.57275,96.79289675578454L418.42418444444445,97.59860528166081L420.2756188888889,93.99951976689694L422.1270533333334,91.73799224547354L423.97848777777773,91.04448146890682L425.8299222222222,89.50568607372688L427.6813566666666,90.36850350214632L429.53279111111107,91.24343082138054L431.38422555555553,88.75752740558877L433.23566,91.09333533678584L435.08709444444446,91.88245246549934L436.9385288888889,91.4373563568224L438.7899633333333,89.12904337647133L440.64139777777774,86.8254892023557L442.4928322222222,83.24898706389395L444.34426666666667,85.18562629290176L446.1957011111111,83.28571191669158L448.04713555555554,83.62565920059274L449.89857,83.26829804721112L451.75000444444447,84.89101412699205L453.6014388888888,85.45639868819062L455.4528733333333,84.72394872015721L457.30430777777775,82.65146851086226L459.1557422222222,83.60235001927776L461.0071766666667,82.28470804623468L462.8586111111111,80.37143393316897L464.71004555555555,80.2441120637994L466.56148,78.22850995780287L468.41291444444437,79.62176341486723L470.26434888888883,77.03858071330836L472.1157833333333,73.70257642684562L473.96721777777776,73.48706852049543L475.8186522222222,72.43919739078027L477.6700866666667,72.11667346885127L479.52152111111116,72.48451852121146L481.3729555555555,73.06243253301491L483.22438999999997,73.15402029047951L485.0758244444444,71.78008525981836L486.92725888888884,70.19027217436432L488.7786933333333,68.5729785868044L490.6301277777778,68.82733769427826L492.48156222222224,68.77583061542757L494.3329966666667,66.85675549002468L496.18443111111105,64.99089645400822L498.0358655555555,63.258983520598264L499.8873,65.02657302454969L501.73873444444445,65.57680542768563L503.59016888888885,63.865689554422254L505.4416033333333,65.3395585385615L507.2930377777778,64.13158650761771L509.14447222222225,63.304756958281516L510.9959066666666,62.19626171687959L512.8473411111111,62.09252397755613L514.6987755555555,61.57099814100961L516.55021,59.880233060224185L518.4016444444444,58.66165146841798L520.2530788888889,56.858821808581794L522.1045133333333,56.083322768580075L523.9559477777779,56.43454339971415L525.8073822222221,57.00248275878187L527.6588166666667,55.60818981497786L529.5102511111111,55.58810422203516L531.3616855555555,55.933289728452124L533.21312,54.660475240879876L535.0645544444444,53.080266493201336L536.9159888888889,52.43834000049442L538.7674233333332,51.849061561535194L540.6188577777777,51.49549449815969L542.4702922222222,51.43643869718687L544.3217266666667,50.83967569288092L546.1731611111111,49.05273020515732L548.0245955555556,49.205328054328206L549.87603,49.09276422049565L551.7274644444444,49.58655544391845L553.5788988888888,49.066340004632394L555.4303333333332,48.550088197725685L557.2817677777778,48.03618468845141L559.1332022222222,47.4727118150647L560.9846366666667,45.501617862557715L562.8360711111111,45.08441355811067L564.6875055555556,44.629968432107695L566.53894,44.71453821868849L568.3903744444444,43.642591161397064L570.2418088888888,44.37727250587954L572.0932433333332,44.05259936371642L573.9446777777778,43.704711041366274L575.7961122222222,42.93461864243859L577.6475466666667,43.23804515193454L579.4989811111111,42.19533591582709L581.3504155555556,41.51867226788012L583.2018499999999,39.785862606536924L585.0532844444444,39.10338379011836L586.9047188888889,39.663500992454786L588.7561533333333,39.94853320757422L590.6075877777778,39.35410046958861L592.4590222222222,38.742280177179666L594.3104566666667,37.96694291506437L596.161891111111,37.75690120741264L598.0133255555555,37.88600695064383L599.8647599999999,37.55522530991271L601.7161944444445,37.56087886880903L603.5676288888889,37.20706402375952L605.4190633333333,36.94373701044719L607.2704977777778,35.30581501103723L609.1219322222222,35.9560720398663L610.9733666666666,35.274575434206284L612.824801111111,35.17187622671025L614.6762355555555,34.75301984002997L616.52767,33.88933837801691L618.3791044444445,33.371129500809175L620.2305388888889,33.060204174484554L622.0819733333334,34.20046045126473L623.9334077777778,33.0474814455228L625.7848422222222,32.50877847913L627.6362766666666,32.44071734891207L629.487711111111,32.50195688334629L631.3391455555555,32.079417411054344L633.19058,31.621771184344336L635.0420144444445,31.806466641270575L636.8934488888889,31.458000722474033L638.7448833333334,31.044798627861077L640.5963177777777,31.766451981485446L642.4477522222222,31.8422370132728L644.2991866666666,31.581509276445196L646.150621111111,31.32302630357861L648.0020555555556,31.218974626141385L649.85349,31.309628056731313L651.7049244444445,31.312982008802884L653.5563588888889,31.059833730428252L655.4077933333333,30.55073778301595L657.2592277777777,30.9597240571388L659.1106622222222,30.337557660194747L660.9620966666666,30.678701664598247L662.813531111111,29.96482168133558L664.6649655555556,29.79165434099529L666.5164,29.585707606021387L668.3678344444444,29.462139565037127L670.2192688888888,29.898290157886223L672.0707033333333,29.394528446538544L673.9221377777777,29.041233313447147L675.7735722222222,29.18646321397972L677.6250066666666,29.222592929811963L679.4764411111112,29.346317090081218L681.3278755555556,28.96126839329031L683.17931,28.730239175215864L685.0307444444444,28.234414663983618L686.8821788888888,28.24308883134916L688.7336133333333,28.8096527372861L690.5850477777777,28.894430431230774L692.4364822222223,28.48601385464501L694.2879166666667,28.240963908693555L696.1393511111112,28.400132697022695L697.9907855555555,28.03635077706769L699.84222,28.175288605482283L701.6936544444444,27.952482428426116L703.5450888888888,27.869806946679773L705.3965233333333,27.973315976479505L707.2479577777777,28.341590268464085L709.0993922222223,28.40947040660253L710.9508266666667,27.99091529653318L712.8022611111111,27.943904773826567L714.6536955555555,27.966736566485093L716.50513,27.521152449127726L718.3565644444444,27.56000073461335L720.2079988888888,27.277110950004662L722.0594333333333,27.00530086667433L723.9108677777778,27.19945167885866L725.7623022222222,27.009743410269376L727.6137366666666,27.355201642068245L729.4651711111111,27.307315931529928L731.3166055555555,27.329622611489572L733.16804,27.649205375365334L735.0194744444444,27.48371817150825L736.8709088888888,27.89474714842907L738.7223433333334,27.78415755419425L740.5737777777778,27.768812022140576" style="fill: none;" fill="none"></path></g></g></g></g><g opacity="0.2"><g><g><g><path stroke="rgb(255, 112, 67)" stroke-width="2px" d="M114.78893555555555,397.85169925689695L116.64037,363.277864519755L118.49180444444444,375.7805570602417L120.34323888888888,365.06397412617997L122.19467333333333,354.85762284596757L124.04610777777776,350.3923861821492L125.89754222222221,333.5519775390625L127.74897666666665,331.00044574737547L129.6004111111111,322.58020407358805L131.45184555555554,320.1562675476074L133.30328,312.2463322321574L135.15471444444444,311.4809100468953L137.0061488888889,303.69856999715165L138.8575833333333,295.27840302785233L140.70901777777777,302.9331478118896L142.5604522222222,292.2164901733398L144.41188666666667,292.59927597045896L146.2633211111111,281.4999072392781L148.11475555555555,278.182878557841L149.96618999999998,267.7214114507039L151.81762444444445,270.4005385080973L153.66905888888888,269.2523305257161L155.52049333333335,278.31039911905924L157.37192777777776,260.3218571980794L159.22336222222222,253.68772513071696L161.07479666666666,251.00859807332355L162.92623111111112,245.52267398834226L164.77766555555556,241.44014841715494L166.6291,253.56012986501057L168.48053444444443,243.0986627578735L170.3319688888889,242.3332405726115L172.18340333333333,232.38207982381184L174.0348377777778,231.36146710713703L175.8862722222222,229.3201669692993L177.73770666666667,231.10627657572428L179.5891411111111,222.9412254333496L181.44057555555554,217.32778078715006L183.29201,227.27894153594968L185.14344444444444,217.96568241119382L186.99487888888888,223.32401123046873L188.8463133333333,222.43091907501218L190.69774777777778,207.12150421142576L192.5491822222222,214.52105846405027L194.40061666666665,208.5248280207316L196.2520511111111,200.87015794118247L198.10348555555555,200.87015794118247L199.95492,194.23602587381998L201.80635444444445,204.05959135691324L203.6577888888889,199.84954522450766L205.50922333333332,204.56989771525065L207.36065777777776,195.51182912190757L209.21209222222222,198.57374197642008L211.0635266666667,193.85331478118894L212.9149611111111,192.067205174764L214.76639555555553,189.89838447570799L216.61783,187.34677797953287L218.46926444444446,185.43314781188965L220.32069888888887,185.94345417022706L222.17213333333333,182.88154131571451L224.02356777777777,178.54389991760254L225.87500222222224,183.77455876668293L227.72643666666664,181.8609285990397L229.5778711111111,183.64703820546467L231.42930555555554,172.67526473999024L233.28074,174.3337790807088L235.13217444444442,181.73333333333332L236.98360888888888,174.07858854929606L238.83504333333335,173.69587745666504L240.68647777777775,174.07858854929606L242.5379122222222,175.099275970459L244.38934666666665,167.4445311864217L246.24078111111112,171.01675039927164L248.09221555555553,165.78601684570313L249.94365,167.9548375447591L251.79508444444443,160.0449769337972L253.6465188888889,169.1030455271403L255.4979533333333,168.20995337168375L257.34938777777774,165.27571048736573L259.2008222222222,165.27571048736573L261.05225666666666,164.63780886332194L262.9036911111111,163.234410349528L264.75512555555554,161.32070547739664L266.60656,156.09004662831623L268.45799444444447,165.403231048584L270.3094288888889,158.25886732737223L272.16086333333334,152.39023214975992L274.0122977777778,155.06935920715333L275.8637322222222,160.93799438476563L277.7151666666666,145.50098425547282L279.5666011111111,148.43530184427897L281.41803555555555,147.1594985961914L283.26947,150.3489320119222L285.1209044444444,152.13504161834717L286.9723388888889,147.66980495452881L288.82377333333335,144.73548736572266L290.6752077777778,150.60412254333497L292.5266422222222,149.83862565358478L294.37807666666663,145.75610008239747L296.2295111111111,139.50475381215415L298.0809455555555,147.66980495452881L299.93237999999997,138.1014300028483L301.78381444444443,139.3772332509359L303.6352488888889,138.1014300028483L305.4866833333333,141.67364921569825L307.33811777777777,139.3772332509359L309.18955222222223,136.570436223348L311.0409866666667,137.20833784739176L312.8924211111111,142.18395557403565L314.7438555555555,134.401615524292L316.59529,132.10519955952964L318.44672444444444,134.2740202585856L320.29815888888885,134.78440132141114L322.1495933333333,129.29847723642985L324.0010277777778,127.8950787226359L325.85246222222224,132.232794825236L327.70389666666665,129.93637886047364L329.5553311111111,130.95699157714844L331.4067655555555,136.95322202046714L333.2582,127.25725180308024L335.1096344444444,129.55366776784263L336.96106888888886,124.57805004119874L338.8125033333333,127.63996289571128L340.6639377777778,129.55366776784263L342.5153722222222,121.13342609405518L344.36680666666666,119.34731648763022L346.2182411111111,127.3847723642985L348.0696755555556,122.02651824951172L349.92111,115.7751719792684L351.7725444444444,125.47114219665528L353.62397888888887,118.96460539499918L355.47541333333334,118.45429903666178L357.32684777777774,123.94014841715494L359.1782822222222,117.43368631998698L361.0297166666667,123.68503259023032L362.8811511111111,115.7751719792684L364.73258555555554,115.90269254048667L366.58402,118.45429903666178L368.4354544444444,111.69264640808106L370.2868888888889,110.03405736287436L372.1383233333333,119.73010228474936L373.98975777777775,117.17849578857422L375.8411922222222,108.50313828786216L377.6926266666666,106.58943341573081L379.5440611111111,108.12042719523112L381.39549555555556,108.50313828786216L383.24693,107.48252557118735L385.0983644444444,102.50698254903159L386.9497988888889,101.3587745666504L388.8012333333333,108.75832881927491L390.65266777777776,105.18610960642496L392.5041022222222,101.3587745666504L394.35553666666664,106.71702868143717L396.2069711111111,106.0791270573934L398.05840555555557,107.73764139811198L399.90984,101.10358403523765L401.76127444444444,101.99660148620606L403.6127088888889,97.27624899546305L405.46414333333337,98.5519775390625L407.3155777777778,96.76594263712565L409.1670122222222,97.5313648223877L411.01844666666665,103.91030635833741L412.8698811111111,98.93476333618165L414.7213155555555,95.61773465474448L416.57275,94.72464249928794L418.42418444444445,98.80716807047526L420.2756188888889,88.60089149475098L422.1270533333334,88.34570096333823L423.97848777777773,90.0042153040568L425.8299222222222,87.19749298095704L427.6813566666666,91.6627296447754L429.53279111111107,92.55582180023194L431.38422555555553,85.02867228190104L433.23566,94.59704723358155L435.08709444444446,93.06612815856934L436.9385288888889,90.76971219380698L438.7899633333333,85.66657390594483L440.64139777777774,83.37015794118247L442.4928322222222,77.88423385620118L444.34426666666667,88.09058513641358L446.1957011111111,80.43584035237632L448.04713555555554,84.1355801264445L449.89857,82.73225631713868L451.75000444444447,87.32508824666343L453.6014388888888,86.30447552998862L455.4528733333333,83.62527376810709L457.30430777777775,79.54274819691977L459.1557422222222,85.02867228190104L461.0071766666667,80.30824508666993L462.8586111111111,77.50152276357016L464.71004555555555,80.05312925974528L466.56148,75.20510679880778L468.41291444444437,81.71164360046387L470.26434888888883,73.16380666097007L472.1157833333333,68.69856999715171L473.96721777777776,73.16380666097007L475.8186522222222,70.86739069620768L477.6700866666667,71.63288758595786L479.52152111111116,73.0362860997518L481.3729555555555,73.92930355072022L483.22438999999997,73.29140192667643L485.0758244444444,69.71918271382651L486.92725888888884,67.80555254618326L488.7786933333333,66.1470382054647L490.6301277777778,69.20887635548911L492.48156222222224,68.69856999715171L494.3329966666667,63.97814280192057L496.18443111111105,62.192107899983746L498.0358655555555,60.661114120483404L499.8873,67.6779572804769L501.73873444444445,66.40215403238932L503.59016888888885,61.2990157445272L505.4416033333333,67.55036201477051L507.2930377777778,62.31962846120201L509.14447222222225,62.06451263427735L510.9959066666666,60.533518854777014L512.8473411111111,61.93691736857096L514.6987755555555,60.7887093861898L516.55021,57.344085439046246L518.4016444444444,56.833779080708844L520.2530788888889,54.15457731882731L522.1045133333333,54.920074208577496L523.9559477777779,56.9613743464152L525.8073822222221,57.85439179738365L527.6588166666667,53.51675039927164L529.5102511111111,55.55797583262125L531.3616855555555,56.451067988077796L533.21312,52.75125350952149L535.0645544444444,50.70995337168375L536.9159888888889,51.47545026143394L538.7674233333332,50.96514390309654L540.6188577777777,50.96514390309654L542.4702922222222,51.347854995727545L544.3217266666667,49.944531186421735L546.1731611111111,46.37231197357178L548.0245955555556,49.43422482808433L549.87603,48.92391846974693L551.7274644444444,50.32724227905274L553.5788988888888,48.28601684570313L555.4303333333332,47.77571048736573L557.2817677777778,47.2653294245402L559.1332022222222,46.62750250498458L560.9846366666667,42.54497693379722L562.8360711111111,44.458607101440435L564.6875055555556,43.94830074310303L566.53894,44.841392898559576L568.3903744444444,42.03467057545982L570.2418088888888,45.479294522603375L572.0932433333332,43.56558965047203L573.9446777777778,43.18287855784102L575.7961122222222,41.77948004404708L577.6475466666667,43.693184916178424L579.4989811111111,40.631272061665875L581.3504155555556,40.50367679595948L583.2018499999999,37.18664811452232L585.0532844444444,38.07966556549073L586.9047188888889,40.50367679595948L588.7561533333333,40.37608153025313L590.6075877777778,38.46245136260987L592.4590222222222,37.82454973856612L594.3104566666667,36.803937021891315L596.161891111111,37.441838645935064L598.0133255555555,38.07966556549073L599.8647599999999,37.059052848815924L601.7161944444445,37.569359207153326L603.5676288888889,36.67634175618492L605.4190633333333,36.54874649047852L607.2704977777778,32.84893201192222L609.1219322222222,36.93145758310958L610.9733666666666,34.25233052571617L612.824801111111,35.017827415466314L614.6762355555555,34.12473526000977L616.52767,32.593816184997564L618.3791044444445,32.593816184997564L620.2305388888889,32.593816184997564L622.0819733333334,35.91084486643477L623.9334077777778,31.318012936910016L625.7848422222222,31.700724029541025L627.6362766666666,32.33862565358482L629.487711111111,32.593816184997564L631.3391455555555,31.44560820261641L633.19058,30.935301844279007L635.0420144444445,32.08350982666016L636.8934488888889,30.935301844279007L638.7448833333334,30.424995485941604L640.5963177777777,32.84893201192222L642.4477522222222,31.95591456095381L644.2991866666666,31.190417671203623L646.150621111111,30.935301844279007L648.0020555555556,31.06289710998536L649.85349,31.44560820261641L651.7049244444445,31.318012936910016L653.5563588888889,30.68011131286622L655.4077933333333,29.78709386189781L657.2592277777777,31.573203468322763L659.1106622222222,29.404308064778668L660.9620966666666,31.190417671203623L662.813531111111,28.894001706441266L664.6649655555556,29.53190333048506L666.5164,29.276787503560406L668.3678344444444,29.276787503560406L670.2192688888888,30.552516047159866L672.0707033333333,28.63888587951661L673.9221377777777,28.511290613810257L675.7735722222222,29.404308064778668L677.6250066666666,29.276787503560406L679.4764411111112,29.53190333048506L681.3278755555556,28.383695348103863L683.17931,28.383695348103863L685.0307444444444,27.490677897135452L686.8821788888888,28.25610008239747L688.7336133333333,29.659498596191415L690.5850477777777,29.02159697214766L692.4364822222223,27.87338898976646L694.2879166666667,27.87338898976646L696.1393511111112,28.63888587951661L697.9907855555555,27.490677897135452L699.84222,28.383695348103863L701.6936544444444,27.618273162841806L703.5450888888888,27.745793724060068L705.3965233333333,28.12857952117921L707.2479577777777,28.894001706441266L709.0993922222223,28.511290613810257L710.9508266666667,27.36308263142906L712.8022611111111,27.87338898976646L714.6536955555555,28.000984255472854L716.50513,26.852776273091656L718.3565644444444,27.618273162841806L720.2079988888888,26.852776273091656L722.0594333333333,26.59758574167891L723.9108677777778,27.490677897135452L725.7623022222222,26.725181007385263L727.6137366666666,27.87338898976646L729.4651711111111,27.235487365722665L731.3166055555555,27.36308263142906L733.16804,28.12857952117921L735.0194744444444,27.235487365722665L736.8709088888888,28.511290613810257L738.7223433333334,27.618273162841806L740.5737777777778,27.745793724060068" style="fill: none;" fill="none"></path></g></g></g></g></g></g><g transform="translate(53, 376)" clip-path="url(#clip_1)"><clipPath id="clip_1"><rect width="833" height="24"></rect></clipPath><g><g><line x1="0" y1="0" x2="0" y2="5" style="visibility: inherit;" fill="rgb(0, 0, 0)" stroke="rgb(204, 204, 204)" stroke-width="1px"></line><line x1="92.57172222222222" y1="0" x2="92.57172222222222" y2="5" style="visibility: inherit;" fill="rgb(0, 0, 0)" stroke="rgb(204, 204, 204)" stroke-width="1px"></line><line x1="185.14344444444444" y1="0" x2="185.14344444444444" y2="5" style="visibility: inherit;" fill="rgb(0, 0, 0)" stroke="rgb(204, 204, 204)" stroke-width="1px"></line><line x1="277.7151666666666" y1="0" x2="277.7151666666666" y2="5" style="visibility: inherit;" fill="rgb(0, 0, 0)" stroke="rgb(204, 204, 204)" stroke-width="1px"></line><line x1="370.2868888888889" y1="0" x2="370.2868888888889" y2="5" style="visibility: inherit;" fill="rgb(0, 0, 0)" stroke="rgb(204, 204, 204)" stroke-width="1px"></line><line x1="462.8586111111111" y1="0" x2="462.8586111111111" y2="5" style="visibility: inherit;" fill="rgb(0, 0, 0)" stroke="rgb(204, 204, 204)" stroke-width="1px"></line><line x1="555.4303333333332" y1="0" x2="555.4303333333332" y2="5" style="visibility: inherit;" fill="rgb(0, 0, 0)" stroke="rgb(204, 204, 204)" stroke-width="1px"></line><line x1="648.0020555555556" y1="0" x2="648.0020555555556" y2="5" style="visibility: inherit;" fill="rgb(0, 0, 0)" stroke="rgb(204, 204, 204)" stroke-width="1px"></line><line x1="740.5737777777778" y1="0" x2="740.5737777777778" y2="5" style="visibility: inherit;" fill="rgb(0, 0, 0)" stroke="rgb(204, 204, 204)" stroke-width="1px"></line><line x1="833.1455" y1="0" x2="833.1455" y2="5" style="visibility: inherit;" fill="rgb(0, 0, 0)" stroke="rgb(204, 204, 204)" stroke-width="1px"></line></g><g transform="translate(0, 8)"><text x="0" y="0" dx="0em" dy="0.95em" style="text-anchor: middle; visibility: hidden; font-family: Roboto, sans-serif; font-size: 12px; font-weight: 200;" fill="rgb(33, 33, 33)" stroke="none" stroke-width="1px">-50</text><text x="92.57172222222222" y="0" dx="0em" dy="0.95em" style="text-anchor: middle; visibility: inherit; font-family: Roboto, sans-serif; font-size: 12px; font-weight: 200;" fill="rgb(33, 33, 33)" stroke="none" stroke-width="1px">0</text><text x="185.14344444444444" y="0" dx="0em" dy="0.95em" style="text-anchor: middle; visibility: inherit; font-family: Roboto, sans-serif; font-size: 12px; font-weight: 200;" fill="rgb(33, 33, 33)" stroke="none" stroke-width="1px">50</text><text x="277.7151666666666" y="0" dx="0em" dy="0.95em" style="text-anchor: middle; visibility: inherit; font-family: Roboto, sans-serif; font-size: 12px; font-weight: 200;" fill="rgb(33, 33, 33)" stroke="none" stroke-width="1px">100</text><text x="370.2868888888889" y="0" dx="0em" dy="0.95em" style="text-anchor: middle; visibility: inherit; font-family: Roboto, sans-serif; font-size: 12px; font-weight: 200;" fill="rgb(33, 33, 33)" stroke="none" stroke-width="1px">150</text><text x="462.8586111111111" y="0" dx="0em" dy="0.95em" style="text-anchor: middle; visibility: inherit; font-family: Roboto, sans-serif; font-size: 12px; font-weight: 200;" fill="rgb(33, 33, 33)" stroke="none" stroke-width="1px">200</text><text x="555.4303333333332" y="0" dx="0em" dy="0.95em" style="text-anchor: middle; visibility: inherit; font-family: Roboto, sans-serif; font-size: 12px; font-weight: 200;" fill="rgb(33, 33, 33)" stroke="none" stroke-width="1px">250</text><text x="648.0020555555556" y="0" dx="0em" dy="0.95em" style="text-anchor: middle; visibility: inherit; font-family: Roboto, sans-serif; font-size: 12px; font-weight: 200;" fill="rgb(33, 33, 33)" stroke="none" stroke-width="1px">300</text><text x="740.5737777777778" y="0" dx="0em" dy="0.95em" style="text-anchor: middle; visibility: inherit; font-family: Roboto, sans-serif; font-size: 12px; font-weight: 200;" fill="rgb(33, 33, 33)" stroke="none" stroke-width="1px">350</text><text x="833.1455" y="0" dx="0em" dy="0.95em" style="text-anchor: middle; visibility: hidden; font-family: Roboto, sans-serif; font-size: 12px; font-weight: 200;" fill="rgb(33, 33, 33)" stroke="none" stroke-width="1px">400</text></g><line x1="0" y1="0" x2="833.1455" y2="0" fill="rgb(0, 0, 0)" stroke="rgb(204, 204, 204)" stroke-width="1px"></line></g></g></g></g></svg>