<svg viewBox="0 0 886.3333740234375 400" xmlns="http://www.w3.org/2000/svg"><g><g><g><g><g><line x1="42.390625" y1="376" x2="37.390625" y2="376" style="visibility: inherit;" fill="rgb(0, 0, 0)" stroke="rgb(204, 204, 204)" stroke-width="1px"></line><line x1="42.390625" y1="334.22222222222223" x2="37.390625" y2="334.22222222222223" style="visibility: inherit;" fill="rgb(0, 0, 0)" stroke="rgb(204, 204, 204)" stroke-width="1px"></line><line x1="42.390625" y1="292.44444444444446" x2="37.390625" y2="292.44444444444446" style="visibility: inherit;" fill="rgb(0, 0, 0)" stroke="rgb(204, 204, 204)" stroke-width="1px"></line><line x1="42.390625" y1="250.66666666666669" x2="37.390625" y2="250.66666666666669" style="visibility: inherit;" fill="rgb(0, 0, 0)" stroke="rgb(204, 204, 204)" stroke-width="1px"></line><line x1="42.390625" y1="208.88888888888889" x2="37.390625" y2="208.88888888888889" style="visibility: inherit;" fill="rgb(0, 0, 0)" stroke="rgb(204, 204, 204)" stroke-width="1px"></line><line x1="42.390625" y1="167.1111111111112" x2="37.390625" y2="167.1111111111112" style="visibility: inherit;" fill="rgb(0, 0, 0)" stroke="rgb(204, 204, 204)" stroke-width="1px"></line><line x1="42.390625" y1="125.33333333333334" x2="37.390625" y2="125.33333333333334" style="visibility: inherit;" fill="rgb(0, 0, 0)" stroke="rgb(204, 204, 204)" stroke-width="1px"></line><line x1="42.390625" y1="83.55555555555563" x2="37.390625" y2="83.55555555555563" style="visibility: inherit;" fill="rgb(0, 0, 0)" stroke="rgb(204, 204, 204)" stroke-width="1px"></line><line x1="42.390625" y1="41.7777777777778" x2="37.390625" y2="41.7777777777778" style="visibility: inherit;" fill="rgb(0, 0, 0)" stroke="rgb(204, 204, 204)" stroke-width="1px"></line><line x1="42.390625" y1="0" x2="37.390625" y2="0" style="visibility: inherit;" fill="rgb(0, 0, 0)" stroke="rgb(204, 204, 204)" stroke-width="1px"></line></g><g transform="translate(32.390625, 0)"><text x="0" y="376" dx="0em" dy="0.3em" style="text-anchor: end; visibility: hidden; font-family: Roboto, sans-serif; font-size: 12px; font-weight: 200;" fill="rgb(33, 33, 33)" stroke="none" stroke-width="1px">0.2</text><text x="0" y="334.22222222222223" dx="0em" dy="0.3em" style="text-anchor: end; visibility: inherit; font-family: Roboto, sans-serif; font-size: 12px; font-weight: 200;" fill="rgb(33, 33, 33)" stroke="none" stroke-width="1px">0.3</text><text x="0" y="292.44444444444446" dx="0em" dy="0.3em" style="text-anchor: end; visibility: inherit; font-family: Roboto, sans-serif; font-size: 12px; font-weight: 200;" fill="rgb(33, 33, 33)" stroke="none" stroke-width="1px">0.4</text><text x="0" y="250.66666666666669" dx="0em" dy="0.3em" style="text-anchor: end; visibility: inherit; font-family: Roboto, sans-serif; font-size: 12px; font-weight: 200;" fill="rgb(33, 33, 33)" stroke="none" stroke-width="1px">0.5</text><text x="0" y="208.88888888888889" dx="0em" dy="0.3em" style="text-anchor: end; visibility: inherit; font-family: Roboto, sans-serif; font-size: 12px; font-weight: 200;" fill="rgb(33, 33, 33)" stroke="none" stroke-width="1px">0.6</text><text x="0" y="167.1111111111112" dx="0em" dy="0.3em" style="text-anchor: end; visibility: inherit; font-family: Roboto, sans-serif; font-size: 12px; font-weight: 200;" fill="rgb(33, 33, 33)" stroke="none" stroke-width="1px">0.7</text><text x="0" y="125.33333333333334" dx="0em" dy="0.3em" style="text-anchor: end; visibility: inherit; font-family: Roboto, sans-serif; font-size: 12px; font-weight: 200;" fill="rgb(33, 33, 33)" stroke="none" stroke-width="1px">0.8</text><text x="0" y="83.55555555555563" dx="0em" dy="0.3em" style="text-anchor: end; visibility: inherit; font-family: Roboto, sans-serif; font-size: 12px; font-weight: 200;" fill="rgb(33, 33, 33)" stroke="none" stroke-width="1px">0.9</text><text x="0" y="41.7777777777778" dx="0em" dy="0.3em" style="text-anchor: end; visibility: inherit; font-family: Roboto, sans-serif; font-size: 12px; font-weight: 200;" fill="rgb(33, 33, 33)" stroke="none" stroke-width="1px">1</text><text x="0" y="0" dx="0em" dy="0.3em" style="text-anchor: end; visibility: hidden; font-family: Roboto, sans-serif; font-size: 12px; font-weight: 200;" fill="rgb(33, 33, 33)" stroke="none" stroke-width="1px">1.1</text></g><line x1="42.390625" y1="0" x2="42.390625" y2="376" fill="rgb(0, 0, 0)" stroke="rgb(204, 204, 204)" stroke-width="1px"></line></g></g><g transform="translate(42, 0)" clip-path="url(#clip_0)"><clipPath id="clip_0"><rect width="843" height="376"></rect></clipPath><g><g><g><line x1="0" y1="0" x2="0" y2="376" fill="rgb(0, 0, 0)" stroke="rgb(66, 66, 66)" stroke-width="1px" opacity="0.25"></line><line x1="93.77137499999999" y1="0" x2="93.77137499999999" y2="376" fill="rgb(0, 0, 0)" stroke="rgb(66, 66, 66)" stroke-width="1px" opacity="0.25"></line><line x1="187.54274999999998" y1="0" x2="187.54274999999998" y2="376" fill="rgb(0, 0, 0)" stroke="rgb(66, 66, 66)" stroke-width="1px" opacity="0.25"></line><line x1="281.314125" y1="0" x2="281.314125" y2="376" fill="rgb(0, 0, 0)" stroke="rgb(66, 66, 66)" stroke-width="1px" opacity="0.25"></line><line x1="375.08549999999997" y1="0" x2="375.08549999999997" y2="376" fill="rgb(0, 0, 0)" stroke="rgb(66, 66, 66)" stroke-width="1px" opacity="0.25"></line><line x1="468.856875" y1="0" x2="468.856875" y2="376" fill="rgb(0, 0, 0)" stroke="rgb(66, 66, 66)" stroke-width="1px" opacity="0.25"></line><line x1="562.62825" y1="0" x2="562.62825" y2="376" fill="rgb(0, 0, 0)" stroke="rgb(66, 66, 66)" stroke-width="1px" opacity="0.25"></line><line x1="656.399625" y1="0" x2="656.399625" y2="376" fill="rgb(0, 0, 0)" stroke="rgb(66, 66, 66)" stroke-width="1px" opacity="0.25"></line><line x1="750.1709999999999" y1="0" x2="750.1709999999999" y2="376" fill="rgb(0, 0, 0)" stroke="rgb(66, 66, 66)" stroke-width="1px" opacity="0.25"></line><line x1="843.942375" y1="0" x2="843.942375" y2="376" fill="rgb(0, 0, 0)" stroke="rgb(66, 66, 66)" stroke-width="1px" opacity="0.25"></line></g><g><line x1="0" y1="376" x2="843.942375" y2="376" fill="rgb(0, 0, 0)" stroke="rgb(66, 66, 66)" stroke-width="1px" opacity="0.25"></line><line x1="0" y1="334.22222222222223" x2="843.942375" y2="334.22222222222223" fill="rgb(0, 0, 0)" stroke="rgb(66, 66, 66)" stroke-width="1px" opacity="0.25"></line><line x1="0" y1="292.44444444444446" x2="843.942375" y2="292.44444444444446" fill="rgb(0, 0, 0)" stroke="rgb(66, 66, 66)" stroke-width="1px" opacity="0.25"></line><line x1="0" y1="250.66666666666669" x2="843.942375" y2="250.66666666666669" fill="rgb(0, 0, 0)" stroke="rgb(66, 66, 66)" stroke-width="1px" opacity="0.25"></line><line x1="0" y1="208.88888888888889" x2="843.942375" y2="208.88888888888889" fill="rgb(0, 0, 0)" stroke="rgb(66, 66, 66)" stroke-width="1px" opacity="0.25"></line><line x1="0" y1="167.1111111111112" x2="843.942375" y2="167.1111111111112" fill="rgb(0, 0, 0)" stroke="rgb(66, 66, 66)" stroke-width="1px" opacity="0.25"></line><line x1="0" y1="125.33333333333334" x2="843.942375" y2="125.33333333333334" fill="rgb(0, 0, 0)" stroke="rgb(66, 66, 66)" stroke-width="1px" opacity="0.25"></line><line x1="0" y1="83.55555555555563" x2="843.942375" y2="83.55555555555563" fill="rgb(0, 0, 0)" stroke="rgb(66, 66, 66)" stroke-width="1px" opacity="0.25"></line><line x1="0" y1="41.7777777777778" x2="843.942375" y2="41.7777777777778" fill="rgb(0, 0, 0)" stroke="rgb(66, 66, 66)" stroke-width="1px" opacity="0.25"></line><line x1="0" y1="0" x2="843.942375" y2="0" fill="rgb(0, 0, 0)" stroke="rgb(66, 66, 66)" stroke-width="1px" opacity="0.25"></line></g></g></g><g><g><line x1="0" y1="459.5555555555556" x2="843.942375" y2="459.5555555555556" fill="rgb(0, 0, 0)" stroke="rgb(153, 153, 153)" stroke-width="1.5px"></line></g></g><g><g><line x1="93.77137499999999" y1="0" x2="93.77137499999999" y2="376" fill="rgb(0, 0, 0)" stroke="rgb(153, 153, 153)" stroke-width="1.5px"></line></g></g><g><g><g><g><g><path stroke="rgb(255, 112, 67)" stroke-width="2px" d="M95.64680249999999,351.2837511698405L97.52223,298.1791086395582L99.3976575,266.32240162739134L101.273085,244.76334091280808L103.1485125,228.54699885901263L105.02394,215.1672895322667L106.89936750000001,205.34543707860962L108.774795,196.5517112402568L110.65022250000001,190.04782363019072L112.52565,183.3467665706571L114.4010775,176.72301277917975L116.276505,172.44026718569216L118.1519325,165.26072081710882L120.02736,162.62733202073545L121.90278749999999,159.61907021195537L123.778215,156.45378776789153L125.65364249999999,153.9597242122659L127.52906999999999,150.2179404060556L129.4044975,147.63288837617569L131.279925,144.95921803744892L133.1553525,143.03187977111486L135.03078,140.82083194699058L136.9062075,139.39216478071958L138.781635,137.49732144511725L140.6570625,135.23772906892L142.53249,134.90261213351127L144.4079175,133.27265319052697L146.283345,132.34571703004013L148.1587725,130.30963932194393L150.0342,128.64572258858541L151.9096275,126.25251031802131L153.785055,125.17380012826382L155.6604825,124.37347966439243L157.53591,125.10102992424413L159.4113375,123.13908776945212L161.286765,121.07737154672368L163.1621925,119.48312488350003L165.03762,117.79512034449996L166.9130475,116.23798088107375L168.788475,116.91969473377911L170.6639025,115.93386076274882L172.53933,115.24030408921931L174.41475749999998,113.49734865175876L176.290185,112.31549369402438L178.16561249999998,111.33420736777472L180.04104,110.98358351962855L181.91646749999998,109.68453572506401L183.79189499999998,108.15664776217966L185.66732249999998,108.56673641766223L187.54274999999998,107.57102172763727L189.41817749999998,107.68803675620109L191.29360499999999,107.6391668192778L193.1690325,105.56858954197533L195.04446,105.31285040928057L196.9198875,104.35990953722089L198.795315,102.76752233671176L200.6707425,101.81209001640674L202.54617,100.35427968190871L204.4215975,100.78940221228932L206.297025,100.48913624619685L208.1724525,100.93835699864046L210.04788,100.00014697099414L211.9233075,99.84547600167473L213.79873500000002,99.12328312738562L215.67416249999997,98.45181945528891L217.54959,97.75976515882328L219.4250175,97.00431838145391L221.30044500000002,96.29589962601322L223.17587249999997,95.93888922052719L225.0513,95.31642792996712L226.9267275,94.36459896921616L228.802155,94.49092277264306L230.67758249999997,94.31156636568002L232.55301,94.44210046902558L234.4284375,93.05751780230291L236.303865,92.44790344769851L238.17929249999997,93.06874206861907L240.05472,92.42061260329977L241.9301475,91.98070677842405L243.80557499999998,91.76779142918288L245.68100249999998,91.77613387579308L247.55643,90.76050670588766L249.4318575,90.62742629899104L251.30728499999998,89.85014691437732L253.18271249999998,89.67295537681645L255.05813999999998,88.5119923728184L256.9335675,89.02315704953195L258.808995,89.21077690149922L260.6844225,88.93211642810388L262.55985,88.76492014406665L264.4352775,88.57954882377186L266.310705,88.28120622975567L268.1861325,87.8470400237285L270.06156,86.88911912023482L271.9369875,87.55612450084105L273.812415,87.00374589970984L275.6878425,85.88983404868279L277.56327,85.5787038790524L279.4386975,86.17451046762241L281.314125,84.47372640352538L283.1895525,83.84449831024136L285.06498,83.2968543545259L286.9404075,83.39352576986074L288.815835,83.68967656658496L290.6912625,83.27200215611036L292.56669,82.63015516465148L294.4421175,83.0275316601245L296.317545,83.16389130544155L298.1929725,82.70137034980682L300.0684,81.59034494039356L301.94382749999994,82.01240318039554L303.819255,80.98985479750601L305.6946825,80.54643286751732L307.57011,80.11027260977905L309.44553749999994,80.32487235018277L311.320965,80.1474433991234L313.1963925,79.66674642480928L315.07182,79.46338179009342L316.94724749999995,80.00477870614972L318.822675,79.29197151581769L320.6981025,78.55809840631684L322.57353,78.40695063382371L324.44895749999995,78.3843127787046L326.324385,77.63927352096897L328.1998125,77.00513016448843L330.07524,77.20300629761344L331.95066749999995,77.01554318218675L333.826095,77.0391470084874L335.7015225,77.85280669671029L337.57695,77.04820648065913L339.45237749999995,76.87163514633008L341.327805,76.10227664884675L343.2032325,76.04891659762514L345.07866,76.27206121650967L346.95408749999996,75.28324909800206L348.82951499999996,74.45181387937413L350.7049425,75.02461353175315L352.58037,74.65385944120898L354.45579749999996,73.5978941508501L356.33122499999996,74.25711100561963L358.2066525,73.78510287826053L360.08208,73.4338571540668L361.95750749999996,73.9545563036163L363.83293499999996,73.39944751372364L365.7083625,73.89989507582044L367.58378999999996,73.14551553161697L369.45921749999997,72.70989054659069L371.33464499999997,72.78872975506488L373.2100725,71.93447959633858L375.08549999999997,71.2007842950753L376.96092749999997,72.05337310390067L378.83635499999997,72.2247121897059L380.7117825,71.1708013077607L382.58720999999997,70.28329412897615L384.46263749999997,69.95492232563873L386.338065,69.80892738932039L388.21349250000003,69.5852487319728L390.08892,68.78763580127679L391.9643475,68.15597364520835L393.839775,68.76358358525057L395.71520250000003,68.65185365422931L397.59063,68.07450435697982L399.4660575,68.44252866060177L401.341485,68.57828969290246L403.2169125,68.88088155771193L405.09234,68.17789569488116L406.9677675,67.87517317064508L408.843195,67.06415932400432L410.7186225,66.74764815516654L412.59405,66.31960346693893L414.4694775,66.16483294537066L416.344905,66.92249617055629L418.2203325,66.71368836938026L420.09576,66.1461331978163L421.9711875,65.68652114081709L423.846615,65.95509064944251L425.7220425,64.7553954778546L427.59747000000004,64.00155297071343L429.47289749999993,63.77038271185788L431.34832499999993,63.257450913464524L433.2237525,63.54505672293771L435.09918,63.83669916268248L436.9746075,63.00806469075182L438.850035,63.786667334484235L440.7254625,64.0497063773887L442.60089000000005,63.9013410078297L444.47631749999994,63.13190334771269L446.35174499999994,62.36405195634082L448.22717249999994,61.17188457685356L450.1026,61.81743098652283L451.9780275,61.18412619445279L453.853455,61.29744195575316L455.7288825,61.178321571292614L457.60431,61.71922693121965L459.47973749999994,61.90768845161917L461.35516499999994,61.663538462274715L463.23059249999994,60.97271172584302L465.10602,61.289672228648165L466.9814475,60.850458237633816L468.856875,60.21270019994523L470.7323025,60.17025957682206L472.60773,59.498392208156545L474.48315749999995,59.96281002717799L476.35858499999995,59.101749126658376L478.23401249999995,57.98974769783748L480.10944,57.91791172905405L481.9848675,57.56862135248233L483.860295,57.46111337850604L485.7357225,57.58372839595941L487.61114999999995,57.77636639989388L489.48657749999995,57.80689565238208L491.36200499999995,57.348917308828376L493.23743249999995,56.81897961367706L495.11286,56.279881751157106L496.9882875,56.364668120314995L498.863715,56.347499094031434L500.7391425,55.70780738556382L502.61456999999996,55.085854373558334L504.48999749999996,54.508550062421705L506.36542499999996,55.09774656373881L508.24085249999996,55.281157364784114L510.11627999999996,54.710785407029675L511.9917075,55.202075068409414L513.867135,54.79941772476149L515.7425625000001,54.523807874982815L517.61799,54.15430946118212L519.4934175,54.11973021474097L521.368845,53.94588826922545L523.2442725,53.38229990896367L525.1197,52.97610604502825L526.9951275,52.37516282508284L528.870555,52.116663145082256L530.7459825000001,52.233736688793684L532.62141,52.42304980848291L534.4968375,51.95828549388159L536.372265,51.95159029623403L538.2476925,52.06665213170631L540.12312,51.642380635848866L541.9985475,51.11564438662268L543.873975,50.90166888905372L545.7494025,50.70524274273403L547.62483,50.58738705494213L549.5002575,50.5677017879512L551.375685,50.3687807865159L553.2511125,49.77313229060805L555.12654,49.82399824033163L557.0019675,49.78647696238753L558.877395,49.951074036861755L560.7528225,49.777668890433056L562.62825,49.60558495479754L564.5036775,49.434283785039405L566.379105,49.24645949391052L568.2545325,48.58942817640819L570.12996,48.45036007492581L572.0053875,48.29887836625821L573.880815,48.327068295118394L575.7562425,47.96975260935465L577.63167,48.214646390848756L579.5070975,48.106422010127716L581.382525,47.99045923601101L583.2579525,47.73376176970183L585.13338,47.834903939533774L587.0088075,47.48733419416459L588.884235,47.26177964484901L590.7596625,46.684176424401215L592.63509,46.45668348559504L594.5105175,46.6433892197072L596.385945,46.738399958080315L598.2613725,46.54025571208513L600.1368,46.336315614615465L602.0122275,46.07786986057703L603.8876549999999,46.007855958026454L605.7630825,46.0508912057702L607.63851,45.94063065885987L609.5139375,45.94251517849192L611.389365,45.824576896808765L613.2647925,45.736801225704625L615.14022,45.19082722590135L617.0156475,45.407579568844326L618.8910749999999,45.18041403362435L620.7665025,45.146180964459006L622.64193,45.0065621688989L624.5173575,44.71866834822795L626.392785,44.54593205582529L628.2682125,44.44229028038383L630.14364,44.822375705977166L632.0190675,44.4380493707299L633.8944949999999,44.258481715265575L635.7699224999999,44.23579467185958L637.64535,44.25620785000441L639.5207775,44.11536135924039L641.396205,43.9628126170037L643.2716325,44.02437776931244L645.14706,43.90822246304695L647.0224875,43.77048843150927L648.8979149999999,44.01103954938413L650.7733424999999,44.036301226646536L652.64877,43.94939198103731L654.5241975,43.86323099008178L656.399625,43.828547097602694L658.2750525,43.85876490779935L660.15048,43.85988289182325L662.0259075,43.77550013236498L663.9013349999999,43.60580148322757L665.7767624999999,43.7421302412685L667.65219,43.53474144228716L669.5276175,43.64845611042167L671.403045,43.41049611600077L673.2784725,43.3527736692207L675.1539,43.28412475756272L677.0293274999999,43.24293541056794L678.9047549999999,43.388318941517696L680.7801824999999,43.22039837106843L682.65561,43.102633326704655L684.5310375,43.15104329354889L686.406465,43.16308653215956L688.2818925,43.204327918915965L690.15732,43.07597835331903L692.0327474999999,42.998968613960876L693.9081749999999,42.83369377688348L695.7836024999999,42.83658516600529L697.6590299999999,43.02543980131765L699.5344575,43.053699032632544L701.409885,42.917560173770596L703.2853125,42.835876858453496L705.16074,42.888933121229805L707.0361674999999,42.767672481244794L708.9115949999999,42.813985090716336L710.7870224999999,42.739716365031L712.6624499999999,42.7121578711155L714.5378775,42.74666088104873L716.413305,42.869418978376935L718.2887325,42.89204569108979L720.16416,42.75252732106662L722.0395874999999,42.73685714683114L723.9150149999999,42.744467744383954L725.7904424999999,42.59593970526483L727.6658699999999,42.608889133760066L729.5412975,42.51459253889053L731.416725,42.42398917778036L733.2921525,42.48870611517514L735.1675799999999,42.42547002564537L737.0430074999999,42.540622769578334L738.9184349999999,42.52466086606554L740.7938624999999,42.532096426052085L742.6692899999999,42.638624014010674L744.5447174999999,42.583461612725L746.420145,42.72047127169867L748.2955725,42.683608073620356L750.1709999999999,42.6784928962691" style="fill: none;" fill="none"></path></g></g></g></g><g opacity="0.2"><g><g><g><path stroke="rgb(255, 112, 67)" stroke-width="2px" d="M95.64680249999999,351.2837511698405L97.52223,266.3163231213888L99.3976575,235.73996289571133L101.273085,219.40988551245798L103.1485125,207.37494267357724L105.02394,196.6583348380195L106.89936750000001,191.30003092024066L108.774795,183.73037454817035L110.65022250000001,180.4558527204726L112.52565,173.39647780524362L114.4010775,166.84745905134412L116.276505,166.03945530785458L118.1519325,154.51484372880725L120.02736,158.68240790896945L121.90278749999999,155.11021359761557L123.778215,151.70809650421143L125.65364249999999,150.21968428293866L127.52906999999999,144.60621473524304L129.4044975,143.75570413801404L131.279925,140.94895691341827L133.1553525,140.14097807142474L135.03078,137.50433296627472L136.9062075,137.249192237854L138.781635,134.65507888793945L140.6570625,131.8483565648397L142.53249,134.39993815951877L144.4079175,130.82771894666888L146.283345,130.9553142123752L148.1587725,127.25552463531494L150.0342,126.14984840816925L151.9096275,122.66269270579023L153.785055,123.5557350582547L155.6604825,123.17299906412764L157.53591,126.19235526190866L159.4113375,120.19617462158203L161.286765,117.98479726579454L163.1621925,117.09175491333008L165.03762,115.26311355166966L166.9130475,113.90227169460724L168.788475,117.94226551055908L170.6639025,114.45510980818011L172.53933,114.19996907975938L174.41475749999998,110.88291549682617L176.290185,110.54271125793457L178.16561249999998,109.86227787865535L180.04104,110.45764774746368L181.91646749999998,107.7359640333388L183.79189499999998,105.86481581793893L185.66732249999998,109.18186940087215L187.54274999999998,106.07744969262019L189.41817749999998,107.86355929904515L191.29360499999999,107.565861913893L193.1690325,102.46272362603084L195.04446,104.929241710239L196.9198875,102.93049822913278L198.795315,100.37894153594975L200.6707425,100.37894153594975L202.54617,98.16756418016222L204.4215975,101.44208600785997L206.297025,100.03873729705815L208.1724525,101.61218812730577L210.04788,98.59283192952475L211.9233075,99.61346954769562L213.79873500000002,98.03999381595189L215.67416249999997,97.4446239471436L217.54959,96.72168371412494L219.4250175,95.87114821539987L221.30044500000002,95.23327149285213L223.17587249999997,95.40337361229793L225.0513,94.38273599412706L226.9267275,92.93685552808978L228.802155,94.68040847778325L230.67758249999997,94.04253175523546L232.55301,94.63790162404379L234.4284375,90.98064380221898L236.303865,91.53348191579184L238.17929249999997,94.00000000000004L240.05472,91.44841840532091L241.9301475,91.32084804111058L243.80557499999998,91.44841840532091L245.68100249999998,91.78864754570857L247.55643,89.23706595102949L249.4318575,90.4278056886461L251.30728499999998,88.68422783745662L253.18271249999998,89.4071680704753L255.05813999999998,86.77054786682133L256.9335675,89.78990406460235L258.808995,89.49220667945016L260.6844225,88.51412571801082L262.55985,88.51412571801082L264.4352775,88.30149184332956L266.310705,87.83369233873155L268.1861325,87.1957907146878L270.06156,85.45223776499434L271.9369875,88.55663257175023L273.812415,86.175177998013L275.6878425,84.2189662721422L277.56327,85.11200862460667L279.4386975,87.06822035047747L281.314125,81.92255030737985L283.1895525,82.90065617031524L285.06498,82.47538842095271L286.9404075,83.53853289286299L288.815835,84.13390276167132L290.6912625,82.64549054039851L292.56669,81.66738467746312L294.4421175,83.62359640333392L296.317545,83.36843077341719L298.1929725,82.00758891635472L300.0684,79.92380682627363L301.94382749999994,82.64549054039851L303.819255,79.45603222317169L305.6946825,79.88129997253422L307.57011,79.45603222317169L309.44553749999994,80.64677196078831L311.320965,79.88129997253422L313.1963925,78.94570096333823L315.07182,79.1583348380195L316.94724749999995,80.81687408023411L318.822675,78.22276073031956L320.6981025,77.45728874206547L322.57353,78.18022897508413L324.44895749999995,78.35035599602595L326.324385,76.52171463436554L328.1998125,76.05391512976755L330.07524,77.49982049730093L331.95066749999995,76.73434850904681L333.826095,77.07455274793841L335.7015225,79.07329622904463L337.57695,75.84130615658233L339.45237749999995,76.60677814483647L341.327805,74.94823890262181L343.2032325,75.96887652079268L345.07866,76.60677814483647L346.95408749999996,73.80003092024066L348.82951499999996,73.20466105143232L350.7049425,75.88381301032175L352.58037,74.0977283053928L354.45579749999996,72.01394621531172L356.33122499999996,75.245936287774L358.2066525,73.07709068722198L360.08208,72.90698856777618L361.95750749999996,74.73560502794058L363.83293499999996,72.56678432888458L365.7083625,74.65056641896567L367.58378999999996,72.01394621531172L369.45921749999997,72.05645306905112L371.33464499999997,72.90698856777618L373.2100725,70.65310435824925L375.08549999999997,70.10024134318037L376.96092749999997,73.33225631713871L378.83635499999997,72.48172081841365L380.7117825,69.58993498484297L382.58720999999997,68.95203336079916L384.46263749999997,69.46236462063263L386.338065,69.58993498484297L388.21349250000003,69.24973074595137L390.08892,67.59121640523276L391.9643475,67.2084804111057L393.839775,69.6749984953139L395.71520250000003,68.48425875769723L397.59063,67.2084804111057L399.4660575,68.99456511603464L401.341485,68.78193124135336L403.2169125,69.33476935492624L405.09234,67.12341690063481L406.9677675,67.42108938429095L408.843195,65.84763855404327L410.7186225,66.27288140190974L412.59405,65.67753643459747L414.4694775,65.93267716301814L416.344905,68.0589910083347L418.2203325,66.40047666761615L420.09576,65.29480044047041L421.9711875,64.9971030553182L423.846615,66.35794491238067L425.7220425,62.955852720472585L427.59747000000004,62.870789210001654L429.47289749999993,63.42362732357452L431.34832499999993,62.48805321587459L433.2237525,63.97646543714739L435.09918,64.27416282229954L436.9746075,61.765112982855925L438.850035,64.95457130008275L440.7254625,64.44426494174535L442.60089000000005,63.678792953491254L444.47631749999994,61.977746857537184L446.35174499999994,61.21227486928306L448.22717249999994,59.38363350762263L450.1026,62.785750601026784L451.9780275,60.2341690063477L453.853455,61.46741559770377L455.7288825,60.99964099460179L457.60431,62.53058497111005L459.47973749999994,62.19038073221845L461.35516499999994,61.29731347825797L463.23059249999994,59.9364716211955L465.10602,61.765112982855925L466.9814475,60.19163725111223L468.856875,59.2560631434123L470.7323025,60.106598642137364L472.60773,58.49059115515817L474.48315749999995,60.65943675571019L476.35858499999995,57.81015777587895L478.23401249999995,56.321745554606146L480.10944,57.81015777587895L481.9848675,57.044685787624815L483.860295,57.29985141754155L485.7357225,57.7676509221395L487.61114999999995,58.06532340579564L489.48657749999995,57.852689531114414L491.36200499999995,56.66194979349775L493.23743249999995,56.02407307095001L495.11286,55.47123495737714L496.9882875,56.49184767405195L498.863715,56.321745554606146L500.7391425,54.74826982286246L502.61456999999996,54.15292485555015L504.48999749999996,53.642593595716725L506.36542499999996,55.981541315714544L508.24085249999996,55.55627356635202L510.11627999999996,53.85522747039799L511.9917075,55.93900956047908L513.867135,54.19543170928959L515.7425625000001,54.11039310031468L517.61799,53.60006184048126L519.4934175,54.06786134507926L521.368845,53.68512535095219L523.2442725,52.53691736857099L525.1197,52.36681524912519L526.9951275,51.47374799516471L528.870555,51.7289136250814L530.7459825000001,52.409347004360654L532.62141,52.70701948801679L534.4968375,51.26113902197946L536.372265,51.94154749976266L538.2476925,52.239244884914854L540.12312,51.00597339206273L541.9985475,50.325540012783506L543.873975,50.58070564270024L545.7494025,50.41060352325444L547.62483,50.41060352325444L549.5002575,50.53817388746477L551.375685,50.070399284362836L553.2511125,48.87965954674617L555.12654,49.900297164917035L557.0019675,49.730195045471234L558.877395,50.19796964857317L560.7528225,49.51756117078997L562.62825,49.34745905134417L564.5036775,49.17733203040231L566.379105,48.9647230572171L568.2545325,47.60388120015464L570.12996,48.24175792270238L572.0053875,48.071655803256576L573.880815,48.369353188408766L575.7562425,47.43377908070884L577.63167,48.58198706309003L579.5070975,47.94408543904624L581.382525,47.816515074835905L583.2579525,47.34871557023795L585.13338,47.986617194281706L587.0088075,46.96597957611088L588.884235,46.92344782087542L590.7596625,45.81777159372968L592.63509,46.11544407738582L594.5105175,46.92344782087542L596.385945,46.88091606563995L598.2613725,46.243039343092214L600.1368,46.03040546841095L602.0122275,45.690201229519346L603.8876549999999,45.90283510420061L605.7630825,46.11544407738582L607.63851,45.775239838494215L609.5139375,45.945341957940016L611.389365,45.64766947428388L613.2647925,45.605137719048415L615.14022,44.37186622619633L617.0156475,45.73270808325876L618.8910749999999,44.83966573079429L620.7665025,45.09483136071101L622.64193,44.797133975558864L624.5173575,44.28682761722146L626.392785,44.28682761722146L628.2682125,44.28682761722146L630.14364,45.392503844367155L632.0190675,43.86155986785893L633.8944949999999,43.989130232069265L635.7699224999999,44.20176410675053L637.64535,44.28682761722146L639.5207775,43.904091623094395L641.396205,43.733989503648594L643.2716325,44.11672549777566L645.14706,43.733989503648594L647.0224875,43.56388738420279L648.8979149999999,44.37186622619633L650.7733424999999,44.074193742540196L652.64877,43.819028112623464L654.5241975,43.733989503648594L656.399625,43.77652125888406L658.2750525,43.904091623094395L660.15048,43.86155986785893L662.0259075,43.64892599317766L663.9013349999999,43.35125350952153L665.7767624999999,43.94662337832986L667.65219,43.22365824381513L669.5276175,43.819028112623464L671.403045,43.05355612436933L673.2784725,43.266189999050596L675.1539,43.181151390075726L677.0293274999999,43.181151390075726L678.9047549999999,43.6063942379422L680.7801824999999,42.96851751539446L682.65561,42.925985760158994L684.5310375,43.22365824381513L686.406465,43.181151390075726L688.2818925,43.266189999050596L690.15732,42.88345400492353L692.0327474999999,42.88345400492353L693.9081749999999,42.58578152126739L695.7836024999999,42.84092224968806L697.6590299999999,43.30872175428606L699.5344575,43.096087879604795L701.409885,42.71335188547773L703.2853125,42.71335188547773L705.16074,42.96851751539446L707.0361674999999,42.58578152126739L708.9115949999999,42.88345400492353L710.7870224999999,42.62831327650286L712.6624499999999,42.67082013024226L714.5378775,42.79841539594866L716.413305,43.05355612436933L718.2887325,42.925985760158994L720.16416,42.54324976603193L722.0395874999999,42.71335188547773L723.9150149999999,42.75588364071319L725.7904424999999,42.373147646586126L727.6658699999999,42.62831327650286L729.5412975,42.373147646586126L731.416725,42.2880841361152L733.2921525,42.58578152126739L735.1675799999999,42.33061589135066L737.0430074999999,42.71335188547773L738.9184349999999,42.50071801079646L740.7938624999999,42.54324976603193L742.6692899999999,42.79841539594866L744.5447174999999,42.50071801079646L746.420145,42.925985760158994L748.2955725,42.62831327650286L750.1709999999999,42.67082013024226" style="fill: none;" fill="none"></path></g></g></g></g></g></g><g transform="translate(42, 376)" clip-path="url(#clip_1)"><clipPath id="clip_1"><rect width="843" height="24"></rect></clipPath><g><g><line x1="0" y1="0" x2="0" y2="5" style="visibility: inherit;" fill="rgb(0, 0, 0)" stroke="rgb(204, 204, 204)" stroke-width="1px"></line><line x1="93.77137499999999" y1="0" x2="93.77137499999999" y2="5" style="visibility: inherit;" fill="rgb(0, 0, 0)" stroke="rgb(204, 204, 204)" stroke-width="1px"></line><line x1="187.54274999999998" y1="0" x2="187.54274999999998" y2="5" style="visibility: inherit;" fill="rgb(0, 0, 0)" stroke="rgb(204, 204, 204)" stroke-width="1px"></line><line x1="281.314125" y1="0" x2="281.314125" y2="5" style="visibility: inherit;" fill="rgb(0, 0, 0)" stroke="rgb(204, 204, 204)" stroke-width="1px"></line><line x1="375.08549999999997" y1="0" x2="375.08549999999997" y2="5" style="visibility: inherit;" fill="rgb(0, 0, 0)" stroke="rgb(204, 204, 204)" stroke-width="1px"></line><line x1="468.856875" y1="0" x2="468.856875" y2="5" style="visibility: inherit;" fill="rgb(0, 0, 0)" stroke="rgb(204, 204, 204)" stroke-width="1px"></line><line x1="562.62825" y1="0" x2="562.62825" y2="5" style="visibility: inherit;" fill="rgb(0, 0, 0)" stroke="rgb(204, 204, 204)" stroke-width="1px"></line><line x1="656.399625" y1="0" x2="656.399625" y2="5" style="visibility: inherit;" fill="rgb(0, 0, 0)" stroke="rgb(204, 204, 204)" stroke-width="1px"></line><line x1="750.1709999999999" y1="0" x2="750.1709999999999" y2="5" style="visibility: inherit;" fill="rgb(0, 0, 0)" stroke="rgb(204, 204, 204)" stroke-width="1px"></line><line x1="843.942375" y1="0" x2="843.942375" y2="5" style="visibility: inherit;" fill="rgb(0, 0, 0)" stroke="rgb(204, 204, 204)" stroke-width="1px"></line></g><g transform="translate(0, 8)"><text x="0" y="0" dx="0em" dy="0.95em" style="text-anchor: middle; visibility: hidden; font-family: Roboto, sans-serif; font-size: 12px; font-weight: 200;" fill="rgb(33, 33, 33)" stroke="none" stroke-width="1px">-50</text><text x="93.77137499999999" y="0" dx="0em" dy="0.95em" style="text-anchor: middle; visibility: inherit; font-family: Roboto, sans-serif; font-size: 12px; font-weight: 200;" fill="rgb(33, 33, 33)" stroke="none" stroke-width="1px">0</text><text x="187.54274999999998" y="0" dx="0em" dy="0.95em" style="text-anchor: middle; visibility: inherit; font-family: Roboto, sans-serif; font-size: 12px; font-weight: 200;" fill="rgb(33, 33, 33)" stroke="none" stroke-width="1px">50</text><text x="281.314125" y="0" dx="0em" dy="0.95em" style="text-anchor: middle; visibility: inherit; font-family: Roboto, sans-serif; font-size: 12px; font-weight: 200;" fill="rgb(33, 33, 33)" stroke="none" stroke-width="1px">100</text><text x="375.08549999999997" y="0" dx="0em" dy="0.95em" style="text-anchor: middle; visibility: inherit; font-family: Roboto, sans-serif; font-size: 12px; font-weight: 200;" fill="rgb(33, 33, 33)" stroke="none" stroke-width="1px">150</text><text x="468.856875" y="0" dx="0em" dy="0.95em" style="text-anchor: middle; visibility: inherit; font-family: Roboto, sans-serif; font-size: 12px; font-weight: 200;" fill="rgb(33, 33, 33)" stroke="none" stroke-width="1px">200</text><text x="562.62825" y="0" dx="0em" dy="0.95em" style="text-anchor: middle; visibility: inherit; font-family: Roboto, sans-serif; font-size: 12px; font-weight: 200;" fill="rgb(33, 33, 33)" stroke="none" stroke-width="1px">250</text><text x="656.399625" y="0" dx="0em" dy="0.95em" style="text-anchor: middle; visibility: inherit; font-family: Roboto, sans-serif; font-size: 12px; font-weight: 200;" fill="rgb(33, 33, 33)" stroke="none" stroke-width="1px">300</text><text x="750.1709999999999" y="0" dx="0em" dy="0.95em" style="text-anchor: middle; visibility: inherit; font-family: Roboto, sans-serif; font-size: 12px; font-weight: 200;" fill="rgb(33, 33, 33)" stroke="none" stroke-width="1px">350</text><text x="843.942375" y="0" dx="0em" dy="0.95em" style="text-anchor: middle; visibility: hidden; font-family: Roboto, sans-serif; font-size: 12px; font-weight: 200;" fill="rgb(33, 33, 33)" stroke="none" stroke-width="1px">400</text></g><line x1="0" y1="0" x2="843.942375" y2="0" fill="rgb(0, 0, 0)" stroke="rgb(204, 204, 204)" stroke-width="1px"></line></g></g></g></g></svg>