<svg viewBox="0 0 886.3333740234375 400" xmlns="http://www.w3.org/2000/svg"><g><g><g><g><g><line x1="41.171875" y1="377" x2="36.171875" y2="377" style="visibility: inherit;" fill="rgb(0, 0, 0)" stroke="rgb(204, 204, 204)" stroke-width="1px"></line><line x1="41.171875" y1="342.72727272727275" x2="36.171875" y2="342.72727272727275" style="visibility: inherit;" fill="rgb(0, 0, 0)" stroke="rgb(204, 204, 204)" stroke-width="1px"></line><line x1="41.171875" y1="308.45454545454544" x2="36.171875" y2="308.45454545454544" style="visibility: inherit;" fill="rgb(0, 0, 0)" stroke="rgb(204, 204, 204)" stroke-width="1px"></line><line x1="41.171875" y1="274.1818181818182" x2="36.171875" y2="274.1818181818182" style="visibility: inherit;" fill="rgb(0, 0, 0)" stroke="rgb(204, 204, 204)" stroke-width="1px"></line><line x1="41.171875" y1="239.9090909090909" x2="36.171875" y2="239.9090909090909" style="visibility: inherit;" fill="rgb(0, 0, 0)" stroke="rgb(204, 204, 204)" stroke-width="1px"></line><line x1="41.171875" y1="205.63636363636363" x2="36.171875" y2="205.63636363636363" style="visibility: inherit;" fill="rgb(0, 0, 0)" stroke="rgb(204, 204, 204)" stroke-width="1px"></line><line x1="41.171875" y1="171.36363636363637" x2="36.171875" y2="171.36363636363637" style="visibility: inherit;" fill="rgb(0, 0, 0)" stroke="rgb(204, 204, 204)" stroke-width="1px"></line><line x1="41.171875" y1="137.0909090909091" x2="36.171875" y2="137.0909090909091" style="visibility: inherit;" fill="rgb(0, 0, 0)" stroke="rgb(204, 204, 204)" stroke-width="1px"></line><line x1="41.171875" y1="102.81818181818186" x2="36.171875" y2="102.81818181818186" style="visibility: inherit;" fill="rgb(0, 0, 0)" stroke="rgb(204, 204, 204)" stroke-width="1px"></line><line x1="41.171875" y1="68.54545454545458" x2="36.171875" y2="68.54545454545458" style="visibility: inherit;" fill="rgb(0, 0, 0)" stroke="rgb(204, 204, 204)" stroke-width="1px"></line><line x1="41.171875" y1="34.27272727272729" x2="36.171875" y2="34.27272727272729" style="visibility: inherit;" fill="rgb(0, 0, 0)" stroke="rgb(204, 204, 204)" stroke-width="1px"></line><line x1="41.171875" y1="0" x2="36.171875" y2="0" style="visibility: inherit;" fill="rgb(0, 0, 0)" stroke="rgb(204, 204, 204)" stroke-width="1px"></line></g><g transform="translate(31.171875, 0)"><text x="0" y="377" dx="0em" dy="0.3em" style="text-anchor: end; visibility: hidden; font-family: Roboto, sans-serif; font-size: 12px; font-weight: 200;" fill="rgb(33, 33, 33)" stroke="none" stroke-width="1px">1.2</text><text x="0" y="342.72727272727275" dx="0em" dy="0.3em" style="text-anchor: end; visibility: inherit; font-family: Roboto, sans-serif; font-size: 12px; font-weight: 200;" fill="rgb(33, 33, 33)" stroke="none" stroke-width="1px">1.4</text><text x="0" y="308.45454545454544" dx="0em" dy="0.3em" style="text-anchor: end; visibility: inherit; font-family: Roboto, sans-serif; font-size: 12px; font-weight: 200;" fill="rgb(33, 33, 33)" stroke="none" stroke-width="1px">1.6</text><text x="0" y="274.1818181818182" dx="0em" dy="0.3em" style="text-anchor: end; visibility: inherit; font-family: Roboto, sans-serif; font-size: 12px; font-weight: 200;" fill="rgb(33, 33, 33)" stroke="none" stroke-width="1px">1.8</text><text x="0" y="239.9090909090909" dx="0em" dy="0.3em" style="text-anchor: end; visibility: inherit; font-family: Roboto, sans-serif; font-size: 12px; font-weight: 200;" fill="rgb(33, 33, 33)" stroke="none" stroke-width="1px">2</text><text x="0" y="205.63636363636363" dx="0em" dy="0.3em" style="text-anchor: end; visibility: inherit; font-family: Roboto, sans-serif; font-size: 12px; font-weight: 200;" fill="rgb(33, 33, 33)" stroke="none" stroke-width="1px">2.2</text><text x="0" y="171.36363636363637" dx="0em" dy="0.3em" style="text-anchor: end; visibility: inherit; font-family: Roboto, sans-serif; font-size: 12px; font-weight: 200;" fill="rgb(33, 33, 33)" stroke="none" stroke-width="1px">2.4</text><text x="0" y="137.0909090909091" dx="0em" dy="0.3em" style="text-anchor: end; visibility: inherit; font-family: Roboto, sans-serif; font-size: 12px; font-weight: 200;" fill="rgb(33, 33, 33)" stroke="none" stroke-width="1px">2.6</text><text x="0" y="102.81818181818186" dx="0em" dy="0.3em" style="text-anchor: end; visibility: inherit; font-family: Roboto, sans-serif; font-size: 12px; font-weight: 200;" fill="rgb(33, 33, 33)" stroke="none" stroke-width="1px">2.8</text><text x="0" y="68.54545454545458" dx="0em" dy="0.3em" style="text-anchor: end; visibility: inherit; font-family: Roboto, sans-serif; font-size: 12px; font-weight: 200;" fill="rgb(33, 33, 33)" stroke="none" stroke-width="1px">3</text><text x="0" y="34.27272727272729" dx="0em" dy="0.3em" style="text-anchor: end; visibility: inherit; font-family: Roboto, sans-serif; font-size: 12px; font-weight: 200;" fill="rgb(33, 33, 33)" stroke="none" stroke-width="1px">3.2</text><text x="0" y="0" dx="0em" dy="0.3em" style="text-anchor: end; visibility: hidden; font-family: Roboto, sans-serif; font-size: 12px; font-weight: 200;" fill="rgb(33, 33, 33)" stroke="none" stroke-width="1px">3.4</text></g><line x1="41.171875" y1="0" x2="41.171875" y2="377" fill="rgb(0, 0, 0)" stroke="rgb(204, 204, 204)" stroke-width="1px"></line></g></g><g transform="translate(41, 0)" clip-path="url(#clip_0)"><clipPath id="clip_0"><rect width="845" height="377"></rect></clipPath><g><g><g><line x1="0" y1="0" x2="0" y2="377" fill="rgb(0, 0, 0)" stroke="rgb(66, 66, 66)" stroke-width="1px" opacity="0.25"></line><line x1="93.90679166666666" y1="0" x2="93.90679166666666" y2="377" fill="rgb(0, 0, 0)" stroke="rgb(66, 66, 66)" stroke-width="1px" opacity="0.25"></line><line x1="187.81358333333333" y1="0" x2="187.81358333333333" y2="377" fill="rgb(0, 0, 0)" stroke="rgb(66, 66, 66)" stroke-width="1px" opacity="0.25"></line><line x1="281.720375" y1="0" x2="281.720375" y2="377" fill="rgb(0, 0, 0)" stroke="rgb(66, 66, 66)" stroke-width="1px" opacity="0.25"></line><line x1="375.62716666666665" y1="0" x2="375.62716666666665" y2="377" fill="rgb(0, 0, 0)" stroke="rgb(66, 66, 66)" stroke-width="1px" opacity="0.25"></line><line x1="469.5339583333333" y1="0" x2="469.5339583333333" y2="377" fill="rgb(0, 0, 0)" stroke="rgb(66, 66, 66)" stroke-width="1px" opacity="0.25"></line><line x1="563.44075" y1="0" x2="563.44075" y2="377" fill="rgb(0, 0, 0)" stroke="rgb(66, 66, 66)" stroke-width="1px" opacity="0.25"></line><line x1="657.3475416666666" y1="0" x2="657.3475416666666" y2="377" fill="rgb(0, 0, 0)" stroke="rgb(66, 66, 66)" stroke-width="1px" opacity="0.25"></line><line x1="751.2543333333333" y1="0" x2="751.2543333333333" y2="377" fill="rgb(0, 0, 0)" stroke="rgb(66, 66, 66)" stroke-width="1px" opacity="0.25"></line><line x1="845.161125" y1="0" x2="845.161125" y2="377" fill="rgb(0, 0, 0)" stroke="rgb(66, 66, 66)" stroke-width="1px" opacity="0.25"></line></g><g><line x1="0" y1="377" x2="845.161125" y2="377" fill="rgb(0, 0, 0)" stroke="rgb(66, 66, 66)" stroke-width="1px" opacity="0.25"></line><line x1="0" y1="342.72727272727275" x2="845.161125" y2="342.72727272727275" fill="rgb(0, 0, 0)" stroke="rgb(66, 66, 66)" stroke-width="1px" opacity="0.25"></line><line x1="0" y1="308.45454545454544" x2="845.161125" y2="308.45454545454544" fill="rgb(0, 0, 0)" stroke="rgb(66, 66, 66)" stroke-width="1px" opacity="0.25"></line><line x1="0" y1="274.1818181818182" x2="845.161125" y2="274.1818181818182" fill="rgb(0, 0, 0)" stroke="rgb(66, 66, 66)" stroke-width="1px" opacity="0.25"></line><line x1="0" y1="239.9090909090909" x2="845.161125" y2="239.9090909090909" fill="rgb(0, 0, 0)" stroke="rgb(66, 66, 66)" stroke-width="1px" opacity="0.25"></line><line x1="0" y1="205.63636363636363" x2="845.161125" y2="205.63636363636363" fill="rgb(0, 0, 0)" stroke="rgb(66, 66, 66)" stroke-width="1px" opacity="0.25"></line><line x1="0" y1="171.36363636363637" x2="845.161125" y2="171.36363636363637" fill="rgb(0, 0, 0)" stroke="rgb(66, 66, 66)" stroke-width="1px" opacity="0.25"></line><line x1="0" y1="137.0909090909091" x2="845.161125" y2="137.0909090909091" fill="rgb(0, 0, 0)" stroke="rgb(66, 66, 66)" stroke-width="1px" opacity="0.25"></line><line x1="0" y1="102.81818181818186" x2="845.161125" y2="102.81818181818186" fill="rgb(0, 0, 0)" stroke="rgb(66, 66, 66)" stroke-width="1px" opacity="0.25"></line><line x1="0" y1="68.54545454545458" x2="845.161125" y2="68.54545454545458" fill="rgb(0, 0, 0)" stroke="rgb(66, 66, 66)" stroke-width="1px" opacity="0.25"></line><line x1="0" y1="34.27272727272729" x2="845.161125" y2="34.27272727272729" fill="rgb(0, 0, 0)" stroke="rgb(66, 66, 66)" stroke-width="1px" opacity="0.25"></line><line x1="0" y1="0" x2="845.161125" y2="0" fill="rgb(0, 0, 0)" stroke="rgb(66, 66, 66)" stroke-width="1px" opacity="0.25"></line></g></g></g><g><g><line x1="0" y1="582.6363636363636" x2="845.161125" y2="582.6363636363636" fill="rgb(0, 0, 0)" stroke="rgb(153, 153, 153)" stroke-width="1.5px"></line></g></g><g><g><line x1="93.90679166666666" y1="0" x2="93.90679166666666" y2="377" fill="rgb(0, 0, 0)" stroke="rgb(153, 153, 153)" stroke-width="1.5px"></line></g></g><g><g><g><g><g><path stroke="rgb(255, 112, 67)" stroke-width="2px" d="M95.7849275,28.96503960002558L97.66306333333333,95.66783632202585L99.54119916666666,132.13004733237798L101.41933499999999,156.0107027414171L103.29747083333332,173.9735475130228L105.17560666666667,187.57900271911535L107.0537425,198.173680737045L108.93187833333333,207.04400805944547L110.81001416666668,213.8421876437778L112.68815,220.28506703160048L114.56628583333334,225.79920307228224L116.44442166666666,230.2095675416552L118.3225575,235.622510139606L120.20069333333333,239.18410398767222L122.07882916666665,241.8699151589726L123.956965,244.4635131500276L125.83510083333331,247.3582903728843L127.71323666666666,250.43280133697954L129.59137249999998,251.96799904633446L131.46950833333332,254.50864339942362L133.34764416666664,256.5037595700744L135.22578,258.276106037557L137.10391583333333,259.6149950239762L138.98205166666668,261.3664450230004L140.8601875,263.7858272075615L142.73832333333334,264.82915015288637L144.61645916666666,266.38337377832187L146.494595,267.2981916439283L148.37273083333332,268.8967699711434L150.25086666666667,270.2626980937752L152.12900249999998,271.5925333701653L154.00713833333333,273.3060562968338L155.88527416666665,273.846770927722L157.76341,273.60393481315054L159.6415458333333,275.2974028994796L161.51968166666666,276.69946113489203L163.3978175,278.16975196094717L165.27595333333335,279.24058438547286L167.15408916666667,280.0115768218345L169.032225,280.46669558427357L170.91036083333333,281.7118356720973L172.78849666666667,282.38675120050254L174.6666325,283.2161890402501L176.54476833333334,284.38864214812196L178.42290416666665,285.2101641328209L180.30104,285.39490661482347L182.17917583333332,286.32525543306514L184.05731166666664,287.70639998009744L185.93544749999998,288.2999425049344L187.81358333333333,289.15681886496424L189.69171916666667,288.91990012583034L191.569855,289.36728041238587L193.44799083333334,290.3226496444724L195.32612666666665,290.70220427043046L197.2042625,291.1797895082536L199.08239833333332,292.76574995374585L200.96053416666666,293.3985083671132L202.83866999999998,294.6368642540896L204.71680583333332,295.0501758207699L206.59494166666664,295.4278650904137L208.4730775,295.30424232303454L210.35121333333333,296.002039801648L212.22934916666665,295.8808516462975L214.107485,296.38396708858915L215.98562083333331,296.7134797094204L217.86375666666666,297.4173801828369L219.7418925,298.80597953459556L221.62002833333335,298.9310181926978L223.49816416666664,299.2711168977576L225.3763,299.7495913753864L227.25443583333333,300.91116376546034L229.13257166666668,301.12032413596296L231.01070749999997,301.4755306770901L232.8888433333333,301.03441490387644L234.76697916666666,302.0350969521636L236.645115,302.7069229492967L238.52325083333332,302.78157495533156L240.40138666666667,302.96149420186714L242.2795225,303.4125485733927L244.1576583333333,303.7159397573558L246.03579416666665,303.81974287295424L247.91393,304.5026724111518L249.79206583333334,304.36856774788714L251.67020166666663,304.87015161043826L253.54833749999997,305.5006404683756L255.42647333333332,306.1455781742846L257.3046091666667,306.04769938606603L259.18274499999995,306.17528489698304L261.06088083333333,306.2169122599269L262.93901666666665,306.2689600453039L264.8171525,306.93558550053217L266.6952883333333,307.56277068848345L268.57342416666665,307.9975879866124L270.45156,308.3650478723951L272.32969583333335,308.07761493941L274.20783166666666,308.5848728504063L276.0859675,309.06298933326707L277.96410333333336,309.50088852800815L279.8422391666667,309.4532429260215L281.720375,310.2583196786545L283.5985108333333,310.75662963445905L285.4766466666667,311.3009411949543L287.3547825,311.4604995090577L289.2329183333333,311.27098415887866L291.11105416666663,311.7480485095553L292.98919,312.20807336998905L294.8673258333333,312.37265688265575L296.74546166666664,312.2292681926691L298.6235975,312.933076652268L300.50173333333333,313.59191955849116L302.37986916666665,313.47285297511405L304.25800499999997,314.04920560283136L306.13614083333334,314.40072888666356L308.01427666666666,314.4856584483242L309.8924125,314.3987834570214L311.7705483333333,314.9829867693048L313.64868416666667,315.24083855441955L315.52682,315.71842859312034L317.4049558333333,315.3087426680682L319.2830916666666,315.4377384058017L321.1612275,315.9778985293625L323.0393633333333,316.42943349551666L324.91749916666663,316.41887925634956L326.795635,317.07696779439226L328.6737708333333,317.7285127198497L330.5519066666667,317.4737225961349L332.43004249999996,317.58389756087973L334.30817833333333,317.67204858555016L336.18631416666665,317.4078699949816L338.06445,317.9012492171081L339.9425858333333,318.19405727593835L341.82072166666666,318.6845805640091L343.6988575,318.747876817236L345.57699333333335,318.9348247179522L347.45512916666667,319.68957277547486L349.333265,319.89348432829314L351.21140083333336,319.89975858358565L353.0895366666667,319.8171284582985L354.9676725,320.4498991980038L356.8458083333333,319.95105368090054L358.7239441666667,320.70563397630565L360.60208,321.10754877657763L362.4802158333333,320.7313021473678L364.35835166666664,321.358265478928L366.2364875,321.470389374533L368.11462333333327,321.95854871125795L369.99275916666664,322.33953044152776L371.87089499999996,322.349301443697L373.74903083333334,323.1841542009988L375.62716666666665,323.3442101268837L377.50530249999997,322.54031069104L379.38343833333334,322.5862344900399L381.26157416666666,323.12838989168904L383.13971,323.64730101844157L385.0178458333333,324.2504840646144L386.89598166666667,324.3743652359655L388.7741175,324.7776441488272L390.6522533333333,325.1789346253312L392.5303891666666,325.7571899114403L394.408525,325.6290744922479L396.2866608333333,325.76397965496847L398.16479666666663,326.40127898758476L400.0429325,326.3400574990641L401.9210683333333,326.076825590317L403.7992041666667,326.08472206404156L405.67733999999996,326.356610957229L407.55547583333333,326.64070337999317L409.43361166666665,327.29121189002177L411.3117475,327.57152373331445L413.1898833333333,328.2204339385652L415.06801916666666,328.4176575156063L416.946155,327.73163783946967L418.82429083333335,328.1211522104484L420.70242666666667,328.61846551734516L422.5805625,328.83304093958105L424.4586983333333,328.9727765308146L426.3368341666667,329.7390484129817L428.21497,330.0705391822605L430.09310583333325,330.2941680325261L431.97124166666663,330.7844486328965L433.84937749999995,330.65600785896487L435.7275133333333,330.5738690452892L437.60564916666664,331.16628257864335L439.483785,330.8656851534247L441.36192083333333,330.48635664054586L443.2400566666667,330.8059884760364L445.11819249999996,331.48667010279905L446.9963283333333,331.9685550032619L448.87446416666666,332.93058061645354L450.7526,332.60402250317287L452.63073583333335,333.1403873315199L454.50887166666666,333.1640207933197L456.38700750000004,333.28132210772094L458.26514333333336,333.0153740431013L460.1432791666666,333.07457421279264L462.02141499999993,332.9193363680728L463.8995508333333,333.2185936658879L465.7776866666666,332.95713724430203L467.6558225,333.08108490981505L469.5339583333333,333.84764868620107L471.4120941666667,334.28746115111966L473.29023,334.73990033777204L475.16836583333327,334.8268977695314L477.04650166666664,335.4582420935939L478.92463749999996,336.12844381038605L480.80277333333333,336.12674142141066L482.68090916666665,336.56718020732194L484.559045,336.8176095442582L486.43718083333334,336.83992163659605L488.3153166666666,337.16811465975167L490.1934524999999,337.41628058461805L492.0715883333333,337.73319748357915L493.9497241666666,338.0251287744673L495.82786,338.2329807400083L497.7059958333333,338.30843559456486L499.5841316666667,338.4943603185517L501.4622675,338.7114959380016L503.34040333333326,339.22089902504376L505.21853916666663,339.6571011886732L507.09667499999995,339.8498897801914L508.9748108333333,339.5470557709274L510.85294666666664,339.81848413671753L512.7310825,339.64841154498544L514.6092183333334,339.9400917378933L516.4873541666667,340.27095019907614L518.3654899999999,340.69236893924773L520.2436258333333,340.83307788057743L522.1217616666667,340.9887075609076L523.9998975,341.15757959348065L525.8780333333333,341.6489004687196L527.7561691666667,342.1245882356871L529.634305,342.48023283206226L531.5124408333334,342.7510798546134L533.3905766666666,342.737334099125L535.2687125,343.0838988777628L537.1468483333333,342.9862573240179L539.0249841666666,342.96485977299517L540.90312,343.3872958216898L542.7812558333334,343.91796727468835L544.6593916666667,344.2769077422364L546.5375274999999,344.49925844573744L548.4156633333333,344.72826437936124L550.2937991666666,344.6311038952767L552.171935,344.79831789861316L554.0500708333333,345.4889786136324L555.9282066666667,345.5832334454164L557.8063425,345.3748987731519L559.6844783333333,345.4226546416988L561.5626141666665,345.56192244092665L563.44075,345.8125771126966L565.3188858333333,346.103033396656L567.1970216666666,346.2717180286538L569.0751574999999,346.9228134089254L570.9532933333334,347.0236770807015L572.8314291666667,347.3650249734867L574.709565,347.6680358510062L576.5877008333333,347.99487398141787L578.4658366666666,347.7971305428937L580.3439725,347.7953007403772L582.2221083333333,347.98885849400745L584.1002441666667,348.2670781591417L585.97838,348.32846185818414L587.8565158333333,348.54782974167637L589.7346516666667,348.6733056880581L591.6127875,349.30429379047604L593.4909233333333,349.5654902322282L595.3690591666666,349.565083036071L597.247195,349.64755633211706L599.1253308333334,349.93571449523745L601.0034666666667,349.92876007191774L602.8816025,350.18539753304657L604.7597383333333,350.3253908212695L606.6378741666666,350.5384926222284L608.5160099999999,350.659032258379L610.3941458333333,350.74188061642985L612.2722816666667,350.80433678896406L614.1504175,351.1361227528523L616.0285533333333,351.45886627467644L617.9066891666666,351.4081346663312L619.784825,351.6417007771255L621.6629608333333,351.6929371898734L623.5410966666666,351.827788996691L625.4192325,352.021888304187L627.2973683333333,352.3112026156492L629.1755041666667,352.3634644092028L631.05364,352.40479858761455L632.9317758333334,352.64298324612037L634.8099116666666,352.89048610443405L636.6880474999999,353.0453695695291L638.5661833333332,353.04506562974007L640.4443191666667,353.07912082405824L642.322455,353.411181090231L644.2005908333333,353.4916562306614L646.0787266666666,353.60519695685696L647.9568625,353.6499597747057L649.8349983333333,353.70777017912116L651.7131341666666,353.71114417284684L653.59127,353.85851068066984L655.4694058333333,353.9388573854846L657.3475416666666,354.05502573569527L659.2256775,354.215795382109L661.1038133333334,354.09146986152444L662.9819491666667,354.2002048249694L664.8600849999999,354.3110577481019L666.7382208333332,354.1614643226282L668.6163566666667,354.39217671476916L670.4944925,354.4958109465265L672.3726283333333,354.6777167129368L674.2507641666666,354.8599193631863L676.1289,354.88441515582156L678.0070358333332,354.9111897462015L679.8851716666666,354.88238613956327L681.7633075,355.08119281242364L683.6414433333333,355.3107887578069L685.5195791666666,355.1962506575619L687.397715,355.23961290140363L689.2758508333334,355.38918779363064L691.1539866666667,355.4874962041422L693.0321224999999,355.523585394112L694.9102583333333,355.7276540033365L696.7883941666666,355.786155098979L698.66653,355.5728169212204L700.5446658333333,355.6441354362753L702.4228016666667,355.7578121818979L704.3009375,355.7569139262582L706.1790733333333,355.8394276080674L708.0572091666666,355.8384783179088L709.935345,355.94099729611526L711.8134808333333,355.9526231716408L713.6916166666666,356.0444898645101L715.5697524999999,356.1341007473263L717.4478883333334,356.12438479740035L719.3260241666667,356.12206886706826L721.20416,356.1270610589758L723.0822958333333,356.2701770538023L724.9604316666666,356.11938259392025L726.8385675,356.13290965084565L728.7167033333333,356.2435587919667L730.5948391666667,356.25370552889893L732.472975,356.38392310482607L734.3511108333333,356.4766801967219L736.2292466666665,356.39544958913297L738.1073825,356.3552093297154L739.9855183333333,356.4069107624023L741.8636541666666,356.29144553473543L743.7417899999999,356.34486596228885L745.6199258333334,356.4065471892272L747.4980616666667,356.3414234099164L749.3761975,356.3302948342189L751.2543333333333,356.3096938703855" style="fill: none;" fill="none"></path></g></g></g></g><g opacity="0.2"><g><g><g><path stroke="rgb(255, 112, 67)" stroke-width="2px" d="M95.7849275,28.96503960002558L97.66306333333333,135.689514355226L99.54119916666666,167.133769902316L101.41933499999999,184.09435350244695L103.29747083333332,197.42583764683116L105.17560666666667,206.4002452330156L107.0537425,213.32423981753263L108.93187833333333,219.97703045064753L110.81001416666668,223.86818205226552L112.68815,229.85199204358187L114.56628583333334,234.02039432525635L116.44442166666666,236.8011132370342L118.3225575,243.72424983978271L120.20069333333333,244.51951722665268L122.07882916666665,245.89547484571284L123.956965,248.35208093036306L125.83510083333331,251.69923123446378L127.71323666666666,255.0437871651216L129.59137249999998,254.27056173844773L131.46950833333332,258.3193777041002L133.34764416666664,259.4963244091381L135.22578,260.93456741896546L137.10391583333333,261.62330206957733L138.98205166666668,263.99359927394175L140.8601875,267.41488328847015L142.73832333333334,266.39413012157786L144.61645916666666,268.71470523964274L146.494595,268.6704170378772L148.37273083333332,271.29463598944926L150.25086666666667,272.31158952279526L152.12900249999998,273.5872858437625L154.00713833333333,275.87634034590286L155.88527416666665,274.65784280950373L157.76341,273.23968065868723L159.6415458333333,277.8376049561934L161.51968166666666,278.80254845185715L163.3978175,280.37518817728215L165.27595333333335,280.84683301232076L167.15408916666667,281.1680654720827L169.032225,281.1493737264113L170.91036083333333,283.5795458013361L172.78849666666667,283.3991244922985L174.6666325,284.4603457992727L176.54476833333334,286.1473218094219L178.42290416666665,286.4424471096559L180.30104,285.6720203377984L182.17917583333332,287.7207786603407L184.05731166666664,289.7781168005683L185.93544749999998,289.19025629216975L187.81358333333333,290.4421334049918L189.69171916666667,288.56452201713216L191.569855,290.03835084221583L193.44799083333334,291.7557034925981L195.32612666666665,291.2715362093665L197.2042625,291.8961673649875L199.08239833333332,295.14469062198293L200.96053416666666,294.3476459871639L202.83866999999998,296.49439808455384L204.71680583333332,295.67014317079025L206.59494166666664,295.9943989948793L208.4730775,295.1188081719659L210.35121333333333,297.048736019568L212.22934916666665,295.6990694132718L214.107485,297.1386402520267L215.98562083333331,297.2077486406673L217.86375666666666,298.4732308929617L219.7418925,300.88887856223363L221.62002833333335,299.1185761798512L223.49816416666664,299.78126495534724L225.3763,300.4673030918295L227.25443583333333,302.65352235057134L229.13257166666668,301.43406469171697L231.01070749999997,302.0083404887806L232.8888433333333,300.37274124405604L234.76697916666666,303.5361200245944L236.645115,303.71466194499624L238.52325083333332,302.8935529643839L240.40138666666667,303.23137307167053L242.2795225,304.08913013068116L244.1576583333333,304.1710265333002L246.03579416666665,303.97544754635203L247.91393,305.5270667184483L249.79206583333334,304.16741075299007L251.67020166666663,305.622527404265L253.54833749999997,306.4463737552816L255.42647333333332,307.11298473314804L257.3046091666667,305.9008812037381L259.18274499999995,306.3666631633585L261.06088083333333,306.2793533043428L262.93901666666665,306.34703172336924L264.8171525,307.9355236833746L266.6952883333333,308.50354847041046L268.57342416666665,308.649813933806L270.45156,308.91623770106924L272.32969583333335,307.64646553993225L274.20783166666666,309.34575971690094L276.0859675,309.78016405755824L277.96410333333336,310.1577373201197L279.8422391666667,309.38177452304143L281.720375,311.465934807604L283.5985108333333,311.5040945681659L285.4766466666667,312.1174085356973L287.3547825,311.6998369802128L289.2329183333333,310.98671113361013L291.11105416666663,312.4636450355703L292.98919,312.89811066063965L294.8673258333333,312.61953215165573L296.74546166666664,312.0141851576892L298.6235975,313.9887893416665L300.50173333333333,314.5801839178259L302.37986916666665,313.2942531000484L304.25800499999997,314.91373454440725L306.13614083333334,314.9280138124119L308.01427666666666,314.6130527908152L309.8924125,314.26847097006714L311.7705483333333,315.85929173772985L313.64868416666667,315.6276162320917L315.52682,316.43481365117157L317.4049558333333,314.6942137804898L319.2830916666666,315.63123201240194L321.1612275,316.7881387147037L323.0393633333333,317.1067359447479L324.91749916666663,316.4030478975989L326.795635,318.06410060145635L328.6737708333333,318.7058301080357L330.5519066666667,317.0915374105627L332.43004249999996,317.749160007997L334.30817833333333,317.80427512255585L336.18631416666665,317.0116021091288L338.06445,318.64131805029785L339.9425858333333,318.6332693641836L341.82072166666666,319.42036549611527L343.6988575,318.84282119707626L345.57699333333335,319.2152465690266L347.45512916666667,320.82169486175883L349.333265,320.19935165752065L351.21140083333336,319.9091699665243L353.0895366666667,319.69318327036774L354.9676725,321.3990553075617L356.8458083333333,319.20278540524566L358.7239441666667,321.83750441941345L360.60208,321.7104209769856L362.4802158333333,320.1669322035529L364.35835166666664,322.2987104762684L366.2364875,321.6385752179406L368.11462333333327,322.69078771634537L369.99275916666664,322.9110030369325L371.87089499999996,322.36395794695073L373.74903083333334,324.43643333695155L375.62716666666665,323.584294015711L377.50530249999997,321.3344615372745L379.38343833333334,322.6551201885397L381.26157416666666,323.94162299416286L383.13971,324.4256677085703L385.0178458333333,325.15525863387364L386.89598166666667,324.56018699299204L388.7741175,325.3825625181198L390.6522533333333,325.78087034008723L392.5303891666666,326.62457284060395L394.408525,325.43690136345947L396.2866608333333,325.9663373990492L398.16479666666663,327.35722798650914L400.0429325,326.2482252662832L401.9210683333333,325.6819777271964L403.7992041666667,326.09656677462834L405.67733999999996,326.76444429701024L407.55547583333333,327.06684201413935L409.43361166666665,328.2669746550647L411.3117475,327.9919914982535L413.1898833333333,329.19379924644124L415.06801916666666,328.713492881168L416.946155,326.70260832526463L418.82429083333335,328.70542376691645L420.70242666666667,329.3644354776902L422.5805625,329.1549040729349L424.4586983333333,329.18237991766495L426.3368341666667,330.8884562362324L428.21497,330.5677753361789L430.09310583333325,330.62961130792445L431.97124166666663,331.51986953345215L433.84937749999995,330.46334669806737L435.7275133333333,330.4506608247757L437.60564916666664,332.0549028786746L439.483785,330.41478901559657L441.36192083333333,329.9173638712276L443.2400566666667,331.2854362292723L445.11819249999996,332.5076925429431L446.9963283333333,332.69138235395604L448.87446416666666,334.373619036241L450.7526,332.11418533325195L452.63073583333335,333.94493457404053L454.50887166666666,333.1994709860195L456.38700750000004,333.4572740793228L458.26514333333336,332.6164519461719L460.1432791666666,333.1633744673295L462.02141499999993,332.68647960099304L463.8995508333333,333.6674796126105L465.7776866666666,332.5649526119232L467.6558225,333.2670064080845L469.5339583333333,334.99749435078013L471.4120941666667,334.94717984849757L473.29023,335.41855911775065L475.16836583333327,334.9573939171704L477.04650166666664,336.4052585796876L478.92463749999996,337.13374638557434L480.80277333333333,336.1241878379475L482.68090916666665,337.22783838618886L484.559045,337.1932535496625L486.43718083333334,336.8733897751028L488.3153166666666,337.66040419448507L490.1934524999999,337.78852947191757L492.0715883333333,338.2085728320209L493.9497241666666,338.4630257107995L495.82786,338.5447586883198L497.7059958333333,338.42161787639964L499.5841316666667,338.77324740453196L501.4622675,339.0371993671764L503.34040333333326,339.98500365560704L505.21853916666663,340.31140443411743L507.09667499999995,340.13907266746867L508.9748108333333,339.09280475703156L510.85294666666664,340.2256266854026L512.7310825,339.39330265738744L514.6092183333334,340.37761202725494L516.4873541666667,340.7672378908504L518.3654899999999,341.32449704950506L520.2436258333333,341.044141292572L522.1217616666667,341.2221520814029L523.9998975,341.4108876423402L525.8780333333333,342.38588178157806L527.7561691666667,342.83811988613826L529.634305,343.0136997266249L531.5124408333334,343.15735038844025L533.3905766666666,342.71671546589243L535.2687125,343.6037460457195L537.1468483333333,342.8397949934006L539.0249841666666,342.9327634464611L540.90312,344.0209498947317L542.7812558333334,344.71397445418614L544.6593916666667,344.8153184435584L546.5375274999999,344.8327845009891L548.4156633333333,345.07177327979696L550.2937991666666,344.4853631691499L552.171935,345.04913890361786L554.0500708333333,346.5249696861614L555.9282066666667,345.72461569309235L557.8063425,345.06239676475525L559.6844783333333,345.49428844451904L561.5626141666665,345.7708241397684L563.44075,346.1885591203516L565.3188858333333,346.53871782259506L567.1970216666666,346.5247449766506L569.0751574999999,347.8994564793326L570.9532933333334,347.17497258836573L572.8314291666667,347.8770468126644L574.709565,348.12255216728556L576.5877008333333,348.4851311770352L578.4658366666666,347.5005153851075L580.3439725,347.7925560366024L582.2221083333333,348.27919512445277L584.1002441666667,348.684407656843L585.97838,348.420537406748L587.8565158333333,348.8768815669147L589.7346516666667,348.8615196076306L591.6127875,350.2507759441029L593.4909233333333,349.95728489485657L595.3690591666666,349.5644722418351L597.247195,349.77126627618617L599.1253308333334,350.3679517399181L601.0034666666667,349.91832843693817L602.8816025,350.57035372473973L604.7597383333333,350.5353807536038L606.6378741666666,350.8581453236667L608.5160099999999,350.8398417126049L610.3941458333333,350.86615315350616L612.2722816666667,350.89802104776555L614.1504175,351.6338016986847L616.0285533333333,351.94298155741257L617.9066891666666,351.33203725381327L619.784825,351.99204994331706L621.6629608333333,351.76979180899536L623.5410966666666,352.03006670691747L625.4192325,352.3130372654308L627.2973683333333,352.7451740828427L629.1755041666667,352.4418570995331L631.05364,352.46679985523224L632.9317758333334,353.0002602338791L634.8099116666666,353.26174039190465L636.6880474999999,353.2776947671717L638.5661833333332,353.0446097200567L640.4443191666667,353.1302036155354L642.322455,353.90927148949015L644.2005908333333,353.61236894130707L646.0787266666666,353.7755080461502L647.9568625,353.7171040014787L649.8349983333333,353.79448578574437L651.7131341666666,353.71620516343546L653.59127,354.0795604424043L655.4694058333333,354.0593774427067L657.3475416666666,354.2292782610113L659.2256775,354.4569498517297L661.1038133333334,353.9049815806476L662.9819491666667,354.3633072701367L664.8600849999999,354.4773371328007L666.7382208333332,353.9370741844177L668.6163566666667,354.7382453029806L670.4944925,354.6512622941624L672.3726283333333,354.9505753625523L674.2507641666666,355.1332233385606L676.1289,354.9211588447744L678.0070358333332,354.95135163177144L679.8851716666666,354.83918072960597L681.7633075,355.3794028217142L683.6414433333333,355.6551826758818L685.5195791666666,355.0244435071945L687.397715,355.30465626716614L689.2758508333334,355.6135501319712L691.1539866666667,355.6349588199095L693.0321224999999,355.5777191790668L694.9102583333333,356.0337569171732L696.7883941666666,355.8739067424427L698.66653,355.2528096545826L700.5446658333333,355.7511132088574L702.4228016666667,355.9283273003318L704.3009375,355.7555665427988L706.1790733333333,355.963198130781L708.0572091666666,355.837054382671L709.935345,356.094775763425L711.8134808333333,355.9700619849292L713.6916166666666,356.18228990381414L715.5697524999999,356.26851707155055L717.4478883333334,356.1098108725114L719.3260241666667,356.11859497157013L721.20416,356.13454934683716L723.0822958333333,356.48485104604197L724.9604316666666,355.8931909040971L726.8385675,356.15320023623383L728.7167033333333,356.4095325036482L730.5948391666667,356.2689256342975L732.472975,356.57924946871674L734.3511108333333,356.6158158345656L736.2292466666665,356.27360367774963L738.1073825,356.29484894058925L739.9855183333333,356.48446291143244L741.8636541666666,356.1182476932352L743.7417899999999,356.424996603619L745.6199258333334,356.49906902963465L747.4980616666667,356.2437377409501L749.3761975,356.3136019706726L751.2543333333333,356.2787924246354" style="fill: none;" fill="none"></path></g></g></g></g></g></g><g transform="translate(41, 377)" clip-path="url(#clip_1)"><clipPath id="clip_1"><rect width="845" height="23"></rect></clipPath><g><g><line x1="0" y1="0" x2="0" y2="5" style="visibility: inherit;" fill="rgb(0, 0, 0)" stroke="rgb(204, 204, 204)" stroke-width="1px"></line><line x1="93.90679166666666" y1="0" x2="93.90679166666666" y2="5" style="visibility: inherit;" fill="rgb(0, 0, 0)" stroke="rgb(204, 204, 204)" stroke-width="1px"></line><line x1="187.81358333333333" y1="0" x2="187.81358333333333" y2="5" style="visibility: inherit;" fill="rgb(0, 0, 0)" stroke="rgb(204, 204, 204)" stroke-width="1px"></line><line x1="281.720375" y1="0" x2="281.720375" y2="5" style="visibility: inherit;" fill="rgb(0, 0, 0)" stroke="rgb(204, 204, 204)" stroke-width="1px"></line><line x1="375.62716666666665" y1="0" x2="375.62716666666665" y2="5" style="visibility: inherit;" fill="rgb(0, 0, 0)" stroke="rgb(204, 204, 204)" stroke-width="1px"></line><line x1="469.5339583333333" y1="0" x2="469.5339583333333" y2="5" style="visibility: inherit;" fill="rgb(0, 0, 0)" stroke="rgb(204, 204, 204)" stroke-width="1px"></line><line x1="563.44075" y1="0" x2="563.44075" y2="5" style="visibility: inherit;" fill="rgb(0, 0, 0)" stroke="rgb(204, 204, 204)" stroke-width="1px"></line><line x1="657.3475416666666" y1="0" x2="657.3475416666666" y2="5" style="visibility: inherit;" fill="rgb(0, 0, 0)" stroke="rgb(204, 204, 204)" stroke-width="1px"></line><line x1="751.2543333333333" y1="0" x2="751.2543333333333" y2="5" style="visibility: inherit;" fill="rgb(0, 0, 0)" stroke="rgb(204, 204, 204)" stroke-width="1px"></line><line x1="845.161125" y1="0" x2="845.161125" y2="5" style="visibility: inherit;" fill="rgb(0, 0, 0)" stroke="rgb(204, 204, 204)" stroke-width="1px"></line></g><g transform="translate(0, 8)"><text x="0" y="0" dx="0em" dy="0.95em" style="text-anchor: middle; visibility: hidden; font-family: Roboto, sans-serif; font-size: 12px; font-weight: 200;" fill="rgb(33, 33, 33)" stroke="none" stroke-width="1px">-50</text><text x="93.90679166666666" y="0" dx="0em" dy="0.95em" style="text-anchor: middle; visibility: inherit; font-family: Roboto, sans-serif; font-size: 12px; font-weight: 200;" fill="rgb(33, 33, 33)" stroke="none" stroke-width="1px">0</text><text x="187.81358333333333" y="0" dx="0em" dy="0.95em" style="text-anchor: middle; visibility: inherit; font-family: Roboto, sans-serif; font-size: 12px; font-weight: 200;" fill="rgb(33, 33, 33)" stroke="none" stroke-width="1px">50</text><text x="281.720375" y="0" dx="0em" dy="0.95em" style="text-anchor: middle; visibility: inherit; font-family: Roboto, sans-serif; font-size: 12px; font-weight: 200;" fill="rgb(33, 33, 33)" stroke="none" stroke-width="1px">100</text><text x="375.62716666666665" y="0" dx="0em" dy="0.95em" style="text-anchor: middle; visibility: inherit; font-family: Roboto, sans-serif; font-size: 12px; font-weight: 200;" fill="rgb(33, 33, 33)" stroke="none" stroke-width="1px">150</text><text x="469.5339583333333" y="0" dx="0em" dy="0.95em" style="text-anchor: middle; visibility: inherit; font-family: Roboto, sans-serif; font-size: 12px; font-weight: 200;" fill="rgb(33, 33, 33)" stroke="none" stroke-width="1px">200</text><text x="563.44075" y="0" dx="0em" dy="0.95em" style="text-anchor: middle; visibility: inherit; font-family: Roboto, sans-serif; font-size: 12px; font-weight: 200;" fill="rgb(33, 33, 33)" stroke="none" stroke-width="1px">250</text><text x="657.3475416666666" y="0" dx="0em" dy="0.95em" style="text-anchor: middle; visibility: inherit; font-family: Roboto, sans-serif; font-size: 12px; font-weight: 200;" fill="rgb(33, 33, 33)" stroke="none" stroke-width="1px">300</text><text x="751.2543333333333" y="0" dx="0em" dy="0.95em" style="text-anchor: middle; visibility: inherit; font-family: Roboto, sans-serif; font-size: 12px; font-weight: 200;" fill="rgb(33, 33, 33)" stroke="none" stroke-width="1px">350</text><text x="845.161125" y="0" dx="0em" dy="0.95em" style="text-anchor: middle; visibility: hidden; font-family: Roboto, sans-serif; font-size: 12px; font-weight: 200;" fill="rgb(33, 33, 33)" stroke="none" stroke-width="1px">400</text></g><line x1="0" y1="0" x2="845.161125" y2="0" fill="rgb(0, 0, 0)" stroke="rgb(204, 204, 204)" stroke-width="1px"></line></g></g></g></g></svg>