<svg viewBox="0 0 886.3333740234375 400" xmlns="http://www.w3.org/2000/svg"><g><g><g><g><g><line x1="41.171875" y1="377" x2="36.171875" y2="377" style="visibility: inherit;" fill="rgb(0, 0, 0)" stroke="rgb(204, 204, 204)" stroke-width="1px"></line><line x1="41.171875" y1="329.87499999999994" x2="36.171875" y2="329.87499999999994" style="visibility: inherit;" fill="rgb(0, 0, 0)" stroke="rgb(204, 204, 204)" stroke-width="1px"></line><line x1="41.171875" y1="282.75" x2="36.171875" y2="282.75" style="visibility: inherit;" fill="rgb(0, 0, 0)" stroke="rgb(204, 204, 204)" stroke-width="1px"></line><line x1="41.171875" y1="235.625" x2="36.171875" y2="235.625" style="visibility: inherit;" fill="rgb(0, 0, 0)" stroke="rgb(204, 204, 204)" stroke-width="1px"></line><line x1="41.171875" y1="188.49999999999997" x2="36.171875" y2="188.49999999999997" style="visibility: inherit;" fill="rgb(0, 0, 0)" stroke="rgb(204, 204, 204)" stroke-width="1px"></line><line x1="41.171875" y1="141.375" x2="36.171875" y2="141.375" style="visibility: inherit;" fill="rgb(0, 0, 0)" stroke="rgb(204, 204, 204)" stroke-width="1px"></line><line x1="41.171875" y1="94.24999999999996" x2="36.171875" y2="94.24999999999996" style="visibility: inherit;" fill="rgb(0, 0, 0)" stroke="rgb(204, 204, 204)" stroke-width="1px"></line><line x1="41.171875" y1="47.12500000000004" x2="36.171875" y2="47.12500000000004" style="visibility: inherit;" fill="rgb(0, 0, 0)" stroke="rgb(204, 204, 204)" stroke-width="1px"></line><line x1="41.171875" y1="0" x2="36.171875" y2="0" style="visibility: inherit;" fill="rgb(0, 0, 0)" stroke="rgb(204, 204, 204)" stroke-width="1px"></line></g><g transform="translate(31.171875, 0)"><text x="0" y="377" dx="0em" dy="0.3em" style="text-anchor: end; visibility: hidden; font-family: Roboto, sans-serif; font-size: 12px; font-weight: 200;" fill="rgb(33, 33, 33)" stroke="none" stroke-width="1px">1.2</text><text x="0" y="329.87499999999994" dx="0em" dy="0.3em" style="text-anchor: end; visibility: inherit; font-family: Roboto, sans-serif; font-size: 12px; font-weight: 200;" fill="rgb(33, 33, 33)" stroke="none" stroke-width="1px">1.3</text><text x="0" y="282.75" dx="0em" dy="0.3em" style="text-anchor: end; visibility: inherit; font-family: Roboto, sans-serif; font-size: 12px; font-weight: 200;" fill="rgb(33, 33, 33)" stroke="none" stroke-width="1px">1.4</text><text x="0" y="235.625" dx="0em" dy="0.3em" style="text-anchor: end; visibility: inherit; font-family: Roboto, sans-serif; font-size: 12px; font-weight: 200;" fill="rgb(33, 33, 33)" stroke="none" stroke-width="1px">1.5</text><text x="0" y="188.49999999999997" dx="0em" dy="0.3em" style="text-anchor: end; visibility: inherit; font-family: Roboto, sans-serif; font-size: 12px; font-weight: 200;" fill="rgb(33, 33, 33)" stroke="none" stroke-width="1px">1.6</text><text x="0" y="141.375" dx="0em" dy="0.3em" style="text-anchor: end; visibility: inherit; font-family: Roboto, sans-serif; font-size: 12px; font-weight: 200;" fill="rgb(33, 33, 33)" stroke="none" stroke-width="1px">1.7</text><text x="0" y="94.24999999999996" dx="0em" dy="0.3em" style="text-anchor: end; visibility: inherit; font-family: Roboto, sans-serif; font-size: 12px; font-weight: 200;" fill="rgb(33, 33, 33)" stroke="none" stroke-width="1px">1.8</text><text x="0" y="47.12500000000004" dx="0em" dy="0.3em" style="text-anchor: end; visibility: inherit; font-family: Roboto, sans-serif; font-size: 12px; font-weight: 200;" fill="rgb(33, 33, 33)" stroke="none" stroke-width="1px">1.9</text><text x="0" y="0" dx="0em" dy="0.3em" style="text-anchor: end; visibility: hidden; font-family: Roboto, sans-serif; font-size: 12px; font-weight: 200;" fill="rgb(33, 33, 33)" stroke="none" stroke-width="1px">2</text></g><line x1="41.171875" y1="0" x2="41.171875" y2="377" fill="rgb(0, 0, 0)" stroke="rgb(204, 204, 204)" stroke-width="1px"></line></g></g><g transform="translate(41, 0)" clip-path="url(#clip_0)"><clipPath id="clip_0"><rect width="845" height="377"></rect></clipPath><g><g><g><line x1="0" y1="0" x2="0" y2="377" fill="rgb(0, 0, 0)" stroke="rgb(66, 66, 66)" stroke-width="1px" opacity="0.25"></line><line x1="93.90679166666666" y1="0" x2="93.90679166666666" y2="377" fill="rgb(0, 0, 0)" stroke="rgb(66, 66, 66)" stroke-width="1px" opacity="0.25"></line><line x1="187.81358333333333" y1="0" x2="187.81358333333333" y2="377" fill="rgb(0, 0, 0)" stroke="rgb(66, 66, 66)" stroke-width="1px" opacity="0.25"></line><line x1="281.720375" y1="0" x2="281.720375" y2="377" fill="rgb(0, 0, 0)" stroke="rgb(66, 66, 66)" stroke-width="1px" opacity="0.25"></line><line x1="375.62716666666665" y1="0" x2="375.62716666666665" y2="377" fill="rgb(0, 0, 0)" stroke="rgb(66, 66, 66)" stroke-width="1px" opacity="0.25"></line><line x1="469.5339583333333" y1="0" x2="469.5339583333333" y2="377" fill="rgb(0, 0, 0)" stroke="rgb(66, 66, 66)" stroke-width="1px" opacity="0.25"></line><line x1="563.44075" y1="0" x2="563.44075" y2="377" fill="rgb(0, 0, 0)" stroke="rgb(66, 66, 66)" stroke-width="1px" opacity="0.25"></line><line x1="657.3475416666666" y1="0" x2="657.3475416666666" y2="377" fill="rgb(0, 0, 0)" stroke="rgb(66, 66, 66)" stroke-width="1px" opacity="0.25"></line><line x1="751.2543333333333" y1="0" x2="751.2543333333333" y2="377" fill="rgb(0, 0, 0)" stroke="rgb(66, 66, 66)" stroke-width="1px" opacity="0.25"></line><line x1="845.161125" y1="0" x2="845.161125" y2="377" fill="rgb(0, 0, 0)" stroke="rgb(66, 66, 66)" stroke-width="1px" opacity="0.25"></line></g><g><line x1="0" y1="377" x2="845.161125" y2="377" fill="rgb(0, 0, 0)" stroke="rgb(66, 66, 66)" stroke-width="1px" opacity="0.25"></line><line x1="0" y1="329.87499999999994" x2="845.161125" y2="329.87499999999994" fill="rgb(0, 0, 0)" stroke="rgb(66, 66, 66)" stroke-width="1px" opacity="0.25"></line><line x1="0" y1="282.75" x2="845.161125" y2="282.75" fill="rgb(0, 0, 0)" stroke="rgb(66, 66, 66)" stroke-width="1px" opacity="0.25"></line><line x1="0" y1="235.625" x2="845.161125" y2="235.625" fill="rgb(0, 0, 0)" stroke="rgb(66, 66, 66)" stroke-width="1px" opacity="0.25"></line><line x1="0" y1="188.49999999999997" x2="845.161125" y2="188.49999999999997" fill="rgb(0, 0, 0)" stroke="rgb(66, 66, 66)" stroke-width="1px" opacity="0.25"></line><line x1="0" y1="141.375" x2="845.161125" y2="141.375" fill="rgb(0, 0, 0)" stroke="rgb(66, 66, 66)" stroke-width="1px" opacity="0.25"></line><line x1="0" y1="94.24999999999996" x2="845.161125" y2="94.24999999999996" fill="rgb(0, 0, 0)" stroke="rgb(66, 66, 66)" stroke-width="1px" opacity="0.25"></line><line x1="0" y1="47.12500000000004" x2="845.161125" y2="47.12500000000004" fill="rgb(0, 0, 0)" stroke="rgb(66, 66, 66)" stroke-width="1px" opacity="0.25"></line><line x1="0" y1="0" x2="845.161125" y2="0" fill="rgb(0, 0, 0)" stroke="rgb(66, 66, 66)" stroke-width="1px" opacity="0.25"></line></g></g></g><g><g><line x1="0" y1="942.5" x2="845.161125" y2="942.5" fill="rgb(0, 0, 0)" stroke="rgb(153, 153, 153)" stroke-width="1.5px"></line></g></g><g><g><line x1="93.90679166666666" y1="0" x2="93.90679166666666" y2="377" fill="rgb(0, 0, 0)" stroke="rgb(153, 153, 153)" stroke-width="1.5px"></line></g></g><g><g><g><g><g><path stroke="rgb(255, 112, 67)" stroke-width="2px" d="M120.20069333333333,-1.9937140339013923L122.07882916666665,5.392266687174646L123.956965,12.524661162575896L125.83510083333331,20.485298525431784L127.71323666666666,28.940203676693645L129.59137249999998,33.16199737741982L131.46950833333332,40.14876934841499L133.34764416666664,45.63533881770454L135.22578,50.50929160328172L137.10391583333333,54.19123631593442L138.98205166666668,59.00772381325108L140.8601875,65.66102482079413L142.73832333333334,68.53016292043756L144.61645916666666,72.80427789038507L146.494595,75.32002702080285L148.37273083333332,79.71611742064421L150.25086666666667,83.47241975788184L152.12900249999998,87.12946676795447L154.00713833333333,91.84165481629293L155.88527416666665,93.32862005123539L157.76341,92.66082073616396L159.6415458333333,97.31785797356882L161.51968166666666,101.17351812095309L163.3978175,105.21681789260468L165.27595333333335,108.16160706005034L167.15408916666667,110.28183626004494L169.032225,111.5334128567523L170.91036083333333,114.95754809826754L172.78849666666667,116.81356580138203L174.6666325,119.0945198606878L176.54476833333334,122.3187659073353L178.42290416666665,124.57795136525752L180.30104,125.08599319076448L182.17917583333332,127.64445244092919L184.05731166666664,131.442599945268L185.93544749999998,133.0748418885695L187.81358333333333,135.43125187865172L189.69171916666667,134.7797253460334L191.569855,136.01002113406105L193.44799083333334,138.63728652229904L195.32612666666665,139.68106174368378L197.2042625,140.99442114769732L199.08239833333332,145.3558123728011L200.96053416666666,147.09589800956132L202.83866999999998,150.50137669874638L204.71680583333332,151.63798350711718L206.59494166666664,152.67662899863765L208.4730775,152.33666638834507L210.35121333333333,154.25560945453188L212.22934916666665,153.92234202731817L214.107485,155.3059094936202L215.98562083333331,156.21206920090623L217.86375666666666,158.14779550280147L219.7418925,161.9664437201379L221.62002833333335,162.31030002991903L223.49816416666664,163.24557146883345L225.3763,164.5613762823125L227.25443583333333,167.75570035501593L229.13257166666668,168.3308913738982L231.01070749999997,169.30770936199758L232.8888433333333,168.0946409856602L234.76697916666666,170.84651661844998L236.645115,172.69403811056588L238.52325083333332,172.89933112716187L240.40138666666667,173.39410905513466L242.2795225,174.63450857683L244.1576583333333,175.46883433272833L246.03579416666665,175.75429290062425L247.91393,177.6323491306676L249.79206583333334,177.2635613066896L251.67020166666663,178.6429169287052L253.54833749999997,180.3767612880329L255.42647333333332,182.1503399792826L257.3046091666667,181.8811733116815L259.18274499999995,182.2320334667033L261.06088083333333,182.346508714799L262.93901666666665,182.48964012458566L264.8171525,184.32286012646338L266.6952883333333,186.04761939332943L268.57342416666665,187.2433669631842L270.45156,188.25388164908662L272.32969583333335,187.4634410833775L274.20783166666666,188.85840033861743L276.0859675,190.1732206664845L277.96410333333336,191.37744345202242L279.8422391666667,191.24641804655906L281.720375,193.4603791162999L283.5985108333333,194.83073149476238L285.4766466666667,196.32758828612438L287.3547825,196.7663736499087L289.2329183333333,196.24520643691633L291.11105416666663,197.55713340127716L292.98919,198.82220176746983L294.8673258333333,199.27480642730322L296.74546166666664,198.88048752984002L298.6235975,200.81596079373713L300.50173333333333,202.62777878585067L302.37986916666665,202.30034568156364L304.25800499999997,203.88531540778615L306.13614083333334,204.85200443832477L308.01427666666666,205.08556073289157L309.8924125,204.84665450680873L311.7705483333333,206.4532136155881L313.64868416666667,207.16230602465373L315.52682,208.47567863108094L317.4049558333333,207.34904233718746L319.2830916666666,207.7037806159546L321.1612275,209.18922095574675L323.0393633333333,210.43094211267075L324.91749916666663,210.40191795496122L326.795635,212.21166143457873L328.6737708333333,214.0034099795865L330.5519066666667,213.30273713937092L332.43004249999996,213.60571829241917L334.30817833333333,213.8481336102629L336.18631416666665,213.12164248619945L338.06445,214.47843534704728L339.9425858333333,215.28365750883032L341.82072166666666,216.63259655102493L343.6988575,216.80666124739886L345.57699333333335,217.32076797436852L347.45512916666667,219.39632513255592L349.333265,219.95708190280618L351.21140083333336,219.9743361048605L353.0895366666667,219.74710326032078L354.9676725,221.48722279451025L356.8458083333333,220.1153976224764L358.7239441666667,222.19049343484056L360.60208,223.29575913558847L362.4802158333333,222.26108090526122L364.35835166666664,223.985230067052L366.2364875,224.29357077996576L368.11462333333327,225.6360089559594L369.99275916666664,226.68370871420132L371.87089499999996,226.71057897016667L373.74903083333334,229.0064240527467L375.62716666666665,229.44657784893016L377.50530249999997,227.23585440035998L379.38343833333334,227.3621448476096L381.26157416666666,228.85307220214494L383.13971,230.2800778007143L385.0178458333333,231.93883117768962L386.89598166666667,232.27950439890512L388.7741175,233.38852140927486L390.6522533333333,234.49207021966075L392.5303891666666,236.0822722564608L394.408525,235.72995485368185L396.2866608333333,236.10094405116325L398.16479666666663,237.853517215858L400.0429325,237.68515812242626L401.9210683333333,236.96127037337172L403.7992041666667,236.9829856761143L405.67733999999996,237.73068013237986L407.55547583333333,238.51193429498124L409.43361166666665,240.30083269755985L411.3117475,241.07169026661475L413.1898833333333,242.8561933310542L415.06801916666666,243.39855816791734L416.946155,241.5120040585416L418.82429083333335,242.58316857873305L420.70242666666667,243.95078017269918L422.5805625,244.540862583848L424.4586983333333,244.92513545974026L426.3368341666667,247.03238313569972L428.21497,247.9439827512165L430.09310583333325,248.5589620894468L431.97124166666663,249.90723374046547L433.84937749999995,249.55402161215338L435.7275133333333,249.32813987454537L437.60564916666664,250.95727709126928L439.483785,250.1306341719178L441.36192083333333,249.08748076150104L443.2400566666667,249.96646830910012L445.11819249999996,251.83834278269748L446.9963283333333,253.16352625897014L448.87446416666666,255.8090966952472L450.7526,254.9110618837254L452.63073583333335,256.38606516167977L454.50887166666666,256.4510571816292L456.38700750000004,256.7736357962326L458.26514333333336,256.04227861852866L460.1432791666666,256.20507908517965L462.02141499999993,255.77817501220022L463.8995508333333,256.60113258119173L465.7776866666666,255.88212742183057L467.6558225,256.22298350199134L469.5339583333333,258.3310338870529L471.4120941666667,259.540518165579L473.29023,260.7847259288732L475.16836583333327,261.0239688662114L477.04650166666664,262.76016575738333L478.92463749999996,264.6032204785617L480.80277333333333,264.5985389088792L482.68090916666665,265.80974557013536L484.559045,266.49842624671004L486.43718083333334,266.55978450063907L488.3153166666666,267.4623153143171L490.1934524999999,268.14477160769957L492.0715883333333,269.0162930798427L493.9497241666666,269.8191041297851L495.82786,270.3906970350228L497.7059958333333,270.5981978850533L499.5841316666667,271.1094908760171L501.4622675,271.7066138295043L503.34040333333326,273.10747231887035L505.21853916666663,274.3070282688514L507.09667499999995,274.8371968955263L508.9748108333333,274.00440337005045L510.85294666666664,274.7508313759731L512.7310825,274.28313174871L514.6092183333334,275.0852522792065L516.4873541666667,275.99511304745937L518.3654899999999,277.15401458293115L520.2436258333333,277.5409641715879L522.1217616666667,277.9689457924959L523.9998975,278.43334388207177L525.8780333333333,279.7844762889789L527.7561691666667,281.0926176481394L529.634305,282.07064028817115L531.5124408333334,282.8154696001869L533.3905766666666,282.7776687725938L535.2687125,283.73072191384773L537.1468483333333,283.4622076410492L539.0249841666666,283.4033643757367L540.90312,284.5650635096469L542.7812558333334,286.02441000539284L544.6593916666667,287.01149629115L546.5375274999999,287.62296072577794L548.4156633333333,288.2527270432434L550.2937991666666,287.98553571201086L552.171935,288.4453742211862L554.0500708333333,290.3446911874892L555.9282066666667,290.603891974895L557.8063425,290.03097162616774L559.6844783333333,290.16230026467167L561.5626141666665,290.54528671254826L563.44075,291.23458705991567L565.3188858333333,292.033341840804L567.1970216666666,292.49722457879795L569.0751574999999,294.28773687454475L570.9532933333334,294.5651119719291L572.8314291666667,295.5038186770883L574.709565,296.3370985902671L576.5877008333333,297.2359034488991L578.4658366666666,296.6921089929576L580.3439725,296.68707703603724L582.2221083333333,297.21936085852036L584.1002441666667,297.98446493763964L585.97838,298.1532701100065L587.8565158333333,298.75653178961005L589.7346516666667,299.10159064215975L591.6127875,300.83680792380903L593.4909233333333,301.55509813862756L595.3690591666666,301.5539783491952L597.247195,301.78077991332185L599.1253308333334,302.57321486190295L601.0034666666667,302.55409019777375L602.8816025,303.25984321587805L604.7597383333333,303.6448247584911L606.6378741666666,304.23085471112796L608.5160099999999,304.5623387105421L610.3941458333333,304.7901716951821L612.2722816666667,304.9619261696513L614.1504175,305.8743375703439L616.0285533333333,306.76188225536015L617.9066891666666,306.6223703324107L619.784825,307.26467713709513L621.6629608333333,307.40557727215185L623.5410966666666,307.7764197409004L625.4192325,308.3101928365141L627.2973683333333,309.1058071930354L629.1755041666667,309.2495271253076L631.05364,309.36319611593996L632.9317758333334,310.01820392683106L634.8099116666666,310.69883678719367L636.6880474999999,311.124766316205L638.5661833333332,311.1239304817853L640.4443191666667,311.2175822661601L642.322455,312.13074799813523L644.2005908333333,312.3520546343189L646.0787266666666,312.6642916313566L647.9568625,312.7873893804405L649.8349983333333,312.94636799258313L651.7131341666666,312.95564647532893L653.59127,313.3609043718421L655.4694058333333,313.58185781008274L657.3475416666666,313.90132077316196L659.2256775,314.3434373007998L661.1038133333334,314.00154211919215L662.9819491666667,314.3005632686657L664.8600849999999,314.6054088072802L666.7382208333332,314.19402688722766L668.6163566666667,314.8284859656152L670.4944925,315.1134801029478L672.3726283333333,315.6137209605762L674.2507641666666,316.1147782487623L676.1289,316.18214167850925L678.0070358333332,316.2557718020541L679.8851716666666,316.17656188379897L681.7633075,316.723280234165L683.6414433333333,317.35466908396904L685.5195791666666,317.0396893082953L687.397715,317.1589354788599L689.2758508333334,317.57026643248423L691.1539866666667,317.8406145613911L693.0321224999999,317.9398598338081L694.9102583333333,318.50104850917535L696.7883941666666,318.6619265221923L698.66653,318.07524653335616L700.5446658333333,318.271372449757L702.4228016666667,318.58398350021923L704.3009375,318.58151329721017L706.1790733333333,318.8084259221853L708.0572091666666,318.80581537424933L709.935345,319.08774256431695L711.8134808333333,319.11971372201225L713.6916166666666,319.37234712740286L715.5697524999999,319.61877705514735L717.4478883333334,319.5920581928509L719.3260241666667,319.58568938443767L721.20416,319.59941791218347L723.0822958333333,319.99298689795626L724.9604316666666,319.5783021332806L726.8385675,319.6155015398255L728.7167033333333,319.9197866779084L730.5948391666667,319.94769020447217L732.472975,320.3057885382716L734.3511108333333,320.56087054098515L736.2292466666665,320.33748637011564L738.1073825,320.2268256567175L739.9855183333333,320.3690045966062L741.8636541666666,320.05147522052243L743.7417899999999,320.19838139629434L745.6199258333334,320.36800477037474L747.4980616666667,320.18891437727L749.3761975,320.15831079410185L751.2543333333333,320.10165814356014" style="fill: none;" fill="none"></path></g></g></g></g><g opacity="0.2"><g><g><g><path stroke="rgb(255, 112, 67)" stroke-width="2px" d="M116.44442166666666,-8.546938598155975L118.3225575,10.491687059402466L120.20069333333333,12.67867237329483L122.07882916666665,16.462555825710297L123.956965,23.218222558498383L125.83510083333331,32.42288589477539L127.71323666666666,41.620414704084396L129.59137249999998,39.4940447807312L131.46950833333332,50.62828868627548L133.34764416666664,53.8648921251297L135.22578,57.82006040215492L137.10391583333333,59.714080691337585L138.98205166666668,66.23239800333977L140.8601875,75.640929043293L142.73832333333334,72.83385783433914L144.61645916666666,79.21543940901756L146.494595,79.09364685416222L148.37273083333332,86.31024897098541L150.25086666666667,89.10687118768692L152.12900249999998,92.61503607034683L154.00713833333333,98.90993595123291L155.88527416666665,95.55906772613525L157.76341,91.65912181138992L159.6415458333333,104.30341362953186L161.51968166666666,106.95700824260712L163.3978175,111.28176748752594L165.27595333333335,112.57879078388214L167.15408916666667,113.46218004822731L169.032225,113.41077774763107L170.91036083333333,120.09375095367432L172.78849666666667,119.5975923538208L174.6666325,122.51595094799995L176.54476833333334,127.15513497591019L178.42290416666665,127.96672955155373L180.30104,125.84805592894554L182.17917583333332,131.48214131593704L184.05731166666664,137.13982120156288L185.93544749999998,135.5232048034668L187.81358333333333,138.96586686372757L189.69171916666667,133.80243554711342L191.569855,137.85546481609344L193.44799083333334,142.57818460464478L195.32612666666665,141.24672457575798L197.2042625,142.96446025371552L199.08239833333332,151.89789921045303L200.96053416666666,149.7060264647007L202.83866999999998,155.60959473252296L204.71680583333332,153.34289371967316L206.59494166666664,154.23459723591805L208.4730775,151.8267224729061L210.35121333333333,157.13402405381203L212.22934916666665,153.4224408864975L214.107485,157.38126069307327L215.98562083333331,157.5713087618351L217.86375666666666,161.0513849556446L219.7418925,167.69441604614258L221.62002833333335,162.82608449459076L223.49816416666664,164.6484786272049L225.3763,166.53508350253105L227.25443583333333,172.54718646407127L229.13257166666668,169.19367790222168L231.01070749999997,170.77293634414673L232.8888433333333,166.27503842115402L234.76697916666666,174.97433006763458L236.645115,175.46532034873962L238.52325083333332,173.20727065205574L240.40138666666667,174.13627594709396L242.2795225,176.4951078593731L244.1576583333333,176.72032296657562L246.03579416666665,176.1824807524681L247.91393,180.4494334757328L249.79206583333334,176.71037957072258L251.67020166666663,180.71195036172867L253.54833749999997,182.97752782702446L255.42647333333332,184.81070801615715L257.3046091666667,181.47742331027985L259.18274499999995,182.75832369923592L261.06088083333333,182.51822158694267L262.93901666666665,182.70433723926544L264.8171525,187.0726901292801L266.6952883333333,188.6347582936287L268.57342416666665,189.03698831796646L270.45156,189.76965367794037L272.32969583333335,186.2777802348137L274.20783166666666,190.9508392214775L276.0859675,192.14545115828514L277.96410333333336,193.18377763032913L279.8422391666667,191.04987993836403L281.720375,196.78132072091103L283.5985108333333,196.88626006245613L285.4766466666667,198.57287347316742L287.3547825,197.42455169558525L289.2329183333333,195.46345561742783L291.11105416666663,199.52502384781837L292.98919,200.7198043167591L294.8673258333333,199.95371341705322L296.74546166666664,198.28900918364525L298.6235975,203.71917068958282L300.50173333333333,205.34550577402115L302.37986916666665,201.80919602513313L304.25800499999997,206.2627699971199L306.13614083333334,206.30203798413277L308.01427666666666,205.43589517474174L309.8924125,204.48829516768456L311.7705483333333,208.8630522787571L313.64868416666667,208.22594463825226L315.52682,210.4457375407219L317.4049558333333,205.65908789634705L319.2830916666666,208.2358880341053L321.1612275,211.41738146543503L323.0393633333333,212.2935238480568L324.91749916666663,210.35838171839714L326.795635,214.92627665400505L328.6737708333333,216.69103279709816L330.5519066666667,212.2517278790474L332.43004249999996,214.06019002199173L334.30817833333333,214.2117565870285L336.18631416666665,212.03190580010414L338.06445,216.51362463831902L339.9425858333333,216.4914907515049L341.82072166666666,218.65600511431694L343.6988575,217.06775829195976L345.57699333333335,218.09192806482315L347.45512916666667,222.5096608698368L349.333265,220.79821705818176L351.21140083333336,220.00021740794182L353.0895366666667,219.4062539935112L354.9676725,224.09740209579468L356.8458083333333,218.05765986442566L358.7239441666667,225.30313715338707L360.60208,224.95365768671036L362.4802158333333,220.70906355977058L364.35835166666664,226.57145380973816L366.2364875,224.75608184933662L368.11462333333327,227.64966621994972L369.99275916666664,228.2552583515644L371.87089499999996,226.75088435411453L373.74903083333334,232.45019167661667L375.62716666666665,230.10680854320526L377.50530249999997,223.91976922750473L379.38343833333334,227.55158051848412L381.26157416666666,231.08946323394775L383.13971,232.42058619856834L385.0178458333333,234.42696124315262L386.89598166666667,232.79051423072815L388.7741175,235.05204692482948L390.6522533333333,236.1473934352398L392.5303891666666,238.46757531166077L394.408525,235.20147874951363L396.2866608333333,236.6574278473854L398.16479666666663,240.48237696290016L400.0429325,237.43261948227882L401.9210683333333,235.8754387497902L403.7992041666667,237.01555863022804L405.67733999999996,238.85222181677818L407.55547583333333,239.6838155388832L409.43361166666665,242.98418030142784L411.3117475,242.2279766201973L413.1898833333333,245.5329479277134L415.06801916666666,244.21210542321205L416.946155,238.68217289447784L418.82429083333335,244.18991535902023L420.70242666666667,246.00219756364822L422.5805625,245.42598620057106L424.4586983333333,245.50154477357864L426.3368341666667,250.19325464963913L428.21497,249.31138217449188L430.09310583333325,249.48143109679222L431.97124166666663,251.92964121699333L433.84937749999995,249.02420341968536L435.7275133333333,248.98931726813316L437.60564916666664,253.40098291635513L439.483785,248.89066979289055L441.36192083333333,247.52275064587593L443.2400566666667,251.2849496304989L445.11819249999996,254.6461544930935L446.9963283333333,255.15130147337914L448.87446416666666,259.7774523496628L450.7526,253.56400966644287L452.63073583333335,258.5985700786114L454.50887166666666,256.5485452115536L456.38700750000004,257.25750371813774L458.26514333333336,254.94524285197258L460.1432791666666,256.44927978515625L462.02141499999993,255.13781890273094L463.8995508333333,257.83556893467903L465.7776866666666,254.80361968278885L467.6558225,256.73426762223244L469.5339583333333,261.4931094646454L471.4120941666667,261.3547445833683L473.29023,262.6510375738144L475.16836583333327,261.3828332722187L477.04650166666664,265.364461094141L478.92463749999996,267.36780256032944L480.80277333333333,264.5915165543556L482.68090916666665,267.62655556201935L484.559045,267.5314472615719L486.43718083333334,266.65182188153267L488.3153166666666,268.8161115348339L490.1934524999999,269.16845604777336L492.0715883333333,270.3235752880573L493.9497241666666,271.02332070469856L495.82786,271.2480863928795L497.7059958333333,270.90944916009903L499.5841316666667,271.876430362463L501.4622675,272.6022982597351L503.34040333333326,275.2087600529194L505.21853916666663,276.10636219382286L507.09667499999995,275.63244983553886L508.9748108333333,272.7552130818367L510.85294666666664,275.8704733848572L512.7310825,273.58158230781555L514.6092183333334,276.2884330749512L516.4873541666667,277.35990419983864L518.3654899999999,278.8923668861389L520.2436258333333,278.12138855457306L522.1217616666667,278.6109182238579L523.9998975,279.1299410164356L525.8780333333333,281.8111748993397L527.7561691666667,283.0548296868801L529.634305,283.53767424821854L531.5124408333334,283.9327135682106L533.3905766666666,282.7209675312042L535.2687125,285.1603016257286L537.1468483333333,283.0594362318516L539.0249841666666,283.31509947776794L540.90312,286.30761221051216L542.7812558333334,288.213429749012L544.6593916666667,288.4921257197857L546.5375274999999,288.5401573777199L548.4156633333333,289.1973765194416L550.2937991666666,287.5847487151623L552.171935,289.1351319849491L554.0500708333333,293.1936666369438L555.9282066666667,290.99269315600395L557.8063425,289.17159110307693L559.6844783333333,290.35929322242737L561.5626141666665,291.1197663843632L563.44075,292.26853758096695L565.3188858333333,293.23147401213646L567.1970216666666,293.1930486857891L569.0751574999999,296.9735053181648L570.9532933333334,294.98117461800575L572.8314291666667,296.91187873482704L574.709565,297.5870184600353L576.5877008333333,298.5841107368469L578.4658366666666,295.8764173090458L580.3439725,296.6795291006565L582.2221083333333,298.0177865922451L584.1002441666667,299.1321210563183L585.97838,298.406477868557L587.8565158333333,299.6614243090153L589.7346516666667,299.61917892098427L591.6127875,303.43963384628296L593.4909233333333,302.6325334608555L595.3690591666666,301.5522986650467L597.247195,302.12098225951195L599.1253308333334,303.7618672847748L601.0034666666667,302.52540320158005L602.8816025,304.31847274303436L604.7597383333333,304.2222970724106L606.6378741666666,305.1098996400833L608.5160099999999,305.0595647096634L610.3941458333333,305.13192117214203L612.2722816666667,305.2195578813553L614.1504175,307.2429546713829L616.0285533333333,308.0931992828846L617.9066891666666,306.4131024479866L619.784825,308.22813734412193L621.6629608333333,307.61692747473717L623.5410966666666,308.33268344402313L625.4192325,309.1108524799347L627.2973683333333,310.29922872781754L629.1755041666667,309.465107023716L631.05364,309.53369960188866L632.9317758333334,311.0007156431675L634.8099116666666,311.7197860777378L636.6880474999999,311.76366060972214L638.5661833333332,311.12267673015594L640.4443191666667,311.3580599427223L642.322455,313.50049659609795L644.2005908333333,312.68401458859444L646.0787266666666,313.13264712691307L647.9568625,312.97203600406647L649.8349983333333,313.1848359107971L651.7131341666666,312.96956419944763L653.59127,313.96879121661186L655.4694058333333,313.91328796744347L657.3475416666666,314.38051521778107L659.2256775,315.00661209225655L661.1038133333334,313.4886993467808L662.9819491666667,314.74909499287605L664.8600849999999,315.06267711520195L666.7382208333332,313.57695400714874L668.6163566666667,315.78017458319664L670.4944925,315.5409713089466L672.3726283333333,316.3640822470188L674.2507641666666,316.8663641810417L676.1289,316.28318682312965L678.0070358333332,316.36621698737144L679.8851716666666,316.0577470064163L681.7633075,317.5433577597141L683.6414433333333,318.301752358675L685.5195791666666,316.5672196447849L687.397715,317.3378047347069L689.2758508333334,318.18726286292076L691.1539866666667,318.2461367547512L693.0321224999999,318.08872774243355L694.9102583333333,319.34283152222633L696.7883941666666,318.90324354171753L698.66653,317.19522655010223L700.5446658333333,318.565561324358L702.4228016666667,319.0529000759125L704.3009375,318.57780799269676L706.1790733333333,319.14879485964775L708.0572091666666,318.8018995523453L709.935345,319.51063334941864L711.8134808333333,319.1676704585552L713.6916166666666,319.7512972354889L715.5697524999999,319.988421946764L717.4478883333334,319.55197989940643L719.3260241666667,319.5761361718178L721.20416,319.6200107038021L723.0822958333333,320.5833403766155L724.9604316666666,318.9562749862671L726.8385675,319.67130064964294L728.7167033333333,320.37621438503265L730.5948391666667,319.989545494318L732.472975,320.84293603897095L734.3511108333333,320.9434935450554L736.2292466666665,320.0024101138115L738.1073825,320.06083458662033L739.9855183333333,320.5822730064392L741.8636541666666,319.57518115639687L743.7417899999999,320.41874065995216L745.6199258333334,320.6224398314953L747.4980616666667,319.9202787876129L749.3761975,320.11240541934967L751.2543333333333,320.0166791677475" style="fill: none;" fill="none"></path></g></g></g></g></g></g><g transform="translate(41, 377)" clip-path="url(#clip_1)"><clipPath id="clip_1"><rect width="845" height="23"></rect></clipPath><g><g><line x1="0" y1="0" x2="0" y2="5" style="visibility: inherit;" fill="rgb(0, 0, 0)" stroke="rgb(204, 204, 204)" stroke-width="1px"></line><line x1="93.90679166666666" y1="0" x2="93.90679166666666" y2="5" style="visibility: inherit;" fill="rgb(0, 0, 0)" stroke="rgb(204, 204, 204)" stroke-width="1px"></line><line x1="187.81358333333333" y1="0" x2="187.81358333333333" y2="5" style="visibility: inherit;" fill="rgb(0, 0, 0)" stroke="rgb(204, 204, 204)" stroke-width="1px"></line><line x1="281.720375" y1="0" x2="281.720375" y2="5" style="visibility: inherit;" fill="rgb(0, 0, 0)" stroke="rgb(204, 204, 204)" stroke-width="1px"></line><line x1="375.62716666666665" y1="0" x2="375.62716666666665" y2="5" style="visibility: inherit;" fill="rgb(0, 0, 0)" stroke="rgb(204, 204, 204)" stroke-width="1px"></line><line x1="469.5339583333333" y1="0" x2="469.5339583333333" y2="5" style="visibility: inherit;" fill="rgb(0, 0, 0)" stroke="rgb(204, 204, 204)" stroke-width="1px"></line><line x1="563.44075" y1="0" x2="563.44075" y2="5" style="visibility: inherit;" fill="rgb(0, 0, 0)" stroke="rgb(204, 204, 204)" stroke-width="1px"></line><line x1="657.3475416666666" y1="0" x2="657.3475416666666" y2="5" style="visibility: inherit;" fill="rgb(0, 0, 0)" stroke="rgb(204, 204, 204)" stroke-width="1px"></line><line x1="751.2543333333333" y1="0" x2="751.2543333333333" y2="5" style="visibility: inherit;" fill="rgb(0, 0, 0)" stroke="rgb(204, 204, 204)" stroke-width="1px"></line><line x1="845.161125" y1="0" x2="845.161125" y2="5" style="visibility: inherit;" fill="rgb(0, 0, 0)" stroke="rgb(204, 204, 204)" stroke-width="1px"></line></g><g transform="translate(0, 8)"><text x="0" y="0" dx="0em" dy="0.95em" style="text-anchor: middle; visibility: hidden; font-family: Roboto, sans-serif; font-size: 12px; font-weight: 200;" fill="rgb(33, 33, 33)" stroke="none" stroke-width="1px">-50</text><text x="93.90679166666666" y="0" dx="0em" dy="0.95em" style="text-anchor: middle; visibility: inherit; font-family: Roboto, sans-serif; font-size: 12px; font-weight: 200;" fill="rgb(33, 33, 33)" stroke="none" stroke-width="1px">0</text><text x="187.81358333333333" y="0" dx="0em" dy="0.95em" style="text-anchor: middle; visibility: inherit; font-family: Roboto, sans-serif; font-size: 12px; font-weight: 200;" fill="rgb(33, 33, 33)" stroke="none" stroke-width="1px">50</text><text x="281.720375" y="0" dx="0em" dy="0.95em" style="text-anchor: middle; visibility: inherit; font-family: Roboto, sans-serif; font-size: 12px; font-weight: 200;" fill="rgb(33, 33, 33)" stroke="none" stroke-width="1px">100</text><text x="375.62716666666665" y="0" dx="0em" dy="0.95em" style="text-anchor: middle; visibility: inherit; font-family: Roboto, sans-serif; font-size: 12px; font-weight: 200;" fill="rgb(33, 33, 33)" stroke="none" stroke-width="1px">150</text><text x="469.5339583333333" y="0" dx="0em" dy="0.95em" style="text-anchor: middle; visibility: inherit; font-family: Roboto, sans-serif; font-size: 12px; font-weight: 200;" fill="rgb(33, 33, 33)" stroke="none" stroke-width="1px">200</text><text x="563.44075" y="0" dx="0em" dy="0.95em" style="text-anchor: middle; visibility: inherit; font-family: Roboto, sans-serif; font-size: 12px; font-weight: 200;" fill="rgb(33, 33, 33)" stroke="none" stroke-width="1px">250</text><text x="657.3475416666666" y="0" dx="0em" dy="0.95em" style="text-anchor: middle; visibility: inherit; font-family: Roboto, sans-serif; font-size: 12px; font-weight: 200;" fill="rgb(33, 33, 33)" stroke="none" stroke-width="1px">300</text><text x="751.2543333333333" y="0" dx="0em" dy="0.95em" style="text-anchor: middle; visibility: inherit; font-family: Roboto, sans-serif; font-size: 12px; font-weight: 200;" fill="rgb(33, 33, 33)" stroke="none" stroke-width="1px">350</text><text x="845.161125" y="0" dx="0em" dy="0.95em" style="text-anchor: middle; visibility: hidden; font-family: Roboto, sans-serif; font-size: 12px; font-weight: 200;" fill="rgb(33, 33, 33)" stroke="none" stroke-width="1px">400</text></g><line x1="0" y1="0" x2="845.161125" y2="0" fill="rgb(0, 0, 0)" stroke="rgb(204, 204, 204)" stroke-width="1px"></line></g></g></g></g></svg>