<svg viewBox="0 0 886.3333740234375 400" xmlns="http://www.w3.org/2000/svg"><g><g><g><g><g><line x1="51.5625" y1="377" x2="46.5625" y2="377" style="visibility: inherit;" fill="rgb(0, 0, 0)" stroke="rgb(204, 204, 204)" stroke-width="1px"></line><line x1="51.5625" y1="339.30000000000007" x2="46.5625" y2="339.30000000000007" style="visibility: inherit;" fill="rgb(0, 0, 0)" stroke="rgb(204, 204, 204)" stroke-width="1px"></line><line x1="51.5625" y1="301.6" x2="46.5625" y2="301.6" style="visibility: inherit;" fill="rgb(0, 0, 0)" stroke="rgb(204, 204, 204)" stroke-width="1px"></line><line x1="51.5625" y1="263.9000000000001" x2="46.5625" y2="263.9000000000001" style="visibility: inherit;" fill="rgb(0, 0, 0)" stroke="rgb(204, 204, 204)" stroke-width="1px"></line><line x1="51.5625" y1="226.20000000000005" x2="46.5625" y2="226.20000000000005" style="visibility: inherit;" fill="rgb(0, 0, 0)" stroke="rgb(204, 204, 204)" stroke-width="1px"></line><line x1="51.5625" y1="188.5" x2="46.5625" y2="188.5" style="visibility: inherit;" fill="rgb(0, 0, 0)" stroke="rgb(204, 204, 204)" stroke-width="1px"></line><line x1="51.5625" y1="150.80000000000004" x2="46.5625" y2="150.80000000000004" style="visibility: inherit;" fill="rgb(0, 0, 0)" stroke="rgb(204, 204, 204)" stroke-width="1px"></line><line x1="51.5625" y1="113.10000000000002" x2="46.5625" y2="113.10000000000002" style="visibility: inherit;" fill="rgb(0, 0, 0)" stroke="rgb(204, 204, 204)" stroke-width="1px"></line><line x1="51.5625" y1="75.40000000000006" x2="46.5625" y2="75.40000000000006" style="visibility: inherit;" fill="rgb(0, 0, 0)" stroke="rgb(204, 204, 204)" stroke-width="1px"></line><line x1="51.5625" y1="37.70000000000003" x2="46.5625" y2="37.70000000000003" style="visibility: inherit;" fill="rgb(0, 0, 0)" stroke="rgb(204, 204, 204)" stroke-width="1px"></line><line x1="51.5625" y1="0" x2="46.5625" y2="0" style="visibility: inherit;" fill="rgb(0, 0, 0)" stroke="rgb(204, 204, 204)" stroke-width="1px"></line></g><g transform="translate(41.5625, 0)"><text x="0" y="377" dx="0em" dy="0.3em" style="text-anchor: end; visibility: hidden; font-family: Roboto, sans-serif; font-size: 12px; font-weight: 200;" fill="rgb(33, 33, 33)" stroke="none" stroke-width="1px">0.55</text><text x="0" y="339.30000000000007" dx="0em" dy="0.3em" style="text-anchor: end; visibility: inherit; font-family: Roboto, sans-serif; font-size: 12px; font-weight: 200;" fill="rgb(33, 33, 33)" stroke="none" stroke-width="1px">0.6</text><text x="0" y="301.6" dx="0em" dy="0.3em" style="text-anchor: end; visibility: inherit; font-family: Roboto, sans-serif; font-size: 12px; font-weight: 200;" fill="rgb(33, 33, 33)" stroke="none" stroke-width="1px">0.65</text><text x="0" y="263.9000000000001" dx="0em" dy="0.3em" style="text-anchor: end; visibility: inherit; font-family: Roboto, sans-serif; font-size: 12px; font-weight: 200;" fill="rgb(33, 33, 33)" stroke="none" stroke-width="1px">0.7</text><text x="0" y="226.20000000000005" dx="0em" dy="0.3em" style="text-anchor: end; visibility: inherit; font-family: Roboto, sans-serif; font-size: 12px; font-weight: 200;" fill="rgb(33, 33, 33)" stroke="none" stroke-width="1px">0.75</text><text x="0" y="188.5" dx="0em" dy="0.3em" style="text-anchor: end; visibility: inherit; font-family: Roboto, sans-serif; font-size: 12px; font-weight: 200;" fill="rgb(33, 33, 33)" stroke="none" stroke-width="1px">0.8</text><text x="0" y="150.80000000000004" dx="0em" dy="0.3em" style="text-anchor: end; visibility: inherit; font-family: Roboto, sans-serif; font-size: 12px; font-weight: 200;" fill="rgb(33, 33, 33)" stroke="none" stroke-width="1px">0.85</text><text x="0" y="113.10000000000002" dx="0em" dy="0.3em" style="text-anchor: end; visibility: inherit; font-family: Roboto, sans-serif; font-size: 12px; font-weight: 200;" fill="rgb(33, 33, 33)" stroke="none" stroke-width="1px">0.9</text><text x="0" y="75.40000000000006" dx="0em" dy="0.3em" style="text-anchor: end; visibility: inherit; font-family: Roboto, sans-serif; font-size: 12px; font-weight: 200;" fill="rgb(33, 33, 33)" stroke="none" stroke-width="1px">0.95</text><text x="0" y="37.70000000000003" dx="0em" dy="0.3em" style="text-anchor: end; visibility: inherit; font-family: Roboto, sans-serif; font-size: 12px; font-weight: 200;" fill="rgb(33, 33, 33)" stroke="none" stroke-width="1px">1</text><text x="0" y="0" dx="0em" dy="0.3em" style="text-anchor: end; visibility: hidden; font-family: Roboto, sans-serif; font-size: 12px; font-weight: 200;" fill="rgb(33, 33, 33)" stroke="none" stroke-width="1px">1.05</text></g><line x1="51.5625" y1="0" x2="51.5625" y2="377" fill="rgb(0, 0, 0)" stroke="rgb(204, 204, 204)" stroke-width="1px"></line></g></g><g transform="translate(51, 0)" clip-path="url(#clip_0)"><clipPath id="clip_0"><rect width="834" height="377"></rect></clipPath><g><g><g><line x1="0" y1="0" x2="0" y2="377" fill="rgb(0, 0, 0)" stroke="rgb(66, 66, 66)" stroke-width="1px" opacity="0.25"></line><line x1="92.75227777777776" y1="0" x2="92.75227777777776" y2="377" fill="rgb(0, 0, 0)" stroke="rgb(66, 66, 66)" stroke-width="1px" opacity="0.25"></line><line x1="185.50455555555553" y1="0" x2="185.50455555555553" y2="377" fill="rgb(0, 0, 0)" stroke="rgb(66, 66, 66)" stroke-width="1px" opacity="0.25"></line><line x1="278.2568333333333" y1="0" x2="278.2568333333333" y2="377" fill="rgb(0, 0, 0)" stroke="rgb(66, 66, 66)" stroke-width="1px" opacity="0.25"></line><line x1="371.00911111111105" y1="0" x2="371.00911111111105" y2="377" fill="rgb(0, 0, 0)" stroke="rgb(66, 66, 66)" stroke-width="1px" opacity="0.25"></line><line x1="463.7613888888889" y1="0" x2="463.7613888888889" y2="377" fill="rgb(0, 0, 0)" stroke="rgb(66, 66, 66)" stroke-width="1px" opacity="0.25"></line><line x1="556.5136666666666" y1="0" x2="556.5136666666666" y2="377" fill="rgb(0, 0, 0)" stroke="rgb(66, 66, 66)" stroke-width="1px" opacity="0.25"></line><line x1="649.2659444444445" y1="0" x2="649.2659444444445" y2="377" fill="rgb(0, 0, 0)" stroke="rgb(66, 66, 66)" stroke-width="1px" opacity="0.25"></line><line x1="742.0182222222221" y1="0" x2="742.0182222222221" y2="377" fill="rgb(0, 0, 0)" stroke="rgb(66, 66, 66)" stroke-width="1px" opacity="0.25"></line><line x1="834.7705" y1="0" x2="834.7705" y2="377" fill="rgb(0, 0, 0)" stroke="rgb(66, 66, 66)" stroke-width="1px" opacity="0.25"></line></g><g><line x1="0" y1="377" x2="834.7705" y2="377" fill="rgb(0, 0, 0)" stroke="rgb(66, 66, 66)" stroke-width="1px" opacity="0.25"></line><line x1="0" y1="339.30000000000007" x2="834.7705" y2="339.30000000000007" fill="rgb(0, 0, 0)" stroke="rgb(66, 66, 66)" stroke-width="1px" opacity="0.25"></line><line x1="0" y1="301.6" x2="834.7705" y2="301.6" fill="rgb(0, 0, 0)" stroke="rgb(66, 66, 66)" stroke-width="1px" opacity="0.25"></line><line x1="0" y1="263.9000000000001" x2="834.7705" y2="263.9000000000001" fill="rgb(0, 0, 0)" stroke="rgb(66, 66, 66)" stroke-width="1px" opacity="0.25"></line><line x1="0" y1="226.20000000000005" x2="834.7705" y2="226.20000000000005" fill="rgb(0, 0, 0)" stroke="rgb(66, 66, 66)" stroke-width="1px" opacity="0.25"></line><line x1="0" y1="188.5" x2="834.7705" y2="188.5" fill="rgb(0, 0, 0)" stroke="rgb(66, 66, 66)" stroke-width="1px" opacity="0.25"></line><line x1="0" y1="150.80000000000004" x2="834.7705" y2="150.80000000000004" fill="rgb(0, 0, 0)" stroke="rgb(66, 66, 66)" stroke-width="1px" opacity="0.25"></line><line x1="0" y1="113.10000000000002" x2="834.7705" y2="113.10000000000002" fill="rgb(0, 0, 0)" stroke="rgb(66, 66, 66)" stroke-width="1px" opacity="0.25"></line><line x1="0" y1="75.40000000000006" x2="834.7705" y2="75.40000000000006" fill="rgb(0, 0, 0)" stroke="rgb(66, 66, 66)" stroke-width="1px" opacity="0.25"></line><line x1="0" y1="37.70000000000003" x2="834.7705" y2="37.70000000000003" fill="rgb(0, 0, 0)" stroke="rgb(66, 66, 66)" stroke-width="1px" opacity="0.25"></line><line x1="0" y1="0" x2="834.7705" y2="0" fill="rgb(0, 0, 0)" stroke="rgb(66, 66, 66)" stroke-width="1px" opacity="0.25"></line></g></g></g><g><g><line x1="0" y1="791.7" x2="834.7705" y2="791.7" fill="rgb(0, 0, 0)" stroke="rgb(153, 153, 153)" stroke-width="1.5px"></line></g></g><g><g><line x1="92.75227777777776" y1="0" x2="92.75227777777776" y2="377" fill="rgb(0, 0, 0)" stroke="rgb(153, 153, 153)" stroke-width="1.5px"></line></g></g><g><g><g><g><g><path stroke="rgb(255, 112, 67)" stroke-width="2px" d="M115.01282444444443,389.86055876884495L116.86787000000001,372.0218255189479L118.72291555555555,365.2302205508417L120.5779611111111,355.6662498024698L122.43300666666666,348.94924370938793L124.2880522222222,341.98202937122346L126.14309777777777,333.15982716775693L127.99814333333332,326.1397488922445L129.8531888888889,318.7368221952615L131.70823444444443,314.60606441891457L133.56328,307.8699417339679L135.41832555555555,303.8690605289448L137.27337111111112,298.6043910313894L139.12841666666665,293.0500692652826L140.98346222222222,291.5619410764351L142.83850777777778,286.11405552767474L144.69355333333334,284.2591289701078L146.54859888888888,278.9266309462932L148.40364444444444,274.54913396637374L150.25869,269.63502136732296L152.11373555555556,266.65430391350617L153.9687811111111,263.44362411258834L155.82382666666666,266.3326873543595L157.67887222222222,260.63232103578326L159.5339177777778,254.5752699965865L161.38896333333332,251.27632398200674L163.24400888888889,246.3312582284928L165.09905444444445,242.839171532404L166.9541,245.4317913636124L168.80914555555555,241.73201900808644L170.6641911111111,240.59088708637054L172.51923666666667,235.29840458763553L174.37428222222223,231.53403235687918L176.22932777777777,229.61493610132123L178.08437333333333,227.79842807989945L179.9394188888889,223.58786544153213L181.79446444444443,220.19885905823915L183.64951,220.81118500854498L185.50455555555553,216.6596902931946L187.35960111111112,218.37805202039223L189.21464666666665,218.09863509674085L191.06969222222222,212.13049542151364L192.92473777777775,210.97153072382375L194.77978333333334,208.6636005021639L196.63482888888888,205.44201289758L198.48987444444444,203.34293708768388L200.34491999999997,200.145488920014L202.19996555555556,200.14030465495637L204.0550111111111,199.48578818924454L205.91005666666666,200.80824106387632L207.7651022222222,198.7039847746631L209.6201477777778,198.82636065811747L211.47519333333335,195.79942412573598L213.33023888888886,194.9807207596213L215.18528444444442,192.37728326868472L217.04033,189.8815257915941L218.89537555555557,188.40875339800638L220.75042111111108,187.37593677696302L222.60546666666664,185.58071045790143L224.46051222222223,183.41988159128442L226.3155577777778,183.49875029151693L228.1706033333333,182.70150530949266L230.02564888888887,182.40306974300768L231.88069444444446,177.99831908732074L233.73574000000002,175.981024018463L235.59078555555553,177.71595947714835L237.4458311111111,176.33201750261892L239.30087666666668,174.96691558923305L241.1559222222222,175.73421370366805L243.01096777777775,174.78521452057123L244.8660133333333,172.9488848120437L246.7210588888889,171.90935848656093L248.5761044444444,170.53099624695068L250.43114999999997,170.1192780326705L252.28619555555554,166.85233104651576L254.14124111111113,166.82822404638182L255.99628666666663,168.11928615054637L257.8513322222222,166.81277178455082L259.7063777777778,166.8915858955902L261.5614233333333,166.83543608020076L263.41646888888886,166.37476216691928L265.27151444444445,165.01867356144308L267.12656,162.0943149748023L268.9816055555556,164.67087677136516L270.8366511111111,162.167925976607L272.69169666666664,159.3887987797813L274.54674222222224,158.29168913038708L276.40178777777777,158.9259524468908L278.2568333333333,154.91092275406893L280.1118788888889,153.90177328363643L281.96692444444443,152.27153632507077L283.82197,153.49588891425938L285.67701555555556,153.13237205361847L287.5320611111111,152.43261058339786L289.3871066666667,150.1981614828665L291.2421522222222,150.04661880019665L293.09719777777775,150.39865855505087L294.95224333333334,149.47256465512524L296.8072888888889,146.2300297293544L298.6623344444444,146.51339342316865L300.51738,144.31475767446088L302.37242555555554,143.34186256976446L304.22747111111113,143.6978067508431L306.0825166666666,143.65754139608686L307.9375622222222,142.92572699181164L309.7926077777778,141.4720838963504L311.6476533333333,141.13763688680618L313.50269888888886,142.89436828778437L315.35774444444445,140.38325591377168L317.21279,138.05132932836864L319.0678355555556,137.40672993764318L320.92288111111105,138.59541767182967L322.77792666666664,137.1599579700411L324.63297222222224,136.53768318465828L326.48801777777777,135.72877735120937L328.3430633333333,135.34343857182796L330.1981088888889,134.74295668252552L332.05315444444443,136.22393728046563L333.9082,133.7468625399408L335.7632455555555,132.91664362984523L337.6182911111111,131.50358503960155L339.4733366666667,131.71758321942443L341.3283822222222,132.79891224397164L343.18342777777775,129.52543211277094L345.03847333333334,126.93255289254047L346.8935188888889,128.55569193755065L348.74856444444447,127.70563523050832L350.60360999999995,124.74946740196165L352.45865555555554,126.41186275318873L354.31370111111113,124.81572076699503L356.16874666666666,122.91522637499202L358.0237922222222,124.1675647037794L359.8788377777778,123.87649533853347L361.7338833333333,125.55279494825257L363.58892888888886,123.89263905467543L365.4439744444444,122.2321963440296L367.29902,122.66600002115464L369.1540655555556,120.22755695620474L371.00911111111105,118.70137470984035L372.86415666666664,120.65448674454436L374.71920222222224,121.26763623770559L376.57424777777777,117.9594221509486L378.4292933333333,115.81444659691988L380.28433888888884,114.55340173042977L382.13938444444443,114.73381347058522L383.99443,114.05158638595525L385.8494755555555,112.05914466642727L387.7045211111111,110.70140341438886L389.5595666666667,111.78528437804006L391.4146122222222,111.93584102744359L393.26965777777775,111.70503816100658L395.1247033333333,112.35879229243221L396.9797488888889,112.36957790574803L398.83479444444447,113.34452928853854L400.68983999999995,111.81575662227175L402.54488555555554,109.70602256734186L404.39993111111113,107.06860921072375L406.25497666666666,106.01850701622618L408.1100222222222,103.9660165193823L409.96506777777773,103.19163529653238L411.8201133333333,106.07963651048478L413.6751588888889,105.42508744256105L415.5302044444444,104.09652378473533L417.38525,103.77296537824779L419.2402955555556,104.97181358020491L421.0953411111111,101.67365800667393L422.9503866666667,98.90871281700495L424.8054322222222,98.14150090263585L426.6604777777777,96.5501478674788L428.5155233333333,97.62171248452539L430.37056888888884,98.5297545472186L432.22561444444443,96.15714924093493L434.08066,98.05139501903302L435.93570555555556,98.12797873505266L437.79075111111115,98.78585790448378L439.6457966666666,96.36395056040878L441.50084222222216,94.42870538110614L443.35588777777775,91.20337670728614L445.2109333333333,93.22475670865208L447.0659788888889,91.41702148849386L448.92102444444447,91.63806845149176L450.77607,91.28180064082612L452.6311155555556,92.90593005490577L454.4861611111111,93.00909208102395L456.3412066666666,91.1000711658202L458.1962522222222,90.54053923002493L460.05129777777773,91.49774466342699L461.9063433333333,91.23316440097668L463.7613888888889,89.86211742110359L465.61643444444445,89.29786921708168L467.47148000000004,87.23502534609075L469.3265255555555,88.95381306875377L471.18157111111105,86.25026981871508L473.03661666666665,82.05737718129865L474.8916622222222,82.26504896274044L476.7467077777778,80.99224650258326L478.60175333333336,81.49945011254857L480.4567988888889,81.34777376244489L482.3118444444444,82.33073559993521L484.16688999999997,82.01543672319669L486.0219355555555,80.88634245536585L487.8769811111111,79.18992713535938L489.7320266666666,78.23767514374917L491.5870722222222,77.67058444110795L493.4421177777778,77.9078514390484L495.29716333333334,76.03190676529978L497.1522088888888,74.18040240383012L499.0072544444444,72.94632302150644L500.86229999999995,74.40736345783193L502.71734555555554,74.53385344228339L504.5723911111111,72.99606349397419L506.42743666666667,74.71439141707846L508.28248222222226,74.20389890359182L510.1375277777778,72.54916656307178L511.99257333333327,71.82863913233163L513.8476188888889,71.48255719575334L515.7026644444444,71.45081063886315L517.5577099999999,69.98305150020026L519.4127555555556,68.99045472710077L521.2678011111111,67.40610290866339L523.1228466666666,65.86930559933928L524.9778922222223,66.15143649375885L526.8329377777777,66.51721900341775L528.6879833333332,65.67154745124509L530.5430288888889,65.66129184164242L532.3980744444444,65.97906172989387L534.25312,65.24893599461662L536.1081655555556,64.43410359925726L537.9632111111111,63.63661508504566L539.8182566666666,63.3656816574574L541.6733022222222,62.51324542597768L543.5283477777778,62.60015814921757L545.3833933333333,61.42375596893729L547.2384388888888,60.5661368687922L549.0934844444445,60.48617157935941L550.94853,60.26387175559912L552.8035755555555,60.38867410087537L554.6586211111111,59.804509477996554L556.5136666666666,59.662972572555375L558.3687122222221,59.09674063391106L560.2237577777778,58.76766168991695L562.0788033333333,57.24200134706487L563.9338488888889,57.01820708532324L565.7888944444445,55.93855065118785L567.64394,56.22675279862592L569.4989855555555,55.51827350191421L571.3540311111111,55.93924419720263L573.2090766666666,55.79784792327462L575.0641222222222,55.35699838676207L576.9191677777777,54.043850273359695L578.7742133333334,54.55030616430573L580.6292588888889,54.24372485344492L582.4843044444444,53.482416438251065L584.33935,51.864242753499354L586.1943955555555,51.24266295976261L588.049441111111,51.745974315087956L589.9044866666667,51.88448046498356L591.7595322222222,51.05526354105989L593.6145777777778,50.69221753473107L595.4696233333334,49.865355249613685L597.3246688888888,49.22332051060805L599.1797144444444,49.607343241347124L601.03476,49.32728877828917L602.8898055555555,49.08120100478173L604.7448511111111,48.68825543868443L606.5998966666666,48.766991530346274L608.4549422222223,47.202742411188716L610.3099877777778,47.74163100808414L612.1650333333332,47.48077336841556L614.0200788888889,47.13654544766983L615.8751244444444,47.06697363624718L617.7301699999999,46.035933445511745L619.5852155555556,45.55970325387633L621.4402611111111,45.26869794796188L623.2953066666666,46.374345742882994L625.1503522222223,45.357069069875266L627.0053977777777,44.94164306088266L628.8604433333333,44.654546373867866L630.7154888888889,44.662199784388484L632.5705344444444,44.15979324404622L634.42558,43.80301684990068L636.2806255555555,44.15480551513763L638.1356711111112,43.947613419251084L639.9907166666667,43.372584813330384L641.8457622222221,44.31092860787736L643.7008077777778,44.33862289958973L645.5558533333333,44.03967541440596L647.4108988888888,43.73856829872295L649.2659444444445,43.499209905091334L651.12099,43.67130274321047L652.9760355555555,43.71649350849038L654.8310811111112,43.65895540074854L656.6861266666666,42.9823925218364L658.5411722222221,43.37976433046937L660.3962177777778,42.59631642108133L662.2512633333333,42.8084657502471L664.1063088888889,42.03341183616509L665.9613544444444,41.87651914569019L667.8164,41.80341634161641L669.6714455555555,41.79552615766151L671.526491111111,42.34614812066809L673.3815366666666,42.06606645304362L675.2365822222222,41.69126672576909L677.0916277777777,42.01706900495915L678.9466733333334,41.59197461067817L680.8017188888889,41.769564677829614L682.6567644444444,41.52404385659399L684.51181,41.08807851465522L686.3668555555555,40.769944419813044L688.221901111111,40.551577495546255L690.0769466666667,40.9554918140239L691.9319922222222,41.29042072356141L693.7870377777778,40.86080722844845L695.6420833333333,40.60640078566221L697.4971288888889,40.7520992432937L699.3521744444444,40.461502990419035L701.2072199999999,40.48672323780917L703.0622655555555,40.479654086575884L704.9173111111111,40.28097595032813L706.7723566666666,40.21746107373693L708.6274022222223,40.91086250087056L710.4824477777778,40.92918549978991L712.3374933333333,40.346550701881995L714.1925388888889,40.2616776268635L716.0475844444444,40.49723144298511L717.9026299999999,39.90912070706917L719.7576755555556,39.94318606636185L721.6127211111111,39.624673455841865L723.4677666666666,39.42206076257682L725.3228122222222,39.75803766413487L727.1778577777777,39.714402810120355L729.0329033333333,39.99704467259868L730.8879488888888,39.89223251225368L732.7429944444444,39.925125397931396L734.59804,40.21379347186732L736.4530855555555,39.89750509465607L738.3081311111112,40.612520419388275L740.1631766666667,40.32939820935082L742.0182222222221,40.152657760678224" style="fill: none;" fill="none"></path></g></g></g></g><g opacity="0.2"><g><g><g><path stroke="rgb(255, 112, 67)" stroke-width="2px" d="M111.30273333333332,392.2904844999314L113.1577788888889,375.2404706001282L115.01282444444443,376.58266050815587L116.86787000000001,345.32197220325475L118.72291555555555,355.0561185598374L120.5779611111111,341.33153576850896L122.43300666666666,338.8784719228745L124.2880522222222,331.5341561555863L126.14309777777777,319.9287638187409L127.99814333333332,315.610700917244L129.8531888888889,307.63310880661015L131.70823444444443,308.4101542949677L133.56328,297.76597936153416L135.41832555555555,297.8678177118302L137.27337111111112,290.7074491500855L139.12841666666665,284.7186260938645L140.98346222222222,289.32975513935094L142.83850777777778,277.94224114418034L144.69355333333334,281.4767419815064L146.54859888888888,270.9278888225556L148.40364444444444,267.9828909158707L150.25869,262.26385409832005L152.11373555555556,262.18322832584386L153.9687811111111,258.6276047945023L155.82382666666666,270.6662820100785L157.67887222222222,252.08177180290227L159.5339177777778,245.48969359397893L161.38896333333332,246.3279050111771L163.24400888888889,238.91365964412694L165.09905444444445,237.601041507721L166.9541,249.3207211017609L168.80914555555555,236.18236048221593L170.6641911111111,238.87918920516972L172.51923666666667,227.35968084335332L174.37428222222223,225.88747401237492L176.22932777777777,226.73629171848302L178.08437333333333,225.07366604804997L179.9394188888889,217.27202148437505L181.79446444444443,215.11534948349004L183.64951,221.7296739339829L185.50455555555553,210.43244822025304L187.35960111111112,220.95559461116795L189.21464666666665,217.6795097112656L191.06969222222222,203.17828590869908L192.92473777777775,209.23308367729192L194.77978333333334,205.20170516967778L196.63482888888888,200.60963149070744L198.48987444444444,200.19432337284093L200.34491999999997,195.34931666851048L202.19996555555556,200.13252825737004L204.0550111111111,198.50401349067693L205.91005666666666,202.79192037582402L207.7651022222222,195.54760034084325L209.6201477777778,199.0099244832993L211.47519333333335,191.25901932716374L213.33023888888886,193.75266571044926L215.18528444444442,188.47212703228L217.04033,186.1378895759583L218.89537555555557,186.19959480762486L220.75042111111108,185.826711845398L222.60546666666664,182.88787097930913L224.46051222222223,180.178638291359L226.3155577777778,183.61705334186559L228.1706033333333,181.50563783645634L230.02564888888887,181.95541639328007L231.88069444444446,171.39119310379033L233.73574000000002,172.95508141517644L235.59078555555553,180.31836266517644L237.4458311111111,174.25610454082494L239.30087666666668,172.9192627191544L241.1559222222222,176.88516087532048L243.01096777777775,173.36171574592595L244.8660133333333,170.19439024925236L246.7210588888889,170.35006899833684L248.5761044444444,168.46345288753514L250.43114999999997,169.50170071125035L252.28619555555554,161.95191056728368L254.14124111111113,166.79206354618077L255.99628666666663,170.05587930679326L257.8513322222222,164.8530002355576L259.7063777777778,167.0098070621491L261.5614233333333,166.75121135711674L263.41646888888886,165.68375129699712L265.27151444444445,162.9845406532288L267.12656,157.70777709484105L268.9816055555556,168.53571946620946L270.8366511111111,158.41349978446965L272.69169666666664,155.2201079845429L274.54674222222224,156.64602465629582L276.40178777777777,159.87734742164616L278.2568333333333,148.88837821483617L280.1118788888889,152.38804907798772L281.96692444444443,149.82618088722234L283.82197,155.33241779804234L285.67701555555556,152.5870967626572L287.5320611111111,151.38296837806706L289.3871066666667,146.84648783206944L291.2421522222222,149.81930477619176L293.09719777777775,150.9267181873322L294.95224333333334,148.08342380523686L296.8072888888889,141.3662273406983L298.6623344444444,146.93843896389012L300.51738,141.01680405139928L302.37242555555554,141.88251991271977L304.22747111111113,144.23172302246098L306.0825166666666,143.59714336395268L307.9375622222222,141.8280053853989L309.7926077777778,139.29161925315861L311.6476533333333,140.63596637248997L313.50269888888886,145.52946538925175L315.35774444444445,136.61658735275273L317.21279,134.55343945026402L319.0678355555556,136.43983085155492L320.92288111111105,140.37844927310948L322.77792666666664,135.00676841735844L324.63297222222224,135.6042710065842L326.48801777777777,134.51541860103612L328.3430633333333,134.76543040275578L330.1981088888889,133.84223384857182L332.05315444444443,138.44540817737584L333.9082,130.0312504291535L335.7632455555555,131.6713152647019L337.6182911111111,129.38399715423589L339.4733366666667,132.03858048915868L341.3283822222222,134.42090578079228L343.18342777777775,124.61521191596988L345.03847333333334,123.04323406219486L346.8935188888889,130.99040050506596L348.74856444444447,126.4305501699448L350.60360999999995,120.31521565914157L352.45865555555554,128.90545578002934L354.31370111111113,122.4215077877045L356.16874666666666,120.06448478698734L358.0237922222222,126.04607219696048L359.8788377777778,123.4398912906647L361.7338833333333,128.06724436283116L363.58892888888886,121.40240521430972L365.4439744444444,119.74153227806094L367.29902,123.31670553684238L369.1540655555556,116.56989235877994L371.00911111111105,116.41210134029392L372.86415666666664,123.58415479660037L374.71920222222224,122.18736047744754L376.57424777777777,112.99710102081302L378.4292933333333,112.5969832658768L380.28433888888884,112.66183443069461L382.13938444444443,115.00443108081821L383.99443,113.02824575901035L385.8494755555555,109.07048208713535L387.7045211111111,108.66479153633121L389.5595666666667,113.41110582351688L391.4146122222222,112.1616760015488L393.26965777777775,111.35883386135104L395.1247033333333,113.33942348957065L396.9797488888889,112.38575632572177L398.83479444444447,114.80695636272434L400.68983999999995,109.52259762287143L402.54488555555554,106.54142148494724L404.39993111111113,103.11248917579654L406.25497666666666,104.4433537244797L408.1100222222222,100.88728077411655L409.96506777777773,102.03006346225742L411.8201133333333,110.4116383314133L413.6751588888889,104.44326384067539L415.5302044444444,102.10367829799655L417.38525,103.28762776851657L419.2402955555556,106.7700858831406L421.0953411111111,96.7264246463776L422.9503866666667,94.76129503250125L424.8054322222222,96.99068303108218L426.6604777777777,94.16311831474307L428.5155233333333,99.22905941009525L430.37056888888884,99.89181764125827L432.22561444444443,92.59824128150943L434.08066,100.89276368618015L435.93570555555556,98.24285430908206L437.79075111111115,99.7726766586304L439.6457966666666,92.7310895442963L441.50084222222216,91.52583761215213L443.35588777777775,86.36538369655612L445.2109333333333,96.25682671070102L447.0659788888889,88.70541865825656L448.92102444444447,91.9696388959885L450.77607,90.7473989248276L452.6311155555556,95.34212417602542L454.4861611111111,93.16383512020114L456.3412066666666,88.23653979301456L458.1962522222222,89.70124132633212L460.05129777777773,92.93355281353L461.9063433333333,90.83629400730136L463.7613888888889,87.80554695129398L465.61643444444445,88.45149691104892L467.47148000000004,84.14075953960422L469.3265255555555,91.53199465274814L471.18157111111105,82.19495494365695L473.03661666666665,75.76803822517398L474.8916622222222,82.57655663490299L476.7467077777778,79.08304281234744L478.60175333333336,82.26025552749637L480.4567988888889,81.12025923728946L482.3118444444444,83.80517835617069L484.16688999999997,81.54248840808872L486.0219355555555,79.19270105361942L487.8769811111111,76.64530415534976L489.7320266666666,76.80929715633395L491.5870722222222,76.81994838714603L493.4421177777778,78.2637519359589L495.29716333333334,73.21798975467685L497.1522088888888,71.4031458616257L499.0072544444444,71.09520394802097L500.86229999999995,76.59892411231998L502.71734555555554,74.7235884189606L504.5723911111111,70.68937857151035L506.42743666666667,77.29188330173496L508.28248222222226,73.43816013336185L510.1375277777778,70.0670680522919L511.99257333333327,70.74784798622134L513.8476188888889,70.96343429088596L515.7026644444444,71.40319080352786L517.5577099999999,67.78141279220584L519.4127555555556,67.50155956745151L521.2678011111111,65.02957518100742L523.1228466666666,63.56410963535312L524.9778922222223,66.57463283538821L526.8329377777777,67.06589276790622L528.6879833333332,64.40304012298587L530.5430288888889,65.6459084272385L532.3980744444444,66.45571656227115L534.25312,64.15374739170078L536.1081655555556,63.21185500621799L537.9632111111111,62.440382313728364L539.8182566666666,62.959281516075166L541.6733022222222,61.23459107875827L543.5283477777778,62.730527234077485L545.3833933333333,59.65915269851688L547.2384388888888,59.279708218574555L549.0934844444445,60.3662236452103L550.94853,59.93042201995853L552.8035755555555,60.575877618789704L554.6586211111111,58.928262543678315L556.5136666666666,59.45066721439365L558.3687122222221,58.24739272594455L560.2237577777778,58.27404327392581L562.0788033333333,54.95351083278659L563.9338488888889,56.68251569271091L565.7888944444445,54.31906599998477L567.64394,56.65905601978305L569.4989855555555,54.45555455684665L571.3540311111111,56.570700240135224L573.2090766666666,55.58575351238254L575.0641222222222,54.695724081993134L576.9191677777777,52.07412810325626L578.7742133333334,55.309990000724824L580.6292588888889,53.78385288715366L582.4843044444444,52.340453815460236L584.33935,49.436982226371796L586.1943955555555,50.31029326915744L588.049441111111,52.5009413480759L589.9044866666667,52.092239689827L591.7595322222222,49.81143815517429L593.6145777777778,50.14764852523807L595.4696233333334,48.62506182193759L597.3246688888888,48.26026840209964L599.1797144444444,50.18337733745578L601.03476,48.90720708370212L602.8898055555555,48.7120693445206L604.7448511111111,48.098837089538605L606.5998966666666,48.88509566783908L608.4549422222223,44.856368732452424L610.3099877777778,48.549963903427155L612.1650333333332,47.08948690891269L614.0200788888889,46.62020356655124L615.8751244444444,46.96261591911319L617.7301699999999,44.4893731594086L619.5852155555556,44.845357966423066L621.4402611111111,44.83218998909L623.2953066666666,48.03281743526462L625.1503522222223,43.8311540603638L627.0053977777777,44.31850404739383L628.8604433333333,44.22390134334567L630.7154888888889,44.673679900169404L632.5705344444444,43.406183433532746L634.42558,43.26785225868228L636.2806255555555,44.68248851299289L638.1356711111112,43.636825275421174L639.9907166666667,42.510041904449494L641.8457622222221,45.71844429969791L643.7008077777778,44.380164337158234L645.5558533333333,43.59125418663028L647.4108988888888,43.286907625198396L649.2659444444445,43.14017231464389L651.12099,43.92944200038913L652.9760355555555,43.78427965641025L654.8310811111112,43.57264823913577L656.6861266666666,41.967548203468354L658.5411722222221,43.975822043418916L660.3962177777778,41.42114455699924L662.2512633333333,43.1266897439957L664.1063088888889,40.870830965042146L665.9613544444444,41.64118010997775L667.8164,41.69376213550571L669.6714455555555,41.78369088172916L671.526491111111,43.17208106517795L673.3815366666666,41.64594395160678L675.2365822222222,41.12906713485721L677.0916277777777,42.50577242374423L678.9466733333334,40.95433301925662L680.8017188888889,42.035949778556855L682.6567644444444,41.15576262474063L684.51181,40.43413050174716L686.3668555555555,40.292743277549775L688.221901111111,40.22402710914615L690.0769466666667,41.56136329174045L691.9319922222222,41.79281408786777L693.7870377777778,40.21638698577884L695.6420833333333,40.22479112148288L697.4971288888889,40.97064692974094L699.3521744444444,40.025608611106904L701.2072199999999,40.52455360889438L703.0622655555555,40.46905035972598L704.9173111111111,39.98295874595645L706.7723566666666,40.12218875885013L708.6274022222223,41.950964641571076L710.4824477777778,40.95666999816898L712.3374933333333,39.47259850502017L714.1925388888889,40.134368014335664L716.0475844444444,40.850562167167695L717.9026299999999,39.02695460319522L719.7576755555556,39.994284105300935L721.6127211111111,39.14690454006198L723.4677666666666,39.11814172267917L725.3228122222222,40.262003016471894L727.1778577777777,39.64895052909854L729.0329033333333,40.421007466316254L730.8879488888888,39.735014271736176L732.7429944444444,39.97446472644809L734.59804,40.64679558277133L736.4530855555555,39.42307252883914L738.3081311111112,41.68504340648654L740.1631766666667,39.90471489429477L742.0182222222221,39.887547087669404" style="fill: none;" fill="none"></path></g></g></g></g></g></g><g transform="translate(51, 377)" clip-path="url(#clip_1)"><clipPath id="clip_1"><rect width="834" height="23"></rect></clipPath><g><g><line x1="0" y1="0" x2="0" y2="5" style="visibility: inherit;" fill="rgb(0, 0, 0)" stroke="rgb(204, 204, 204)" stroke-width="1px"></line><line x1="92.75227777777776" y1="0" x2="92.75227777777776" y2="5" style="visibility: inherit;" fill="rgb(0, 0, 0)" stroke="rgb(204, 204, 204)" stroke-width="1px"></line><line x1="185.50455555555553" y1="0" x2="185.50455555555553" y2="5" style="visibility: inherit;" fill="rgb(0, 0, 0)" stroke="rgb(204, 204, 204)" stroke-width="1px"></line><line x1="278.2568333333333" y1="0" x2="278.2568333333333" y2="5" style="visibility: inherit;" fill="rgb(0, 0, 0)" stroke="rgb(204, 204, 204)" stroke-width="1px"></line><line x1="371.00911111111105" y1="0" x2="371.00911111111105" y2="5" style="visibility: inherit;" fill="rgb(0, 0, 0)" stroke="rgb(204, 204, 204)" stroke-width="1px"></line><line x1="463.7613888888889" y1="0" x2="463.7613888888889" y2="5" style="visibility: inherit;" fill="rgb(0, 0, 0)" stroke="rgb(204, 204, 204)" stroke-width="1px"></line><line x1="556.5136666666666" y1="0" x2="556.5136666666666" y2="5" style="visibility: inherit;" fill="rgb(0, 0, 0)" stroke="rgb(204, 204, 204)" stroke-width="1px"></line><line x1="649.2659444444445" y1="0" x2="649.2659444444445" y2="5" style="visibility: inherit;" fill="rgb(0, 0, 0)" stroke="rgb(204, 204, 204)" stroke-width="1px"></line><line x1="742.0182222222221" y1="0" x2="742.0182222222221" y2="5" style="visibility: inherit;" fill="rgb(0, 0, 0)" stroke="rgb(204, 204, 204)" stroke-width="1px"></line><line x1="834.7705" y1="0" x2="834.7705" y2="5" style="visibility: inherit;" fill="rgb(0, 0, 0)" stroke="rgb(204, 204, 204)" stroke-width="1px"></line></g><g transform="translate(0, 8)"><text x="0" y="0" dx="0em" dy="0.95em" style="text-anchor: middle; visibility: hidden; font-family: Roboto, sans-serif; font-size: 12px; font-weight: 200;" fill="rgb(33, 33, 33)" stroke="none" stroke-width="1px">-50</text><text x="92.75227777777776" y="0" dx="0em" dy="0.95em" style="text-anchor: middle; visibility: inherit; font-family: Roboto, sans-serif; font-size: 12px; font-weight: 200;" fill="rgb(33, 33, 33)" stroke="none" stroke-width="1px">0</text><text x="185.50455555555553" y="0" dx="0em" dy="0.95em" style="text-anchor: middle; visibility: inherit; font-family: Roboto, sans-serif; font-size: 12px; font-weight: 200;" fill="rgb(33, 33, 33)" stroke="none" stroke-width="1px">50</text><text x="278.2568333333333" y="0" dx="0em" dy="0.95em" style="text-anchor: middle; visibility: inherit; font-family: Roboto, sans-serif; font-size: 12px; font-weight: 200;" fill="rgb(33, 33, 33)" stroke="none" stroke-width="1px">100</text><text x="371.00911111111105" y="0" dx="0em" dy="0.95em" style="text-anchor: middle; visibility: inherit; font-family: Roboto, sans-serif; font-size: 12px; font-weight: 200;" fill="rgb(33, 33, 33)" stroke="none" stroke-width="1px">150</text><text x="463.7613888888889" y="0" dx="0em" dy="0.95em" style="text-anchor: middle; visibility: inherit; font-family: Roboto, sans-serif; font-size: 12px; font-weight: 200;" fill="rgb(33, 33, 33)" stroke="none" stroke-width="1px">200</text><text x="556.5136666666666" y="0" dx="0em" dy="0.95em" style="text-anchor: middle; visibility: inherit; font-family: Roboto, sans-serif; font-size: 12px; font-weight: 200;" fill="rgb(33, 33, 33)" stroke="none" stroke-width="1px">250</text><text x="649.2659444444445" y="0" dx="0em" dy="0.95em" style="text-anchor: middle; visibility: inherit; font-family: Roboto, sans-serif; font-size: 12px; font-weight: 200;" fill="rgb(33, 33, 33)" stroke="none" stroke-width="1px">300</text><text x="742.0182222222221" y="0" dx="0em" dy="0.95em" style="text-anchor: middle; visibility: inherit; font-family: Roboto, sans-serif; font-size: 12px; font-weight: 200;" fill="rgb(33, 33, 33)" stroke="none" stroke-width="1px">350</text><text x="834.7705" y="0" dx="0em" dy="0.95em" style="text-anchor: middle; visibility: hidden; font-family: Roboto, sans-serif; font-size: 12px; font-weight: 200;" fill="rgb(33, 33, 33)" stroke="none" stroke-width="1px">400</text></g><line x1="0" y1="0" x2="834.7705" y2="0" fill="rgb(0, 0, 0)" stroke="rgb(204, 204, 204)" stroke-width="1px"></line></g></g></g></g></svg>