<svg viewBox="0 0 886.3333740234375 400" xmlns="http://www.w3.org/2000/svg"><g><g><g><g><g><line x1="41.171875" y1="377" x2="36.171875" y2="377" style="visibility: inherit;" fill="rgb(0, 0, 0)" stroke="rgb(204, 204, 204)" stroke-width="1px"></line><line x1="41.171875" y1="342.7272727272727" x2="36.171875" y2="342.7272727272727" style="visibility: inherit;" fill="rgb(0, 0, 0)" stroke="rgb(204, 204, 204)" stroke-width="1px"></line><line x1="41.171875" y1="308.45454545454544" x2="36.171875" y2="308.45454545454544" style="visibility: inherit;" fill="rgb(0, 0, 0)" stroke="rgb(204, 204, 204)" stroke-width="1px"></line><line x1="41.171875" y1="274.1818181818182" x2="36.171875" y2="274.1818181818182" style="visibility: inherit;" fill="rgb(0, 0, 0)" stroke="rgb(204, 204, 204)" stroke-width="1px"></line><line x1="41.171875" y1="239.9090909090909" x2="36.171875" y2="239.9090909090909" style="visibility: inherit;" fill="rgb(0, 0, 0)" stroke="rgb(204, 204, 204)" stroke-width="1px"></line><line x1="41.171875" y1="205.63636363636363" x2="36.171875" y2="205.63636363636363" style="visibility: inherit;" fill="rgb(0, 0, 0)" stroke="rgb(204, 204, 204)" stroke-width="1px"></line><line x1="41.171875" y1="171.36363636363637" x2="36.171875" y2="171.36363636363637" style="visibility: inherit;" fill="rgb(0, 0, 0)" stroke="rgb(204, 204, 204)" stroke-width="1px"></line><line x1="41.171875" y1="137.09090909090915" x2="36.171875" y2="137.09090909090915" style="visibility: inherit;" fill="rgb(0, 0, 0)" stroke="rgb(204, 204, 204)" stroke-width="1px"></line><line x1="41.171875" y1="102.81818181818181" x2="36.171875" y2="102.81818181818181" style="visibility: inherit;" fill="rgb(0, 0, 0)" stroke="rgb(204, 204, 204)" stroke-width="1px"></line><line x1="41.171875" y1="68.54545454545458" x2="36.171875" y2="68.54545454545458" style="visibility: inherit;" fill="rgb(0, 0, 0)" stroke="rgb(204, 204, 204)" stroke-width="1px"></line><line x1="41.171875" y1="34.27272727272729" x2="36.171875" y2="34.27272727272729" style="visibility: inherit;" fill="rgb(0, 0, 0)" stroke="rgb(204, 204, 204)" stroke-width="1px"></line><line x1="41.171875" y1="0" x2="36.171875" y2="0" style="visibility: inherit;" fill="rgb(0, 0, 0)" stroke="rgb(204, 204, 204)" stroke-width="1px"></line></g><g transform="translate(31.171875, 0)"><text x="0" y="377" dx="0em" dy="0.3em" style="text-anchor: end; visibility: hidden; font-family: Roboto, sans-serif; font-size: 12px; font-weight: 200;" fill="rgb(33, 33, 33)" stroke="none" stroke-width="1px">0</text><text x="0" y="342.7272727272727" dx="0em" dy="0.3em" style="text-anchor: end; visibility: inherit; font-family: Roboto, sans-serif; font-size: 12px; font-weight: 200;" fill="rgb(33, 33, 33)" stroke="none" stroke-width="1px">0.1</text><text x="0" y="308.45454545454544" dx="0em" dy="0.3em" style="text-anchor: end; visibility: inherit; font-family: Roboto, sans-serif; font-size: 12px; font-weight: 200;" fill="rgb(33, 33, 33)" stroke="none" stroke-width="1px">0.2</text><text x="0" y="274.1818181818182" dx="0em" dy="0.3em" style="text-anchor: end; visibility: inherit; font-family: Roboto, sans-serif; font-size: 12px; font-weight: 200;" fill="rgb(33, 33, 33)" stroke="none" stroke-width="1px">0.3</text><text x="0" y="239.9090909090909" dx="0em" dy="0.3em" style="text-anchor: end; visibility: inherit; font-family: Roboto, sans-serif; font-size: 12px; font-weight: 200;" fill="rgb(33, 33, 33)" stroke="none" stroke-width="1px">0.4</text><text x="0" y="205.63636363636363" dx="0em" dy="0.3em" style="text-anchor: end; visibility: inherit; font-family: Roboto, sans-serif; font-size: 12px; font-weight: 200;" fill="rgb(33, 33, 33)" stroke="none" stroke-width="1px">0.5</text><text x="0" y="171.36363636363637" dx="0em" dy="0.3em" style="text-anchor: end; visibility: inherit; font-family: Roboto, sans-serif; font-size: 12px; font-weight: 200;" fill="rgb(33, 33, 33)" stroke="none" stroke-width="1px">0.6</text><text x="0" y="137.09090909090915" dx="0em" dy="0.3em" style="text-anchor: end; visibility: inherit; font-family: Roboto, sans-serif; font-size: 12px; font-weight: 200;" fill="rgb(33, 33, 33)" stroke="none" stroke-width="1px">0.7</text><text x="0" y="102.81818181818181" dx="0em" dy="0.3em" style="text-anchor: end; visibility: inherit; font-family: Roboto, sans-serif; font-size: 12px; font-weight: 200;" fill="rgb(33, 33, 33)" stroke="none" stroke-width="1px">0.8</text><text x="0" y="68.54545454545458" dx="0em" dy="0.3em" style="text-anchor: end; visibility: inherit; font-family: Roboto, sans-serif; font-size: 12px; font-weight: 200;" fill="rgb(33, 33, 33)" stroke="none" stroke-width="1px">0.9</text><text x="0" y="34.27272727272729" dx="0em" dy="0.3em" style="text-anchor: end; visibility: inherit; font-family: Roboto, sans-serif; font-size: 12px; font-weight: 200;" fill="rgb(33, 33, 33)" stroke="none" stroke-width="1px">1</text><text x="0" y="0" dx="0em" dy="0.3em" style="text-anchor: end; visibility: hidden; font-family: Roboto, sans-serif; font-size: 12px; font-weight: 200;" fill="rgb(33, 33, 33)" stroke="none" stroke-width="1px">1.1</text></g><line x1="41.171875" y1="0" x2="41.171875" y2="377" fill="rgb(0, 0, 0)" stroke="rgb(204, 204, 204)" stroke-width="1px"></line></g></g><g transform="translate(41, 0)" clip-path="url(#clip_0)"><clipPath id="clip_0"><rect width="845" height="377"></rect></clipPath><g><g><g><line x1="0" y1="0" x2="0" y2="377" fill="rgb(0, 0, 0)" stroke="rgb(66, 66, 66)" stroke-width="1px" opacity="0.25"></line><line x1="93.90679166666666" y1="0" x2="93.90679166666666" y2="377" fill="rgb(0, 0, 0)" stroke="rgb(66, 66, 66)" stroke-width="1px" opacity="0.25"></line><line x1="187.81358333333333" y1="0" x2="187.81358333333333" y2="377" fill="rgb(0, 0, 0)" stroke="rgb(66, 66, 66)" stroke-width="1px" opacity="0.25"></line><line x1="281.720375" y1="0" x2="281.720375" y2="377" fill="rgb(0, 0, 0)" stroke="rgb(66, 66, 66)" stroke-width="1px" opacity="0.25"></line><line x1="375.62716666666665" y1="0" x2="375.62716666666665" y2="377" fill="rgb(0, 0, 0)" stroke="rgb(66, 66, 66)" stroke-width="1px" opacity="0.25"></line><line x1="469.5339583333333" y1="0" x2="469.5339583333333" y2="377" fill="rgb(0, 0, 0)" stroke="rgb(66, 66, 66)" stroke-width="1px" opacity="0.25"></line><line x1="563.44075" y1="0" x2="563.44075" y2="377" fill="rgb(0, 0, 0)" stroke="rgb(66, 66, 66)" stroke-width="1px" opacity="0.25"></line><line x1="657.3475416666666" y1="0" x2="657.3475416666666" y2="377" fill="rgb(0, 0, 0)" stroke="rgb(66, 66, 66)" stroke-width="1px" opacity="0.25"></line><line x1="751.2543333333333" y1="0" x2="751.2543333333333" y2="377" fill="rgb(0, 0, 0)" stroke="rgb(66, 66, 66)" stroke-width="1px" opacity="0.25"></line><line x1="845.161125" y1="0" x2="845.161125" y2="377" fill="rgb(0, 0, 0)" stroke="rgb(66, 66, 66)" stroke-width="1px" opacity="0.25"></line></g><g><line x1="0" y1="377" x2="845.161125" y2="377" fill="rgb(0, 0, 0)" stroke="rgb(66, 66, 66)" stroke-width="1px" opacity="0.25"></line><line x1="0" y1="342.7272727272727" x2="845.161125" y2="342.7272727272727" fill="rgb(0, 0, 0)" stroke="rgb(66, 66, 66)" stroke-width="1px" opacity="0.25"></line><line x1="0" y1="308.45454545454544" x2="845.161125" y2="308.45454545454544" fill="rgb(0, 0, 0)" stroke="rgb(66, 66, 66)" stroke-width="1px" opacity="0.25"></line><line x1="0" y1="274.1818181818182" x2="845.161125" y2="274.1818181818182" fill="rgb(0, 0, 0)" stroke="rgb(66, 66, 66)" stroke-width="1px" opacity="0.25"></line><line x1="0" y1="239.9090909090909" x2="845.161125" y2="239.9090909090909" fill="rgb(0, 0, 0)" stroke="rgb(66, 66, 66)" stroke-width="1px" opacity="0.25"></line><line x1="0" y1="205.63636363636363" x2="845.161125" y2="205.63636363636363" fill="rgb(0, 0, 0)" stroke="rgb(66, 66, 66)" stroke-width="1px" opacity="0.25"></line><line x1="0" y1="171.36363636363637" x2="845.161125" y2="171.36363636363637" fill="rgb(0, 0, 0)" stroke="rgb(66, 66, 66)" stroke-width="1px" opacity="0.25"></line><line x1="0" y1="137.09090909090915" x2="845.161125" y2="137.09090909090915" fill="rgb(0, 0, 0)" stroke="rgb(66, 66, 66)" stroke-width="1px" opacity="0.25"></line><line x1="0" y1="102.81818181818181" x2="845.161125" y2="102.81818181818181" fill="rgb(0, 0, 0)" stroke="rgb(66, 66, 66)" stroke-width="1px" opacity="0.25"></line><line x1="0" y1="68.54545454545458" x2="845.161125" y2="68.54545454545458" fill="rgb(0, 0, 0)" stroke="rgb(66, 66, 66)" stroke-width="1px" opacity="0.25"></line><line x1="0" y1="34.27272727272729" x2="845.161125" y2="34.27272727272729" fill="rgb(0, 0, 0)" stroke="rgb(66, 66, 66)" stroke-width="1px" opacity="0.25"></line><line x1="0" y1="0" x2="845.161125" y2="0" fill="rgb(0, 0, 0)" stroke="rgb(66, 66, 66)" stroke-width="1px" opacity="0.25"></line></g></g></g><g><g><line x1="0" y1="377" x2="845.161125" y2="377" fill="rgb(0, 0, 0)" stroke="rgb(153, 153, 153)" stroke-width="1.5px"></line></g></g><g><g><line x1="93.90679166666666" y1="0" x2="93.90679166666666" y2="377" fill="rgb(0, 0, 0)" stroke="rgb(153, 153, 153)" stroke-width="1.5px"></line></g></g><g><g><g><g><g><path stroke="rgb(255, 112, 67)" stroke-width="2px" d="M95.7849275,334.80732677741486L97.66306333333333,303.11256098205394L99.54119916666666,279.8681234951807L101.41933499999999,262.22698374226053L103.29747083333332,248.34516617457018L105.17560666666667,236.3380161668691L107.0537425,226.83339579996297L108.93187833333333,218.66971480376472L110.81001416666668,212.3513881169084L112.68815,205.54979432430727L114.56628583333334,198.38396473947228L116.44442166666666,194.34570853129316L118.3225575,186.23719341770357L120.20069333333333,183.1501002503826L122.07882916666665,178.80284081930444L123.956965,175.74965623153994L125.83510083333331,172.58274062328343L127.71323666666666,168.5726487126168L129.59137249999998,165.3817040419293L131.46950833333332,162.01673736148248L133.34764416666664,160.1391201904157L135.22578,157.07724624271265L137.10391583333333,155.25866387679307L138.98205166666668,152.86563228699515L140.8601875,150.34094057512846L142.73832333333334,149.6645186711069L144.61645916666666,147.18820705803398L146.494595,146.34505862277626L148.37273083333332,143.92119588467875L150.25086666666667,141.93142453016986L152.12900249999998,139.6977369851468L154.00713833333333,138.34286541523008L155.88527416666665,136.883465505722L157.76341,138.19667607016342L159.6415458333333,135.6056004708106L161.51968166666666,132.85239545299387L163.3978175,131.3528745372758L165.27595333333335,129.10511737658763L167.15408916666667,127.51780524200184L169.032225,128.696268801642L170.91036083333333,127.01455409458475L172.78849666666667,126.49585776653205L174.6666325,124.09018390347069L176.54476833333334,122.37910561676327L178.42290416666665,121.5067891369642L180.30104,120.68110367268156L182.17917583333332,118.76721156433277L184.05731166666664,117.22675411738143L185.93544749999998,117.50508409479316L187.81358333333333,115.61804104236118L189.69171916666667,116.39911455472374L191.569855,116.27210686215493L193.44799083333334,113.55931610068801L195.32612666666665,113.03251396537443L197.2042625,111.98345477371087L199.08239833333332,110.51909677162726L200.96053416666666,109.56497140349269L202.83866999999998,108.11158587273364L204.71680583333332,108.10922938861654L206.59494166666664,107.81172190420206L208.4730775,108.41283684721652L210.35121333333333,107.45635671575596L212.22934916666665,107.51198211732613L214.107485,106.13610187533456L215.98562083333331,105.76396398164606L217.86375666666666,104.58058330394762L219.7418925,103.44614808708825L221.62002833333335,102.77670609000292L223.49816416666664,102.30724398952863L225.3763,101.49123202631884L227.25443583333333,100.50903708694747L229.13257166666668,100.54488649614409L231.01070749999997,100.18250241340576L232.8888433333333,100.04684988318532L234.76697916666666,98.04469049423673L236.645115,97.12773819021045L238.52325083333332,97.91634521688563L240.40138666666667,97.2872806830086L242.2795225,96.66677981328775L244.1576583333333,97.01555168348548L246.03579416666665,96.5841884184415L247.91393,95.74949309638352L249.79206583333334,95.27698113025497L251.67020166666663,94.65045283952303L253.54833749999997,94.46330819666841L255.42647333333332,92.9783322938708L257.3046091666667,92.96737456653719L259.18274499999995,93.55422097752107L261.06088083333333,92.96035081115947L262.93901666666665,92.99617540708647L264.8171525,92.97065276372763L266.6952883333333,92.76125553041786L268.57342416666665,92.14485161883776L270.45156,90.81559771581924L272.32969583333335,91.98676216880234L274.20783166666666,90.84905726209409L276.0859675,89.58581762717331L277.96410333333336,89.08713142290324L279.8422391666667,89.37543293040491L281.720375,87.55041943366768L283.5985108333333,87.09171512892564L285.4766466666667,86.35069832957763L287.3547825,86.90722223375427L289.2329183333333,86.74198729709931L291.11105416666663,86.4239139015445L292.98919,85.40825521948477L294.8673258333333,85.33937218190756L296.74546166666664,85.49939025229588L298.6235975,85.07843847960241L300.50173333333333,83.60455896788835L302.37986916666665,83.73336064689487L304.25800499999997,82.73398076111857L306.13614083333334,82.29175571352931L308.01427666666666,82.4535485231105L309.8924125,82.4352460891304L311.7705483333333,82.1026031780962L313.64868416666667,81.4418563165229L315.52682,81.28983494854826L317.4049558333333,82.08834922172016L319.2830916666666,80.94693450625988L321.1612275,79.88696787653122L323.0393633333333,79.59396815347417L324.91749916666663,80.13428075992258L326.795635,79.48179907729144L328.6737708333333,79.1989469021174L330.5519066666667,78.83126243236791L332.43004249999996,78.65610844173997L334.30817833333333,78.3831621284207L336.18631416666665,79.05633512748439L338.06445,77.93039206360946L339.9425858333333,77.55301983174785L341.82072166666666,76.91072047254615L343.6988575,77.00799237246567L345.57699333333335,77.49950556544165L347.45512916666667,76.01156005125951L349.333265,74.83297858751843L351.21140083333336,75.57076906252304L353.0895366666667,75.18437965023107L354.9676725,73.84066700089166L356.8458083333333,74.59630125144945L358.7239441666667,73.87078216681591L360.60208,73.00692107954184L362.4802158333333,73.57616577444519L364.35835166666664,73.44386151751523L366.2364875,74.20581588556936L368.11462333333327,73.45119957030703L369.99275916666664,72.69645288364984L371.87089499999996,72.89363637325214L373.74903083333334,71.78525316191126L375.62716666666665,71.09153395901836L377.50530249999997,71.97931215661109L379.38343833333334,72.25801647168437L381.26157416666666,70.75428279588571L383.13971,69.77929390769086L385.0178458333333,69.20609169564992L386.89598166666667,69.28809703208418L388.7741175,68.97799381179784L390.6522533333333,68.0723384847397L392.5303891666666,67.45518337017677L394.408525,67.94785653547275L396.2866608333333,68.01629137611071L398.16479666666663,67.91138098227573L400.0429325,68.20854195110554L401.9210683333333,68.21344450261275L403.7992041666667,68.656604222063L405.67733999999996,67.96170755557809L407.55547583333333,67.00273753060996L409.43361166666665,65.80391327760172L411.3117475,65.32659409828464L413.1898833333333,64.39364387244649L415.06801916666666,64.04165240751475L416.946155,65.35438023203854L418.82429083333335,65.05685792843687L420.70242666666667,64.4529653566979L422.5805625,64.30589335374901L424.4586983333333,64.85082435463862L426.3368341666667,63.35166273030633L428.21497,62.09486946227497L430.09310583333325,61.7461367739254L431.97124166666663,61.02279448521765L433.84937749999995,61.509869311147895L435.7275133333333,61.92261570328118L437.60564916666664,60.84415874587954L439.483785,61.705179554105946L441.36192083333333,61.73999033411484L443.2400566666667,62.03902632021992L445.11819249999996,60.93815934564035L446.9963283333333,60.05850244595736L448.87446416666666,58.59244395785736L450.7526,59.511253049387335L452.63073583333335,58.68955522204265L454.50887166666666,58.790031114314445L456.38700750000004,58.628091200375515L458.26514333333336,59.36633184313899L460.1432791666666,59.413223673192704L462.02141499999993,58.54548689355465L463.8995508333333,58.29115419546588L465.7776866666666,58.726247574285004L467.6558225,58.605983818625766L469.5339583333333,57.982780645956204L471.4120941666667,57.7263041895826L473.29023,56.78864788458671L475.16836583333327,57.56991503125173L477.04650166666664,56.34103173577957L478.92463749999996,54.435171446044855L480.80277333333333,54.52956771033655L482.68090916666665,53.951021137537836L484.559045,54.18156823297662L486.43718083333334,54.11262443747497L488.3153166666666,54.55942527269785L490.1934524999999,54.416107601453035L492.0715883333333,53.90288293425721L493.9497241666666,53.13178506152701L495.82786,52.69894324715873L497.7059958333333,52.441174745958165L499.5841316666667,52.549023381385645L501.4622675,51.696321256954455L503.34040333333326,50.85472836537733L505.21853916666663,50.29378319159385L507.09667499999995,50.95789248083273L508.9748108333333,51.01538792831065L510.85294666666664,50.316392497261006L512.7310825,51.0974506441266L514.6092183333334,50.86540859254175L516.4873541666667,50.11325752866901L518.3654899999999,49.78574506015077L520.2436258333333,49.628435088978826L522.1217616666667,49.614004835846906L523.9998975,48.94684159100012L525.8780333333333,48.49566123959125L527.7561691666667,47.775501322119744L529.634305,47.076957090608786L531.5124408333334,47.20519840625403L533.3905766666666,47.3714631833717L535.2687125,46.98706702329324L537.1468483333333,46.98240538256475L539.0249841666666,47.126846240860864L540.90312,46.79497090664394L542.7812558333334,46.424592545116944L544.6593916666667,46.06209776592988L546.5375274999999,45.93894620793518L548.4156633333333,45.55147519362623L550.2937991666666,45.590980976917095L552.171935,45.05625271315334L554.0500708333333,44.666425849451L555.9282066666667,44.63007799061791L557.8063425,44.529032616181425L559.6844783333333,44.58576095494337L561.5626141666665,44.320231580907546L563.44075,44.255896623888816L565.3188858333333,43.99851846995957L567.1970216666666,43.84893713178046L569.0751574999999,43.15545515775678L570.9532933333334,43.053730493328764L572.8314291666667,42.562977568721756L574.709565,42.69397854482999L576.5877008333333,42.371942500870105L578.4658366666666,42.56329281691032L580.3439725,42.499021783306674L582.2221083333333,42.2986356303464L584.1002441666667,41.70175012425441L585.97838,41.9319573474117L587.8565158333333,41.79260220611134L589.7346516666667,41.446552926477764L591.6127875,40.711019433408794L593.4909233333333,40.42848316352849L595.3690591666666,40.657261052312734L597.247195,40.72021839317437L599.1253308333334,40.34330160957267L601.0034666666667,40.178280697605025L602.8816025,39.80243420436989L604.7597383333333,39.51060023209458L606.6378741666666,39.68515601879414L608.5160099999999,39.55785853558602L610.3941458333333,39.446000456718984L612.2722816666667,39.267388835765665L614.1504175,39.30317796833924L616.0285533333333,38.592155641449445L617.9066891666666,38.83710500367464L619.784825,38.71853334927983L621.6629608333333,38.562066112577206L623.5410966666666,38.53044256193054L625.4192325,38.06178792977807L627.2973683333333,37.845319660852894L629.1755041666667,37.71304452180086L631.05364,38.21561170131045L632.9317758333334,37.75321321357967L634.8099116666666,37.56438320949213L636.6880474999999,37.433884715394484L638.5661833333332,37.43736353835842L640.4443191666667,37.208996929111926L642.322455,37.04682584086397L644.2005908333333,37.20672977960803L646.0787266666666,37.11255155420506L647.9568625,36.8511749151502L649.8349983333333,37.277694821762445L651.7131341666666,37.29028313617715L653.59127,37.154397915639066L655.4694058333333,37.017531044874104L657.3475416666666,36.90873177504152L659.2256775,36.98695579236842L661.1038133333334,37.007497049313805L662.9819491666667,36.981343363976606L664.8600849999999,36.67381478265294L666.7382208333332,36.85443833203156L668.6163566666667,36.49832564594608L670.4944925,36.59475715920323L672.3726283333333,36.242459925529594L674.2507641666666,36.17114506622283L676.1289,36.13791651891658L678.0070358333332,36.13433007166432L679.8851716666666,36.384612782121856L681.7633075,36.257302933201665L683.6414433333333,36.08693942080413L685.5195791666666,36.23503136589052L687.397715,36.041806641217356L689.2758508333334,36.12252939901346L691.1539866666667,36.010929025724536L693.0321224999999,35.81276296120694L694.9102583333333,35.66815655446049L696.7883941666666,35.56889886161195L698.66653,35.75249627910179L700.5446658333333,35.90473669252792L702.4228016666667,35.70945783111294L704.3009375,35.59381853893739L706.1790733333333,35.66004511058806L708.0572091666666,35.527955904735954L709.935345,35.53941965354964L711.8134808333333,35.536206402989045L713.6916166666666,35.44589815924008L715.5697524999999,35.41702776078951L717.4478883333334,35.73221022766843L719.3260241666667,35.74053886354088L721.20416,35.475704864491846L723.0822958333333,35.43712619402889L724.9604316666666,35.54419611044779L726.8385675,35.27687304866782L728.7167033333333,35.29235730289174L730.5948391666667,35.147578843564496L732.472975,35.05548216480767L734.3511108333333,35.20819893824314L736.2292466666665,35.1883649136911L738.1073825,35.316838487544864L739.9855183333333,35.26919659647896L741.8636541666666,35.284147908150636L743.7417899999999,35.41536066903063L745.6199258333334,35.27159322484366L747.4980616666667,35.596600190631065L749.3761975,35.46790827697765L751.2543333333333,35.3875717093992" style="fill: none;" fill="none"></path></g></g></g></g><g opacity="0.2"><g><g><g><path stroke="rgb(255, 112, 67)" stroke-width="2px" d="M95.7849275,334.80732677741486L97.66306333333333,284.0957015048374L99.54119916666666,257.55346350778234L101.41933499999999,241.48100339282644L103.29747083333332,230.22106515819377L105.17560666666667,219.72780513221568L107.0537425,213.24163660136136L108.93187833333333,206.76698953997004L110.81001416666668,203.03308352557096L112.68815,195.45022022724152L114.56628583333334,187.70021390914917L116.44442166666666,188.31030023097992L118.3225575,174.10089645602488L120.20069333333333,178.5255084362897L122.07882916666665,172.2870617129586L123.956965,171.17203269221568L125.83510083333331,167.8337073434483L127.71323666666666,162.55852900851858L129.59137249999998,160.59577314420181L131.46950833333332,156.96959491209552L133.34764416666664,157.3227974068035L135.22578,152.4845360734246L137.10391583333333,152.53082623265007L138.98205166666668,149.27611325003886L140.8601875,146.55392095175657L142.73832333333334,148.64988869970497L144.61645916666666,143.47374597462743L146.494595,145.0803372643211L148.37273083333332,140.28540401025253L150.25086666666667,138.94676859812304L152.12900249999998,136.34720640832728L154.00713833333333,136.31055832992902L155.88527416666665,134.69436581568286L157.76341,140.16649182276294L159.6415458333333,131.7189871831374L161.51968166666666,128.72258799726313L163.3978175,129.10359318689868L165.27595333333335,125.73348165642135L167.15408916666667,125.1368370489641L169.032225,130.46396413716406L170.91036083333333,124.49198203737086L172.78849666666667,125.71781327507713L174.6666325,120.48167311061513L176.54476833333334,119.81248818744314L178.42290416666665,120.19831441749227L180.30104,119.44257547638634L182.17917583333332,115.89637340198867L184.05731166666664,114.91606794704091L185.93544749999998,117.92257906090133L187.81358333333333,112.78747646375139L189.69171916666667,117.57072482325817L191.569855,116.08159532330254L193.44799083333334,109.4901299584996L195.32612666666665,112.24231076240544L197.2042625,110.40986598621718L199.08239833333332,108.32255976850337L200.96053416666666,108.13378335129134L202.83866999999998,105.93150757659566L204.71680583333332,108.10569466244094L206.59494166666664,107.36546067758043L208.4730775,109.31450926173818L210.35121333333333,106.02163651856513L212.22934916666665,107.59542021968151L214.107485,104.07228151234717L215.98562083333331,105.20575714111332L217.86375666666666,102.80551228740002L219.7418925,101.74449526179922L221.62002833333335,101.77254309437492L223.49816416666664,101.60305083881728L225.3763,100.26721408150414L227.25443583333333,99.03574467789046L229.13257166666668,100.59866060993889L231.01070749999997,99.63892628929833L232.8888433333333,99.84337108785456L234.76697916666666,95.04145141081378L236.645115,95.75230973417109L238.52325083333332,99.09925575689837L240.40138666666667,96.34368388219316L242.2795225,95.73602850870654L244.1576583333333,97.53870948878202L246.03579416666665,95.93714352087542L247.91393,94.49745011329655L249.79206583333334,94.56821318106219L251.67020166666663,93.71066040342508L253.54833749999997,94.18259123238654L255.42647333333332,90.75086843967442L257.3046091666667,92.9509379755367L259.18274499999995,94.43449059399695L261.06088083333333,92.06954556161708L262.93901666666665,93.04991230097684L264.8171525,92.93236879868944L266.6952883333333,92.44715968045325L268.57342416666665,91.22024575146766L270.45156,88.82171686129138L272.32969583333335,93.74350884827705L274.20783166666666,89.14249990203167L276.0859675,87.69095817479224L277.96410333333336,88.33910211649808L279.8422391666667,89.80788519165733L281.720375,84.81289918856189L283.5985108333333,86.40365867181261L285.4766466666667,85.2391731305556L287.3547825,87.74200809001927L289.2329183333333,86.4941348921169L291.11105416666663,85.94680380821232L292.98919,83.88476719639519L294.8673258333333,85.23604762554173L296.74546166666664,85.73941735787828L298.6235975,84.44701082056223L300.50173333333333,81.39373970031743L302.37986916666665,83.92656316540459L304.25800499999997,81.2349109324542L306.13614083333334,81.62841814214534L308.01427666666666,82.69623773748225L309.8924125,82.4077924381603L311.7705483333333,81.60363881154497L313.64868416666667,80.45073602416302L315.52682,81.06180289658637L317.4049558333333,83.28612063147808L319.2830916666666,79.23481243306941L321.1612275,78.29701793193821L323.0393633333333,79.15446856888862L324.91749916666663,80.94474966959521L326.795635,78.50307655334477L328.6737708333333,78.77466863935648L330.5519066666667,78.2797357277437L332.43004249999996,78.3933774557981L334.30817833333333,77.97374265844172L336.18631416666665,80.06609462607992L338.06445,76.24147746779705L339.9425858333333,76.98696148395543L341.82072166666666,75.94727143374357L343.6988575,77.15390022234484L345.57699333333335,78.23677535490557L347.45512916666667,73.77964177998633L349.333265,73.06510639190678L351.21140083333336,76.67745477503L353.0895366666667,74.60479553179309L354.9676725,71.82509802688253L356.8458083333333,75.72975262728605L358.7239441666667,72.78250353986567L360.60208,71.7111294486306L362.4802158333333,74.4300328168002L364.35835166666664,73.24540513212031L366.2364875,75.34874743765054L368.11462333333327,72.31927509741351L369.99275916666664,71.56433285366408L371.87089499999996,73.18941160765561L373.74903083333334,70.1226783449L375.62716666666665,70.05095515467907L377.50530249999997,73.31097945300016L379.38343833333334,72.67607294429433L381.26157416666666,68.49868228218773L383.13971,68.31681057539858L385.0178458333333,68.34628837758845L386.89598166666667,69.41110503673558L388.7741175,68.51283898136833L390.6522533333333,66.71385549415243L392.5303891666666,66.52945069833238L394.408525,68.68686628341679L396.2866608333333,68.11894363706766L398.16479666666663,67.75401539152323L400.0429325,68.65428340435032L401.9210683333333,68.22079832987353L403.7992041666667,69.32134380123833L405.67733999999996,66.91936255585067L407.55547583333333,65.56428249315783L409.43361166666665,64.00567689808936L411.3117475,64.61061532930896L413.1898833333333,62.99421853368936L415.06801916666666,63.51366521011702L416.946155,67.32347196882425L418.82429083333335,64.61057447303426L420.70242666666667,63.54712649908937L422.5805625,64.08528534932573L424.4586983333333,65.66822085597302L426.3368341666667,61.102920293808026L428.21497,60.20967956022785L430.09310583333325,61.223037741400994L431.97124166666663,59.93778105215595L433.84937749999995,62.240481550043285L435.7275133333333,62.54173529148106L437.60564916666664,59.22647330977703L439.483785,62.996710766445524L441.36192083333333,61.792206504128224L443.2400566666667,62.487580299377484L445.11819249999996,59.286858883771075L446.9963283333333,58.73901709643282L448.87446416666666,56.39335622570733L450.7526,60.88946668668229L452.63073583333335,57.45700848102574L454.50887166666666,58.94074495272205L456.38700750000004,58.385181329467095L458.26514333333336,60.47369280728431L460.1432791666666,59.48356141827325L462.02141499999993,57.24388172409753L463.8995508333333,57.909655148332774L465.7776866666666,59.37888764251364L467.6558225,58.425588185136974L469.5339583333333,57.04797588695181L471.4120941666667,57.34158950502223L473.29023,55.38216342709283L475.16836583333327,58.74181575124918L477.04650166666664,54.49770679257134L478.92463749999996,51.57638101144273L480.80277333333333,54.6711621067741L482.68090916666665,53.08320127833975L484.559045,54.52738887613474L486.43718083333334,54.009208744222505L488.3153166666666,55.22962652553213L490.1934524999999,54.20113109458578L492.0715883333333,53.13304593346337L493.9497241666666,51.975138252431734L495.82786,52.049680525606334L497.7059958333333,52.05452199415729L499.5841316666667,52.71079633452678L501.4622675,50.417268070307685L503.34040333333326,49.592339028011686L505.21853916666663,49.45236543091865L507.09667499999995,51.954056414690925L508.9748108333333,51.10163109952754L510.85294666666664,49.26789935068653L512.7310825,52.26903786442498L514.6092183333334,50.51734551516451L516.4873541666667,48.985030932859964L518.3654899999999,49.29447635737337L520.2436258333333,49.3924701322209L522.1217616666667,49.592359456149055L523.9998975,47.94609672372995L525.8780333333333,47.81889071247796L527.7561691666667,46.69526144591249L529.634305,46.02914074334235L531.5124408333334,47.39756037972192L533.3905766666666,47.62086034904829L535.2687125,46.41047278317542L537.1468483333333,46.97541292147205L539.0249841666666,47.343507528305096L540.90312,46.297157905318535L542.7812558333334,45.86902500282637L544.6593916666667,45.51835559714926L546.5375274999999,45.75421887094325L548.4156633333333,44.970268672162874L550.2937991666666,45.650239651853425L552.171935,44.2541603175077L554.0500708333333,44.081685553897536L555.9282066666667,44.575556202368325L557.8063425,44.377464554526604L559.6844783333333,44.67085346308626L561.5626141666665,43.92193751985377L563.44075,44.15939418836076L565.3188858333333,43.61245123906571L567.1970216666666,43.62456512451176L569.0751574999999,42.11523219672121L570.9532933333334,42.9011434966868L572.8314291666667,41.826848181811286L574.709565,42.89048000899233L576.5877008333333,41.8888884349303L578.4658366666666,42.85031829097057L580.3439725,42.40261523290116L582.2221083333333,41.99805640090597L584.1002441666667,40.806421865116484L585.97838,42.27726818214766L587.8565158333333,41.583569494160784L589.7346516666667,40.927479007027394L591.6127875,39.60771919380537L593.4909233333333,40.00467875870795L595.3690591666666,41.00042788548905L597.247195,40.81465440446681L599.1253308333334,39.77792643417013L601.0034666666667,39.93074932965369L602.8816025,39.23866446451709L604.7597383333333,39.07284927368168L606.6378741666666,39.946989698843545L608.5160099999999,39.366912310773714L610.3941458333333,39.27821333841846L612.2722816666667,38.99947140433574L614.1504175,39.35686166719959L616.0285533333333,37.52562215111474L617.9066891666666,39.20452904701237L619.784825,38.54067586768759L621.6629608333333,38.327365257523304L623.5410966666666,38.48300723596055L625.4192325,37.358805981549395L627.2973683333333,37.52061725746504L629.1755041666667,37.51463181322275L631.05364,38.96946247057483L632.9317758333334,37.05961548198355L634.8099116666666,37.28113820336083L636.6880474999999,37.238136974248064L638.5661833333332,37.4425817728043L640.4443191666667,36.866447015242166L642.322455,36.80356920849196L644.2005908333333,37.44658568772407L646.0787266666666,36.97128421610056L647.9568625,36.45910995656794L649.8349983333333,37.91747468168086L651.7131341666666,37.30916560779921L653.59127,36.95057008483196L655.4694058333333,36.81223073872657L657.3475416666666,36.745532870292706L659.2256775,37.104291818358696L661.1038133333334,37.03830893473194L662.9819491666667,36.94211283597083L664.8600849999999,36.21252191066746L666.7382208333332,37.1253736560995L668.6163566666667,35.96415661681784L670.4944925,36.73940442908896L672.3726283333333,35.71401407501916L674.2507641666666,36.06417277726264L676.1289,36.08807369795717L678.0070358333332,36.12895040078599L679.8851716666666,36.76003684780816L681.7633075,36.06633815982128L683.6414433333333,35.83139415220783L685.5195791666666,36.45716928352011L687.397715,35.75196955420757L689.2758508333334,36.24361353570765L691.1539866666667,35.8435284657912L693.0321224999999,35.51551386443056L694.9102583333333,35.45124694434084L696.7883941666666,35.42001232233919L698.66653,36.02789240533656L700.5446658333333,36.13309731266717L702.4228016666667,35.416539538990385L704.3009375,35.42035960067404L706.1790733333333,35.759384968064076L708.0572091666666,35.32982209595771L709.935345,35.55661527677018L711.8134808333333,35.5313865271482L713.6916166666666,35.31043579361657L715.5697524999999,35.373722163113726L717.4478883333334,36.204983927986866L719.3260241666667,35.753031817349566L721.20416,35.07845386591829L723.0822958333333,35.37925818833442L724.9604316666666,35.704800985076226L726.8385675,34.87588845599783L728.7167033333333,35.31558368422771L730.5948391666667,34.93041115457362L732.472975,34.91733714667238L734.3511108333333,35.437274098396344L736.2292466666665,35.15861387686298L738.1073825,35.50954884832559L739.9855183333333,35.19773375988011L741.8636541666666,35.306574875658214L743.7417899999999,35.6121798103506L745.6199258333334,35.055942058563275L747.4980616666667,36.084110639312065L749.3761975,35.274870406497634L751.2543333333333,35.26706685803155" style="fill: none;" fill="none"></path></g></g></g></g></g></g><g transform="translate(41, 377)" clip-path="url(#clip_1)"><clipPath id="clip_1"><rect width="845" height="23"></rect></clipPath><g><g><line x1="0" y1="0" x2="0" y2="5" style="visibility: inherit;" fill="rgb(0, 0, 0)" stroke="rgb(204, 204, 204)" stroke-width="1px"></line><line x1="93.90679166666666" y1="0" x2="93.90679166666666" y2="5" style="visibility: inherit;" fill="rgb(0, 0, 0)" stroke="rgb(204, 204, 204)" stroke-width="1px"></line><line x1="187.81358333333333" y1="0" x2="187.81358333333333" y2="5" style="visibility: inherit;" fill="rgb(0, 0, 0)" stroke="rgb(204, 204, 204)" stroke-width="1px"></line><line x1="281.720375" y1="0" x2="281.720375" y2="5" style="visibility: inherit;" fill="rgb(0, 0, 0)" stroke="rgb(204, 204, 204)" stroke-width="1px"></line><line x1="375.62716666666665" y1="0" x2="375.62716666666665" y2="5" style="visibility: inherit;" fill="rgb(0, 0, 0)" stroke="rgb(204, 204, 204)" stroke-width="1px"></line><line x1="469.5339583333333" y1="0" x2="469.5339583333333" y2="5" style="visibility: inherit;" fill="rgb(0, 0, 0)" stroke="rgb(204, 204, 204)" stroke-width="1px"></line><line x1="563.44075" y1="0" x2="563.44075" y2="5" style="visibility: inherit;" fill="rgb(0, 0, 0)" stroke="rgb(204, 204, 204)" stroke-width="1px"></line><line x1="657.3475416666666" y1="0" x2="657.3475416666666" y2="5" style="visibility: inherit;" fill="rgb(0, 0, 0)" stroke="rgb(204, 204, 204)" stroke-width="1px"></line><line x1="751.2543333333333" y1="0" x2="751.2543333333333" y2="5" style="visibility: inherit;" fill="rgb(0, 0, 0)" stroke="rgb(204, 204, 204)" stroke-width="1px"></line><line x1="845.161125" y1="0" x2="845.161125" y2="5" style="visibility: inherit;" fill="rgb(0, 0, 0)" stroke="rgb(204, 204, 204)" stroke-width="1px"></line></g><g transform="translate(0, 8)"><text x="0" y="0" dx="0em" dy="0.95em" style="text-anchor: middle; visibility: hidden; font-family: Roboto, sans-serif; font-size: 12px; font-weight: 200;" fill="rgb(33, 33, 33)" stroke="none" stroke-width="1px">-50</text><text x="93.90679166666666" y="0" dx="0em" dy="0.95em" style="text-anchor: middle; visibility: inherit; font-family: Roboto, sans-serif; font-size: 12px; font-weight: 200;" fill="rgb(33, 33, 33)" stroke="none" stroke-width="1px">0</text><text x="187.81358333333333" y="0" dx="0em" dy="0.95em" style="text-anchor: middle; visibility: inherit; font-family: Roboto, sans-serif; font-size: 12px; font-weight: 200;" fill="rgb(33, 33, 33)" stroke="none" stroke-width="1px">50</text><text x="281.720375" y="0" dx="0em" dy="0.95em" style="text-anchor: middle; visibility: inherit; font-family: Roboto, sans-serif; font-size: 12px; font-weight: 200;" fill="rgb(33, 33, 33)" stroke="none" stroke-width="1px">100</text><text x="375.62716666666665" y="0" dx="0em" dy="0.95em" style="text-anchor: middle; visibility: inherit; font-family: Roboto, sans-serif; font-size: 12px; font-weight: 200;" fill="rgb(33, 33, 33)" stroke="none" stroke-width="1px">150</text><text x="469.5339583333333" y="0" dx="0em" dy="0.95em" style="text-anchor: middle; visibility: inherit; font-family: Roboto, sans-serif; font-size: 12px; font-weight: 200;" fill="rgb(33, 33, 33)" stroke="none" stroke-width="1px">200</text><text x="563.44075" y="0" dx="0em" dy="0.95em" style="text-anchor: middle; visibility: inherit; font-family: Roboto, sans-serif; font-size: 12px; font-weight: 200;" fill="rgb(33, 33, 33)" stroke="none" stroke-width="1px">250</text><text x="657.3475416666666" y="0" dx="0em" dy="0.95em" style="text-anchor: middle; visibility: inherit; font-family: Roboto, sans-serif; font-size: 12px; font-weight: 200;" fill="rgb(33, 33, 33)" stroke="none" stroke-width="1px">300</text><text x="751.2543333333333" y="0" dx="0em" dy="0.95em" style="text-anchor: middle; visibility: inherit; font-family: Roboto, sans-serif; font-size: 12px; font-weight: 200;" fill="rgb(33, 33, 33)" stroke="none" stroke-width="1px">350</text><text x="845.161125" y="0" dx="0em" dy="0.95em" style="text-anchor: middle; visibility: hidden; font-family: Roboto, sans-serif; font-size: 12px; font-weight: 200;" fill="rgb(33, 33, 33)" stroke="none" stroke-width="1px">400</text></g><line x1="0" y1="0" x2="845.161125" y2="0" fill="rgb(0, 0, 0)" stroke="rgb(204, 204, 204)" stroke-width="1px"></line></g></g></g></g></svg>