<svg viewBox="0 0 886.3333740234375 400" xmlns="http://www.w3.org/2000/svg"><g><g><g><g><g><line x1="53.1875" y1="376" x2="48.1875" y2="376" style="visibility: inherit;" fill="rgb(0, 0, 0)" stroke="rgb(204, 204, 204)" stroke-width="1px"></line><line x1="53.1875" y1="344.66666666666663" x2="48.1875" y2="344.66666666666663" style="visibility: inherit;" fill="rgb(0, 0, 0)" stroke="rgb(204, 204, 204)" stroke-width="1px"></line><line x1="53.1875" y1="313.3333333333335" x2="48.1875" y2="313.3333333333335" style="visibility: inherit;" fill="rgb(0, 0, 0)" stroke="rgb(204, 204, 204)" stroke-width="1px"></line><line x1="53.1875" y1="282.00000000000006" x2="48.1875" y2="282.00000000000006" style="visibility: inherit;" fill="rgb(0, 0, 0)" stroke="rgb(204, 204, 204)" stroke-width="1px"></line><line x1="53.1875" y1="250.66666666666669" x2="48.1875" y2="250.66666666666669" style="visibility: inherit;" fill="rgb(0, 0, 0)" stroke="rgb(204, 204, 204)" stroke-width="1px"></line><line x1="53.1875" y1="219.3333333333334" x2="48.1875" y2="219.3333333333334" style="visibility: inherit;" fill="rgb(0, 0, 0)" stroke="rgb(204, 204, 204)" stroke-width="1px"></line><line x1="53.1875" y1="188" x2="48.1875" y2="188" style="visibility: inherit;" fill="rgb(0, 0, 0)" stroke="rgb(204, 204, 204)" stroke-width="1px"></line><line x1="53.1875" y1="156.66666666666666" x2="48.1875" y2="156.66666666666666" style="visibility: inherit;" fill="rgb(0, 0, 0)" stroke="rgb(204, 204, 204)" stroke-width="1px"></line><line x1="53.1875" y1="125.33333333333343" x2="48.1875" y2="125.33333333333343" style="visibility: inherit;" fill="rgb(0, 0, 0)" stroke="rgb(204, 204, 204)" stroke-width="1px"></line><line x1="53.1875" y1="94.00000000000009" x2="48.1875" y2="94.00000000000009" style="visibility: inherit;" fill="rgb(0, 0, 0)" stroke="rgb(204, 204, 204)" stroke-width="1px"></line><line x1="53.1875" y1="62.666666666666735" x2="48.1875" y2="62.666666666666735" style="visibility: inherit;" fill="rgb(0, 0, 0)" stroke="rgb(204, 204, 204)" stroke-width="1px"></line><line x1="53.1875" y1="31.333333333333346" x2="48.1875" y2="31.333333333333346" style="visibility: inherit;" fill="rgb(0, 0, 0)" stroke="rgb(204, 204, 204)" stroke-width="1px"></line><line x1="53.1875" y1="0" x2="48.1875" y2="0" style="visibility: inherit;" fill="rgb(0, 0, 0)" stroke="rgb(204, 204, 204)" stroke-width="1px"></line></g><g transform="translate(43.1875, 0)"><text x="0" y="376" dx="0em" dy="0.3em" style="text-anchor: end; visibility: hidden; font-family: Roboto, sans-serif; font-size: 12px; font-weight: 200;" fill="rgb(33, 33, 33)" stroke="none" stroke-width="1px">0.78</text><text x="0" y="344.66666666666663" dx="0em" dy="0.3em" style="text-anchor: end; visibility: inherit; font-family: Roboto, sans-serif; font-size: 12px; font-weight: 200;" fill="rgb(33, 33, 33)" stroke="none" stroke-width="1px">0.8</text><text x="0" y="313.3333333333335" dx="0em" dy="0.3em" style="text-anchor: end; visibility: inherit; font-family: Roboto, sans-serif; font-size: 12px; font-weight: 200;" fill="rgb(33, 33, 33)" stroke="none" stroke-width="1px">0.82</text><text x="0" y="282.00000000000006" dx="0em" dy="0.3em" style="text-anchor: end; visibility: inherit; font-family: Roboto, sans-serif; font-size: 12px; font-weight: 200;" fill="rgb(33, 33, 33)" stroke="none" stroke-width="1px">0.84</text><text x="0" y="250.66666666666669" dx="0em" dy="0.3em" style="text-anchor: end; visibility: inherit; font-family: Roboto, sans-serif; font-size: 12px; font-weight: 200;" fill="rgb(33, 33, 33)" stroke="none" stroke-width="1px">0.86</text><text x="0" y="219.3333333333334" dx="0em" dy="0.3em" style="text-anchor: end; visibility: inherit; font-family: Roboto, sans-serif; font-size: 12px; font-weight: 200;" fill="rgb(33, 33, 33)" stroke="none" stroke-width="1px">0.88</text><text x="0" y="188" dx="0em" dy="0.3em" style="text-anchor: end; visibility: inherit; font-family: Roboto, sans-serif; font-size: 12px; font-weight: 200;" fill="rgb(33, 33, 33)" stroke="none" stroke-width="1px">0.9</text><text x="0" y="156.66666666666666" dx="0em" dy="0.3em" style="text-anchor: end; visibility: inherit; font-family: Roboto, sans-serif; font-size: 12px; font-weight: 200;" fill="rgb(33, 33, 33)" stroke="none" stroke-width="1px">0.92</text><text x="0" y="125.33333333333343" dx="0em" dy="0.3em" style="text-anchor: end; visibility: inherit; font-family: Roboto, sans-serif; font-size: 12px; font-weight: 200;" fill="rgb(33, 33, 33)" stroke="none" stroke-width="1px">0.94</text><text x="0" y="94.00000000000009" dx="0em" dy="0.3em" style="text-anchor: end; visibility: inherit; font-family: Roboto, sans-serif; font-size: 12px; font-weight: 200;" fill="rgb(33, 33, 33)" stroke="none" stroke-width="1px">0.96</text><text x="0" y="62.666666666666735" dx="0em" dy="0.3em" style="text-anchor: end; visibility: inherit; font-family: Roboto, sans-serif; font-size: 12px; font-weight: 200;" fill="rgb(33, 33, 33)" stroke="none" stroke-width="1px">0.98</text><text x="0" y="31.333333333333346" dx="0em" dy="0.3em" style="text-anchor: end; visibility: inherit; font-family: Roboto, sans-serif; font-size: 12px; font-weight: 200;" fill="rgb(33, 33, 33)" stroke="none" stroke-width="1px">1</text><text x="0" y="0" dx="0em" dy="0.3em" style="text-anchor: end; visibility: hidden; font-family: Roboto, sans-serif; font-size: 12px; font-weight: 200;" fill="rgb(33, 33, 33)" stroke="none" stroke-width="1px">1.02</text></g><line x1="53.1875" y1="0" x2="53.1875" y2="376" fill="rgb(0, 0, 0)" stroke="rgb(204, 204, 204)" stroke-width="1px"></line></g></g><g transform="translate(53, 0)" clip-path="url(#clip_0)"><clipPath id="clip_0"><rect width="833" height="376"></rect></clipPath><g><g><g><line x1="0" y1="0" x2="0" y2="376" fill="rgb(0, 0, 0)" stroke="rgb(66, 66, 66)" stroke-width="1px" opacity="0.25"></line><line x1="92.57172222222222" y1="0" x2="92.57172222222222" y2="376" fill="rgb(0, 0, 0)" stroke="rgb(66, 66, 66)" stroke-width="1px" opacity="0.25"></line><line x1="185.14344444444444" y1="0" x2="185.14344444444444" y2="376" fill="rgb(0, 0, 0)" stroke="rgb(66, 66, 66)" stroke-width="1px" opacity="0.25"></line><line x1="277.7151666666666" y1="0" x2="277.7151666666666" y2="376" fill="rgb(0, 0, 0)" stroke="rgb(66, 66, 66)" stroke-width="1px" opacity="0.25"></line><line x1="370.2868888888889" y1="0" x2="370.2868888888889" y2="376" fill="rgb(0, 0, 0)" stroke="rgb(66, 66, 66)" stroke-width="1px" opacity="0.25"></line><line x1="462.8586111111111" y1="0" x2="462.8586111111111" y2="376" fill="rgb(0, 0, 0)" stroke="rgb(66, 66, 66)" stroke-width="1px" opacity="0.25"></line><line x1="555.4303333333332" y1="0" x2="555.4303333333332" y2="376" fill="rgb(0, 0, 0)" stroke="rgb(66, 66, 66)" stroke-width="1px" opacity="0.25"></line><line x1="648.0020555555556" y1="0" x2="648.0020555555556" y2="376" fill="rgb(0, 0, 0)" stroke="rgb(66, 66, 66)" stroke-width="1px" opacity="0.25"></line><line x1="740.5737777777778" y1="0" x2="740.5737777777778" y2="376" fill="rgb(0, 0, 0)" stroke="rgb(66, 66, 66)" stroke-width="1px" opacity="0.25"></line><line x1="833.1455" y1="0" x2="833.1455" y2="376" fill="rgb(0, 0, 0)" stroke="rgb(66, 66, 66)" stroke-width="1px" opacity="0.25"></line></g><g><line x1="0" y1="376" x2="833.1455" y2="376" fill="rgb(0, 0, 0)" stroke="rgb(66, 66, 66)" stroke-width="1px" opacity="0.25"></line><line x1="0" y1="344.66666666666663" x2="833.1455" y2="344.66666666666663" fill="rgb(0, 0, 0)" stroke="rgb(66, 66, 66)" stroke-width="1px" opacity="0.25"></line><line x1="0" y1="313.3333333333335" x2="833.1455" y2="313.3333333333335" fill="rgb(0, 0, 0)" stroke="rgb(66, 66, 66)" stroke-width="1px" opacity="0.25"></line><line x1="0" y1="282.00000000000006" x2="833.1455" y2="282.00000000000006" fill="rgb(0, 0, 0)" stroke="rgb(66, 66, 66)" stroke-width="1px" opacity="0.25"></line><line x1="0" y1="250.66666666666669" x2="833.1455" y2="250.66666666666669" fill="rgb(0, 0, 0)" stroke="rgb(66, 66, 66)" stroke-width="1px" opacity="0.25"></line><line x1="0" y1="219.3333333333334" x2="833.1455" y2="219.3333333333334" fill="rgb(0, 0, 0)" stroke="rgb(66, 66, 66)" stroke-width="1px" opacity="0.25"></line><line x1="0" y1="188" x2="833.1455" y2="188" fill="rgb(0, 0, 0)" stroke="rgb(66, 66, 66)" stroke-width="1px" opacity="0.25"></line><line x1="0" y1="156.66666666666666" x2="833.1455" y2="156.66666666666666" fill="rgb(0, 0, 0)" stroke="rgb(66, 66, 66)" stroke-width="1px" opacity="0.25"></line><line x1="0" y1="125.33333333333343" x2="833.1455" y2="125.33333333333343" fill="rgb(0, 0, 0)" stroke="rgb(66, 66, 66)" stroke-width="1px" opacity="0.25"></line><line x1="0" y1="94.00000000000009" x2="833.1455" y2="94.00000000000009" fill="rgb(0, 0, 0)" stroke="rgb(66, 66, 66)" stroke-width="1px" opacity="0.25"></line><line x1="0" y1="62.666666666666735" x2="833.1455" y2="62.666666666666735" fill="rgb(0, 0, 0)" stroke="rgb(66, 66, 66)" stroke-width="1px" opacity="0.25"></line><line x1="0" y1="31.333333333333346" x2="833.1455" y2="31.333333333333346" fill="rgb(0, 0, 0)" stroke="rgb(66, 66, 66)" stroke-width="1px" opacity="0.25"></line><line x1="0" y1="0" x2="833.1455" y2="0" fill="rgb(0, 0, 0)" stroke="rgb(66, 66, 66)" stroke-width="1px" opacity="0.25"></line></g></g></g><g><g><line x1="0" y1="1598" x2="833.1455" y2="1598" fill="rgb(0, 0, 0)" stroke="rgb(153, 153, 153)" stroke-width="1.5px"></line></g></g><g><g><line x1="92.57172222222222" y1="0" x2="92.57172222222222" y2="376" fill="rgb(0, 0, 0)" stroke="rgb(153, 153, 153)" stroke-width="1.5px"></line></g></g><g><g><g><g><g><path stroke="rgb(255, 112, 67)" stroke-width="2px" d="M122.19467333333333,378.6121136636875L124.04610777777776,366.3841956125496L125.89754222222221,350.4363350280238L127.74897666666665,339.33760560219423L129.6004111111111,328.404763419049L131.45184555555554,317.5713390613959L133.30328,307.37161072222494L135.15471444444444,299.8484873953563L137.0061488888889,293.22958103026434L138.8575833333333,284.02750885878675L140.70901777777777,280.73890443980747L142.5604522222222,274.747013327201L144.41188666666667,266.43148984277815L146.2633211111111,264.18510472119084L148.11475555555555,260.79601094109955L149.96618999999998,256.7850897375186L151.81762444444445,255.27159223015425L153.66905888888888,253.4704389569689L155.52049333333335,248.30722135994657L157.37192777777776,242.53016379296025L159.22336222222222,237.91572132210374L161.07479666666666,233.1057930718245L162.92623111111112,230.53878695391393L164.77766555555556,229.25373646900522L166.6291,225.2294377747155L168.48053444444443,220.77359577435362L170.3319688888889,218.3552437557153L172.18340333333333,219.902347767802L174.0348377777778,214.51546627057778L175.8862722222222,214.28141524256728L177.73770666666667,210.37740986637624L179.5891411111111,207.26954710328295L181.44057555555554,206.744392974228L183.29201,202.6019654569766L185.14344444444444,201.64742802168607L186.99487888888888,197.31116815357694L188.8463133333333,195.4110741373798L190.69774777777778,194.1434598142024L192.5491822222222,193.6380443994667L194.40061666666665,191.29353236503064L196.2520511111111,188.5472242634287L198.10348555555555,188.68554900889356L199.95492,188.70474622331923L201.80635444444445,188.14216056078368L203.6577888888889,183.5307280457598L205.50922333333332,178.40365493912984L207.36065777777776,177.30491358013649L209.21209222222222,176.1991226870121L211.0635266666667,178.1510149279216L212.9149611111111,179.0031994604456L214.76639555555553,176.7077878568601L216.61783,177.5631592266181L218.46926444444446,174.1852493758453L220.32069888888887,170.8189025844405L222.17213333333333,171.98856527757263L224.02356777777777,169.50089212547692L225.87500222222224,168.07208586707287L227.72643666666664,166.25794967596465L229.5778711111111,167.21073074689363L231.42930555555554,166.6979890399229L233.28074,164.476676495853L235.13217444444442,164.80240331012985L236.98360888888888,163.65827586999924L238.83504333333335,162.52525332819263L240.68647777777775,157.316405506437L242.5379122222222,160.4424430836271L244.38934666666665,157.53387815410096L246.24078111111112,159.36092105699103L248.09221555555553,156.94876257097232L249.94365,155.31007458080163L251.79508444444443,154.19930387323691L253.6465188888889,152.25703820061048L255.4979533333333,153.83464083952535L257.34938777777774,151.33657847573065L259.2008222222222,150.0928942366225L261.05225666666666,149.4104439737667L262.9036911111111,147.91656346652533L264.75512555555554,146.828879615865L266.60656,148.98299162856853L268.45799444444447,146.06537535154084L270.3094288888889,144.12341268676474L272.16086333333334,142.19277555039298L274.0122977777778,141.60849725976055L275.8637322222222,140.6838262941905L277.7151666666666,141.9151333212734L279.5666011111111,142.01601591347946L281.41803555555555,139.71633187118758L283.26947,138.7830675235407L285.1209044444444,137.07490093257113L286.9723388888889,137.77231295156128L288.82377333333335,136.5960061028458L290.6752077777778,136.46432598480726L292.5266422222222,135.6836560093313L294.37807666666663,134.32219922083314L296.2295111111111,127.70048760297526L298.0809455555555,127.23588221225715L299.93237999999997,126.70196579865764L301.78381444444443,128.7417921958694L303.6352488888889,128.6261245054996L305.4866833333333,126.32410555936873L307.33811777777777,125.64455609634317L309.18955222222223,124.59896214672794L311.0409866666667,122.69580252887127L312.8924211111111,123.4675742780447L314.7438555555555,121.2515102701553L316.59529,119.98566949827479L318.44672444444444,121.45878336705576L320.29815888888885,119.53589201298043L322.1495933333333,119.46660490230731L324.0010277777778,120.89219143030665L325.85246222222224,119.00458130461547L327.70389666666665,116.0221453421666L329.5553311111111,117.03940608779712L331.4067655555555,116.75670773196293L333.2582,117.73529670084372L335.1096344444444,117.11044446693788L336.96106888888886,117.69238556265992L338.8125033333333,115.6175389896243L340.6639377777778,113.86232468746556L342.5153722222222,110.38518487570158L344.36680666666666,112.06247574780868L346.2182411111111,109.56046604332028L348.0696755555556,108.44197131325818L349.92111,108.15362292009607L351.7725444444444,107.53406780647046L353.62397888888887,105.56761803042983L355.47541333333334,104.57910371112087L357.32684777777774,106.53756426346655L359.1782822222222,105.79897307498682L361.0297166666667,104.1438127466644L362.8811511111111,103.78861817371474L364.73258555555554,103.70309669565133L366.58402,101.86567420238832L368.4354544444444,100.44426989440866L370.2868888888889,99.78278285593632L372.1383233333333,100.27894543606536L373.98975777777775,98.53538019854932L375.8411922222222,97.87198950091455L377.6926266666666,98.62216306471485L379.5440611111111,96.96720678454834L381.39549555555556,94.25192104287672L383.24693,94.72781001632045L385.0983644444444,92.65312980277112L386.9497988888889,93.38578682738213L388.8012333333333,92.93232623893617L390.65266777777776,93.61710232193417L392.5041022222222,92.30565599816119L394.35553666666664,91.90153664877258L396.2069711111111,90.89356814938937L398.05840555555557,90.35258468261245L399.90984,89.26253506504038L401.76127444444444,90.71356571294376L403.6127088888889,87.94816725598275L405.46414333333337,89.03189022429682L407.3155777777778,87.4494683211321L409.1670122222222,86.6914080777928L411.01844666666665,85.7262282212076L412.8698811111111,85.46607111927864L414.7213155555555,85.43757212382741L416.57275,86.50488307608472L418.42418444444445,85.48675530672067L420.2756188888889,83.28112458499264L422.1270533333334,82.72324304170601L423.97848777777773,81.62301722598386L425.8299222222222,80.89912145594147L427.6813566666666,81.67675225690624L429.53279111111107,81.69682201200108L431.38422555555553,79.54004316600182L433.23566,77.16152815663034L435.08709444444446,78.54117882635124L436.9385288888889,78.79486523699313L438.7899633333333,77.09716984410035L440.64139777777774,75.18549780515204L442.4928322222222,75.0591446507019L444.34426666666667,74.91953512517864L446.1957011111111,72.1566050002272L448.04713555555554,73.05041606918742L449.89857,73.0125987193729L451.75000444444447,72.09685350627178L453.6014388888888,71.93015482328609L455.4528733333333,71.76633798064151L457.30430777777775,70.96638597040202L459.1557422222222,69.8485131402143L461.0071766666667,70.325997424483L462.8586111111111,68.698783122913L464.71004555555555,68.42415379886778L466.56148,69.9816881780124L468.41291444444437,68.8111483870525L470.26434888888883,69.51222302627036L472.1157833333333,66.87095495528864L473.96721777777776,66.11545128305882L475.8186522222222,64.83289190936168L477.6700866666667,65.59431271239973L479.52152111111116,65.03051512530362L481.3729555555555,64.50088102673035L483.22438999999997,64.37445611390184L485.0758244444444,61.61947410881159L486.92725888888884,62.007747691350986L488.7786933333333,61.15626413910253L490.6301277777778,60.8367669063132L492.48156222222224,60.517473300933055L494.3329966666667,59.49663996734572L496.18443111111105,59.71339713755269L498.0358655555555,59.01419426931756L499.8873,59.16877653956703L501.73873444444445,59.13393063601031L503.59016888888885,57.00800002767363L505.4416033333333,57.19960045707466L507.2930377777778,56.23011301294299L509.14447222222225,56.73286824823618L510.9959066666666,56.14146658619947L512.8473411111111,54.5746199737432L514.6987755555555,53.88966518543823L516.55021,54.30794948281448L518.4016444444444,54.87787087326213L520.2530788888889,55.283621340383846L522.1045133333333,53.29445328874772L523.9559477777779,51.90955955920644L525.8073822222221,51.52516939921014L527.6588166666667,52.570301199055656L529.5102511111111,50.709608767885086L531.3616855555555,50.103499667520225L533.21312,50.18638028502953L535.0645544444444,49.59820703149129L536.9159888888889,50.202155515434065L538.7674233333332,48.0767157424779L540.6188577777777,47.75830431476966L542.4702922222222,48.906820986841524L544.3217266666667,48.19256982853479L546.1731611111111,47.189915142360086L548.0245955555556,46.71591759636181L549.87603,45.98497299103447L551.7274644444444,46.56705629675704L553.5788988888888,45.83185857841832L555.4303333333332,45.582132845974634L557.2817677777778,44.60304023614925L559.1332022222222,44.14314258371641L560.9846366666667,44.122357171425406L562.8360711111111,43.98232801058846L564.6875055555556,43.962108146939435L566.53894,44.33268732138103L568.3903744444444,44.810188005214854L570.2418088888888,43.75712488681829L572.0932433333332,42.61498065744287L573.9446777777778,41.9934544004268L575.7961122222222,41.81193154477687L577.6475466666667,41.51162493282715L579.4989811111111,41.90554495684786L581.3504155555556,40.547180263395035L583.2018499999999,41.07172497602001L585.0532844444444,40.429636719773335L586.9047188888889,39.597837688297254L588.7561533333333,39.09875826941132L590.6075877777778,39.56480750783004L592.4590222222222,39.46168860600627L594.3104566666667,38.95327118718367L596.161891111111,38.648220735890035L598.0133255555555,38.46519046511392L599.8647599999999,38.610562834061135L601.7161944444445,39.33565052722912L603.5676288888889,38.303544348726774L605.4190633333333,38.258384632816L607.2704977777778,38.35888406897584L609.1219322222222,37.58992656031255L610.9733666666666,37.19234968796761L612.824801111111,37.527907555751504L614.6762355555555,37.72924227642176L616.52767,37.46729466394883L618.3791044444445,36.863617370980805L620.2305388888889,36.24622046378728L622.0819733333334,36.768837122683465L623.9334077777778,36.12559203419963L625.7848422222222,36.24995133944676L627.6362766666666,36.06941374342632L629.487711111111,36.21624436498274L631.3391455555555,36.24054510506354L633.19058,35.68102155792131L635.0420144444445,35.60046060880462L636.8934488888889,35.0418176809973L638.7448833333334,35.21693828265031L640.5963177777777,35.44960590934851L642.4477522222222,35.2702556733455L644.2991866666666,34.90749235257498L646.150621111111,34.62603672725956L648.0020555555556,34.329568086363764L649.85349,34.08792662121727L651.7049244444445,34.70840127963544L653.5563588888889,34.76173526266449L655.4077933333333,35.04888883165054L657.2592277777777,34.58327934899851L659.1106622222222,34.55910419082001L660.9620966666666,34.735954642228435L662.813531111111,34.39551883534517L664.6649655555556,35.020551873818604L666.5164,34.5662771742993L668.3678344444444,34.67646079946286L670.2192688888888,34.742570974561005L672.0707033333333,34.271930721282374L673.9221377777777,33.7981910229997L675.7735722222222,34.0242535623674L677.6250066666666,33.77714264111314L679.4764411111112,33.628876088360585L681.3278755555556,34.177817780752804L683.17931,33.48653272726922L685.0307444444444,33.709663319223004L686.8821788888888,33.46083058176419L688.7336133333333,33.5028864856043L690.5850477777777,33.719475574223836L692.4364822222223,33.65807348108012L694.2879166666667,33.557434592340805L696.1393511111112,33.49705125909708L697.9907855555555,33.71597443831944L699.84222,33.400819620368715L701.6936544444444,33.27552436245163L703.5450888888888,33.455500386870064L705.3965233333333,33.37209310296143L707.2479577777777,33.704797177491464L709.0993922222223,33.457910896725174L710.9508266666667,33.30977912826542L712.8022611111111,32.965709535776824L714.6536955555555,32.82306541313671L716.50513,32.86507420525923L718.3565644444444,33.20923029255454L720.2079988888888,33.03297550005668L722.0594333333333,32.99102025741125L723.9108677777778,32.96584711182389L725.7623022222222,33.205896403640075L727.6137366666666,33.03097516670792L729.4651711111111,33.11737797086407L731.3166055555555,33.16921965335775L733.16804,33.391717561413614L735.0194744444444,33.78036948541574L736.8709088888888,33.63081219494214L738.7223433333334,33.66867308636425L740.5737777777778,33.11728563002689" style="fill: none;" fill="none"></path></g></g></g></g><g opacity="0.2"><g><g><g><path stroke="rgb(255, 112, 67)" stroke-width="2px" d="M118.49180444444444,381.05847247441613L120.34323888888888,363.3569638729096L122.19467333333333,356.9780410130819L124.04610777777776,348.0474929809571L125.89754222222221,326.51859331130987L127.74897666666665,322.6912022431692L129.6004111111111,312.00649944941205L131.45184555555554,301.32179665565496L133.30328,292.0723538398743L135.15471444444444,288.56395093599957L137.0061488888889,283.30129988988244L138.8575833333333,270.2244660059611L140.70901777777777,275.80601183573407L142.5604522222222,265.75919198989874L144.41188666666667,253.95821738243106L146.2633211111111,260.81552910804754L148.11475555555555,255.71237214406338L149.96618999999998,250.76870926221218L151.81762444444445,253.00134627024335L153.66905888888888,250.76870926221218L155.52049333333335,240.5623953342438L157.37192777777776,233.8645776907603L159.22336222222222,230.9940577348074L161.07479666666666,225.89090077082318L162.92623111111112,226.68827780087796L164.77766555555556,227.3261607487997L166.6291,219.19298974672955L168.48053444444443,214.0898327827454L170.3319688888889,214.72771573066714L172.18340333333333,222.2230037848155L174.0348377777778,206.43514402707424L175.8862722222222,213.93033870061245L177.73770666666667,204.5214018026988L179.5891411111111,202.60775295893353L181.44057555555554,205.95666178067532L183.29201,196.38832418123883L185.14344444444444,200.21562186876935L186.99487888888888,190.80677835146588L188.8463133333333,192.56093311309817L190.69774777777778,192.2420383294424L192.5491822222222,192.87992127736416L194.40061666666665,187.77676431337994L196.2520511111111,184.42776211102804L198.10348555555555,188.89303612709048L199.95492,188.73354204495755L201.80635444444445,187.29828206698102L203.6577888888889,176.6135792732239L205.50922333333332,170.713045279185L207.36065777777776,175.65680154164633L209.21209222222222,174.54043634732565L211.0635266666667,181.07885328928631L212.9149611111111,180.2814762592316L214.76639555555553,173.26467045148215L216.61783,178.8462162812551L218.46926444444446,169.1183845996857L220.32069888888887,165.7693823973338L222.17213333333333,173.74305931727093L224.02356777777777,165.7693823973338L225.87500222222224,165.92887647946677L227.72643666666664,163.53674538930258L229.5778711111111,168.63990235328677L231.42930555555554,165.92887647946677L233.28074,161.14470767974856L235.13217444444442,165.290993531545L236.98360888888888,161.94208470980328L238.83504333333335,160.8257195154826L240.68647777777775,149.50313377380374L242.5379122222222,165.13149944941205L244.38934666666665,153.17103075981143L246.24078111111112,162.1014854113261L248.09221555555553,153.3305248419444L249.94365,152.85204259554547L251.79508444444443,152.53314781188968L253.6465188888889,149.34363969167075L255.4979533333333,156.20104479789737L257.34938777777774,147.58948493003848L259.2008222222222,148.22736787796023L261.05225666666666,148.38676857948306L262.9036911111111,145.67574270566305L264.75512555555554,145.1973538398743L266.60656,152.21415964762372L268.45799444444447,141.68895093599957L270.3094288888889,141.21046868960065L272.16086333333334,139.2968198458354L274.0122977777778,140.73207982381186L275.8637322222222,139.2968198458354L277.7151666666666,143.7620938618978L279.5666011111111,142.16733980178836L281.41803555555555,136.26680580774945L283.26947,137.38317100207013L285.1209044444444,134.51265104611716L286.9723388888889,138.8184309800466L288.82377333333335,134.83154582977298L290.6752077777778,136.26680580774945L292.5266422222222,134.51265104611716L294.37807666666663,132.28001403808597L296.2295111111111,117.76792017618818L298.0809455555555,126.53897412618002L299.93237999999997,125.90109117825827L301.78381444444443,131.80153179168704L303.6352488888889,128.45262296994528L305.4866833333333,122.87107714017233L307.33811777777777,124.62523190180464L309.18955222222223,123.03057122230534L311.0409866666667,119.8410631020864L312.8924211111111,124.62523190180464L314.7438555555555,117.92741425832114L316.59529,118.08690834045414L318.44672444444444,123.6684541702271L320.29815888888885,116.6515549818675L322.1495933333333,119.36267423629765L324.0010277777778,123.03057122230534L325.85246222222224,116.1731661160787L327.70389666666665,111.54849139849348L329.5553311111111,118.56529720624289L331.4067655555555,116.33266019821171L333.2582,119.20318015416464L335.1096344444444,116.1731661160787L336.96106888888886,118.56529720624289L338.8125033333333,112.50526913007101L340.6639377777778,111.22950323422751L342.5153722222222,105.16947515805563L344.36680666666666,114.57841205596928L346.2182411111111,105.80745148658757L348.0696755555556,106.76422921816511L349.92111,107.72110033035283L351.7725444444444,106.60473513603215L353.62397888888887,102.61794336636862L355.47541333333334,103.09633223215742L357.32684777777774,109.47525509198508L359.1782822222222,104.69108629226689L361.0297166666667,101.66107225418095L362.8811511111111,103.25582631429037L364.73258555555554,103.57481447855635L366.58402,99.10954046249394L368.4354544444444,98.31216343243918L370.2868888888889,98.79055229822798L372.1383233333333,101.0231893062592L373.98975777777775,95.920032342275L375.8411922222222,96.87690345446272L377.6926266666666,99.74742341041569L379.5440611111111,94.48477236429854L381.39549555555556,90.17899243036909L383.24693,95.44164347648625L385.0983644444444,89.54110948244734L386.9497988888889,94.48477236429854L388.8012333333333,92.2521353562673L390.65266777777776,94.64426644643149L392.5041022222222,90.33848651250204L394.35553666666664,91.29535762468977L396.2069711111111,89.38161540031437L398.05840555555557,89.54110948244734L399.90984,87.62746063868208L401.76127444444444,92.89011168479924L403.6127088888889,83.80006957054142L405.46414333333337,90.65747467676802L407.3155777777778,85.07583546638493L409.1670122222222,85.55431771278386L411.01844666666665,84.27845843633017L412.8698811111111,85.07583546638493L414.7213155555555,85.39482363065085L416.57275,88.10584950447087L418.42418444444445,83.95956365267439L420.2756188888889,79.97267850240073L422.1270533333334,81.88642072677617L423.97848777777773,79.97267850240073L425.8299222222222,79.8132778008779L427.6813566666666,82.84319845835371L429.53279111111107,81.72692664464316L431.38422555555553,76.30487489700322L433.23566,73.59375564257307L435.08709444444446,80.61065483093266L436.9385288888889,79.17539485295615L438.7899633333333,74.55062675476078L440.64139777777774,72.31798974672957L442.4928322222222,74.8696149190267L444.34426666666667,74.71012083689375L446.1957011111111,68.01220981280012L448.04713555555554,74.39113267262778L449.89857,72.95587269465132L451.75000444444447,70.72323568662009L453.6014388888888,71.68010679880781L455.4528733333333,71.52061271667485L457.30430777777775,69.76645795504255L459.1557422222222,68.17170389493307L461.0071766666667,71.04222385088606L462.8586111111111,66.25796167055769L464.71004555555555,68.01220981280012L466.56148,72.31798974672957L468.41291444444437,67.0553387006124L470.26434888888883,70.56383498509726L472.1157833333333,62.90905284881596L473.96721777777776,64.98219577471419L475.8186522222222,62.90905284881596L477.6700866666667,66.73644391695662L479.52152111111116,64.18481874465947L481.3729555555555,63.70642987887067L483.22438999999997,64.18481874465947L485.0758244444444,57.48700110117597L486.92725888888884,62.59015806516013L488.7786933333333,59.87903881073002L490.6301277777778,60.35752105712895L492.48156222222224,60.03853289286298L494.3329966666667,57.965389966964764L496.18443111111105,60.03853289286298L498.0358655555555,57.965389966964764L499.8873,59.40064994494123L501.73873444444445,59.08166178067527L503.59016888888885,53.81910411516828L505.4416033333333,57.48700110117597L507.2930377777778,54.775881846745825L509.14447222222225,57.48700110117597L510.9959066666666,55.25436409314475L512.8473411111111,52.224350055058814L514.6987755555555,52.86223300298057L516.55021,54.93537592887883L518.4016444444444,55.73275295893354L520.2530788888889,55.892247041066504L522.1045133333333,50.310701211293555L523.9559477777779,49.83221896489463L525.8073822222221,50.94858415921531L527.6588166666667,54.13799889882407L529.5102511111111,47.91857012112937L531.3616855555555,49.194336016972876L533.21312,50.310701211293555L535.0645544444444,48.715947151184125L536.9159888888889,51.10807824134831L538.7674233333332,44.88855608304343L540.6188577777777,47.28068717320762L542.4702922222222,50.62959599494938L544.3217266666667,47.12119309107465L546.1731611111111,45.68593311309819L548.0245955555556,46.00492127736411L549.87603,44.88855608304343L551.7274644444444,47.44018125534062L553.5788988888888,44.72906200091047L555.4303333333332,45.20754424730939L557.2817677777778,43.134401321411175L559.1332022222222,43.45329610506696L560.9846366666667,44.091179052988714L562.8360711111111,43.77228426933293L564.6875055555556,43.93177835146589L566.53894,44.88855608304343L568.3903744444444,45.526439030965186L570.2418088888888,42.177530209223455L572.0932433333332,40.90176431337995L573.9446777777778,41.06116501490278L575.7961122222222,41.5396472613017L577.6475466666667,41.06116501490278L579.4989811111111,42.49642499287925L581.3504155555556,38.509633223215765L583.2018499999999,41.858542044957495L585.0532844444444,39.466504335403485L586.9047188888889,38.350139141082806L588.7561533333333,38.350139141082806L590.6075877777778,40.2638813654582L592.4590222222222,39.307010253270484L594.3104566666667,38.190645058949805L596.161891111111,38.190645058949805L598.0133255555555,38.190645058949805L599.8647599999999,38.82862138748173L601.7161944444445,40.423282066981024L603.5676288888889,36.75538508097333L605.4190633333333,38.190645058949805L607.2704977777778,38.509633223215765L609.1219322222222,36.43649029731755L610.9733666666666,36.595984379450506L612.824801111111,38.03124435742698L614.6762355555555,38.03124435742698L616.52767,37.0743732452393L618.3791044444445,35.95810143152875L620.2305388888889,35.32012510299687L622.0819733333334,37.55276211102805L623.9334077777778,35.16072440147404L625.7848422222222,36.43649029731755L627.6362766666666,35.798607349395795L629.487711111111,36.43649029731755L631.3391455555555,36.276996215184546L633.19058,34.841736237208075L635.0420144444445,35.47961918512983L636.8934488888889,34.20385328928632L638.7448833333334,35.47961918512983L640.5963177777777,35.798607349395795L642.4477522222222,35.00123031934104L644.2991866666666,34.36334737141929L646.150621111111,34.20385328928632L648.0020555555556,33.88486512502036L649.85349,33.725464423497534L651.7049244444445,35.63911326726279L653.5563588888889,34.841736237208075L655.4077933333333,35.47961918512983L657.2592277777777,33.88486512502036L659.1106622222222,34.52284145355229L660.9620966666666,35.00123031934104L662.813531111111,33.88486512502036L664.6649655555556,35.95810143152875L666.5164,33.88486512502036L668.3678344444444,34.841736237208075L670.2192688888888,34.841736237208075L672.0707033333333,33.56597034136457L673.9221377777777,33.08758147557578L675.7735722222222,34.36334737141929L677.6250066666666,33.40647625923161L679.4764411111112,33.40647625923161L681.3278755555556,35.00123031934104L683.17931,32.44960514704389L685.0307444444444,34.04435920715336L686.8821788888888,33.08758147557578L688.7336133333333,33.56597034136457L690.5850477777777,34.04435920715336L692.4364822222223,33.56597034136457L694.2879166666667,33.40647625923161L696.1393511111112,33.40647625923161L697.9907855555555,34.04435920715336L699.84222,32.928087393442816L701.6936544444444,33.08758147557578L703.5450888888888,33.725464423497534L705.3965233333333,33.24698217709861L707.2479577777777,34.20385328928632L709.0993922222223,33.08758147557578L710.9508266666667,33.08758147557578L712.8022611111111,32.44960514704389L714.6536955555555,32.609099229176856L716.50513,32.928087393442816L718.3565644444444,33.725464423497534L720.2079988888888,32.76859331130986L722.0594333333333,32.928087393442816L723.9108677777778,32.928087393442816L725.7623022222222,33.56597034136457L727.6137366666666,32.76859331130986L729.4651711111111,33.24698217709861L731.3166055555555,33.24698217709861L733.16804,33.725464423497534L735.0194744444444,34.36334737141929L736.8709088888888,33.40647625923161L738.7223433333334,33.725464423497534L740.5737777777778,32.29020444552106" style="fill: none;" fill="none"></path></g></g></g></g></g></g><g transform="translate(53, 376)" clip-path="url(#clip_1)"><clipPath id="clip_1"><rect width="833" height="24"></rect></clipPath><g><g><line x1="0" y1="0" x2="0" y2="5" style="visibility: inherit;" fill="rgb(0, 0, 0)" stroke="rgb(204, 204, 204)" stroke-width="1px"></line><line x1="92.57172222222222" y1="0" x2="92.57172222222222" y2="5" style="visibility: inherit;" fill="rgb(0, 0, 0)" stroke="rgb(204, 204, 204)" stroke-width="1px"></line><line x1="185.14344444444444" y1="0" x2="185.14344444444444" y2="5" style="visibility: inherit;" fill="rgb(0, 0, 0)" stroke="rgb(204, 204, 204)" stroke-width="1px"></line><line x1="277.7151666666666" y1="0" x2="277.7151666666666" y2="5" style="visibility: inherit;" fill="rgb(0, 0, 0)" stroke="rgb(204, 204, 204)" stroke-width="1px"></line><line x1="370.2868888888889" y1="0" x2="370.2868888888889" y2="5" style="visibility: inherit;" fill="rgb(0, 0, 0)" stroke="rgb(204, 204, 204)" stroke-width="1px"></line><line x1="462.8586111111111" y1="0" x2="462.8586111111111" y2="5" style="visibility: inherit;" fill="rgb(0, 0, 0)" stroke="rgb(204, 204, 204)" stroke-width="1px"></line><line x1="555.4303333333332" y1="0" x2="555.4303333333332" y2="5" style="visibility: inherit;" fill="rgb(0, 0, 0)" stroke="rgb(204, 204, 204)" stroke-width="1px"></line><line x1="648.0020555555556" y1="0" x2="648.0020555555556" y2="5" style="visibility: inherit;" fill="rgb(0, 0, 0)" stroke="rgb(204, 204, 204)" stroke-width="1px"></line><line x1="740.5737777777778" y1="0" x2="740.5737777777778" y2="5" style="visibility: inherit;" fill="rgb(0, 0, 0)" stroke="rgb(204, 204, 204)" stroke-width="1px"></line><line x1="833.1455" y1="0" x2="833.1455" y2="5" style="visibility: inherit;" fill="rgb(0, 0, 0)" stroke="rgb(204, 204, 204)" stroke-width="1px"></line></g><g transform="translate(0, 8)"><text x="0" y="0" dx="0em" dy="0.95em" style="text-anchor: middle; visibility: hidden; font-family: Roboto, sans-serif; font-size: 12px; font-weight: 200;" fill="rgb(33, 33, 33)" stroke="none" stroke-width="1px">-50</text><text x="92.57172222222222" y="0" dx="0em" dy="0.95em" style="text-anchor: middle; visibility: inherit; font-family: Roboto, sans-serif; font-size: 12px; font-weight: 200;" fill="rgb(33, 33, 33)" stroke="none" stroke-width="1px">0</text><text x="185.14344444444444" y="0" dx="0em" dy="0.95em" style="text-anchor: middle; visibility: inherit; font-family: Roboto, sans-serif; font-size: 12px; font-weight: 200;" fill="rgb(33, 33, 33)" stroke="none" stroke-width="1px">50</text><text x="277.7151666666666" y="0" dx="0em" dy="0.95em" style="text-anchor: middle; visibility: inherit; font-family: Roboto, sans-serif; font-size: 12px; font-weight: 200;" fill="rgb(33, 33, 33)" stroke="none" stroke-width="1px">100</text><text x="370.2868888888889" y="0" dx="0em" dy="0.95em" style="text-anchor: middle; visibility: inherit; font-family: Roboto, sans-serif; font-size: 12px; font-weight: 200;" fill="rgb(33, 33, 33)" stroke="none" stroke-width="1px">150</text><text x="462.8586111111111" y="0" dx="0em" dy="0.95em" style="text-anchor: middle; visibility: inherit; font-family: Roboto, sans-serif; font-size: 12px; font-weight: 200;" fill="rgb(33, 33, 33)" stroke="none" stroke-width="1px">200</text><text x="555.4303333333332" y="0" dx="0em" dy="0.95em" style="text-anchor: middle; visibility: inherit; font-family: Roboto, sans-serif; font-size: 12px; font-weight: 200;" fill="rgb(33, 33, 33)" stroke="none" stroke-width="1px">250</text><text x="648.0020555555556" y="0" dx="0em" dy="0.95em" style="text-anchor: middle; visibility: inherit; font-family: Roboto, sans-serif; font-size: 12px; font-weight: 200;" fill="rgb(33, 33, 33)" stroke="none" stroke-width="1px">300</text><text x="740.5737777777778" y="0" dx="0em" dy="0.95em" style="text-anchor: middle; visibility: inherit; font-family: Roboto, sans-serif; font-size: 12px; font-weight: 200;" fill="rgb(33, 33, 33)" stroke="none" stroke-width="1px">350</text><text x="833.1455" y="0" dx="0em" dy="0.95em" style="text-anchor: middle; visibility: hidden; font-family: Roboto, sans-serif; font-size: 12px; font-weight: 200;" fill="rgb(33, 33, 33)" stroke="none" stroke-width="1px">400</text></g><line x1="0" y1="0" x2="833.1455" y2="0" fill="rgb(0, 0, 0)" stroke="rgb(204, 204, 204)" stroke-width="1px"></line></g></g></g></g></svg>