<svg viewBox="0 0 886.3333740234375 400" xmlns="http://www.w3.org/2000/svg"><g><g><g><g><g><line x1="42.390625" y1="376" x2="37.390625" y2="376" style="visibility: inherit;" fill="rgb(0, 0, 0)" stroke="rgb(204, 204, 204)" stroke-width="1px"></line><line x1="42.390625" y1="338.40000000000003" x2="37.390625" y2="338.40000000000003" style="visibility: inherit;" fill="rgb(0, 0, 0)" stroke="rgb(204, 204, 204)" stroke-width="1px"></line><line x1="42.390625" y1="300.8" x2="37.390625" y2="300.8" style="visibility: inherit;" fill="rgb(0, 0, 0)" stroke="rgb(204, 204, 204)" stroke-width="1px"></line><line x1="42.390625" y1="263.2" x2="37.390625" y2="263.2" style="visibility: inherit;" fill="rgb(0, 0, 0)" stroke="rgb(204, 204, 204)" stroke-width="1px"></line><line x1="42.390625" y1="225.6" x2="37.390625" y2="225.6" style="visibility: inherit;" fill="rgb(0, 0, 0)" stroke="rgb(204, 204, 204)" stroke-width="1px"></line><line x1="42.390625" y1="188" x2="37.390625" y2="188" style="visibility: inherit;" fill="rgb(0, 0, 0)" stroke="rgb(204, 204, 204)" stroke-width="1px"></line><line x1="42.390625" y1="150.4" x2="37.390625" y2="150.4" style="visibility: inherit;" fill="rgb(0, 0, 0)" stroke="rgb(204, 204, 204)" stroke-width="1px"></line><line x1="42.390625" y1="112.79999999999997" x2="37.390625" y2="112.79999999999997" style="visibility: inherit;" fill="rgb(0, 0, 0)" stroke="rgb(204, 204, 204)" stroke-width="1px"></line><line x1="42.390625" y1="75.19999999999999" x2="37.390625" y2="75.19999999999999" style="visibility: inherit;" fill="rgb(0, 0, 0)" stroke="rgb(204, 204, 204)" stroke-width="1px"></line><line x1="42.390625" y1="37.599999999999994" x2="37.390625" y2="37.599999999999994" style="visibility: inherit;" fill="rgb(0, 0, 0)" stroke="rgb(204, 204, 204)" stroke-width="1px"></line><line x1="42.390625" y1="0" x2="37.390625" y2="0" style="visibility: inherit;" fill="rgb(0, 0, 0)" stroke="rgb(204, 204, 204)" stroke-width="1px"></line></g><g transform="translate(32.390625, 0)"><text x="0" y="376" dx="0em" dy="0.3em" style="text-anchor: end; visibility: hidden; font-family: Roboto, sans-serif; font-size: 12px; font-weight: 200;" fill="rgb(33, 33, 33)" stroke="none" stroke-width="1px">0.1</text><text x="0" y="338.40000000000003" dx="0em" dy="0.3em" style="text-anchor: end; visibility: inherit; font-family: Roboto, sans-serif; font-size: 12px; font-weight: 200;" fill="rgb(33, 33, 33)" stroke="none" stroke-width="1px">0.2</text><text x="0" y="300.8" dx="0em" dy="0.3em" style="text-anchor: end; visibility: inherit; font-family: Roboto, sans-serif; font-size: 12px; font-weight: 200;" fill="rgb(33, 33, 33)" stroke="none" stroke-width="1px">0.3</text><text x="0" y="263.2" dx="0em" dy="0.3em" style="text-anchor: end; visibility: inherit; font-family: Roboto, sans-serif; font-size: 12px; font-weight: 200;" fill="rgb(33, 33, 33)" stroke="none" stroke-width="1px">0.4</text><text x="0" y="225.6" dx="0em" dy="0.3em" style="text-anchor: end; visibility: inherit; font-family: Roboto, sans-serif; font-size: 12px; font-weight: 200;" fill="rgb(33, 33, 33)" stroke="none" stroke-width="1px">0.5</text><text x="0" y="188" dx="0em" dy="0.3em" style="text-anchor: end; visibility: inherit; font-family: Roboto, sans-serif; font-size: 12px; font-weight: 200;" fill="rgb(33, 33, 33)" stroke="none" stroke-width="1px">0.6</text><text x="0" y="150.4" dx="0em" dy="0.3em" style="text-anchor: end; visibility: inherit; font-family: Roboto, sans-serif; font-size: 12px; font-weight: 200;" fill="rgb(33, 33, 33)" stroke="none" stroke-width="1px">0.7</text><text x="0" y="112.79999999999997" dx="0em" dy="0.3em" style="text-anchor: end; visibility: inherit; font-family: Roboto, sans-serif; font-size: 12px; font-weight: 200;" fill="rgb(33, 33, 33)" stroke="none" stroke-width="1px">0.8</text><text x="0" y="75.19999999999999" dx="0em" dy="0.3em" style="text-anchor: end; visibility: inherit; font-family: Roboto, sans-serif; font-size: 12px; font-weight: 200;" fill="rgb(33, 33, 33)" stroke="none" stroke-width="1px">0.9</text><text x="0" y="37.599999999999994" dx="0em" dy="0.3em" style="text-anchor: end; visibility: inherit; font-family: Roboto, sans-serif; font-size: 12px; font-weight: 200;" fill="rgb(33, 33, 33)" stroke="none" stroke-width="1px">1</text><text x="0" y="0" dx="0em" dy="0.3em" style="text-anchor: end; visibility: hidden; font-family: Roboto, sans-serif; font-size: 12px; font-weight: 200;" fill="rgb(33, 33, 33)" stroke="none" stroke-width="1px">1.1</text></g><line x1="42.390625" y1="0" x2="42.390625" y2="376" fill="rgb(0, 0, 0)" stroke="rgb(204, 204, 204)" stroke-width="1px"></line></g></g><g transform="translate(42, 0)" clip-path="url(#clip_0)"><clipPath id="clip_0"><rect width="843" height="376"></rect></clipPath><g><g><g><line x1="0" y1="0" x2="0" y2="376" fill="rgb(0, 0, 0)" stroke="rgb(66, 66, 66)" stroke-width="1px" opacity="0.25"></line><line x1="93.77137499999999" y1="0" x2="93.77137499999999" y2="376" fill="rgb(0, 0, 0)" stroke="rgb(66, 66, 66)" stroke-width="1px" opacity="0.25"></line><line x1="187.54274999999998" y1="0" x2="187.54274999999998" y2="376" fill="rgb(0, 0, 0)" stroke="rgb(66, 66, 66)" stroke-width="1px" opacity="0.25"></line><line x1="281.314125" y1="0" x2="281.314125" y2="376" fill="rgb(0, 0, 0)" stroke="rgb(66, 66, 66)" stroke-width="1px" opacity="0.25"></line><line x1="375.08549999999997" y1="0" x2="375.08549999999997" y2="376" fill="rgb(0, 0, 0)" stroke="rgb(66, 66, 66)" stroke-width="1px" opacity="0.25"></line><line x1="468.856875" y1="0" x2="468.856875" y2="376" fill="rgb(0, 0, 0)" stroke="rgb(66, 66, 66)" stroke-width="1px" opacity="0.25"></line><line x1="562.62825" y1="0" x2="562.62825" y2="376" fill="rgb(0, 0, 0)" stroke="rgb(66, 66, 66)" stroke-width="1px" opacity="0.25"></line><line x1="656.399625" y1="0" x2="656.399625" y2="376" fill="rgb(0, 0, 0)" stroke="rgb(66, 66, 66)" stroke-width="1px" opacity="0.25"></line><line x1="750.1709999999999" y1="0" x2="750.1709999999999" y2="376" fill="rgb(0, 0, 0)" stroke="rgb(66, 66, 66)" stroke-width="1px" opacity="0.25"></line><line x1="843.942375" y1="0" x2="843.942375" y2="376" fill="rgb(0, 0, 0)" stroke="rgb(66, 66, 66)" stroke-width="1px" opacity="0.25"></line></g><g><line x1="0" y1="376" x2="843.942375" y2="376" fill="rgb(0, 0, 0)" stroke="rgb(66, 66, 66)" stroke-width="1px" opacity="0.25"></line><line x1="0" y1="338.40000000000003" x2="843.942375" y2="338.40000000000003" fill="rgb(0, 0, 0)" stroke="rgb(66, 66, 66)" stroke-width="1px" opacity="0.25"></line><line x1="0" y1="300.8" x2="843.942375" y2="300.8" fill="rgb(0, 0, 0)" stroke="rgb(66, 66, 66)" stroke-width="1px" opacity="0.25"></line><line x1="0" y1="263.2" x2="843.942375" y2="263.2" fill="rgb(0, 0, 0)" stroke="rgb(66, 66, 66)" stroke-width="1px" opacity="0.25"></line><line x1="0" y1="225.6" x2="843.942375" y2="225.6" fill="rgb(0, 0, 0)" stroke="rgb(66, 66, 66)" stroke-width="1px" opacity="0.25"></line><line x1="0" y1="188" x2="843.942375" y2="188" fill="rgb(0, 0, 0)" stroke="rgb(66, 66, 66)" stroke-width="1px" opacity="0.25"></line><line x1="0" y1="150.4" x2="843.942375" y2="150.4" fill="rgb(0, 0, 0)" stroke="rgb(66, 66, 66)" stroke-width="1px" opacity="0.25"></line><line x1="0" y1="112.79999999999997" x2="843.942375" y2="112.79999999999997" fill="rgb(0, 0, 0)" stroke="rgb(66, 66, 66)" stroke-width="1px" opacity="0.25"></line><line x1="0" y1="75.19999999999999" x2="843.942375" y2="75.19999999999999" fill="rgb(0, 0, 0)" stroke="rgb(66, 66, 66)" stroke-width="1px" opacity="0.25"></line><line x1="0" y1="37.599999999999994" x2="843.942375" y2="37.599999999999994" fill="rgb(0, 0, 0)" stroke="rgb(66, 66, 66)" stroke-width="1px" opacity="0.25"></line><line x1="0" y1="0" x2="843.942375" y2="0" fill="rgb(0, 0, 0)" stroke="rgb(66, 66, 66)" stroke-width="1px" opacity="0.25"></line></g></g></g><g><g><line x1="0" y1="413.6" x2="843.942375" y2="413.6" fill="rgb(0, 0, 0)" stroke="rgb(153, 153, 153)" stroke-width="1.5px"></line></g></g><g><g><line x1="93.77137499999999" y1="0" x2="93.77137499999999" y2="376" fill="rgb(0, 0, 0)" stroke="rgb(153, 153, 153)" stroke-width="1.5px"></line></g></g><g><g><g><g><g><path stroke="rgb(255, 112, 67)" stroke-width="2px" d="M95.64680249999999,330.77589414119717L97.52223,281.9770327121019L99.3976575,249.63973988854156L101.273085,224.5912357790505L103.1485125,205.09182191935784L105.02394,190.70052405835543L106.89936750000001,178.61750799023693L108.774795,168.3179643581728L110.65022250000001,160.084938466437L112.52565,152.0872279297147L114.4010775,144.95342375751244L116.276505,138.74119898226544L118.1519325,134.2560558858012L120.02736,129.1632559589329L121.90278749999999,124.409987191557L123.778215,120.94690727928497L125.65364249999999,118.01220694701189L127.52906999999999,114.18472040672569L129.4044975,111.52102534452659L131.279925,108.89714322057175L133.1553525,106.29712137473501L135.03078,103.84918657333397L136.9062075,102.04363697488549L138.781635,100.45509944726342L140.6570625,98.24660212610881L142.53249,97.45733706555379L144.4079175,96.01928319852823L146.283345,94.02355756226675L148.1587725,93.48442513308578L150.0342,92.67104262586388L151.9096275,91.70842153700444L153.785055,91.34518213523701L155.6604825,90.91290534967251L157.53591,89.67373312638716L159.4113375,88.28723931031044L161.286765,87.17977311730488L163.1621925,86.02539033723787L165.03762,85.40930886893932L166.9130475,85.10089675256124L168.788475,84.1350650659317L170.6639025,83.06566298584485L172.53933,82.48525850137165L174.41475749999998,82.85656346427247L176.290185,81.56371190493864L178.16561249999998,81.50753965821613L180.04104,80.57057836793028L181.91646749999998,79.82469130478789L183.79189499999998,79.6986543138147L185.66732249999998,78.70447170967437L187.54274999999998,78.47538272520464L189.41817749999998,77.43468035685845L191.29360499999999,76.97865779297113L193.1690325,76.67443035540856L195.04446,76.55313065587198L196.9198875,75.99044776760734L198.795315,75.33133382322286L200.6707425,75.36453176213445L202.54617,75.3691390935966L204.4215975,75.23411853458806L206.297025,74.12737473098234L208.1724525,72.89687718539115L210.04788,72.63317925923273L211.9233075,72.36778944488289L213.79873500000002,72.83624358270117L215.67416249999997,73.04076787050693L217.54959,72.4898690856464L219.4250175,72.69515821438833L221.30044500000002,71.88445985020286L223.17587249999997,71.0765366202657L225.0513,71.35725566661742L226.9267275,70.76021411011445L228.802155,70.41730060809746L230.67758249999997,69.9819079222315L232.55301,70.21057537925445L234.4284375,70.08751736958149L236.303865,69.55440235900471L238.17929249999997,69.63257679443115L240.05472,69.3579862087998L241.9301475,69.08606079876623L243.80557499999998,67.83593732154486L245.68100249999998,68.58618634007048L247.55643,67.88813075698421L249.4318575,68.32662105367783L251.30728499999998,67.74770301703334L253.18271249999998,67.35441789939237L255.05813999999998,67.08783292957685L256.9335675,66.6216891681465L258.808995,67.00031380148607L260.6844225,66.40077883417534L262.55985,66.10229461678938L264.4352775,65.93850655370399L266.310705,65.57997523196607L268.1861325,65.31893110780757L270.06156,65.83591799085643L271.9369875,65.13569008436978L273.812415,64.66961904482352L275.6878425,64.2062661320943L277.56327,64.06603934234252L279.4386975,63.844118310605715L281.314125,64.1396319971056L283.1895525,64.16384381923505L285.06498,63.611919649085L286.9404075,63.387936205649744L288.815835,62.97797622381706L290.6912625,63.14535510837469L292.56669,62.86304146468298L294.4421175,62.831438236353726L296.317545,62.6440774422395L298.1929725,62.317327812999935L300.0684,60.728117024714045L301.94382749999994,60.6166117309417L303.819255,60.48847179167782L305.6946825,60.97803012700864L307.57011,60.95026988131989L309.44553749999994,60.39778533424848L311.320965,60.23469346312235L313.1963925,59.983750915214685L315.07182,59.526992606929085L316.94724749999995,59.71221782673071L318.822675,59.18036246483726L320.6981025,58.876560679585936L322.57353,59.23010800809337L324.44895749999995,58.76861408311528L326.324385,58.75198517655374L328.1998125,59.09412594327358L330.07524,58.6410995131077L331.95066749999995,57.92531488211997L333.826095,58.16945746107129L335.7015225,58.101609855671086L337.57695,58.33647120820247L339.45237749999995,58.18650667206508L341.327805,58.32617253503837L343.2032325,57.82820935750982L345.07866,57.406957924991715L346.95408749999996,56.572444370168355L348.82951499999996,56.974994179474066L350.7049425,56.37451185039686L352.58037,56.10607311518195L354.45579749999996,56.036869500823045L356.33122499999996,55.888176273552894L358.2066525,55.416228327303145L360.08208,55.17898489066899L361.95750749999996,55.64901542323196L363.83293499999996,55.471753537996825L365.7083625,55.07451505919944L367.58378999999996,54.98926836169152L369.45921749999997,54.968743206956304L371.33464499999997,54.52776180857319L373.2100725,54.18662477465807L375.08549999999997,54.027867885424705L376.96092749999997,54.14694690465567L378.83635499999997,53.72849124765182L380.7117825,53.569277480219476L382.58720999999997,53.74931913553155L384.46263749999997,53.352129628291586L386.338065,52.70046105029039L388.21349250000003,52.81467440391689L390.08892,52.316751152665056L391.9643475,52.49258883857169L393.839775,52.38375829734466L395.71520250000003,52.54810455726418L397.59063,52.23335743955867L399.4660575,52.13636879570541L401.341485,51.894456355853436L403.2169125,51.764620323826975L405.09234,51.50300841560967L406.9677675,51.85125577110649L408.843195,51.187560141435846L410.7186225,51.447653653831225L412.59405,51.06787239707169L414.4694775,50.88593793867025L416.344905,50.65429477308981L418.2203325,50.59185706862686L420.09576,50.585017309718566L421.9711875,50.84117193826032L423.846615,50.596821273612946L425.7220425,50.067469900398216L427.59747000000004,49.933578330009425L429.47289749999993,49.66952413423611L431.34832499999993,49.49578914942594L433.2237525,49.68242054165748L435.09918,49.68723728288025L436.9746075,49.16961035984042L438.850035,48.598766757591264L440.7254625,48.92988291832428L442.60089000000005,48.99076765687834L444.47631749999994,48.58332076258407L446.35174499999994,48.124519473236475L448.22717249999994,48.09419471616844L450.1026,48.06068843004286L451.9780275,47.39758520005451L453.853455,47.61209985660496L455.7288825,47.60302369264948L457.60431,47.38324484150521L459.47973749999994,47.343237157588646L461.35516499999994,47.30392111535395L463.23059249999994,47.11193263289646L465.10602,46.84364315365141L466.9814475,46.958239381875906L468.856875,46.56770794949911L470.7323025,46.501796911728256L472.60773,46.87560516272296L474.48315749999995,46.59467561289259L476.35858499999995,46.76293352630487L478.23401249999995,46.129029189269254L480.10944,45.9477083079341L481.9848675,45.63989405824678L483.860295,45.82263505097592L485.7357225,45.687323630072854L487.61114999999995,45.56021144641527L489.48657749999995,45.52986946733643L491.36200499999995,44.86867378611476L493.23743249999995,44.96185944592422L495.11286,44.757503393384596L496.9882875,44.68082405751515L498.863715,44.604193592223915L500.7391425,44.35919359216296L502.61456999999996,44.41121531301263L504.48999749999996,44.2434066246362L506.36542499999996,44.280506369496074L508.24085249999996,44.272143352642466L510.11627999999996,43.76192000664166L511.9917075,43.8079041096979L513.867135,43.5752271231063L515.7425625000001,43.695888379576665L517.61799,43.553951980687856L519.4934175,43.17790879369836L521.368845,43.01351964450516L523.2442725,43.113907875875455L525.1197,43.2506890095829L526.9951275,43.348069121692106L528.870555,42.87066878929943L530.7459825000001,42.53829429420953L532.62141,42.446040655810414L534.4968375,42.69687228777334L536.372265,42.2503061042924L538.2476925,42.10483992020484L540.12312,42.124731268407075L541.9985475,41.983569687557896L543.873975,42.12851732370416L545.7494025,41.61841177819468L547.62483,41.54199303554471L549.5002575,41.81763703684195L551.375685,41.64621675884834L553.2511125,41.40557963416641L555.12654,41.29182022312682L557.0019675,41.11639351784825L558.877395,41.25609351122167L560.7528225,41.07964605882039L562.62825,41.01971188303389L564.5036775,40.7847296566758L566.379105,40.67435422009192L568.2545325,40.66936572114208L570.12996,40.63575872254122L572.0053875,40.63090595526545L573.880815,40.719844957131436L575.7562425,40.83444512125155L577.63167,40.58170997283637L579.5070975,40.307595357786276L581.382525,40.15842905610242L583.2579525,40.11486357074644L585.13338,40.04278998387849L587.0088075,40.13733078964348L588.884235,39.811323263214796L590.7596625,39.93721399424479L592.63509,39.783112812745586L594.5105175,39.58348104519133L596.385945,39.463701984658705L598.2613725,39.575553801879195L600.1368,39.55080526544149L602.0122275,39.42878508492406L603.8876549999999,39.355572976613594L605.7630825,39.31164571162733L607.63851,39.34653508017466L609.5139375,39.52055612653498L611.389365,39.27285064369441L613.2647925,39.26201231187582L615.14022,39.28613217655418L617.0156475,39.101582374474994L618.8910749999999,39.006163925112205L620.7665025,39.08669781338034L622.64193,39.13501814634121L624.5173575,39.072150719347704L626.392785,38.92726816903538L628.2682125,38.77909291130893L630.14364,38.90452090944402L632.0190675,38.750142088207895L633.8944949999999,38.77998832146721L635.7699224999999,38.7366592984223L637.64535,38.77189864759584L639.5207775,38.77773082521524L641.396205,38.6434451739011L643.2716325,38.624110546113094L645.14706,38.490036243439334L647.0224875,38.53206518783606L648.8979149999999,38.58790541824362L650.7733424999999,38.5448613616029L652.64877,38.45779816461798L654.5241975,38.390248814542275L656.399625,38.31909634072729L658.2750525,38.26110238909213L660.15048,38.410016307112485L662.0259075,38.42281646303946L663.9013349999999,38.491733319596115L665.7767624999999,38.37998704375963L667.65219,38.37418500579679L669.5276175,38.41662911413481L671.403045,38.33492452048283L673.2784725,38.48493244971645L675.1539,38.37590652183182L677.0293274999999,38.40235059187107L678.9047549999999,38.41821703389463L680.7801824999999,38.30526337310775L682.65561,38.19156584551991L684.5310375,38.24582085496816L686.406465,38.18651423386714L688.2818925,38.150930261206526L690.15732,38.28267626738066L692.0327474999999,38.1167678545446L693.9081749999999,38.170319196613505L695.7836024999999,38.11059933962339L697.6590299999999,38.12069275654502L699.5344575,38.1726741378137L701.409885,38.15793763545921L703.2853125,38.13378430216178L705.16074,38.11929230218329L707.0361674999999,38.17183386519665L708.9115949999999,38.09619670888848L710.7870224999999,38.06612584698838L712.6624499999999,38.1093200928488L714.5378775,38.089302344710724L716.413305,38.16915132259793L718.2887325,38.10989861521402L720.16416,38.07434699078368L722.0395874999999,37.99177028858642L723.9150149999999,37.95753569915279L725.7904424999999,37.9676178092622L727.6658699999999,38.05021527021308L729.5412975,38.00791412001359L731.416725,37.99784486177869L733.2921525,37.99180330683772L735.1675799999999,38.0494151368736L737.0430074999999,38.00743404000989L738.9184349999999,38.02817071300736L740.7938624999999,38.040612716805846L742.6692899999999,38.09401221473925L744.5447174999999,38.18728867649976L746.420145,38.1513949267861L748.2955725,38.1604815407274L750.1709999999999,38.02814855120644" style="fill: none;" fill="none"></path></g></g></g></g><g opacity="0.2"><g><g><g><path stroke="rgb(255, 112, 67)" stroke-width="2px" d="M95.64680249999999,330.77589414119717L97.52223,252.69771585464477L99.3976575,218.59593877792358L101.273085,195.13419494628906L103.1485125,179.63338718414306L105.02394,170.79217824935913L106.89936750000001,161.3386016845703L108.774795,153.3011308670044L110.65022250000001,147.94282445907592L112.52565,140.21155986785888L114.4010775,134.31742057800292L116.276505,129.45666847229003L118.1519325,127.54298601150512L120.02736,121.53403339385986L121.90278749999999,117.28567132949829L123.778215,115.75472984313964L125.65364249999999,113.61139831542968L127.52906999999999,108.44446239471435L129.4044975,107.52588853836059L131.279925,104.96155986785888L133.1553525,102.39723119735717L135.03078,100.17736492156982L136.9062075,99.33534822463989L138.781635,98.07231197357177L140.6570625,94.93387184143066L142.53249,96.27344284057617L144.4079175,93.86220607757568L146.283345,91.02997217178344L148.1587725,92.67572698593139L150.0342,91.45096931457519L151.9096275,90.2644902229309L153.785055,90.80032310485839L155.6604825,90.2644902229309L157.53591,87.8149748802185L159.4113375,86.20749864578247L161.286765,85.51857385635375L163.1621925,84.29381618499755L165.03762,84.48518667221069L166.9130475,84.63827857971191L168.788475,82.68631753921508L170.6639025,81.46155986785888L172.53933,81.6146517753601L174.41475749999998,83.41352090835571L176.290185,79.6244345664978L178.16561249999998,81.42328128814697L180.04104,79.1651364326477L181.91646749999998,78.70586071014404L183.79189499999998,79.50959882736205L185.66732249999998,77.21319780349731L187.54274999999998,78.13174924850463L189.41817749999998,75.8736268043518L191.29360499999999,76.29462394714355L193.1690325,76.21808919906616L195.04446,76.37118110656738L196.9198875,75.14642343521118L198.795315,74.34266290664672L200.6707425,75.4143286705017L202.54617,75.37605009078979L204.4215975,75.03158769607543L206.297025,72.46725902557372L208.1724525,71.05113086700439L210.04788,72.23763236999511L211.9233075,71.96970472335815L213.79873500000002,73.5389247894287L215.67416249999997,73.34755430221557L217.54959,71.66352090835571L219.4250175,73.00309190750122L221.30044500000002,70.66841230392455L223.17587249999997,69.8646517753601L225.0513,71.77833423614501L226.9267275,69.8646517753601L228.802155,69.90293035507202L230.67758249999997,69.32881889343261L232.55301,70.55357656478881L234.4284375,69.90293035507202L236.303865,68.75472984313964L238.17929249999997,69.7498384475708L240.05472,68.94610033035278L241.9301475,68.67817268371581L243.80557499999998,65.96075210571288L245.68100249999998,69.71155986785888L247.55643,66.84104738235473L249.4318575,68.98435649871826L251.30728499999998,66.87932596206664L253.18271249999998,66.7644902229309L255.05813999999998,66.68795547485351L256.9335675,65.92247352600097L258.808995,67.56825075149536L260.6844225,65.50147638320922L262.55985,65.65456829071044L264.4352775,65.69282445907592L266.310705,65.04217824935913L268.1861325,64.92736492156982L270.06156,66.61139831542968L271.9369875,64.08534822463989L273.812415,63.970512485504145L275.6878425,63.51123676300048L277.56327,63.85569915771484L279.4386975,63.51123676300048L281.314125,64.58290252685546L283.1895525,64.2001615524292L285.06498,62.78403339385986L286.9404075,63.05196104049682L288.815835,62.36303625106811L290.6912625,63.396423435211176L292.56669,62.4395709991455L294.4421175,62.78403339385986L296.317545,62.36303625106811L298.1929725,61.82720336914062L300.0684,58.34430084228515L301.94382749999994,60.4493537902832L303.819255,60.29626188278198L305.6946825,61.71236763000488L307.57011,60.90862951278686L309.44553749999994,59.56905851364135L311.320965,59.9900556564331L313.1963925,59.607337093353266L315.07182,58.84185514450073L316.94724749999995,59.9900556564331L318.822675,58.382579421997065L320.6981025,58.42085800170898L322.57353,59.76042900085449L324.44895749999995,58.07637319564819L326.324385,58.72704181671142L328.1998125,59.607337093353266L330.07524,57.96155986785888L331.95066749999995,56.85163793563842L333.826095,58.535671329498285L335.7015225,57.999838447570795L337.57695,58.688763236999506L339.45237749999995,57.96155986785888L341.327805,58.535671329498285L343.2032325,57.081264591217035L345.07866,56.775080776214594L346.95408749999996,55.320674037933344L348.82951499999996,57.57881889343261L350.7049425,55.473788356781L352.58037,55.70341501235961L354.45579749999996,55.93306407928466L356.33122499999996,55.6651364326477L358.2066525,54.70830640792846L360.08208,54.82311973571777L361.95750749999996,56.35406122207641L363.83293499999996,55.20586071014404L365.7083625,54.47865734100341L367.58378999999996,54.86139831542968L369.45921749999997,54.93795547485351L371.33464499999997,53.86628971099853L373.2100725,53.674919223785395L375.08549999999997,53.7897325515747L376.96092749999997,54.32556543350219L378.83635499999997,53.10080776214599L380.7117825,53.33045682907104L382.58720999999997,54.01938161849975L384.46263749999997,52.756345367431635L386.338065,51.72295818328857L388.21349250000003,52.985994434356684L390.08892,51.56986627578735L391.9643475,52.756345367431635L393.839775,52.220512485504145L395.71520250000003,52.79462394714355L397.59063,51.76123676300048L399.4660575,51.99088582992553L401.341485,51.531587696075434L403.2169125,51.56986627578735L405.09234,51.110590553283686L406.9677675,52.3736268043518L408.843195,50.192016696929926L410.7186225,51.83779392242431L412.59405,50.49820051193237L414.4694775,50.61303625106811L416.344905,50.30683002471923L418.2203325,50.49820051193237L420.09576,50.574757671356195L421.9711875,51.22540388107299L423.846615,50.23029527664184L425.7220425,49.273442840576166L427.59747000000004,49.732740974426264L429.47289749999993,49.273442840576166L431.34832499999993,49.23518667221069L433.2237525,49.96236763000488L435.09918,49.69446239471435L436.9746075,48.393169975280756L438.850035,47.742501354217524L440.7254625,49.42655715942382L442.60089000000005,49.08209476470947L444.47631749999994,47.97215042114257L446.35174499999994,47.43631753921508L448.22717249999994,48.0487075805664L450.1026,48.01042900085449L451.9780275,46.402930355072016L453.853455,47.93387184143066L455.7288825,47.5894094467163L457.60431,47.05357656478881L459.47973749999994,47.28322563171386L461.35516499999994,47.24494705200195L463.23059249999994,46.8239499092102L465.10602,46.44120893478393L466.9814475,47.13013372421264L468.856875,45.98191080093383L470.7323025,46.402930355072016L472.60773,47.43631753921508L474.48315749999995,46.17328128814697L476.35858499999995,47.015320396423334L478.23401249999995,45.178172683715815L480.10944,45.67572698593139L481.9848675,45.178172683715815L483.860295,46.096746540069574L485.7357225,45.484356498718256L487.61114999999995,45.36954317092895L489.48657749999995,45.484356498718256L491.36200499999995,43.87688026428222L493.23743249999995,45.10163793563842L495.11286,44.45096931457519L496.9882875,44.56580505371093L498.863715,44.489247894287104L500.7391425,43.99169359207153L502.61456999999996,44.489247894287104L504.48999749999996,43.99169359207153L506.36542499999996,44.33615598678588L508.24085249999996,44.259598827362055L510.11627999999996,42.996584987640375L511.9917075,43.87688026428222L513.867135,43.22621164321899L515.7425625000001,43.87688026428222L517.61799,43.34104738235473L519.4934175,42.613844013214106L521.368845,42.766935920715326L523.2442725,43.2644902229309L525.1197,43.45586071014404L526.9951275,43.49413928985595L528.870555,42.15456829071044L530.7459825000001,42.0397325515747L532.62141,42.307660198211664L534.4968375,43.07311973571777L536.372265,41.58045682907104L538.2476925,41.88664064407348L540.12312,42.15456829071044L541.9985475,41.771827316284174L543.873975,42.34593877792358L545.7494025,40.853253459930414L547.62483,41.42736492156982L549.5002575,42.231103038787836L551.375685,41.389086341857904L553.2511125,41.04462394714355L555.12654,41.12118110656738L557.0019675,40.853253459930414L558.877395,41.46564350128173L560.7528225,40.8149748802185L562.62825,40.92981061935424L564.5036775,40.432256317138666L566.379105,40.50879106521606L568.2545325,40.66188297271728L570.12996,40.58534822463989L572.0053875,40.6236268043518L573.880815,40.853253459930414L575.7562425,41.006345367431635L577.63167,40.20260725021362L579.5070975,39.896423435211176L581.382525,39.934679603576654L583.2579525,40.0495153427124L585.13338,39.934679603576654L587.0088075,40.27914199829101L588.884235,39.32231197357177L590.7596625,40.12605009078979L592.63509,39.55196104049682L594.5105175,39.28403339385986L596.385945,39.28403339385986L598.2613725,39.743331527709955L600.1368,39.513682460784906L602.0122275,39.24575481414794L603.8876549999999,39.24575481414794L605.7630825,39.24575481414794L607.63851,39.3988691329956L609.5139375,39.781587696075434L611.389365,38.90129241943359L613.2647925,39.24575481414794L615.14022,39.32231197357177L617.0156475,38.824757671356195L618.8910749999999,38.86303625106811L620.7665025,39.207498645782465L622.64193,39.207498645782465L624.5173575,38.977849578857416L626.392785,38.70994434356689L628.2682125,38.55683002471923L630.14364,39.09266290664672L632.0190675,38.518573856353754L633.8944949999999,38.824757671356195L635.7699224999999,38.671665763854975L637.64535,38.824757671356195L639.5207775,38.78647909164428L641.396205,38.442016696929926L643.2716325,38.59510860443115L645.14706,38.288924789428705L647.0224875,38.59510860443115L648.8979149999999,38.671665763854975L650.7733424999999,38.48029527664184L652.64877,38.32720336914062L654.5241975,38.288924789428705L656.399625,38.21236763000488L658.2750525,38.1741114616394L660.15048,38.63338718414306L662.0259075,38.442016696929926L663.9013349999999,38.59510860443115L665.7767624999999,38.21236763000488L667.65219,38.36548194885253L669.5276175,38.48029527664184L671.403045,38.21236763000488L673.2784725,38.70994434356689L675.1539,38.21236763000488L677.0293274999999,38.442016696929926L678.9047549999999,38.442016696929926L680.7801824999999,38.135832881927485L682.65561,38.02101955413818L684.5310375,38.32720336914062L686.406465,38.09755430221557L688.2818925,38.09755430221557L690.15732,38.48029527664184L692.0327474999999,37.86790523529052L693.9081749999999,38.25064620971679L695.7836024999999,38.02101955413818L697.6590299999999,38.135832881927485L699.5344575,38.25064620971679L701.409885,38.135832881927485L703.2853125,38.09755430221557L705.16074,38.09755430221557L707.0361674999999,38.25064620971679L708.9115949999999,37.982740974426264L710.7870224999999,38.02101955413818L712.6624499999999,38.1741114616394L714.5378775,38.059275722503656L716.413305,38.288924789428705L718.2887325,38.02101955413818L720.16416,38.02101955413818L722.0395874999999,37.86790523529052L723.9150149999999,37.906183815002436L725.7904424999999,37.982740974426264L727.6658699999999,38.1741114616394L729.5412975,37.94446239471435L731.416725,37.982740974426264L733.2921525,37.982740974426264L735.1675799999999,38.135832881927485L737.0430074999999,37.94446239471435L738.9184349999999,38.059275722503656L740.7938624999999,38.059275722503656L742.6692899999999,38.1741114616394L744.5447174999999,38.32720336914062L746.420145,38.09755430221557L748.2955725,38.1741114616394L750.1709999999999,37.82964906692504" style="fill: none;" fill="none"></path></g></g></g></g></g></g><g transform="translate(42, 376)" clip-path="url(#clip_1)"><clipPath id="clip_1"><rect width="843" height="24"></rect></clipPath><g><g><line x1="0" y1="0" x2="0" y2="5" style="visibility: inherit;" fill="rgb(0, 0, 0)" stroke="rgb(204, 204, 204)" stroke-width="1px"></line><line x1="93.77137499999999" y1="0" x2="93.77137499999999" y2="5" style="visibility: inherit;" fill="rgb(0, 0, 0)" stroke="rgb(204, 204, 204)" stroke-width="1px"></line><line x1="187.54274999999998" y1="0" x2="187.54274999999998" y2="5" style="visibility: inherit;" fill="rgb(0, 0, 0)" stroke="rgb(204, 204, 204)" stroke-width="1px"></line><line x1="281.314125" y1="0" x2="281.314125" y2="5" style="visibility: inherit;" fill="rgb(0, 0, 0)" stroke="rgb(204, 204, 204)" stroke-width="1px"></line><line x1="375.08549999999997" y1="0" x2="375.08549999999997" y2="5" style="visibility: inherit;" fill="rgb(0, 0, 0)" stroke="rgb(204, 204, 204)" stroke-width="1px"></line><line x1="468.856875" y1="0" x2="468.856875" y2="5" style="visibility: inherit;" fill="rgb(0, 0, 0)" stroke="rgb(204, 204, 204)" stroke-width="1px"></line><line x1="562.62825" y1="0" x2="562.62825" y2="5" style="visibility: inherit;" fill="rgb(0, 0, 0)" stroke="rgb(204, 204, 204)" stroke-width="1px"></line><line x1="656.399625" y1="0" x2="656.399625" y2="5" style="visibility: inherit;" fill="rgb(0, 0, 0)" stroke="rgb(204, 204, 204)" stroke-width="1px"></line><line x1="750.1709999999999" y1="0" x2="750.1709999999999" y2="5" style="visibility: inherit;" fill="rgb(0, 0, 0)" stroke="rgb(204, 204, 204)" stroke-width="1px"></line><line x1="843.942375" y1="0" x2="843.942375" y2="5" style="visibility: inherit;" fill="rgb(0, 0, 0)" stroke="rgb(204, 204, 204)" stroke-width="1px"></line></g><g transform="translate(0, 8)"><text x="0" y="0" dx="0em" dy="0.95em" style="text-anchor: middle; visibility: hidden; font-family: Roboto, sans-serif; font-size: 12px; font-weight: 200;" fill="rgb(33, 33, 33)" stroke="none" stroke-width="1px">-50</text><text x="93.77137499999999" y="0" dx="0em" dy="0.95em" style="text-anchor: middle; visibility: inherit; font-family: Roboto, sans-serif; font-size: 12px; font-weight: 200;" fill="rgb(33, 33, 33)" stroke="none" stroke-width="1px">0</text><text x="187.54274999999998" y="0" dx="0em" dy="0.95em" style="text-anchor: middle; visibility: inherit; font-family: Roboto, sans-serif; font-size: 12px; font-weight: 200;" fill="rgb(33, 33, 33)" stroke="none" stroke-width="1px">50</text><text x="281.314125" y="0" dx="0em" dy="0.95em" style="text-anchor: middle; visibility: inherit; font-family: Roboto, sans-serif; font-size: 12px; font-weight: 200;" fill="rgb(33, 33, 33)" stroke="none" stroke-width="1px">100</text><text x="375.08549999999997" y="0" dx="0em" dy="0.95em" style="text-anchor: middle; visibility: inherit; font-family: Roboto, sans-serif; font-size: 12px; font-weight: 200;" fill="rgb(33, 33, 33)" stroke="none" stroke-width="1px">150</text><text x="468.856875" y="0" dx="0em" dy="0.95em" style="text-anchor: middle; visibility: inherit; font-family: Roboto, sans-serif; font-size: 12px; font-weight: 200;" fill="rgb(33, 33, 33)" stroke="none" stroke-width="1px">200</text><text x="562.62825" y="0" dx="0em" dy="0.95em" style="text-anchor: middle; visibility: inherit; font-family: Roboto, sans-serif; font-size: 12px; font-weight: 200;" fill="rgb(33, 33, 33)" stroke="none" stroke-width="1px">250</text><text x="656.399625" y="0" dx="0em" dy="0.95em" style="text-anchor: middle; visibility: inherit; font-family: Roboto, sans-serif; font-size: 12px; font-weight: 200;" fill="rgb(33, 33, 33)" stroke="none" stroke-width="1px">300</text><text x="750.1709999999999" y="0" dx="0em" dy="0.95em" style="text-anchor: middle; visibility: inherit; font-family: Roboto, sans-serif; font-size: 12px; font-weight: 200;" fill="rgb(33, 33, 33)" stroke="none" stroke-width="1px">350</text><text x="843.942375" y="0" dx="0em" dy="0.95em" style="text-anchor: middle; visibility: hidden; font-family: Roboto, sans-serif; font-size: 12px; font-weight: 200;" fill="rgb(33, 33, 33)" stroke="none" stroke-width="1px">400</text></g><line x1="0" y1="0" x2="843.942375" y2="0" fill="rgb(0, 0, 0)" stroke="rgb(204, 204, 204)" stroke-width="1px"></line></g></g></g></g></svg>