<svg viewBox="0 0 886.3333740234375 400" xmlns="http://www.w3.org/2000/svg"><g><g><g><g><g><line x1="41.171875" y1="377" x2="36.171875" y2="377" style="visibility: inherit;" fill="rgb(0, 0, 0)" stroke="rgb(204, 204, 204)" stroke-width="1px"></line><line x1="41.171875" y1="350.07142857142856" x2="36.171875" y2="350.07142857142856" style="visibility: inherit;" fill="rgb(0, 0, 0)" stroke="rgb(204, 204, 204)" stroke-width="1px"></line><line x1="41.171875" y1="323.14285714285717" x2="36.171875" y2="323.14285714285717" style="visibility: inherit;" fill="rgb(0, 0, 0)" stroke="rgb(204, 204, 204)" stroke-width="1px"></line><line x1="41.171875" y1="296.2142857142857" x2="36.171875" y2="296.2142857142857" style="visibility: inherit;" fill="rgb(0, 0, 0)" stroke="rgb(204, 204, 204)" stroke-width="1px"></line><line x1="41.171875" y1="269.2857142857143" x2="36.171875" y2="269.2857142857143" style="visibility: inherit;" fill="rgb(0, 0, 0)" stroke="rgb(204, 204, 204)" stroke-width="1px"></line><line x1="41.171875" y1="242.35714285714283" x2="36.171875" y2="242.35714285714283" style="visibility: inherit;" fill="rgb(0, 0, 0)" stroke="rgb(204, 204, 204)" stroke-width="1px"></line><line x1="41.171875" y1="215.42857142857142" x2="36.171875" y2="215.42857142857142" style="visibility: inherit;" fill="rgb(0, 0, 0)" stroke="rgb(204, 204, 204)" stroke-width="1px"></line><line x1="41.171875" y1="188.5" x2="36.171875" y2="188.5" style="visibility: inherit;" fill="rgb(0, 0, 0)" stroke="rgb(204, 204, 204)" stroke-width="1px"></line><line x1="41.171875" y1="161.57142857142856" x2="36.171875" y2="161.57142857142856" style="visibility: inherit;" fill="rgb(0, 0, 0)" stroke="rgb(204, 204, 204)" stroke-width="1px"></line><line x1="41.171875" y1="134.64285714285717" x2="36.171875" y2="134.64285714285717" style="visibility: inherit;" fill="rgb(0, 0, 0)" stroke="rgb(204, 204, 204)" stroke-width="1px"></line><line x1="41.171875" y1="107.71428571428571" x2="36.171875" y2="107.71428571428571" style="visibility: inherit;" fill="rgb(0, 0, 0)" stroke="rgb(204, 204, 204)" stroke-width="1px"></line><line x1="41.171875" y1="80.78571428571425" x2="36.171875" y2="80.78571428571425" style="visibility: inherit;" fill="rgb(0, 0, 0)" stroke="rgb(204, 204, 204)" stroke-width="1px"></line><line x1="41.171875" y1="53.85714285714283" x2="36.171875" y2="53.85714285714283" style="visibility: inherit;" fill="rgb(0, 0, 0)" stroke="rgb(204, 204, 204)" stroke-width="1px"></line><line x1="41.171875" y1="26.928571428571374" x2="36.171875" y2="26.928571428571374" style="visibility: inherit;" fill="rgb(0, 0, 0)" stroke="rgb(204, 204, 204)" stroke-width="1px"></line><line x1="41.171875" y1="0" x2="36.171875" y2="0" style="visibility: inherit;" fill="rgb(0, 0, 0)" stroke="rgb(204, 204, 204)" stroke-width="1px"></line></g><g transform="translate(31.171875, 0)"><text x="0" y="377" dx="0em" dy="0.3em" style="text-anchor: end; visibility: hidden; font-family: Roboto, sans-serif; font-size: 12px; font-weight: 200;" fill="rgb(33, 33, 33)" stroke="none" stroke-width="1px">1</text><text x="0" y="350.07142857142856" dx="0em" dy="0.3em" style="text-anchor: end; visibility: inherit; font-family: Roboto, sans-serif; font-size: 12px; font-weight: 200;" fill="rgb(33, 33, 33)" stroke="none" stroke-width="1px">1.2</text><text x="0" y="323.14285714285717" dx="0em" dy="0.3em" style="text-anchor: end; visibility: inherit; font-family: Roboto, sans-serif; font-size: 12px; font-weight: 200;" fill="rgb(33, 33, 33)" stroke="none" stroke-width="1px">1.4</text><text x="0" y="296.2142857142857" dx="0em" dy="0.3em" style="text-anchor: end; visibility: inherit; font-family: Roboto, sans-serif; font-size: 12px; font-weight: 200;" fill="rgb(33, 33, 33)" stroke="none" stroke-width="1px">1.6</text><text x="0" y="269.2857142857143" dx="0em" dy="0.3em" style="text-anchor: end; visibility: inherit; font-family: Roboto, sans-serif; font-size: 12px; font-weight: 200;" fill="rgb(33, 33, 33)" stroke="none" stroke-width="1px">1.8</text><text x="0" y="242.35714285714283" dx="0em" dy="0.3em" style="text-anchor: end; visibility: inherit; font-family: Roboto, sans-serif; font-size: 12px; font-weight: 200;" fill="rgb(33, 33, 33)" stroke="none" stroke-width="1px">2</text><text x="0" y="215.42857142857142" dx="0em" dy="0.3em" style="text-anchor: end; visibility: inherit; font-family: Roboto, sans-serif; font-size: 12px; font-weight: 200;" fill="rgb(33, 33, 33)" stroke="none" stroke-width="1px">2.2</text><text x="0" y="188.5" dx="0em" dy="0.3em" style="text-anchor: end; visibility: inherit; font-family: Roboto, sans-serif; font-size: 12px; font-weight: 200;" fill="rgb(33, 33, 33)" stroke="none" stroke-width="1px">2.4</text><text x="0" y="161.57142857142856" dx="0em" dy="0.3em" style="text-anchor: end; visibility: inherit; font-family: Roboto, sans-serif; font-size: 12px; font-weight: 200;" fill="rgb(33, 33, 33)" stroke="none" stroke-width="1px">2.6</text><text x="0" y="134.64285714285717" dx="0em" dy="0.3em" style="text-anchor: end; visibility: inherit; font-family: Roboto, sans-serif; font-size: 12px; font-weight: 200;" fill="rgb(33, 33, 33)" stroke="none" stroke-width="1px">2.8</text><text x="0" y="107.71428571428571" dx="0em" dy="0.3em" style="text-anchor: end; visibility: inherit; font-family: Roboto, sans-serif; font-size: 12px; font-weight: 200;" fill="rgb(33, 33, 33)" stroke="none" stroke-width="1px">3</text><text x="0" y="80.78571428571425" dx="0em" dy="0.3em" style="text-anchor: end; visibility: inherit; font-family: Roboto, sans-serif; font-size: 12px; font-weight: 200;" fill="rgb(33, 33, 33)" stroke="none" stroke-width="1px">3.2</text><text x="0" y="53.85714285714283" dx="0em" dy="0.3em" style="text-anchor: end; visibility: inherit; font-family: Roboto, sans-serif; font-size: 12px; font-weight: 200;" fill="rgb(33, 33, 33)" stroke="none" stroke-width="1px">3.4</text><text x="0" y="26.928571428571374" dx="0em" dy="0.3em" style="text-anchor: end; visibility: inherit; font-family: Roboto, sans-serif; font-size: 12px; font-weight: 200;" fill="rgb(33, 33, 33)" stroke="none" stroke-width="1px">3.6</text><text x="0" y="0" dx="0em" dy="0.3em" style="text-anchor: end; visibility: hidden; font-family: Roboto, sans-serif; font-size: 12px; font-weight: 200;" fill="rgb(33, 33, 33)" stroke="none" stroke-width="1px">3.8</text></g><line x1="41.171875" y1="0" x2="41.171875" y2="377" fill="rgb(0, 0, 0)" stroke="rgb(204, 204, 204)" stroke-width="1px"></line></g></g><g transform="translate(41, 0)" clip-path="url(#clip_0)"><clipPath id="clip_0"><rect width="845" height="377"></rect></clipPath><g><g><g><line x1="0" y1="0" x2="0" y2="377" fill="rgb(0, 0, 0)" stroke="rgb(66, 66, 66)" stroke-width="1px" opacity="0.25"></line><line x1="93.90679166666666" y1="0" x2="93.90679166666666" y2="377" fill="rgb(0, 0, 0)" stroke="rgb(66, 66, 66)" stroke-width="1px" opacity="0.25"></line><line x1="187.81358333333333" y1="0" x2="187.81358333333333" y2="377" fill="rgb(0, 0, 0)" stroke="rgb(66, 66, 66)" stroke-width="1px" opacity="0.25"></line><line x1="281.720375" y1="0" x2="281.720375" y2="377" fill="rgb(0, 0, 0)" stroke="rgb(66, 66, 66)" stroke-width="1px" opacity="0.25"></line><line x1="375.62716666666665" y1="0" x2="375.62716666666665" y2="377" fill="rgb(0, 0, 0)" stroke="rgb(66, 66, 66)" stroke-width="1px" opacity="0.25"></line><line x1="469.5339583333333" y1="0" x2="469.5339583333333" y2="377" fill="rgb(0, 0, 0)" stroke="rgb(66, 66, 66)" stroke-width="1px" opacity="0.25"></line><line x1="563.44075" y1="0" x2="563.44075" y2="377" fill="rgb(0, 0, 0)" stroke="rgb(66, 66, 66)" stroke-width="1px" opacity="0.25"></line><line x1="657.3475416666666" y1="0" x2="657.3475416666666" y2="377" fill="rgb(0, 0, 0)" stroke="rgb(66, 66, 66)" stroke-width="1px" opacity="0.25"></line><line x1="751.2543333333333" y1="0" x2="751.2543333333333" y2="377" fill="rgb(0, 0, 0)" stroke="rgb(66, 66, 66)" stroke-width="1px" opacity="0.25"></line><line x1="845.161125" y1="0" x2="845.161125" y2="377" fill="rgb(0, 0, 0)" stroke="rgb(66, 66, 66)" stroke-width="1px" opacity="0.25"></line></g><g><line x1="0" y1="377" x2="845.161125" y2="377" fill="rgb(0, 0, 0)" stroke="rgb(66, 66, 66)" stroke-width="1px" opacity="0.25"></line><line x1="0" y1="350.07142857142856" x2="845.161125" y2="350.07142857142856" fill="rgb(0, 0, 0)" stroke="rgb(66, 66, 66)" stroke-width="1px" opacity="0.25"></line><line x1="0" y1="323.14285714285717" x2="845.161125" y2="323.14285714285717" fill="rgb(0, 0, 0)" stroke="rgb(66, 66, 66)" stroke-width="1px" opacity="0.25"></line><line x1="0" y1="296.2142857142857" x2="845.161125" y2="296.2142857142857" fill="rgb(0, 0, 0)" stroke="rgb(66, 66, 66)" stroke-width="1px" opacity="0.25"></line><line x1="0" y1="269.2857142857143" x2="845.161125" y2="269.2857142857143" fill="rgb(0, 0, 0)" stroke="rgb(66, 66, 66)" stroke-width="1px" opacity="0.25"></line><line x1="0" y1="242.35714285714283" x2="845.161125" y2="242.35714285714283" fill="rgb(0, 0, 0)" stroke="rgb(66, 66, 66)" stroke-width="1px" opacity="0.25"></line><line x1="0" y1="215.42857142857142" x2="845.161125" y2="215.42857142857142" fill="rgb(0, 0, 0)" stroke="rgb(66, 66, 66)" stroke-width="1px" opacity="0.25"></line><line x1="0" y1="188.5" x2="845.161125" y2="188.5" fill="rgb(0, 0, 0)" stroke="rgb(66, 66, 66)" stroke-width="1px" opacity="0.25"></line><line x1="0" y1="161.57142857142856" x2="845.161125" y2="161.57142857142856" fill="rgb(0, 0, 0)" stroke="rgb(66, 66, 66)" stroke-width="1px" opacity="0.25"></line><line x1="0" y1="134.64285714285717" x2="845.161125" y2="134.64285714285717" fill="rgb(0, 0, 0)" stroke="rgb(66, 66, 66)" stroke-width="1px" opacity="0.25"></line><line x1="0" y1="107.71428571428571" x2="845.161125" y2="107.71428571428571" fill="rgb(0, 0, 0)" stroke="rgb(66, 66, 66)" stroke-width="1px" opacity="0.25"></line><line x1="0" y1="80.78571428571425" x2="845.161125" y2="80.78571428571425" fill="rgb(0, 0, 0)" stroke="rgb(66, 66, 66)" stroke-width="1px" opacity="0.25"></line><line x1="0" y1="53.85714285714283" x2="845.161125" y2="53.85714285714283" fill="rgb(0, 0, 0)" stroke="rgb(66, 66, 66)" stroke-width="1px" opacity="0.25"></line><line x1="0" y1="26.928571428571374" x2="845.161125" y2="26.928571428571374" fill="rgb(0, 0, 0)" stroke="rgb(66, 66, 66)" stroke-width="1px" opacity="0.25"></line><line x1="0" y1="0" x2="845.161125" y2="0" fill="rgb(0, 0, 0)" stroke="rgb(66, 66, 66)" stroke-width="1px" opacity="0.25"></line></g></g></g><g><g><line x1="0" y1="511.64285714285717" x2="845.161125" y2="511.64285714285717" fill="rgb(0, 0, 0)" stroke="rgb(153, 153, 153)" stroke-width="1.5px"></line></g></g><g><g><line x1="93.90679166666666" y1="0" x2="93.90679166666666" y2="377" fill="rgb(0, 0, 0)" stroke="rgb(153, 153, 153)" stroke-width="1.5px"></line></g></g><g><g><g><g><g><path stroke="rgb(255, 112, 67)" stroke-width="2px" d="M95.7849275,17.754272767475655L97.66306333333333,99.23187485975876L99.54119916666666,140.4303716615755L101.41933499999999,167.54311766907452L103.29747083333332,186.7572392378311L105.17560666666667,200.73936942940438L107.0537425,212.04441556325335L108.93187833333333,221.2528692293663L110.81001416666668,228.65721924466308L112.68815,235.2632631211564L114.56628583333334,240.331557656577L116.44442166666666,245.47010277286847L118.3225575,248.89937493024266L120.20069333333333,253.38362581305148L122.07882916666665,256.80679584880875L123.956965,259.61801279012883L125.83510083333331,262.33171689985227L127.71323666666666,264.9584971139059L129.59137249999998,267.13649216706244L131.46950833333332,269.29421670821785L133.34764416666664,271.3516422631857L135.22578,272.8287453355298L137.10391583333333,274.2505587730493L138.98205166666668,275.9514919118162L140.8601875,277.369366282923L142.73832333333334,278.36330557165064L144.61645916666666,279.34770326045674L146.494595,280.4810086104931L148.37273083333332,281.3113927162357L150.25086666666667,282.4805030070911L152.12900249999998,283.8978037287563L154.00713833333333,284.0987735035317L155.88527416666665,284.4851867221346L157.76341,284.9880921017275L159.6415458333333,285.94827914013626L161.51968166666666,286.9410990940209L163.3978175,287.7925490063051L165.27595333333335,287.96788912779766L167.15408916666667,288.5115463987327L169.032225,289.2030542228555L170.91036083333333,290.09707811578477L172.78849666666667,290.46002954920334L174.6666325,290.86993346120664L176.54476833333334,291.60650013403387L178.42290416666665,292.0075751080368L180.30104,292.5251199921844L182.17917583333332,293.010438820705L184.05731166666664,293.3571975696928L185.93544749999998,293.8338577277548L187.81358333333333,294.14552206899356L189.69171916666667,294.5462515198688L191.569855,294.9464897539329L193.44799083333334,295.03192340631824L195.32612666666665,295.4994226550182L197.2042625,295.7470183115845L199.08239833333332,296.19238486793665L200.96053416666666,296.40534708529646L202.83866999999998,296.60657874465807L204.71680583333332,296.8144986101949L206.59494166666664,297.56208109074623L208.4730775,298.1868285166336L210.35121333333333,298.367213361517L212.22934916666665,298.7187661470164L214.107485,298.50154915697516L215.98562083333331,298.53552013697794L217.86375666666666,299.0686641475456L219.7418925,299.1888929434017L221.62002833333335,299.48298543514323L223.49816416666664,300.16627644194074L225.3763,299.98320412537913L227.25443583333333,300.3520818772573L229.13257166666668,300.7749087568573L231.01070749999997,301.3421324346335L232.8888433333333,301.0265203184494L234.76697916666666,301.322133955498L236.645115,301.86784596783565L238.52325083333332,301.69482583386434L240.40138666666667,302.0680078421994L242.2795225,302.2226679962426L244.1576583333333,302.9908509943387L246.03579416666665,302.71946459884737L247.91393,303.3335626850188L249.79206583333334,303.10514813412624L251.67020166666663,303.34947638532583L253.54833749999997,303.67941061577415L255.42647333333332,303.7022133005078L257.3046091666667,304.32115318883234L259.18274499999995,304.1394813346534L261.06088083333333,304.4933990752159L262.93901666666665,304.60936217996226L264.8171525,304.7262189238831L266.6952883333333,304.8630716949442L268.57342416666665,305.0550213664614L270.45156,304.81678089132396L272.32969583333335,305.2694901572069L274.20783166666666,305.7156572241851L276.0859675,306.0432971213109L277.96410333333336,306.0897365847394L279.8422391666667,306.1462539355598L281.720375,306.24362231190287L283.5985108333333,306.41377532675176L285.4766466666667,306.89235829060436L287.3547825,306.94299809865964L289.2329183333333,307.11808848817833L291.11105416666663,307.22996105047446L292.98919,307.5537221100046L294.8673258333333,307.72478230393614L296.74546166666664,307.7198724484246L298.6235975,307.879352989798L300.50173333333333,308.7883741788384L302.37986916666665,308.80948182111314L304.25800499999997,308.8557886303811L306.13614083333334,308.8680613394247L308.01427666666666,308.5247946644652L309.8924125,308.8887236599735L311.7705483333333,309.0614521860419L313.64868416666667,309.28494293447363L315.52682,309.56628631582623L317.4049558333333,309.61223402467397L319.2830916666666,309.8093748671065L321.1612275,310.20895073818946L323.0393633333333,310.3905414394434L324.91749916666663,310.71286717111104L326.795635,310.8505667527911L328.6737708333333,310.72570900033867L330.5519066666667,311.2125103434296L332.43004249999996,311.61478227311034L334.30817833333333,311.4718536458148L336.18631416666665,311.6365962118092L338.06445,311.4503431646422L339.9425858333333,311.63143919109245L341.82072166666666,311.49510565774153L343.6988575,311.51349387819045L345.57699333333335,311.8535079545475L347.45512916666667,312.4835592125729L349.333265,312.4247867797454L351.21140083333336,312.7576296001032L353.0895366666667,313.0634623841344L354.9676725,313.1222418557856L356.8458083333333,313.4903877878085L358.7239441666667,313.68272439860675L360.60208,313.7049553816349L362.4802158333333,313.2904085412521L364.35835166666664,313.615485803266L366.2364875,314.2330759245887L368.11462333333327,313.8855996468335L369.99275916666664,314.03284187632534L371.87089499999996,314.3285170492309L373.74903083333334,314.59943341082715L375.62716666666665,314.8295758486345L377.50530249999997,314.8531942865157L379.38343833333334,315.1094416950969L381.26157416666666,315.33993164832077L383.13971,315.3771127606654L385.0178458333333,315.65715039642L386.89598166666667,315.87291411851083L388.7741175,315.60832175362077L390.6522533333333,316.20286965816L392.5303891666666,316.2748336682502L394.408525,316.272672115296L396.2866608333333,316.16815647480394L398.16479666666663,316.4462286940494L400.0429325,316.4843584178086L401.9210683333333,316.5572822702559L403.7992041666667,316.6698811555626L405.67733999999996,316.9314161567437L407.55547583333333,316.88517407859933L409.43361166666665,317.45434075593863L411.3117475,317.40714467082654L413.1898833333333,317.392784690516L415.06801916666666,317.6036585322106L416.946155,317.69249584212974L418.82429083333335,317.5006016301645L420.70242666666667,317.79507843982094L422.5805625,317.9745637640923L424.4586983333333,318.00480080041706L426.3368341666667,318.5989826430201L428.21497,318.8043778127026L430.09310583333325,319.14572438596946L431.97124166666663,319.14433246254487L433.84937749999995,319.1162689360524L435.7275133333333,319.0716117827195L437.60564916666664,319.5581310566552L439.483785,319.8055565581493L441.36192083333333,319.7072743959121L443.2400566666667,319.67300388394295L445.11819249999996,320.0247146131732L446.9963283333333,320.3037638297674L448.87446416666666,320.4774146030373L450.7526,320.41865857030825L452.63073583333335,320.9529793578396L454.50887166666666,320.8307271670109L456.38700750000004,320.9635307779963L458.26514333333336,321.03269653948195L460.1432791666666,321.2591768656665L462.02141499999993,321.5319645156303L463.8995508333333,321.5436114911426L465.7776866666666,321.58282302029914L467.6558225,321.6882276632581L469.5339583333333,321.847235222266L471.4120941666667,322.0625447526354L473.29023,321.9121019556135L475.16836583333327,322.23451850412636L477.04650166666664,322.24874012741736L478.92463749999996,322.66396521458717L480.80277333333333,322.7454990731885L482.68090916666665,322.8822101840842L484.559045,322.94497603541004L486.43718083333334,323.1509044481666L488.3153166666666,323.25975265327065L490.1934524999999,323.3467364137179L492.0715883333333,323.61327386220563L493.9497241666666,323.6382743207402L495.82786,323.81739600227996L497.7059958333333,324.12531631511206L499.5841316666667,324.07586341010864L501.4622675,324.1322168881139L503.34040333333326,324.4923842278641L505.21853916666663,324.7125294029087L507.09667499999995,324.8560638524429L508.9748108333333,324.84817248311515L510.85294666666664,325.0857836587839L512.7310825,325.22710483146807L514.6092183333334,325.394423707989L516.4873541666667,325.39705997643046L518.3654899999999,325.660453998668L520.2436258333333,325.9124896105154L522.1217616666667,325.96171854080615L523.9998975,325.9722326338231L525.8780333333333,325.9326939291578L527.7561691666667,326.10517421064844L529.634305,326.2940969355502L531.5124408333334,326.542526667571L533.3905766666666,326.6151768528386L535.2687125,326.6151476378164L537.1468483333333,326.8037897938017L539.0249841666666,326.9326084490731L540.90312,327.18984059821537L542.7812558333334,327.1796732649776L544.6593916666667,327.19791211519083L546.5375274999999,327.5039503751772L548.4156633333333,327.6325130807505L550.2937991666666,327.6496468444384L552.171935,327.8124791793995L554.0500708333333,328.0167165695838L555.9282066666667,328.10053834484717L557.8063425,328.12838614001186L559.6844783333333,328.18288453655595L561.5626141666665,328.3842248522044L563.44075,328.42553965721476L565.3188858333333,328.56064164921014L567.1970216666666,328.74358613660553L569.0751574999999,328.98561684710154L570.9532933333334,329.00846489408747L572.8314291666667,328.9916902720706L574.709565,328.8947207006253L576.5877008333333,329.04867757649987L578.4658366666666,329.2638008773688L580.3439725,329.4445644656466L582.2221083333333,329.67130328482835L584.1002441666667,329.840269729806L585.97838,329.8603817971426L587.8565158333333,330.0522615880894L589.7346516666667,330.29133922881647L591.6127875,330.1477739855113L593.4909233333333,330.1671134838993L595.3690591666666,330.31089131718653L597.247195,330.5150277859828L599.1253308333334,330.6390633730209L601.0034666666667,330.5379930175783L602.8816025,330.64241599067697L604.7597383333333,330.74530561751345L606.6378741666666,330.82396965018637L608.5160099999999,330.9899944591029L610.3941458333333,330.99896794806654L612.2722816666667,331.17965114095824L614.1504175,331.2925424063658L616.0285533333333,331.3460755245276L617.9066891666666,331.39183205259457L619.784825,331.4273369901932L621.6629608333333,331.4756564562227L623.5410966666666,331.57963048945953L625.4192325,331.67998439645567L627.2973683333333,331.876056110885L629.1755041666667,331.9137603361422L631.05364,331.95152187205304L632.9317758333334,332.07402685965695L634.8099116666666,332.1171106047283L636.6880474999999,332.14766691095446L638.5661833333332,332.2036491681573L640.4443191666667,332.2725821183925L642.322455,332.3341978458646L644.2005908333333,332.3650872850127L646.0787266666666,332.5247898834599L647.9568625,332.60510648628275L649.8349983333333,332.67294889976415L651.7131341666666,332.7473864555605L653.59127,332.753912574919L655.4694058333333,332.7843118674503L657.3475416666666,332.8586967193111L659.2256775,332.9836452298605L661.1038133333334,333.03013401076373L662.9819491666667,333.0941092064689L664.8600849999999,333.14823040991996L666.7382208333332,333.16956396052655L668.6163566666667,333.17389575246904L670.4944925,333.15137230432674L672.3726283333333,333.13624032696356L674.2507641666666,333.20968731345613L676.1289,333.2205562801984L678.0070358333332,333.22575508426587L679.8851716666666,333.36664055764396L681.7633075,333.42110570912536L683.6414433333333,333.4408736335506L685.5195791666666,333.40890319305566L687.397715,333.4430220247212L689.2758508333334,333.50455096148016L691.1539866666667,333.6121490950907L693.0321224999999,333.6906656460138L694.9102583333333,333.67678941533563L696.7883941666666,333.77030202722483L698.66653,333.7886391357282L700.5446658333333,333.81041461680525L702.4228016666667,333.9038167656995L704.3009375,333.81723171839343L706.1790733333333,333.7972729040764L708.0572091666666,333.84795946764154L709.935345,333.90577312555524L711.8134808333333,333.83549629767134L713.6916166666666,333.85954888363887L715.5697524999999,333.8782434956529L717.4478883333334,333.9012992439448L719.3260241666667,333.96993613246894L721.20416,334.0124023199309L723.0822958333333,334.05705296381547L724.9604316666666,334.1842820812035L726.8385675,334.1743696211183L728.7167033333333,334.1974995557651L730.5948391666667,334.17117377493463L732.472975,334.1717692601815L734.3511108333333,334.2593331023365L736.2292466666665,334.23477036433707L738.1073825,334.24017953424885L739.9855183333333,334.1801660987689L741.8636541666666,334.11991509140114L743.7417899999999,334.18504427363536L745.6199258333334,334.13748021588196L747.4980616666667,334.17029389795084L749.3761975,334.18236124464016L751.2543333333333,334.17607414010337" style="fill: none;" fill="none"></path></g></g></g></g><g opacity="0.2"><g><g><g><path stroke="rgb(255, 112, 67)" stroke-width="2px" d="M95.7849275,17.754272767475655L97.66306333333333,148.11843611512865L99.54119916666666,179.98092859131947L101.41933499999999,199.42770697389327L103.29747083333332,211.84319635799952L105.17560666666667,220.08168905121937L107.0537425,228.21081241539545L108.93187833333333,234.6788830757141L110.81001416666668,239.57719729627883L112.68815,245.07246838297164L114.56628583333334,247.88803040129795L116.44442166666666,253.14995671170098L118.3225575,254.03208599771773L120.20069333333333,260.1012170229639L122.07882916666665,261.9375270945685L123.956965,263.8328555141176L125.83510083333331,266.40112471580505L127.71323666666666,268.8980004957744L129.59137249999998,270.40315295117244L131.46950833333332,272.5306062953813L133.34764416666664,274.4376677615302L135.22578,275.0443513393402L137.10391583333333,276.38325085810254L138.98205166666668,278.50287147079194L140.8601875,279.4961677619389L142.73832333333334,279.8542102660452L144.61645916666666,280.82429727486203L146.494595,282.18096489565716L148.37273083333332,282.5569681099483L150.25086666666667,284.23416779722487L152.12900249999998,286.02375434126174L154.00713833333333,284.40022812570845L155.88527416666665,285.064806503909L157.76341,285.74245013509477L159.6415458333333,287.3885596564838L161.51968166666666,288.43032899924685L163.3978175,289.0697238615581L165.27595333333335,288.230899308409L167.15408916666667,289.3270323021071L169.032225,290.2403159567288L170.91036083333333,291.43811395338605L172.78849666666667,291.0044566988945L174.6666325,291.4847893289157L176.54476833333334,292.7113501429558L178.42290416666665,292.60918756893705L180.30104,293.30143731832504L182.17917583333332,293.7384170634406L184.05731166666664,293.87733569315503L185.93544749999998,294.54884796483174L187.81358333333333,294.6130185808454L189.69171916666667,295.1473456961768L191.569855,295.54684710502625L193.44799083333334,295.16007388489584L195.32612666666665,296.2006715280669L197.2042625,296.1184117964336L199.08239833333332,296.8604347024645L200.96053416666666,296.7247904113361L202.83866999999998,296.9084262337003L204.71680583333332,297.1263784085001L206.59494166666664,298.68345481157303L208.4730775,299.1239496554647L210.35121333333333,298.6377906288419L212.22934916666665,299.2460953252656L214.107485,298.17572367191315L215.98562083333331,298.5864766069821L217.86375666666666,299.8683801633971L219.7418925,299.3692361371858L221.62002833333335,299.9241241727556L223.49816416666664,301.191212952137L225.3763,299.70859565053667L227.25443583333333,300.90539850507463L229.13257166666668,301.40914907625745L231.01070749999997,302.19296795129776L232.8888433333333,300.5531021441732L234.76697916666666,301.7655544110707L236.645115,302.6864139863423L238.52325083333332,301.4352956329073L240.40138666666667,302.627780854702L242.2795225,302.45465822730745L244.1576583333333,304.14312549148286L246.03579416666665,302.31238500561034L247.91393,304.254709814276L249.79206583333334,302.7625263077872L251.67020166666663,303.71596876212527L253.54833749999997,304.1743119614465L255.42647333333332,303.73641732760836L257.3046091666667,305.24956302131926L259.18274499999995,303.86697355338504L261.06088083333333,305.0242756860597L262.93901666666665,304.7833068370819L264.8171525,304.9015040397644L266.6952883333333,305.0683508515358L268.57342416666665,305.34294587373734L270.45156,304.45942017861773L272.32969583333335,305.94855405603136L274.20783166666666,306.38490782465254L276.0859675,306.53475696699957L277.96410333333336,306.1593957798822L279.8422391666667,306.23102996179034L281.720375,306.3896748764174L283.5985108333333,306.66900484902516L285.4766466666667,307.6102327363832L287.3547825,307.0189578107425L289.2329183333333,307.38072407245636L291.11105416666663,307.39776989391873L292.98919,308.03936369929994L294.8673258333333,307.9813725948334L296.74546166666664,307.7125076651573L298.6235975,308.1185738018581L300.50173333333333,310.15190596239904L302.37986916666665,308.8411432845252L304.25800499999997,308.925248844283L306.13614083333334,308.8864704029901L308.01427666666666,308.00989465202605L309.8924125,309.4346171532358L311.7705483333333,309.3205449751445L313.64868416666667,309.6201790571213L315.52682,309.98830138785496L317.4049558333333,309.6811555879457L319.2830916666666,310.1050861307553L321.1612275,310.808314544814L323.0393633333333,310.6629274913243L324.91749916666663,311.1963557686124L326.795635,311.05711612531115L328.6737708333333,310.53842237166L330.5519066666667,311.942712358066L332.43004249999996,312.2181901676314L334.30817833333333,311.25746070487156L336.18631416666665,311.8837100608008L338.06445,311.17096359389166L339.9425858333333,311.90308323076795L341.82072166666666,311.29060535771504L343.6988575,311.54107620886396L345.57699333333335,312.3635290690831L347.45512916666667,313.428636099611L349.333265,312.33662813050404L351.21140083333336,313.25689383063997L353.0895366666667,313.5222115601812L354.9676725,313.21041106326237L356.8458083333333,314.04260668584277L358.7239441666667,313.9712293148041L360.60208,313.7383018561772L362.4802158333333,312.6685882806778L364.35835166666664,314.1031016962869L366.2364875,315.15946110657285L368.11462333333327,313.36438523020064L369.99275916666664,314.25370522056306L371.87089499999996,314.77202980858937L373.74903083333334,315.00580795322145L375.62716666666665,315.1747895053455L377.50530249999997,314.88862194333757L379.38343833333334,315.49381280796865L381.26157416666666,315.6856665781566L383.13971,315.4328844291823L385.0178458333333,316.0772068500519L386.89598166666667,316.19655970164706L388.7741175,315.21143320628573L390.6522533333333,317.0946915149689L392.5303891666666,316.3827796833856L394.408525,316.2694297858647L396.2866608333333,316.01138301406587L398.16479666666663,316.8633370229176L400.0429325,316.5415530034474L401.9210683333333,316.66666804892674L403.7992041666667,316.83877948352267L405.67733999999996,317.32371865851536L407.55547583333333,316.81581096138274L409.43361166666665,318.3080907719476L411.3117475,317.3363505431584L413.1898833333333,317.37124472005024L415.06801916666666,317.9199692947524L416.946155,317.8257518070085L418.82429083333335,317.21276031221663L420.70242666666667,318.2367936543056L422.5805625,318.24379175049916L424.4586983333333,318.0501563549042L426.3368341666667,319.49025540692463L428.21497,319.1124705672264L430.09310583333325,319.65774424586976L431.97124166666663,319.14224457740784L433.84937749999995,319.0741736463138L435.7275133333333,319.0046260527202L437.60564916666664,320.28790996755873L439.483785,320.1766948103905L441.36192083333333,319.5598511525563L443.2400566666667,319.6215981159891L445.11819249999996,320.5522807070187L446.9963283333333,320.7223376546587L448.87446416666666,320.7378907629422L450.7526,320.3305245212146L452.63073583333335,321.75446053913663L454.50887166666666,320.6473488807678L456.38700750000004,321.16273619447435L458.26514333333336,321.13644518171037L460.1432791666666,321.5988973549434L462.02141499999993,321.94114599057605L463.8995508333333,321.56108195441107L465.7776866666666,321.641640314034L467.6558225,321.8463346276964L469.5339583333333,322.0857465607779L471.4120941666667,322.3855090481894L473.29023,321.6864377600806L475.16836583333327,322.7181433268956L477.04650166666664,322.27007256235396L478.92463749999996,323.2868028453418L480.80277333333333,322.86779986109053L482.68090916666665,323.0872768504279L484.559045,323.03912481239865L486.43718083333334,323.4597970673016L488.3153166666666,323.42302496092657L490.1934524999999,323.4772120543889L492.0715883333333,324.01308003493716L493.9497241666666,323.6757750085422L495.82786,324.08607852458954L497.7059958333333,324.58719678436006L499.5841316666667,324.0016840526036L501.4622675,324.2167471051216L503.34040333333326,325.03263523748944L505.21853916666663,325.0427471654756L507.09667499999995,325.0713655267443L508.9748108333333,324.83633542912344L510.85294666666664,325.442200422287L512.7310825,325.4390865904944L514.6092183333334,325.64540202277044L516.4873541666667,325.4010143790926L518.3654899999999,326.0555450320244L520.2436258333333,326.2905430282865L522.1217616666667,326.03556193624223L523.9998975,325.9880037733487L525.8780333333333,325.8733858721597L527.7561691666667,326.3638946328844L529.634305,326.5774810229029L531.5124408333334,326.9151712656021L533.3905766666666,326.72415213074004L535.2687125,326.6151038152831L537.1468483333333,327.0867530277797L539.0249841666666,327.12583643198013L540.90312,327.57568882192885L542.7812558333334,327.1644222651209L544.6593916666667,327.22527039051056L546.5375274999999,327.9630077651569L548.4156633333333,327.82535713911057L550.2937991666666,327.6753474899701L552.171935,328.05672768184115L554.0500708333333,328.32307265486037L555.9282066666667,328.2262710077422L557.8063425,328.1701578327588L559.6844783333333,328.2646321313722L561.5626141666665,328.68623532567705L563.44075,328.48751186473027L565.3188858333333,328.7632946372032L567.1970216666666,329.01800286769867L569.0751574999999,329.3486629128456L570.9532933333334,329.04273696456636L572.8314291666667,328.9665283390454L574.709565,328.74926634345735L576.5877008333333,329.2796128903116L578.4658366666666,329.58648582867215L580.3439725,329.71570984806334L582.2221083333333,330.01141151360105L584.1002441666667,330.09371939727237L585.97838,329.8905498981476L587.8565158333333,330.34008127450943L589.7346516666667,330.6499556899071L591.6127875,329.9324261205537L593.4909233333333,330.1961227314813L595.3690591666666,330.52655806711743L597.247195,330.82123248917713L599.1253308333334,330.8251167535782L601.0034666666667,330.38638748441423L602.8816025,330.799050450325L604.7597383333333,330.8996400577681L606.6378741666666,330.94196569919586L608.5160099999999,331.2390316724777L610.3941458333333,331.012428181512L612.2722816666667,331.4506759302957L614.1504175,331.4618793044771L616.0285533333333,331.4263752017702L617.9066891666666,331.46046684469496L619.784825,331.4805943965912L621.6629608333333,331.5481356552669L623.5410966666666,331.7355915393148L625.4192325,331.8305152569498L627.2973683333333,332.1701636825289L629.1755041666667,331.97031667402814L631.05364,332.0081641759191L632.9317758333334,332.2577843410628L634.8099116666666,332.18173622233525L636.6880474999999,332.19350137029375L638.5661833333332,332.2876225539616L640.4443191666667,332.3759815437453L642.322455,332.42662143707275L644.2005908333333,332.41142144373487L646.0787266666666,332.76434378113066L647.9568625,332.7255813905171L649.8349983333333,332.7747125199863L651.7131341666666,332.8590427892549L653.59127,332.7637017539569L655.4694058333333,332.82991080624714L657.3475416666666,332.9702739971025L659.2256775,333.1710679956845L661.1038133333334,333.09986718211854L662.9819491666667,333.1900720000267L664.8600849999999,333.2294122150966L666.7382208333332,333.20156428643634L668.6163566666667,333.18039344038283L670.4944925,333.11758713211333L672.3726283333333,333.11354236091887L674.2507641666666,333.3198577931949L676.1289,333.2368597303118L678.0070358333332,333.2335532903671L679.8851716666666,333.57796876771107L681.7633075,333.5028034363474L683.6414433333333,333.47052552018846L685.5195791666666,333.3609475323132L687.397715,333.49420027221953L689.2758508333334,333.59684436661854L691.1539866666667,333.7735462955066L693.0321224999999,333.8084404723985L694.9102583333333,333.6559750693185L696.7883941666666,333.91057094505857L698.66653,333.81614479848315L700.5446658333333,333.84307783842087L702.4228016666667,334.0439199890409L704.3009375,333.68735414743423L706.1790733333333,333.76733468260085L708.0572091666666,333.92398931298936L709.935345,333.9924936124257L711.8134808333333,333.7300810558455L713.6916166666666,333.89562776259015L715.5697524999999,333.9062854136739L717.4478883333334,333.9358828663826L719.3260241666667,334.07289146525517L721.20416,334.0761016011238L723.0822958333333,334.12402892964224L724.9604316666666,334.3751257572855L726.8385675,334.1595009309905L728.7167033333333,334.2321944577353L730.5948391666667,334.13168510368894L732.472975,334.1726624880518L734.3511108333333,334.390678865569L736.2292466666665,334.1979262573378L738.1073825,334.2482932891164L739.9855183333333,334.090145945549L741.8636541666666,334.0295385803495L743.7417899999999,334.2827380469867L745.6199258333334,334.06613412925174L747.4980616666667,334.21951442105427L749.3761975,334.20046226467406L751.2543333333333,334.1666434832982" style="fill: none;" fill="none"></path></g></g></g></g></g><g><g opacity="0.848403"><span fill="rgb(0, 0, 0)" stroke="none" stroke-width="1px">Alt + Scroll to Zoom</span></g></g></g><g transform="translate(41, 377)" clip-path="url(#clip_1)"><clipPath id="clip_1"><rect width="845" height="23"></rect></clipPath><g><g><line x1="0" y1="0" x2="0" y2="5" style="visibility: inherit;" fill="rgb(0, 0, 0)" stroke="rgb(204, 204, 204)" stroke-width="1px"></line><line x1="93.90679166666666" y1="0" x2="93.90679166666666" y2="5" style="visibility: inherit;" fill="rgb(0, 0, 0)" stroke="rgb(204, 204, 204)" stroke-width="1px"></line><line x1="187.81358333333333" y1="0" x2="187.81358333333333" y2="5" style="visibility: inherit;" fill="rgb(0, 0, 0)" stroke="rgb(204, 204, 204)" stroke-width="1px"></line><line x1="281.720375" y1="0" x2="281.720375" y2="5" style="visibility: inherit;" fill="rgb(0, 0, 0)" stroke="rgb(204, 204, 204)" stroke-width="1px"></line><line x1="375.62716666666665" y1="0" x2="375.62716666666665" y2="5" style="visibility: inherit;" fill="rgb(0, 0, 0)" stroke="rgb(204, 204, 204)" stroke-width="1px"></line><line x1="469.5339583333333" y1="0" x2="469.5339583333333" y2="5" style="visibility: inherit;" fill="rgb(0, 0, 0)" stroke="rgb(204, 204, 204)" stroke-width="1px"></line><line x1="563.44075" y1="0" x2="563.44075" y2="5" style="visibility: inherit;" fill="rgb(0, 0, 0)" stroke="rgb(204, 204, 204)" stroke-width="1px"></line><line x1="657.3475416666666" y1="0" x2="657.3475416666666" y2="5" style="visibility: inherit;" fill="rgb(0, 0, 0)" stroke="rgb(204, 204, 204)" stroke-width="1px"></line><line x1="751.2543333333333" y1="0" x2="751.2543333333333" y2="5" style="visibility: inherit;" fill="rgb(0, 0, 0)" stroke="rgb(204, 204, 204)" stroke-width="1px"></line><line x1="845.161125" y1="0" x2="845.161125" y2="5" style="visibility: inherit;" fill="rgb(0, 0, 0)" stroke="rgb(204, 204, 204)" stroke-width="1px"></line></g><g transform="translate(0, 8)"><text x="0" y="0" dx="0em" dy="0.95em" style="text-anchor: middle; visibility: hidden; font-family: Roboto, sans-serif; font-size: 12px; font-weight: 200;" fill="rgb(33, 33, 33)" stroke="none" stroke-width="1px">-50</text><text x="93.90679166666666" y="0" dx="0em" dy="0.95em" style="text-anchor: middle; visibility: inherit; font-family: Roboto, sans-serif; font-size: 12px; font-weight: 200;" fill="rgb(33, 33, 33)" stroke="none" stroke-width="1px">0</text><text x="187.81358333333333" y="0" dx="0em" dy="0.95em" style="text-anchor: middle; visibility: inherit; font-family: Roboto, sans-serif; font-size: 12px; font-weight: 200;" fill="rgb(33, 33, 33)" stroke="none" stroke-width="1px">50</text><text x="281.720375" y="0" dx="0em" dy="0.95em" style="text-anchor: middle; visibility: inherit; font-family: Roboto, sans-serif; font-size: 12px; font-weight: 200;" fill="rgb(33, 33, 33)" stroke="none" stroke-width="1px">100</text><text x="375.62716666666665" y="0" dx="0em" dy="0.95em" style="text-anchor: middle; visibility: inherit; font-family: Roboto, sans-serif; font-size: 12px; font-weight: 200;" fill="rgb(33, 33, 33)" stroke="none" stroke-width="1px">150</text><text x="469.5339583333333" y="0" dx="0em" dy="0.95em" style="text-anchor: middle; visibility: inherit; font-family: Roboto, sans-serif; font-size: 12px; font-weight: 200;" fill="rgb(33, 33, 33)" stroke="none" stroke-width="1px">200</text><text x="563.44075" y="0" dx="0em" dy="0.95em" style="text-anchor: middle; visibility: inherit; font-family: Roboto, sans-serif; font-size: 12px; font-weight: 200;" fill="rgb(33, 33, 33)" stroke="none" stroke-width="1px">250</text><text x="657.3475416666666" y="0" dx="0em" dy="0.95em" style="text-anchor: middle; visibility: inherit; font-family: Roboto, sans-serif; font-size: 12px; font-weight: 200;" fill="rgb(33, 33, 33)" stroke="none" stroke-width="1px">300</text><text x="751.2543333333333" y="0" dx="0em" dy="0.95em" style="text-anchor: middle; visibility: inherit; font-family: Roboto, sans-serif; font-size: 12px; font-weight: 200;" fill="rgb(33, 33, 33)" stroke="none" stroke-width="1px">350</text><text x="845.161125" y="0" dx="0em" dy="0.95em" style="text-anchor: middle; visibility: hidden; font-family: Roboto, sans-serif; font-size: 12px; font-weight: 200;" fill="rgb(33, 33, 33)" stroke="none" stroke-width="1px">400</text></g><line x1="0" y1="0" x2="845.161125" y2="0" fill="rgb(0, 0, 0)" stroke="rgb(204, 204, 204)" stroke-width="1px"></line></g></g></g></g></svg>