<svg viewBox="0 0 886.3333740234375 400" xmlns="http://www.w3.org/2000/svg"><g><g><g><g><g><line x1="51.5625" y1="377" x2="46.5625" y2="377" style="visibility: inherit;" fill="rgb(0, 0, 0)" stroke="rgb(204, 204, 204)" stroke-width="1px"></line><line x1="51.5625" y1="345.5833333333333" x2="46.5625" y2="345.5833333333333" style="visibility: inherit;" fill="rgb(0, 0, 0)" stroke="rgb(204, 204, 204)" stroke-width="1px"></line><line x1="51.5625" y1="314.16666666666663" x2="46.5625" y2="314.16666666666663" style="visibility: inherit;" fill="rgb(0, 0, 0)" stroke="rgb(204, 204, 204)" stroke-width="1px"></line><line x1="51.5625" y1="282.75000000000006" x2="46.5625" y2="282.75000000000006" style="visibility: inherit;" fill="rgb(0, 0, 0)" stroke="rgb(204, 204, 204)" stroke-width="1px"></line><line x1="51.5625" y1="251.33333333333337" x2="46.5625" y2="251.33333333333337" style="visibility: inherit;" fill="rgb(0, 0, 0)" stroke="rgb(204, 204, 204)" stroke-width="1px"></line><line x1="51.5625" y1="219.91666666666669" x2="46.5625" y2="219.91666666666669" style="visibility: inherit;" fill="rgb(0, 0, 0)" stroke="rgb(204, 204, 204)" stroke-width="1px"></line><line x1="51.5625" y1="188.5" x2="46.5625" y2="188.5" style="visibility: inherit;" fill="rgb(0, 0, 0)" stroke="rgb(204, 204, 204)" stroke-width="1px"></line><line x1="51.5625" y1="157.08333333333331" x2="46.5625" y2="157.08333333333331" style="visibility: inherit;" fill="rgb(0, 0, 0)" stroke="rgb(204, 204, 204)" stroke-width="1px"></line><line x1="51.5625" y1="125.66666666666677" x2="46.5625" y2="125.66666666666677" style="visibility: inherit;" fill="rgb(0, 0, 0)" stroke="rgb(204, 204, 204)" stroke-width="1px"></line><line x1="51.5625" y1="94.25000000000009" x2="46.5625" y2="94.25000000000009" style="visibility: inherit;" fill="rgb(0, 0, 0)" stroke="rgb(204, 204, 204)" stroke-width="1px"></line><line x1="51.5625" y1="62.833333333333364" x2="46.5625" y2="62.833333333333364" style="visibility: inherit;" fill="rgb(0, 0, 0)" stroke="rgb(204, 204, 204)" stroke-width="1px"></line><line x1="51.5625" y1="31.416666666666682" x2="46.5625" y2="31.416666666666682" style="visibility: inherit;" fill="rgb(0, 0, 0)" stroke="rgb(204, 204, 204)" stroke-width="1px"></line><line x1="51.5625" y1="0" x2="46.5625" y2="0" style="visibility: inherit;" fill="rgb(0, 0, 0)" stroke="rgb(204, 204, 204)" stroke-width="1px"></line></g><g transform="translate(41.5625, 0)"><text x="0" y="377" dx="0em" dy="0.3em" style="text-anchor: end; visibility: hidden; font-family: Roboto, sans-serif; font-size: 12px; font-weight: 200;" fill="rgb(33, 33, 33)" stroke="none" stroke-width="1px">1.25</text><text x="0" y="345.5833333333333" dx="0em" dy="0.3em" style="text-anchor: end; visibility: inherit; font-family: Roboto, sans-serif; font-size: 12px; font-weight: 200;" fill="rgb(33, 33, 33)" stroke="none" stroke-width="1px">1.3</text><text x="0" y="314.16666666666663" dx="0em" dy="0.3em" style="text-anchor: end; visibility: inherit; font-family: Roboto, sans-serif; font-size: 12px; font-weight: 200;" fill="rgb(33, 33, 33)" stroke="none" stroke-width="1px">1.35</text><text x="0" y="282.75000000000006" dx="0em" dy="0.3em" style="text-anchor: end; visibility: inherit; font-family: Roboto, sans-serif; font-size: 12px; font-weight: 200;" fill="rgb(33, 33, 33)" stroke="none" stroke-width="1px">1.4</text><text x="0" y="251.33333333333337" dx="0em" dy="0.3em" style="text-anchor: end; visibility: inherit; font-family: Roboto, sans-serif; font-size: 12px; font-weight: 200;" fill="rgb(33, 33, 33)" stroke="none" stroke-width="1px">1.45</text><text x="0" y="219.91666666666669" dx="0em" dy="0.3em" style="text-anchor: end; visibility: inherit; font-family: Roboto, sans-serif; font-size: 12px; font-weight: 200;" fill="rgb(33, 33, 33)" stroke="none" stroke-width="1px">1.5</text><text x="0" y="188.5" dx="0em" dy="0.3em" style="text-anchor: end; visibility: inherit; font-family: Roboto, sans-serif; font-size: 12px; font-weight: 200;" fill="rgb(33, 33, 33)" stroke="none" stroke-width="1px">1.55</text><text x="0" y="157.08333333333331" dx="0em" dy="0.3em" style="text-anchor: end; visibility: inherit; font-family: Roboto, sans-serif; font-size: 12px; font-weight: 200;" fill="rgb(33, 33, 33)" stroke="none" stroke-width="1px">1.6</text><text x="0" y="125.66666666666677" dx="0em" dy="0.3em" style="text-anchor: end; visibility: inherit; font-family: Roboto, sans-serif; font-size: 12px; font-weight: 200;" fill="rgb(33, 33, 33)" stroke="none" stroke-width="1px">1.65</text><text x="0" y="94.25000000000009" dx="0em" dy="0.3em" style="text-anchor: end; visibility: inherit; font-family: Roboto, sans-serif; font-size: 12px; font-weight: 200;" fill="rgb(33, 33, 33)" stroke="none" stroke-width="1px">1.7</text><text x="0" y="62.833333333333364" dx="0em" dy="0.3em" style="text-anchor: end; visibility: inherit; font-family: Roboto, sans-serif; font-size: 12px; font-weight: 200;" fill="rgb(33, 33, 33)" stroke="none" stroke-width="1px">1.75</text><text x="0" y="31.416666666666682" dx="0em" dy="0.3em" style="text-anchor: end; visibility: inherit; font-family: Roboto, sans-serif; font-size: 12px; font-weight: 200;" fill="rgb(33, 33, 33)" stroke="none" stroke-width="1px">1.8</text><text x="0" y="0" dx="0em" dy="0.3em" style="text-anchor: end; visibility: hidden; font-family: Roboto, sans-serif; font-size: 12px; font-weight: 200;" fill="rgb(33, 33, 33)" stroke="none" stroke-width="1px">1.85</text></g><line x1="51.5625" y1="0" x2="51.5625" y2="377" fill="rgb(0, 0, 0)" stroke="rgb(204, 204, 204)" stroke-width="1px"></line></g></g><g transform="translate(51, 0)" clip-path="url(#clip_0)"><clipPath id="clip_0"><rect width="834" height="377"></rect></clipPath><g><g><g><line x1="0" y1="0" x2="0" y2="377" fill="rgb(0, 0, 0)" stroke="rgb(66, 66, 66)" stroke-width="1px" opacity="0.25"></line><line x1="92.75227777777776" y1="0" x2="92.75227777777776" y2="377" fill="rgb(0, 0, 0)" stroke="rgb(66, 66, 66)" stroke-width="1px" opacity="0.25"></line><line x1="185.50455555555553" y1="0" x2="185.50455555555553" y2="377" fill="rgb(0, 0, 0)" stroke="rgb(66, 66, 66)" stroke-width="1px" opacity="0.25"></line><line x1="278.2568333333333" y1="0" x2="278.2568333333333" y2="377" fill="rgb(0, 0, 0)" stroke="rgb(66, 66, 66)" stroke-width="1px" opacity="0.25"></line><line x1="371.00911111111105" y1="0" x2="371.00911111111105" y2="377" fill="rgb(0, 0, 0)" stroke="rgb(66, 66, 66)" stroke-width="1px" opacity="0.25"></line><line x1="463.7613888888889" y1="0" x2="463.7613888888889" y2="377" fill="rgb(0, 0, 0)" stroke="rgb(66, 66, 66)" stroke-width="1px" opacity="0.25"></line><line x1="556.5136666666666" y1="0" x2="556.5136666666666" y2="377" fill="rgb(0, 0, 0)" stroke="rgb(66, 66, 66)" stroke-width="1px" opacity="0.25"></line><line x1="649.2659444444445" y1="0" x2="649.2659444444445" y2="377" fill="rgb(0, 0, 0)" stroke="rgb(66, 66, 66)" stroke-width="1px" opacity="0.25"></line><line x1="742.0182222222221" y1="0" x2="742.0182222222221" y2="377" fill="rgb(0, 0, 0)" stroke="rgb(66, 66, 66)" stroke-width="1px" opacity="0.25"></line><line x1="834.7705" y1="0" x2="834.7705" y2="377" fill="rgb(0, 0, 0)" stroke="rgb(66, 66, 66)" stroke-width="1px" opacity="0.25"></line></g><g><line x1="0" y1="377" x2="834.7705" y2="377" fill="rgb(0, 0, 0)" stroke="rgb(66, 66, 66)" stroke-width="1px" opacity="0.25"></line><line x1="0" y1="345.5833333333333" x2="834.7705" y2="345.5833333333333" fill="rgb(0, 0, 0)" stroke="rgb(66, 66, 66)" stroke-width="1px" opacity="0.25"></line><line x1="0" y1="314.16666666666663" x2="834.7705" y2="314.16666666666663" fill="rgb(0, 0, 0)" stroke="rgb(66, 66, 66)" stroke-width="1px" opacity="0.25"></line><line x1="0" y1="282.75000000000006" x2="834.7705" y2="282.75000000000006" fill="rgb(0, 0, 0)" stroke="rgb(66, 66, 66)" stroke-width="1px" opacity="0.25"></line><line x1="0" y1="251.33333333333337" x2="834.7705" y2="251.33333333333337" fill="rgb(0, 0, 0)" stroke="rgb(66, 66, 66)" stroke-width="1px" opacity="0.25"></line><line x1="0" y1="219.91666666666669" x2="834.7705" y2="219.91666666666669" fill="rgb(0, 0, 0)" stroke="rgb(66, 66, 66)" stroke-width="1px" opacity="0.25"></line><line x1="0" y1="188.5" x2="834.7705" y2="188.5" fill="rgb(0, 0, 0)" stroke="rgb(66, 66, 66)" stroke-width="1px" opacity="0.25"></line><line x1="0" y1="157.08333333333331" x2="834.7705" y2="157.08333333333331" fill="rgb(0, 0, 0)" stroke="rgb(66, 66, 66)" stroke-width="1px" opacity="0.25"></line><line x1="0" y1="125.66666666666677" x2="834.7705" y2="125.66666666666677" fill="rgb(0, 0, 0)" stroke="rgb(66, 66, 66)" stroke-width="1px" opacity="0.25"></line><line x1="0" y1="94.25000000000009" x2="834.7705" y2="94.25000000000009" fill="rgb(0, 0, 0)" stroke="rgb(66, 66, 66)" stroke-width="1px" opacity="0.25"></line><line x1="0" y1="62.833333333333364" x2="834.7705" y2="62.833333333333364" fill="rgb(0, 0, 0)" stroke="rgb(66, 66, 66)" stroke-width="1px" opacity="0.25"></line><line x1="0" y1="31.416666666666682" x2="834.7705" y2="31.416666666666682" fill="rgb(0, 0, 0)" stroke="rgb(66, 66, 66)" stroke-width="1px" opacity="0.25"></line><line x1="0" y1="0" x2="834.7705" y2="0" fill="rgb(0, 0, 0)" stroke="rgb(66, 66, 66)" stroke-width="1px" opacity="0.25"></line></g></g></g><g><g><line x1="0" y1="1162.4166666666665" x2="834.7705" y2="1162.4166666666665" fill="rgb(0, 0, 0)" stroke="rgb(153, 153, 153)" stroke-width="1.5px"></line></g></g><g><g><line x1="92.75227777777776" y1="0" x2="92.75227777777776" y2="377" fill="rgb(0, 0, 0)" stroke="rgb(153, 153, 153)" stroke-width="1.5px"></line></g></g><g><g><g><g><g><path stroke="rgb(255, 112, 67)" stroke-width="2px" d="M124.2880522222222,-1.0353211340225035L126.14309777777777,11.222986531560835L127.99814333333332,21.3869634462914L129.8531888888889,31.45634463835001L131.70823444444443,41.05766389486658L133.56328,47.950811565805715L135.41832555555555,54.585940940896954L137.27337111111112,62.523628921809184L139.12841666666665,69.1403759869739L140.98346222222222,73.77875933436982L142.83850777777778,78.37261521546488L144.69355333333334,83.66137351563485L146.54859888888888,87.53649934243317L148.40364444444444,92.99234736642535L150.25869,99.60641740086275L152.11373555555556,100.54427634981457L153.9687811111111,102.34753803662812L155.82382666666666,104.69442980806168L157.67887222222222,109.17530265396937L159.5339177777778,113.8084624387642L161.38896333333332,117.78189536275711L163.24400888888889,118.60014926305604L165.09905444444445,121.13721652741933L166.9541,124.36425303999242L168.80914555555555,128.53636454032903L170.6641911111111,130.23013789628223L172.51923666666667,132.14302281896434L174.37428222222223,135.58033395882492L176.22932777777777,137.4520171708386L178.08437333333333,139.86722663019387L179.9394188888889,142.13204782995672L181.79446444444443,143.75025532523318L183.64951,145.97466939618914L185.50455555555553,147.4291029886366L187.35960111111112,149.29917375938786L189.21464666666665,151.16695218502042L191.06969222222222,151.56564256281857L192.92473777777775,153.74730572341838L194.77978333333334,154.90275212072777L196.63482888888888,156.98112938370454L198.48987444444444,157.974953064717L200.34491999999997,158.9140341417376L202.19996555555556,159.88432684757615L204.0550111111111,163.37304509014896L205.91005666666666,166.28853307762364L207.7651022222222,167.13032902041255L209.6201477777778,168.7709086860767L211.47519333333335,167.75722939921732L213.33023888888886,167.9157606392303L215.18528444444442,170.40376602187936L217.04033,170.9648337358745L218.89537555555557,172.33726536400178L220.75042111111108,175.52595672905684L222.60546666666664,174.67161925176933L224.46051222222223,176.3930487605341L226.3155577777778,178.3662408653344L228.1706033333333,181.0132846949564L230.02564888888887,179.54042815276398L231.88069444444446,180.91995845899044L233.73574000000002,183.46661451656652L235.59078555555553,182.6591872247003L237.4458311111111,184.40070326359725L239.30087666666668,185.12245064913222L241.1559222222222,188.70730464024746L243.01096777777775,187.4408347946211L244.8660133333333,190.3066258634213L246.7210588888889,189.24069129258905L248.5761044444444,190.38088979818738L250.43114999999997,191.9205828736125L252.28619555555554,192.02699540236978L254.14124111111113,194.91538154788446L255.99628666666663,194.06757956171612L257.8513322222222,195.71919568434095L259.7063777777778,196.26035683982406L261.5614233333333,196.8056883114547L263.41646888888886,197.44433457640628L265.27151444444445,198.34009971015345L267.12656,197.2283108261785L268.9816055555556,199.34095406696557L270.8366511111111,201.42306704619742L272.69169666666664,202.95205323278435L274.54674222222224,203.16877072878393L276.40178777777777,203.4325183659458L278.2568333333333,203.88690412221342L280.1118788888889,204.6809515248418L281.96692444444443,206.91433868948704L283.82197,207.15065779374493L285.67701555555556,207.96774627816552L287.5320611111111,208.48981823554752L289.3871066666667,210.00070318002176L291.2421522222222,210.7989840850353L293.09719777777775,210.77607142598154L294.95224333333334,211.52031395239067L296.8072888888889,215.76241283457938L298.6623344444444,215.86091516519463L300.51738,216.077013608445L302.37242555555554,216.13428625064844L304.22747111111113,214.5323751008377L306.0825166666666,216.2307104132096L307.9375622222222,217.03677686819552L309.7926077777778,218.07973369421032L311.6476533333333,219.3926694738556L313.50269888888886,219.60709211514535L315.35774444444445,220.52708271316365L317.21279,222.39177011155093L319.0678355555556,223.23919338406924L320.92288111111105,224.74338013185152L322.77792666666664,225.3859781796919L324.63297222222224,224.803308668247L326.48801777777777,227.0750482693381L328.3430633333333,228.95231727451483L330.1981088888889,228.28531701380254L332.05315444444443,229.05411565510963L333.9082,228.1849347683303L335.7632455555555,229.03004955843159L337.6182911111111,228.39382640279374L339.4733366666667,228.47963809822227L341.3283822222222,230.06637045455506L343.18342777777775,233.0066096586736L345.03847333333334,232.73233830547844L346.8935188888889,234.28560480048165L348.74856444444447,235.71282445929387L350.60360999999995,235.98712866033284L352.45865555555554,237.70514300977297L354.31370111111113,238.6027138601647L356.16874666666666,238.7064584476296L358.0237922222222,236.77190652584295L359.8788377777778,238.2889337485746L361.7338833333333,241.1710209814141L363.58892888888886,239.54946501855628L365.4439744444444,240.23659542285156L367.29902,241.61641289641122L369.1540655555556,242.88068925052667L371.00911111111105,243.95468729362756L372.86415666666664,244.06490667040669L374.71920222222224,245.26072791045223L376.57424777777777,246.33634769216363L378.4292933333333,246.50985954977196L380.28433888888884,247.81670184996005L382.13938444444443,248.82359921971724L383.99443,247.5888348502304L385.8494755555555,250.36339173808005L387.7045211111111,250.69922378516782L389.5595666666667,250.68913653804813L391.4146122222222,250.20139688241855L393.26965777777775,251.49906723889745L395.1247033333333,251.67700594977364L396.9797488888889,252.01731726119408L398.83479444444447,252.54277872595884L400.68983999999995,253.76327539813732L402.54488555555554,253.54747903346347L404.39993111111113,256.2035901943803L406.25497666666666,255.98334179719058L408.1100222222222,255.91632855574147L409.96506777777773,256.9004064836494L411.8201133333333,257.31498059660555L413.6751588888889,256.4194742741011L415.5302044444444,257.79369938583113L417.38525,258.63129756576393L419.2402955555556,258.77240373527957L421.0953411111111,261.54525233409385L422.9503866666667,262.5037631259456L424.8054322222222,264.09671380119096L426.6604777777777,264.0902181585426L428.5155233333333,263.95925503491134L430.37056888888884,263.7508549860244L432.22561444444443,266.021278264391L434.08066,267.1759306046968L435.93570555555556,266.7172805142566L437.79075111111115,266.5573514584004L439.6457966666666,268.1986681948085L441.50084222222216,269.50089787224795L443.35588777777775,270.31126814750746L445.2109333333333,270.03707332810524L447.0659788888889,272.5305703365849L448.92102444444447,271.9600601127175L450.77607,272.57981029731604L452.6311155555556,272.9025838509156L454.4861611111111,273.9594920397771L456.3412066666666,275.23250107294155L458.1962522222222,275.28685362533224L460.05129777777773,275.46984076139626L461.9063433333333,275.96172909520453L463.7613888888889,276.7037643705749L465.61643444444445,277.7085421789652L467.47148000000004,277.0064757928629L469.3265255555555,278.51108635258953L471.18157111111105,278.57745392794783L473.03661666666665,280.5151710014067L474.8916622222222,280.8956623415463L476.7467077777778,281.5336475257265L478.60175333333336,281.82655483191337L480.4567988888889,282.7875540914444L482.3118444444444,283.2955123819297L484.16688999999997,283.7014365973503L486.0219355555555,284.9452780236262L487.8769811111111,285.06194683012114L489.7320266666666,285.8978480106399L491.5870722222222,287.3348094705228L493.4421177777778,287.10402924717374L495.29716333333334,287.3670121445313L497.1522088888888,289.04779306336565L499.0072544444444,290.0751372135738L500.86229999999995,290.7449646447336L502.71734555555554,290.7081382545374L504.5723911111111,291.8169904076582L506.42743666666667,292.47648921351777L508.28248222222226,293.2573106372822L510.1375277777778,293.2696132233422L511.99257333333327,294.4987853271175L513.8476188888889,295.67495151573877L515.7026644444444,295.90468652376217L517.5577099999999,295.9537522911748L519.4127555555556,295.76923833606963L521.2678011111111,296.5741463163595L523.1228466666666,297.45578569923447L524.9778922222223,298.6151244486646L526.8329377777777,298.95415864658025L528.6879833333332,298.9540223098099L530.5430288888889,299.83435237107466L532.3980744444444,300.4355060956743L534.25312,301.63592279167176L536.1081655555556,301.5884752365622L537.9632111111111,301.6735898708904L539.8182566666666,303.10176841749376L541.6733022222222,303.7017277101693L543.5283477777778,303.78168527404574L545.3833933333333,304.5415695038643L547.2384388888888,305.4946773247247L549.0934844444445,305.8858456092869L550.94853,306.0158019867219L552.8035755555555,306.2701278372611L554.6586211111111,307.2097159769538L556.5136666666666,307.40251840033545L558.3687122222221,308.03299436298056L560.2237577777778,308.8867353041592L562.0788033333333,310.01621195314067L563.9338488888889,310.12283617240837L565.7888944444445,310.04455460299647L567.64394,309.5920299362516L569.4989855555555,310.31049535699947L571.3540311111111,311.3144040943876L573.2090766666666,312.1579675063508L575.0641222222222,313.21608199586575L576.9191677777777,314.0045920724279L578.7742133333334,314.09844838666567L580.6292588888889,314.9938874110837L582.4843044444444,316.10958306781004L584.33935,315.4396119323862L586.1943955555555,315.5298629248633L588.049441111111,316.20082614687055L589.9044866666667,317.153463001253L591.7595322222222,317.73229574076447L593.6145777777778,317.260634082032L595.4696233333334,317.7479412898259L597.3246688888888,318.2280928817294L599.1797144444444,318.5951917008699L601.03476,319.3699741424803L602.8898055555555,319.41185042431056L604.7448511111111,320.255038657805L606.5998966666666,320.7818645630404L608.4549422222223,321.0316857811288L610.3099877777778,321.2452162454412L612.1650333333332,321.41090595423503L614.0200788888889,321.636396795706L615.8751244444444,322.12160895081115L617.7301699999999,322.5899271834597L619.5852155555556,323.50492851746316L621.4402611111111,323.6808815686639L623.2953066666666,323.8571020695807L625.1503522222223,324.4287920117325L627.0053977777777,324.62984948873196L628.8604433333333,324.77244558445415L630.7154888888889,325.0336961180676L632.5705344444444,325.3553832191651L634.42558,325.64292328070155L636.2806255555555,325.78707399672595L638.1356711111112,326.5323527894795L639.9907166666667,326.907163602653L641.8457622222221,327.2237615322329L643.7008077777778,327.5711367926155L645.5558533333333,327.60159201628886L647.4108988888888,327.74345538143467L649.2659444444445,328.0905846901187L651.12099,328.673677739349L652.9760355555555,328.89062538356404L654.8310811111112,329.189176296855L656.6861266666666,329.4417419129601L658.5411722222221,329.54129848245725L660.3962177777778,329.5615135115223L662.2512633333333,329.45640408685824L664.1063088888889,329.38578819249676L665.9613544444444,329.72854079612864L667.8164,329.77926264092594L669.6714455555555,329.8035237265741L671.526491111111,330.46098926900515L673.3815366666666,330.71515997591825L675.2365822222222,330.8074102899028L677.0916277777777,330.65821490092634L678.9466733333334,330.8174361153656L680.8017188888889,331.10457115357394L682.6567644444444,331.60669577709L684.51181,331.9731063480646L686.3668555555555,331.90835060489985L688.221901111111,332.3447427937159L690.0769466666667,332.43031596673154L691.9319922222222,332.5319348784245L693.7870377777778,332.9678115732644L695.6420833333333,332.5637480191693L697.4971288888889,332.47060688568985L699.3521744444444,332.70714418232734L701.2072199999999,332.97694125259113L703.0622655555555,332.6489827224663L704.9173111111111,332.76122812364804L706.7723566666666,332.84846964638024L708.6274022222223,332.956063138409L710.4824477777778,333.2763686181884L712.3374933333333,333.47454415967746L714.1925388888889,333.68291383113876L716.0475844444444,334.2766497122829L717.9026299999999,334.23039156521867L719.7576755555556,334.3383312602371L721.6127211111111,334.21547761636157L723.4677666666666,334.21825654751376L725.3228122222222,334.6268878109037L727.1778577777777,334.5122617002396L729.0329033333333,334.5375044931612L730.8879488888888,334.2574417942549L732.7429944444444,333.9762704265388L734.59804,334.28020661029853L736.4530855555555,334.0582410074491L738.3081311111112,334.21137152377077L740.1631766666667,334.26768580832066L742.0182222222221,334.238345987149" style="fill: none;" fill="none"></path></g></g></g></g><g opacity="0.2"><g><g><g><path stroke="rgb(255, 112, 67)" stroke-width="2px" d="M120.5779611111111,-2.8748735586801883L122.43300666666666,5.96999239921574L124.2880522222222,17.955248673756987L126.14309777777777,29.607335646947295L127.99814333333332,36.63138043880467L129.8531888888889,46.55949604511265L131.70823444444443,55.459116220474286L133.56328,58.29030625025437L135.41832555555555,64.5385040044785L137.27337111111112,74.43006686369584L139.12841666666665,79.06544955571495L140.98346222222222,80.73631457487748L142.83850777777778,85.26338728268944L144.69355333333334,91.5945028464L146.54859888888888,93.34918451309208L148.40364444444444,101.17611638704942L150.25869,109.52752025922142L152.11373555555556,101.95106458663945L153.9687811111111,105.05243035157524L155.82382666666666,108.21476729710899L157.67887222222222,115.89661173025773L159.5339177777778,120.75820199648545L161.38896333333332,123.74204468727116L163.24400888888889,119.82753010590874L165.09905444444445,124.9428174098333L166.9541,129.20480779806778L168.80914555555555,134.7945317824682L170.6641911111111,132.77079792817437L172.51923666666667,135.01235020160678L174.37428222222223,140.736300667127L176.22932777777777,140.25954198837283L178.08437333333333,143.49004081885022L179.9394188888889,145.52927962938946L181.79446444444443,146.17756656805676L183.64951,149.31129050254825L185.50455555555553,149.61075337727868L187.35960111111112,152.10427991549176L189.21464666666665,153.96861982345584L191.06969222222222,152.1636781295141L192.92473777777775,157.01980046431225L194.77978333333334,156.6359217166901L196.63482888888888,160.09869527816775L198.48987444444444,159.46568858623507L200.34491999999997,160.3226557572683L202.19996555555556,161.33976590633395L204.0550111111111,168.6061224540075L205.91005666666666,170.66176505883539L207.7651022222222,168.39302293459576L209.6201477777778,171.23177818457287L211.47519333333335,166.23671046892804L213.33023888888886,168.1535574992498L215.18528444444442,174.1357740958532L217.04033,171.806435306867L218.89537555555557,174.39591280619305L220.75042111111108,180.30899377663934L222.60546666666664,173.39011303583783L224.46051222222223,178.97519302368167L226.3155577777778,181.32602902253473L228.1706033333333,184.98385043938958L230.02564888888887,177.33114333947503L231.88069444444446,182.9892539183299L233.73574000000002,187.28659860293072L235.59078555555553,181.44804628690088L237.4458311111111,187.01297732194269L239.30087666666668,186.2050717274348L241.1559222222222,194.0845856269201L243.01096777777775,185.54113002618158L244.8660133333333,194.6053124666214L246.7210588888889,187.64178943634036L248.5761044444444,192.0911875565847L250.43114999999997,194.23012248675033L252.28619555555554,192.18661419550583L254.14124111111113,199.24796076615655L255.99628666666663,192.79587658246362L257.8513322222222,198.1966198682785L259.7063777777778,197.07209857304895L261.5614233333333,197.6236855189006L263.41646888888886,198.40230397383377L265.27151444444445,199.68374741077423L267.12656,195.5606275002162L268.9816055555556,202.50991892814636L270.8366511111111,204.54623651504517L272.69169666666664,205.2455325126648L274.54674222222224,203.49384697278344L276.40178777777777,203.82813982168838L278.2568333333333,204.56848275661469L280.1118788888889,205.87202262878418L281.96692444444443,210.26441943645477L283.82197,207.50513645013177L285.67701555555556,209.19337900479638L287.5320611111111,209.27292617162072L289.3871066666667,212.2670305967331L291.2421522222222,211.99640544255578L293.09719777777775,210.74170243740082L294.95224333333334,212.6366777420044L296.8072888888889,222.12556115786236L298.6623344444444,216.00866866111755L300.51738,216.40116127332055L302.37242555555554,216.22019521395367L304.22747111111113,212.12950837612152L306.0825166666666,218.77821338176727L307.9375622222222,218.24587655067444L309.7926077777778,219.64416893323266L311.6476533333333,221.3620731433233L313.50269888888886,219.92872607707977L315.35774444444445,221.90706861019135L317.21279,225.1888012091319L319.0678355555556,224.51032829284668L320.92288111111105,226.99966025352478L322.77792666666664,226.34987525145215L324.63297222222224,223.92930440107983L326.48801777777777,230.48265767097473L328.3430633333333,231.76822078227997L330.1981088888889,227.28481662273407L332.05315444444443,230.20731361707055L333.9082,226.88116343816125L335.7632455555555,230.29772174358368L337.6182911111111,227.43949166933697L339.4733366666667,228.60835564136505L341.3283822222222,232.44646898905438L343.18342777777775,237.41696846485138L345.03847333333334,232.32093127568567L346.8935188888889,236.61550454298657L348.74856444444447,237.85365394751233L350.60360999999995,236.39858496189117L352.45865555555554,240.28216453393304L354.31370111111113,239.94907013575238L356.16874666666666,238.8620753288269L358.0237922222222,233.87007864316308L359.8788377777778,240.56447458267212L361.7338833333333,245.49415183067322L363.58892888888886,237.11713107426965L365.4439744444444,241.26729102929437L367.29902,243.6861391067505L369.1540655555556,244.77710378170013L371.00911111111105,245.56568435827893L372.86415666666664,244.23023573557538L374.71920222222224,247.05445977052057L376.57424777777777,247.94977736473083L378.4292933333333,246.7701273361842L380.28433888888884,249.77696530024213L382.13938444444443,250.33394527435303L383.99443,245.73668829600018L385.8494755555555,254.52522706985474L387.7045211111111,251.20297185579938L389.5595666666667,250.6740056673686L391.4146122222222,249.46978739897412L393.26965777777775,253.44557277361554L395.1247033333333,251.9439140160879L396.9797488888889,252.5277842283249L398.83479444444447,253.3309709231059L400.68983999999995,255.59402040640515L402.54488555555554,253.22378448645276L404.39993111111113,260.18775693575543L406.25497666666666,255.65296920140588L408.1100222222222,255.81580869356793L409.96506777777773,258.37652337551117L411.8201133333333,257.93684176603955L413.6751588888889,255.07621479034424L415.5302044444444,259.85503705342614L417.38525,259.88769483566284L419.2402955555556,258.98406298955285L421.0953411111111,265.70452523231506L422.9503866666667,263.94152931372327L424.8054322222222,266.48613981405896L426.6604777777777,264.08047469456994L428.5155233333333,263.7628103494644L430.37056888888884,263.43825491269433L432.22561444444443,269.42691318194073L434.08066,268.9079091151556L435.93570555555556,266.029305378596L437.79075111111115,266.317457874616L439.6457966666666,270.6606432994207L441.50084222222216,271.4542423884074L443.35588777777775,271.52682356039685L445.2109333333333,269.6257810990016L447.0659788888889,276.2708158493042L448.92102444444447,271.1042947769165L450.77607,273.5094355742137L452.6311155555556,273.3867441813151L454.4861611111111,275.5448543230693L456.3412066666666,277.1420146226883L458.1962522222222,275.36838245391846L460.05129777777773,275.74432146549225L461.9063433333333,276.69956159591675L463.7613888888889,277.81681728363037L465.61643444444445,279.2157088915507L467.47148000000004,275.95337621370953L469.3265255555555,280.7680021921794L471.18157111111105,278.6770052909851L473.03661666666665,283.42174661159515L474.8916622222222,281.4663993517558L476.7467077777778,282.4906253019969L478.60175333333336,282.26591579119366L480.4567988888889,284.2290529807409L482.3118444444444,284.05744981765747L484.16688999999997,284.3103229204814L486.0219355555555,286.81104016304016L487.8769811111111,285.2369500398636L489.7320266666666,287.15169978141785L491.5870722222222,289.490251660347L493.4421177777778,286.7578589121501L495.29716333333334,287.76148649056756L497.1522088888888,291.56896444161737L499.0072544444444,291.61615343888604L500.86229999999995,291.7497057914734L502.71734555555554,290.65289866924286L504.5723911111111,293.4802686373393L506.42743666666667,293.46573742230737L508.28248222222226,294.4285427729289L510.1375277777778,293.28806710243225L511.99257333333327,296.34254348278046L513.8476188888889,297.43920079867047L515.7026644444444,296.2492890357971L517.5577099999999,296.0273509422938L519.4127555555556,295.49246740341187L521.2678011111111,297.78150828679406L523.1228466666666,298.7782447735469L524.9778922222223,300.3541325728099L526.8329377777777,299.4627099434535L528.6879833333332,298.9538178046545L530.5430288888889,301.15484746297204L532.3980744444444,301.337236682574L534.25312,303.43654783566797L536.1081655555556,301.51730390389764L537.9632111111111,301.8012618223826L539.8182566666666,305.2440362373988L541.6733022222222,304.6016666491827L543.5283477777778,303.90162161986035L545.3833933333333,305.68139584859216L547.2384388888888,306.924339056015L549.0934844444445,306.4725980361303L550.94853,306.21073655287427L552.8035755555555,306.6516166130702L554.6586211111111,308.6190981864929L556.5136666666666,307.691722035408L558.3687122222221,308.97870830694836L560.2237577777778,310.1673467159271L562.0788033333333,311.71042692661285L563.9338488888889,310.28277250130975L565.7888944444445,309.9271322488785L567.64394,308.91324293613434L569.4989855555555,311.38819348812103L571.3540311111111,312.82026720046997L573.2090766666666,313.4233126242956L575.0641222222222,314.8032537301382L576.9191677777777,315.1873571872711L578.7742133333334,314.2392328580221L580.6292588888889,316.3370459477107L582.4843044444444,317.7831265528997L584.33935,314.4346552292506L586.1943955555555,315.66523941357934L588.049441111111,317.2072709798813L589.9044866666667,318.5824182828268L591.7595322222222,318.60054485003155L593.6145777777778,316.5531415939331L595.4696233333334,318.4789021015167L597.3246688888888,318.94832026958466L599.1797144444444,319.1458399295807L601.03476,320.53214780489606L602.8898055555555,319.4746648470561L604.7448511111111,321.5198210080465L606.5998966666666,321.57210342089337L608.4549422222223,321.4064176082611L610.3099877777778,321.5655119419098L612.1650333333332,321.65944051742554L614.0200788888889,321.97463305791223L615.8751244444444,322.8494271834692L617.7301699999999,323.29240453243256L619.5852155555556,324.87743051846826L621.4402611111111,323.9448111454646L623.2953066666666,324.12143282095593L625.1503522222223,325.28632692495984L627.0053977777777,324.93143570423126L628.8604433333333,324.98633972803754L630.7154888888889,325.42557191848755L632.5705344444444,325.83791387081146L634.42558,326.0742333730062L636.2806255555555,326.00330007076263L638.1356711111112,327.65027097860974L639.9907166666667,327.46937982241315L641.8457622222221,327.6986584266027L643.7008077777778,328.0921996831894L645.5558533333333,327.647274851799L647.4108988888888,327.95625042915344L649.2659444444445,328.61127865314484L651.12099,329.5483173131943L652.9760355555555,329.2160468498866L654.8310811111112,329.6370026667913L656.6861266666666,329.82059033711755L658.5411722222221,329.690633336703L660.3962177777778,329.59183605511987L662.2512633333333,329.2987399498622L664.1063088888889,329.2798643509547L665.9613544444444,330.24266970157623L667.8164,329.85534540812176L669.6714455555555,329.8399153550466L671.526491111111,331.4471875826518L673.3815366666666,331.09641603628796L675.2365822222222,330.9457857608795L677.0916277777777,330.43442181746167L678.9466733333334,331.0562679370245L680.8017188888889,331.53527371088666L682.6567644444444,332.3598827123642L684.51181,332.5227222045263L686.3668555555555,331.811216990153L688.221901111111,332.99933107693994L690.0769466666667,332.5586757262548L691.9319922222222,332.68436324596405L693.7870377777778,333.6216266155243L695.6420833333333,331.9576526880264L697.4971288888889,332.3308951854706L699.3521744444444,333.06195012728375L701.2072199999999,333.38163685798645L703.0622655555555,332.1570449272792L704.9173111111111,332.92959622542065L706.7723566666666,332.97933193047845L708.6274022222223,333.11745337645215L710.4824477777778,333.7568268378576L712.3374933333333,333.77180747191113L714.1925388888889,333.9954683383306L716.0475844444444,335.16725353399914L717.9026299999999,334.1610043446223L719.7576755555556,334.5002408027649L721.6127211111111,334.03119715054834L723.4677666666666,334.2224249442419L725.3228122222222,335.2398347059886L727.1778577777777,334.3403225342433L729.0329033333333,334.57536868254346L730.8879488888888,333.8373477458954L732.7429944444444,333.5545133749644L734.59804,334.73611088593805L736.4530855555555,333.72529260317486L738.3081311111112,334.4410672982534L740.1631766666667,334.35215723514557L742.0182222222221,334.1943362553915" style="fill: none;" fill="none"></path></g></g></g></g></g></g><g transform="translate(51, 377)" clip-path="url(#clip_1)"><clipPath id="clip_1"><rect width="834" height="23"></rect></clipPath><g><g><line x1="0" y1="0" x2="0" y2="5" style="visibility: inherit;" fill="rgb(0, 0, 0)" stroke="rgb(204, 204, 204)" stroke-width="1px"></line><line x1="92.75227777777776" y1="0" x2="92.75227777777776" y2="5" style="visibility: inherit;" fill="rgb(0, 0, 0)" stroke="rgb(204, 204, 204)" stroke-width="1px"></line><line x1="185.50455555555553" y1="0" x2="185.50455555555553" y2="5" style="visibility: inherit;" fill="rgb(0, 0, 0)" stroke="rgb(204, 204, 204)" stroke-width="1px"></line><line x1="278.2568333333333" y1="0" x2="278.2568333333333" y2="5" style="visibility: inherit;" fill="rgb(0, 0, 0)" stroke="rgb(204, 204, 204)" stroke-width="1px"></line><line x1="371.00911111111105" y1="0" x2="371.00911111111105" y2="5" style="visibility: inherit;" fill="rgb(0, 0, 0)" stroke="rgb(204, 204, 204)" stroke-width="1px"></line><line x1="463.7613888888889" y1="0" x2="463.7613888888889" y2="5" style="visibility: inherit;" fill="rgb(0, 0, 0)" stroke="rgb(204, 204, 204)" stroke-width="1px"></line><line x1="556.5136666666666" y1="0" x2="556.5136666666666" y2="5" style="visibility: inherit;" fill="rgb(0, 0, 0)" stroke="rgb(204, 204, 204)" stroke-width="1px"></line><line x1="649.2659444444445" y1="0" x2="649.2659444444445" y2="5" style="visibility: inherit;" fill="rgb(0, 0, 0)" stroke="rgb(204, 204, 204)" stroke-width="1px"></line><line x1="742.0182222222221" y1="0" x2="742.0182222222221" y2="5" style="visibility: inherit;" fill="rgb(0, 0, 0)" stroke="rgb(204, 204, 204)" stroke-width="1px"></line><line x1="834.7705" y1="0" x2="834.7705" y2="5" style="visibility: inherit;" fill="rgb(0, 0, 0)" stroke="rgb(204, 204, 204)" stroke-width="1px"></line></g><g transform="translate(0, 8)"><text x="0" y="0" dx="0em" dy="0.95em" style="text-anchor: middle; visibility: hidden; font-family: Roboto, sans-serif; font-size: 12px; font-weight: 200;" fill="rgb(33, 33, 33)" stroke="none" stroke-width="1px">-50</text><text x="92.75227777777776" y="0" dx="0em" dy="0.95em" style="text-anchor: middle; visibility: inherit; font-family: Roboto, sans-serif; font-size: 12px; font-weight: 200;" fill="rgb(33, 33, 33)" stroke="none" stroke-width="1px">0</text><text x="185.50455555555553" y="0" dx="0em" dy="0.95em" style="text-anchor: middle; visibility: inherit; font-family: Roboto, sans-serif; font-size: 12px; font-weight: 200;" fill="rgb(33, 33, 33)" stroke="none" stroke-width="1px">50</text><text x="278.2568333333333" y="0" dx="0em" dy="0.95em" style="text-anchor: middle; visibility: inherit; font-family: Roboto, sans-serif; font-size: 12px; font-weight: 200;" fill="rgb(33, 33, 33)" stroke="none" stroke-width="1px">100</text><text x="371.00911111111105" y="0" dx="0em" dy="0.95em" style="text-anchor: middle; visibility: inherit; font-family: Roboto, sans-serif; font-size: 12px; font-weight: 200;" fill="rgb(33, 33, 33)" stroke="none" stroke-width="1px">150</text><text x="463.7613888888889" y="0" dx="0em" dy="0.95em" style="text-anchor: middle; visibility: inherit; font-family: Roboto, sans-serif; font-size: 12px; font-weight: 200;" fill="rgb(33, 33, 33)" stroke="none" stroke-width="1px">200</text><text x="556.5136666666666" y="0" dx="0em" dy="0.95em" style="text-anchor: middle; visibility: inherit; font-family: Roboto, sans-serif; font-size: 12px; font-weight: 200;" fill="rgb(33, 33, 33)" stroke="none" stroke-width="1px">250</text><text x="649.2659444444445" y="0" dx="0em" dy="0.95em" style="text-anchor: middle; visibility: inherit; font-family: Roboto, sans-serif; font-size: 12px; font-weight: 200;" fill="rgb(33, 33, 33)" stroke="none" stroke-width="1px">300</text><text x="742.0182222222221" y="0" dx="0em" dy="0.95em" style="text-anchor: middle; visibility: inherit; font-family: Roboto, sans-serif; font-size: 12px; font-weight: 200;" fill="rgb(33, 33, 33)" stroke="none" stroke-width="1px">350</text><text x="834.7705" y="0" dx="0em" dy="0.95em" style="text-anchor: middle; visibility: hidden; font-family: Roboto, sans-serif; font-size: 12px; font-weight: 200;" fill="rgb(33, 33, 33)" stroke="none" stroke-width="1px">400</text></g><line x1="0" y1="0" x2="834.7705" y2="0" fill="rgb(0, 0, 0)" stroke="rgb(204, 204, 204)" stroke-width="1px"></line></g></g></g></g></svg>