<svg viewBox="0 0 886.3333740234375 400" xmlns="http://www.w3.org/2000/svg"><g><g><g><g><g><line x1="41.171875" y1="377" x2="36.171875" y2="377" style="visibility: inherit;" fill="rgb(0, 0, 0)" stroke="rgb(204, 204, 204)" stroke-width="1px"></line><line x1="41.171875" y1="342.7272727272727" x2="36.171875" y2="342.7272727272727" style="visibility: inherit;" fill="rgb(0, 0, 0)" stroke="rgb(204, 204, 204)" stroke-width="1px"></line><line x1="41.171875" y1="308.45454545454544" x2="36.171875" y2="308.45454545454544" style="visibility: inherit;" fill="rgb(0, 0, 0)" stroke="rgb(204, 204, 204)" stroke-width="1px"></line><line x1="41.171875" y1="274.1818181818182" x2="36.171875" y2="274.1818181818182" style="visibility: inherit;" fill="rgb(0, 0, 0)" stroke="rgb(204, 204, 204)" stroke-width="1px"></line><line x1="41.171875" y1="239.9090909090909" x2="36.171875" y2="239.9090909090909" style="visibility: inherit;" fill="rgb(0, 0, 0)" stroke="rgb(204, 204, 204)" stroke-width="1px"></line><line x1="41.171875" y1="205.63636363636363" x2="36.171875" y2="205.63636363636363" style="visibility: inherit;" fill="rgb(0, 0, 0)" stroke="rgb(204, 204, 204)" stroke-width="1px"></line><line x1="41.171875" y1="171.36363636363637" x2="36.171875" y2="171.36363636363637" style="visibility: inherit;" fill="rgb(0, 0, 0)" stroke="rgb(204, 204, 204)" stroke-width="1px"></line><line x1="41.171875" y1="137.09090909090915" x2="36.171875" y2="137.09090909090915" style="visibility: inherit;" fill="rgb(0, 0, 0)" stroke="rgb(204, 204, 204)" stroke-width="1px"></line><line x1="41.171875" y1="102.81818181818181" x2="36.171875" y2="102.81818181818181" style="visibility: inherit;" fill="rgb(0, 0, 0)" stroke="rgb(204, 204, 204)" stroke-width="1px"></line><line x1="41.171875" y1="68.54545454545458" x2="36.171875" y2="68.54545454545458" style="visibility: inherit;" fill="rgb(0, 0, 0)" stroke="rgb(204, 204, 204)" stroke-width="1px"></line><line x1="41.171875" y1="34.27272727272729" x2="36.171875" y2="34.27272727272729" style="visibility: inherit;" fill="rgb(0, 0, 0)" stroke="rgb(204, 204, 204)" stroke-width="1px"></line><line x1="41.171875" y1="0" x2="36.171875" y2="0" style="visibility: inherit;" fill="rgb(0, 0, 0)" stroke="rgb(204, 204, 204)" stroke-width="1px"></line></g><g transform="translate(31.171875, 0)"><text x="0" y="377" dx="0em" dy="0.3em" style="text-anchor: end; visibility: hidden; font-family: Roboto, sans-serif; font-size: 12px; font-weight: 200;" fill="rgb(33, 33, 33)" stroke="none" stroke-width="1px">0</text><text x="0" y="342.7272727272727" dx="0em" dy="0.3em" style="text-anchor: end; visibility: inherit; font-family: Roboto, sans-serif; font-size: 12px; font-weight: 200;" fill="rgb(33, 33, 33)" stroke="none" stroke-width="1px">0.1</text><text x="0" y="308.45454545454544" dx="0em" dy="0.3em" style="text-anchor: end; visibility: inherit; font-family: Roboto, sans-serif; font-size: 12px; font-weight: 200;" fill="rgb(33, 33, 33)" stroke="none" stroke-width="1px">0.2</text><text x="0" y="274.1818181818182" dx="0em" dy="0.3em" style="text-anchor: end; visibility: inherit; font-family: Roboto, sans-serif; font-size: 12px; font-weight: 200;" fill="rgb(33, 33, 33)" stroke="none" stroke-width="1px">0.3</text><text x="0" y="239.9090909090909" dx="0em" dy="0.3em" style="text-anchor: end; visibility: inherit; font-family: Roboto, sans-serif; font-size: 12px; font-weight: 200;" fill="rgb(33, 33, 33)" stroke="none" stroke-width="1px">0.4</text><text x="0" y="205.63636363636363" dx="0em" dy="0.3em" style="text-anchor: end; visibility: inherit; font-family: Roboto, sans-serif; font-size: 12px; font-weight: 200;" fill="rgb(33, 33, 33)" stroke="none" stroke-width="1px">0.5</text><text x="0" y="171.36363636363637" dx="0em" dy="0.3em" style="text-anchor: end; visibility: inherit; font-family: Roboto, sans-serif; font-size: 12px; font-weight: 200;" fill="rgb(33, 33, 33)" stroke="none" stroke-width="1px">0.6</text><text x="0" y="137.09090909090915" dx="0em" dy="0.3em" style="text-anchor: end; visibility: inherit; font-family: Roboto, sans-serif; font-size: 12px; font-weight: 200;" fill="rgb(33, 33, 33)" stroke="none" stroke-width="1px">0.7</text><text x="0" y="102.81818181818181" dx="0em" dy="0.3em" style="text-anchor: end; visibility: inherit; font-family: Roboto, sans-serif; font-size: 12px; font-weight: 200;" fill="rgb(33, 33, 33)" stroke="none" stroke-width="1px">0.8</text><text x="0" y="68.54545454545458" dx="0em" dy="0.3em" style="text-anchor: end; visibility: inherit; font-family: Roboto, sans-serif; font-size: 12px; font-weight: 200;" fill="rgb(33, 33, 33)" stroke="none" stroke-width="1px">0.9</text><text x="0" y="34.27272727272729" dx="0em" dy="0.3em" style="text-anchor: end; visibility: inherit; font-family: Roboto, sans-serif; font-size: 12px; font-weight: 200;" fill="rgb(33, 33, 33)" stroke="none" stroke-width="1px">1</text><text x="0" y="0" dx="0em" dy="0.3em" style="text-anchor: end; visibility: hidden; font-family: Roboto, sans-serif; font-size: 12px; font-weight: 200;" fill="rgb(33, 33, 33)" stroke="none" stroke-width="1px">1.1</text></g><line x1="41.171875" y1="0" x2="41.171875" y2="377" fill="rgb(0, 0, 0)" stroke="rgb(204, 204, 204)" stroke-width="1px"></line></g></g><g transform="translate(41, 0)" clip-path="url(#clip_0)"><clipPath id="clip_0"><rect width="845" height="377"></rect></clipPath><g><g><g><line x1="0" y1="0" x2="0" y2="377" fill="rgb(0, 0, 0)" stroke="rgb(66, 66, 66)" stroke-width="1px" opacity="0.25"></line><line x1="93.90679166666666" y1="0" x2="93.90679166666666" y2="377" fill="rgb(0, 0, 0)" stroke="rgb(66, 66, 66)" stroke-width="1px" opacity="0.25"></line><line x1="187.81358333333333" y1="0" x2="187.81358333333333" y2="377" fill="rgb(0, 0, 0)" stroke="rgb(66, 66, 66)" stroke-width="1px" opacity="0.25"></line><line x1="281.720375" y1="0" x2="281.720375" y2="377" fill="rgb(0, 0, 0)" stroke="rgb(66, 66, 66)" stroke-width="1px" opacity="0.25"></line><line x1="375.62716666666665" y1="0" x2="375.62716666666665" y2="377" fill="rgb(0, 0, 0)" stroke="rgb(66, 66, 66)" stroke-width="1px" opacity="0.25"></line><line x1="469.5339583333333" y1="0" x2="469.5339583333333" y2="377" fill="rgb(0, 0, 0)" stroke="rgb(66, 66, 66)" stroke-width="1px" opacity="0.25"></line><line x1="563.44075" y1="0" x2="563.44075" y2="377" fill="rgb(0, 0, 0)" stroke="rgb(66, 66, 66)" stroke-width="1px" opacity="0.25"></line><line x1="657.3475416666666" y1="0" x2="657.3475416666666" y2="377" fill="rgb(0, 0, 0)" stroke="rgb(66, 66, 66)" stroke-width="1px" opacity="0.25"></line><line x1="751.2543333333333" y1="0" x2="751.2543333333333" y2="377" fill="rgb(0, 0, 0)" stroke="rgb(66, 66, 66)" stroke-width="1px" opacity="0.25"></line><line x1="845.161125" y1="0" x2="845.161125" y2="377" fill="rgb(0, 0, 0)" stroke="rgb(66, 66, 66)" stroke-width="1px" opacity="0.25"></line></g><g><line x1="0" y1="377" x2="845.161125" y2="377" fill="rgb(0, 0, 0)" stroke="rgb(66, 66, 66)" stroke-width="1px" opacity="0.25"></line><line x1="0" y1="342.7272727272727" x2="845.161125" y2="342.7272727272727" fill="rgb(0, 0, 0)" stroke="rgb(66, 66, 66)" stroke-width="1px" opacity="0.25"></line><line x1="0" y1="308.45454545454544" x2="845.161125" y2="308.45454545454544" fill="rgb(0, 0, 0)" stroke="rgb(66, 66, 66)" stroke-width="1px" opacity="0.25"></line><line x1="0" y1="274.1818181818182" x2="845.161125" y2="274.1818181818182" fill="rgb(0, 0, 0)" stroke="rgb(66, 66, 66)" stroke-width="1px" opacity="0.25"></line><line x1="0" y1="239.9090909090909" x2="845.161125" y2="239.9090909090909" fill="rgb(0, 0, 0)" stroke="rgb(66, 66, 66)" stroke-width="1px" opacity="0.25"></line><line x1="0" y1="205.63636363636363" x2="845.161125" y2="205.63636363636363" fill="rgb(0, 0, 0)" stroke="rgb(66, 66, 66)" stroke-width="1px" opacity="0.25"></line><line x1="0" y1="171.36363636363637" x2="845.161125" y2="171.36363636363637" fill="rgb(0, 0, 0)" stroke="rgb(66, 66, 66)" stroke-width="1px" opacity="0.25"></line><line x1="0" y1="137.09090909090915" x2="845.161125" y2="137.09090909090915" fill="rgb(0, 0, 0)" stroke="rgb(66, 66, 66)" stroke-width="1px" opacity="0.25"></line><line x1="0" y1="102.81818181818181" x2="845.161125" y2="102.81818181818181" fill="rgb(0, 0, 0)" stroke="rgb(66, 66, 66)" stroke-width="1px" opacity="0.25"></line><line x1="0" y1="68.54545454545458" x2="845.161125" y2="68.54545454545458" fill="rgb(0, 0, 0)" stroke="rgb(66, 66, 66)" stroke-width="1px" opacity="0.25"></line><line x1="0" y1="34.27272727272729" x2="845.161125" y2="34.27272727272729" fill="rgb(0, 0, 0)" stroke="rgb(66, 66, 66)" stroke-width="1px" opacity="0.25"></line><line x1="0" y1="0" x2="845.161125" y2="0" fill="rgb(0, 0, 0)" stroke="rgb(66, 66, 66)" stroke-width="1px" opacity="0.25"></line></g></g></g><g><g><line x1="0" y1="377" x2="845.161125" y2="377" fill="rgb(0, 0, 0)" stroke="rgb(153, 153, 153)" stroke-width="1.5px"></line></g></g><g><g><line x1="93.90679166666666" y1="0" x2="93.90679166666666" y2="377" fill="rgb(0, 0, 0)" stroke="rgb(153, 153, 153)" stroke-width="1.5px"></line></g></g><g><g><g><g><g><path stroke="rgb(255, 112, 67)" stroke-width="2px" d="M95.7849275,343.1986719139598L97.66306333333333,312.1245209109038L99.54119916666666,285.17727231125116L101.41933499999999,262.85301562409137L103.29747083333332,244.10234371186505L105.17560666666667,229.96095599238126L107.0537425,217.44950525316L108.93187833333333,205.81355766310404L110.81001416666668,196.56018093164752L112.68815,187.68870117098712L114.56628583333334,178.90262160360626L116.44442166666666,171.6396236774119L118.3225575,165.96379021199047L120.20069333333333,159.3041248836079L122.07882916666665,153.1805334920752L123.956965,149.17919518882525L125.83510083333331,145.824477068589L127.71323666666666,140.70174682940086L129.59137249999998,136.65737593564145L131.46950833333332,133.5392136253488L133.34764416666664,129.79392757116608L135.22578,126.57046961731616L137.10391583333333,124.43876595229845L138.98205166666668,123.05695965334691L140.8601875,120.05153366546703L142.73832333333334,118.99458187030986L144.61645916666666,116.65855842552031L146.494595,113.6646778312325L148.37273083333332,112.8186679507909L150.25086666666667,111.736443105221L152.12900249999998,110.70981694668855L154.00713833333333,109.78510678881693L155.88527416666665,109.65435255023259L157.76341,108.43757879551919L159.6415458333333,106.03302828924124L161.51968166666666,104.162769777893L163.3978175,102.37594846012557L165.27595333333335,101.86728004913994L167.15408916666667,101.32546397398194L169.032225,99.72184258151978L170.91036083333333,98.6468328878809L172.78849666666667,97.74020800276396L174.6666325,97.79850358862922L176.54476833333334,96.14885416549133L178.42290416666665,96.55366076351092L180.30104,94.79172732305908L182.17917583333332,94.30649790577603L184.05731166666664,94.27702835231284L185.93544749999998,92.72744877191204L187.81358333333333,92.4612722947197L189.69171916666667,91.27988171844542L191.569855,90.22944805998797L193.44799083333334,89.7351902321087L195.32612666666665,89.49831021019612L197.2042625,88.91004801992726L199.08239833333332,87.84159110960357L200.96053416666666,87.88165643255654L202.83866999999998,88.64677942170252L204.71680583333332,88.05836370213947L206.59494166666664,86.53820575630952L208.4730775,85.09408875103381L210.35121333333333,84.60155968760981L212.22934916666665,84.2437364306509L214.107485,85.0187939021319L215.98562083333331,84.90269690506368L217.86375666666666,84.0900591803029L219.7418925,84.0762867630438L221.62002833333335,82.961055234942L223.49816416666664,82.09790621208093L225.3763,82.49150394422156L227.25443583333333,81.5989426251139L229.13257166666668,80.90944304810196L231.01070749999997,80.34561283491337L232.8888433333333,80.86994591958154L234.76697916666666,80.7482170991871L236.645115,80.1110935647949L238.52325083333332,80.02466790045561L240.40138666666667,79.47144881260283L242.2795225,79.36546073019002L244.1576583333333,77.4704526826764L246.03579416666665,78.5477108598583L247.91393,77.6255606957412L249.79206583333334,78.36269151963695L251.67020166666663,77.44591872138164L253.54833749999997,76.87531250751358L255.42647333333332,76.83745059446842L257.3046091666667,75.82235904814978L259.18274499999995,76.27316491338557L261.06088083333333,75.59904319040473L262.93901666666665,75.1473729880926L264.8171525,74.83491809040336L266.6952883333333,74.24358087646435L268.57342416666665,73.98890910611487L270.45156,74.93764840837245L272.32969583333335,73.90213923239445L274.20783166666666,72.72161755259529L276.0859675,72.56890085299051L277.96410333333336,72.4766416465974L279.8422391666667,72.02410593397562L281.720375,72.11144150952785L283.5985108333333,72.29213155739045L285.4766466666667,71.34803892252549L287.3547825,71.1987994475011L289.2329183333333,70.4792438354887L291.11105416666663,70.56710422729778L292.98919,69.9969828972213L294.8673258333333,69.60223001858817L296.74546166666664,69.71745315293477L298.6235975,69.57120092462412L300.50173333333333,67.62273226936304L302.37986916666665,67.11386396145603L304.25800499999997,66.82125744939586L306.13614083333334,67.28243041197182L308.01427666666666,67.64823355336458L309.8924125,66.95219169240335L311.7705483333333,66.57753103429219L313.64868416666667,66.21711632121453L315.52682,65.99342348011915L317.4049558333333,65.90493411809663L319.2830916666666,65.51726029617954L321.1612275,65.0861108505385L323.0393633333333,65.6471124510344L324.91749916666663,64.8149052762126L326.795635,64.53832938093751L328.6737708333333,65.25522256981617L330.5519066666667,64.4424615794985L332.43004249999996,63.52940128196508L334.30817833333333,63.8552438527029L336.18631416666665,63.600652159379266L338.06445,64.29010838987557L339.9425858333333,63.998137065466615L341.82072166666666,64.15579399822303L343.6988575,63.489154047824954L345.57699333333335,62.85401770297165L347.45512916666667,61.59613572741544L349.333265,62.204094043122076L351.21140083333336,61.310340518204185L353.0895366666667,60.64037398744315L354.9676725,60.770547046843234L356.8458083333333,60.89391146358651L358.7239441666667,60.23211677769361L360.60208,59.79451871291883L362.4802158333333,60.370020123035786L364.35835166666664,59.83723791343634L366.2364875,59.39377407536144L368.11462333333327,59.2586564754126L369.99275916666664,58.784074620124706L371.87089499999996,58.369876486219454L373.74903083333334,58.07542698186816L375.62716666666665,57.74557893418395L377.50530249999997,58.072305528886965L379.38343833333334,57.34987608813409L381.26157416666666,57.134656300574484L383.13971,57.44603678176236L385.0178458333333,56.74346482671599L386.89598166666667,56.124242654220794L388.7741175,56.27257276115321L390.6522533333333,55.30137501083313L392.5303891666666,55.650073197293L394.408525,55.57518574621922L396.2866608333333,56.376958712281485L398.16479666666663,55.75883344887382L400.0429325,55.49757567582648L401.9210683333333,54.93289562296834L403.7992041666667,54.66488334403885L405.67733999999996,54.17791216456401L407.55547583333333,54.495599240454L409.43361166666665,53.8353713942827L411.3117475,54.19577032504228L413.1898833333333,53.61922635812938L415.06801916666666,53.274010877161224L416.946155,52.66135854850246L418.82429083333335,52.82288042232686L420.70242666666667,53.02150932809343L422.5805625,53.25695545807045L424.4586983333333,52.891245794664776L426.3368341666667,52.26414791649479L428.21497,52.09422154803974L430.09310583333325,51.80236576220063L431.97124166666663,51.52991630187217L433.84937749999995,51.97792614647281L435.7275133333333,51.72653362135122L437.60564916666664,50.80737951819482L439.483785,50.06104348229724L441.36192083333333,50.5175873298L443.2400566666667,50.715586337414976L445.11819249999996,50.134525927773616L446.9963283333333,49.52976986720276L448.87446416666666,49.362813896750986L450.7526,49.22733232189153L452.63073583333335,48.452058695066135L454.50887166666666,48.750637204288886L456.38700750000004,48.821629579459255L458.26514333333336,48.728312521172704L460.1432791666666,48.76554813379187L462.02141499999993,48.381639219595925L463.8995508333333,48.05652365630399L465.7776866666666,47.617910064892804L467.6558225,47.82964707580512L469.5339583333333,47.20098711189377L471.4120941666667,47.264564967428704L473.29023,47.624364960140845L475.16836583333327,47.28697745515088L477.04650166666664,47.58412730782949L478.92463749999996,46.48413061065401L480.80277333333333,45.858394664304996L482.68090916666665,45.804745287220776L484.559045,46.189812623139545L486.43718083333334,46.02061678655797L488.3153166666666,45.74986442358189L490.1934524999999,45.644178713852625L492.0715883333333,44.883097370128176L493.9497241666666,44.948869577118664L495.82786,44.72493249837692L497.7059958333333,44.63625573749191L499.5841316666667,44.5203843268391L501.4622675,44.0209962719083L503.34040333333326,44.25013351726208L505.21853916666663,43.68738017253681L507.09667499999995,43.88823020864544L508.9748108333333,43.908585158531906L510.85294666666664,43.446661060668966L512.7310825,43.466057786172L514.6092183333334,43.196294143908624L516.4873541666667,43.253866838663726L518.3654899999999,43.10996659017415L520.2436258333333,42.459899734142134L522.1217616666667,42.07457443462231L523.9998975,42.2640599728989L525.8780333333333,42.41625424913412L527.7561691666667,42.63781244733673L529.634305,42.12966338881918L531.5124408333334,41.65995157034818L533.3905766666666,41.32294399466726L535.2687125,41.63640283464993L537.1468483333333,41.15566909319468L539.0249841666666,41.11937743320757L540.90312,41.0257199075231L542.7812558333334,40.72769710221345L544.6593916666667,40.94997763892901L546.5375274999999,40.199812678244875L548.4156633333333,40.118809287397376L550.2937991666666,40.57121140692078L552.171935,40.22269139521119L554.0500708333333,39.79196678300383L555.9282066666667,39.6189216297846L557.8063425,39.36082124461799L559.6844783333333,39.693253801763476L561.5626141666665,39.3777445073293L563.44075,39.159292064303855L565.3188858333333,38.861919217984344L567.1970216666666,38.694886239576626L569.0751574999999,38.711409171835456L570.9532933333334,38.8287340773547L572.8314291666667,38.778464098992394L574.709565,38.97717896279677L576.5877008333333,39.09298412526024L578.4658366666666,38.87992156948181L580.3439725,38.383887288495L582.2221083333333,38.167922070501355L584.1002441666667,38.08709264666707L585.97838,38.0366093774165L587.8565158333333,37.93770538814921L589.7346516666667,37.48919063564248L591.6127875,37.68175768815236L593.4909233333333,37.55388440630131L595.3690591666666,37.16235466943773L597.247195,36.94006141619925L599.1253308333334,37.00011541115562L601.0034666666667,37.14062547377048L602.8816025,36.95403806762493L604.7597383333333,36.962186729020765L606.6378741666666,36.91997681239385L608.5160099999999,36.829019342753305L610.3941458333333,37.0375347562174L612.2722816666667,36.77420705829393L614.1504175,36.774185311262016L616.0285533333333,36.81227482482016L617.9066891666666,36.44275304207284L619.784825,36.34917342111188L621.6629608333333,36.487836537519335L623.5410966666666,36.44844924077943L625.4192325,36.5199057564525L627.2973683333333,36.29029282742887L629.1755041666667,36.0245632176809L631.05364,36.21963534733026L632.9317758333334,36.00320153983295L634.8099116666666,36.1252773875922L636.6880474999999,35.96494757383642L638.5661833333332,35.948076228523966L640.4443191666667,36.0301415195504L642.322455,35.845821714264865L644.2005908333333,35.716411430970645L646.0787266666666,35.561089311550674L647.9568625,35.61543621906457L649.8349983333333,35.760023241247424L651.7131341666666,35.67988574369725L653.59127,35.58910843811454L655.4694058333333,35.48615382796107L657.3475416666666,35.36737838741941L659.2256775,35.26301954059427L661.1038133333334,35.46007854318341L662.9819491666667,35.567070297941804L664.8600849999999,35.72350247654035L666.7382208333332,35.47874497905637L668.6163566666667,35.43694013405278L670.4944925,35.50853134422563L672.3726283333333,35.309567896626056L674.2507641666666,35.586512035083715L676.1289,35.467379151987565L678.0070358333332,35.61621279777631L679.8851716666666,35.616879382933796L681.7633075,35.42516495917396L683.6414433333333,35.216648977168994L685.5195791666666,35.32125787804642L687.397715,35.19855207398335L689.2758508333334,35.18100791418705L691.1539866666667,35.30837951664798L693.0321224999999,35.067561676400054L694.9102583333333,35.13196093349395L696.7883941666666,35.07616529442836L698.66653,35.10015634697006L700.5446658333333,35.193231992296L702.4228016666667,35.16767533779627L704.3009375,35.09902390662398L706.1790733333333,35.115015489978816L708.0572091666666,35.31562169542935L709.935345,35.120052017765296L711.8134808333333,35.08187332900911L713.6916166666666,35.1629698486101L715.5697524999999,35.070853380293705L717.4478883333334,35.2462335124472L719.3260241666667,35.164977211537405L721.20416,35.04747866319567L723.0822958333333,34.89630473418477L724.9604316666666,34.80625407717331L726.8385675,34.88856107161197L728.7167033333333,35.052587975059495L730.5948391666667,34.97783888247556L732.472975,34.93946106083634L734.3511108333333,34.90574636639346L736.2292466666665,34.99843612172017L738.1073825,34.92907063063488L739.9855183333333,34.93604578910179L741.8636541666666,34.90082092161449L743.7417899999999,35.042261289374494L745.6199258333334,35.24254448603398L747.4980616666667,35.16880235308888L749.3761975,35.14752647095342L751.2543333333333,34.94612752142149" style="fill: none;" fill="none"></path></g></g></g></g><g opacity="0.2"><g><g><g><path stroke="rgb(255, 112, 67)" stroke-width="2px" d="M95.7849275,343.1986719139598L97.66306333333333,293.48003030907023L99.54119916666666,259.3079136555845L101.41933499999999,236.5996897599914L103.29747083333332,219.62146646326238L105.17560666666667,210.39832587675616L107.0537425,199.5579305128618L108.93187833333333,188.8482343717055L110.81001416666668,182.91324762864548L112.68815,174.51558764414355L114.56628583333334,165.8031913475557L116.44442166666666,160.7846517021006L118.3225575,157.46857259490275L120.20069333333333,149.32767386869952L122.07882916666665,144.00234445658597L123.956965,143.18000978773293L125.83510083333331,140.7938194925135L127.71323666666666,133.01895213127136L129.59137249999998,130.5914357142015L131.46950833333332,128.86225517229602L133.34764416666664,124.17620389028032L135.22578,121.73538875579834L137.10391583333333,121.24125254154205L138.98205166666668,120.98426657373255L140.8601875,115.54341604492882L142.73832333333334,117.40915868499066L144.61645916666666,113.15452923557976L146.494595,109.17386153611274L148.37273083333332,111.54965390942314L150.25086666666667,110.11310643499552L152.12900249999998,109.16987804933031L154.00713833333333,108.39804173599593L155.88527416666665,109.45822120796554L157.76341,106.61241825060412L159.6415458333333,102.42620263316418L161.51968166666666,101.35738205909733L163.3978175,99.69571651111953L165.27595333333335,101.10427743738352L167.15408916666667,100.51273986426267L169.032225,97.3164104981856L170.91036083333333,97.03431834957817L172.78849666666667,96.38027067617938L174.6666325,97.88594696738507L176.54476833333334,93.674380031499L178.42290416666665,97.16087066043508L180.30104,92.14882716265592L182.17917583333332,93.57865377989683L184.05731166666664,94.2328240221197L185.93544749999998,90.40307940136306L187.81358333333333,92.06200757893653L189.69171916666667,89.50779585404833L191.569855,88.65379757230936L193.44799083333334,88.99380349029195L195.32612666666665,89.14299017732797L197.2042625,88.02765473452482L199.08239833333332,86.23890574411914L200.96053416666666,87.94175441698596L202.83866999999998,89.79446390542121L204.71680583333332,87.17574012279515L206.59494166666664,84.25796883756465L208.4730775,82.92791324312037L210.35121333333333,83.86276609247385L212.22934916666665,83.70700154521252L214.107485,86.18138010935351L215.98562083333331,84.72855140946129L217.86375666666666,82.87110259316185L219.7418925,84.05562813715503L221.62002833333335,81.28820794278926L223.49816416666664,80.80318267778918L225.3763,83.08190054243265L227.25443583333333,80.2601006464525L229.13257166666668,79.8751936825839L231.01070749999997,79.49986751513049L232.8888433333333,81.65644554658373L234.76697916666666,80.56562386859548L236.645115,79.15540826320652L238.52325083333332,79.89502940394665L240.40138666666667,78.6416201808236L242.2795225,79.20647860657088L244.1576583333333,74.62794061140582L246.03579416666665,80.1635981256312L247.91393,76.24233544956557L249.79206583333334,79.46838775548072L251.67020166666663,76.07075952399862L253.54833749999997,76.0194031867114L255.42647333333332,76.78065772490069L257.3046091666667,74.29972172867171L259.18274499999995,76.94937371123922L261.06088083333333,74.58786060593346L262.93901666666665,74.46986768462445L264.8171525,74.36623574386947L266.6952883333333,73.3565750555559L268.57342416666665,73.60690145059068L270.45156,76.36075736175887L272.32969583333335,72.34887546842752L274.20783166666666,70.95083503289659L276.0859675,72.33982580358332L277.96410333333336,72.3382528370077L279.8422391666667,71.34530236504295L281.720375,72.24244487285618L283.5985108333333,72.56316662918441L285.4766466666667,69.93189997022806L287.3547825,70.97494023496455L289.2329183333333,69.39991041747011L291.11105416666663,70.69889481501147L292.98919,69.14180090210655L294.8673258333333,69.01010070063855L296.74546166666664,69.89028785445477L298.6235975,69.35182258215822L300.50173333333333,64.70002928647132L302.37986916666665,66.35056149959568L304.25800499999997,66.38234768130566L306.13614083333334,67.97418985583569L308.01427666666666,68.1969382654537L309.8924125,65.90812890096147L311.7705483333333,66.01554004712541L313.64868416666667,65.67649425159804L315.52682,65.65788421847607L317.4049558333333,65.77220007506288L319.2830916666666,64.9357495633039L321.1612275,64.4393866820769L323.0393633333333,66.48861485177821L324.91749916666663,63.566594513979865L326.795635,64.12346553802494L328.6737708333333,66.3305623531342L330.5519066666667,63.22332009402193L332.43004249999996,62.15981083566493L334.30817833333333,64.34400770880963L336.18631416666665,63.2187646193938L338.06445,65.32429273561999L339.9425858333333,63.560180078853286L341.82072166666666,64.39227939735763L343.6988575,62.4891941222278L345.57699333333335,61.901313185691876L347.45512916666667,59.70931276408113L349.333265,63.116031516682035L351.21140083333336,59.969710230827374L353.0895366666667,59.635424191301524L354.9676725,60.965806635943366L356.8458083333333,61.07895808870143L358.7239441666667,59.239424748854226L360.60208,59.13812161575667L362.4802158333333,61.23327223821122L364.35835166666664,59.03806459903721L366.2364875,58.72857831824911L368.11462333333327,59.05598007548941L369.99275916666664,58.0722018371929L371.87089499999996,57.748579285361565L373.74903083333334,57.63375272534112L375.62716666666665,57.250806862657726L377.50530249999997,58.562395420941485L379.38343833333334,56.26623192700477L381.26157416666666,56.81182661923499L383.13971,57.91310750354422L385.0178458333333,55.68960689414633L386.89598166666667,55.195409395478016L388.7741175,56.495067921551836L390.6522533333333,53.84457838535313L392.5303891666666,56.17312047698284L394.408525,55.46285456960855L396.2866608333333,57.57961816137491L398.16479666666663,54.8316455537623L400.0429325,55.10568901625551L401.9210683333333,54.0858755436811L403.7992041666667,54.26286492564464L405.67733999999996,53.447455395351774L407.55547583333333,54.97212985428901L409.43361166666665,52.8450296250257L411.3117475,54.736368721181734L413.1898833333333,52.75441040775994L415.06801916666666,52.756187655709034L416.946155,51.74238005551429L418.82429083333335,53.065163233063465L420.70242666666667,53.319452686743325L422.5805625,53.61012465303598L424.4586983333333,52.34268129955641L426.3368341666667,51.323501099239714L428.21497,51.83933199535719L430.09310583333325,51.36458208344201L431.97124166666663,51.12124211137949L433.84937749999995,52.64994091337381L435.7275133333333,51.34944483366884L437.60564916666664,49.42864836346022L439.483785,48.94153942845086L441.36192083333333,51.202403101054145L443.2400566666667,51.01258484883744L445.11819249999996,49.26293531331153L446.9963283333333,48.622635776346385L448.87446416666666,49.11237994107337L450.7526,49.0241099596024L452.63073583333335,47.28914825482804L454.50887166666666,49.198504968123025L456.38700750000004,48.92811814221473L458.26514333333336,48.58833693374289L460.1432791666666,48.82140155272052L462.02141499999993,47.80577584830202L463.8995508333333,47.568850311366035L465.7776866666666,46.959989677776015L467.6558225,48.14725259217353L469.5339583333333,46.25799716602675L471.4120941666667,47.35993175073106L473.29023,48.16406494920908L475.16836583333327,46.78089619766585L477.04650166666664,48.029852086847484L478.92463749999996,44.834135564890815L480.80277333333333,44.91979074478154L482.68090916666665,45.7242712215944L484.559045,46.76741362701765L486.43718083333334,45.7668230316856L488.3153166666666,45.34373587911783L490.1934524999999,45.485650149258746L492.0715883333333,43.74147535454146L493.9497241666666,45.04752788760448L495.82786,44.389026880264325L497.7059958333333,44.50324059616438L499.5841316666667,44.34657721085984L501.4622675,43.27191418951212L503.34040333333326,44.593839385292775L505.21853916666663,42.843250155448956L507.09667499999995,44.18950526280839L508.9748108333333,43.93911758336158L510.85294666666664,42.75377491387458L512.7310825,43.49515287442643L514.6092183333334,42.79164868051356L516.4873541666667,43.3402258807963L518.3654899999999,42.89411621743983L520.2436258333333,41.48479945009409L522.1217616666667,41.49658648534257L523.9998975,42.54828828031367L525.8780333333333,42.644545663486845L527.7561691666667,42.970149744640715L529.634305,41.367439801042735L531.5124408333334,40.955383842641695L533.3905766666666,40.81743263114584L535.2687125,42.10659109462393L537.1468483333333,40.434568481011844L539.0249841666666,41.064939943226946L540.90312,40.88523361899639L542.7812558333334,40.280662894249005L544.6593916666667,41.28339844400233L546.5375274999999,39.07456523721872L548.4156633333333,39.99730420112614L550.2937991666666,41.249814586205936L552.171935,39.69991137764672L554.0500708333333,39.14587986469273L555.9282066666667,39.35935389995579L557.8063425,38.973670666868074L559.6844783333333,40.19190263748173L561.5626141666665,38.90448056567801L563.44075,38.831613399765736L565.3188858333333,38.41585994850508L567.1970216666666,38.44433677196507L569.0751574999999,38.73619357022376L570.9532933333334,39.00472143563361L572.8314291666667,38.703059131448924L574.709565,39.275251258503324L576.5877008333333,39.266691868955476L578.4658366666666,38.56032773581423L580.3439725,37.63983586701484L582.2221083333333,37.84397424351088L584.1002441666667,37.96584851091562L585.97838,37.96088447354058L587.8565158333333,37.78934940424837L589.7346516666667,36.816418506882435L591.6127875,37.97060826691718L593.4909233333333,37.36207448352469L595.3690591666666,36.575060064142406L597.247195,36.60662153634162L599.1253308333334,37.090196403590156L601.0034666666667,37.35139056769289L602.8816025,36.67415695840663L604.7597383333333,36.974409721114434L606.6378741666666,36.856661937453545L608.5160099999999,36.69258313829249L610.3941458333333,37.350307876413524L612.2722816666667,36.37921551140876L614.1504175,36.77415269071406L616.0285533333333,36.8694090951573L617.9066891666666,35.88847036795185L619.784825,36.20880398967052L621.6629608333333,36.6958312121305L623.5410966666666,36.3893682956696L625.4192325,36.62709052996204L627.2973683333333,35.94587343389338L629.1755041666667,35.62596880305899L631.05364,36.51224354180427L632.9317758333334,35.67855082858694L634.8099116666666,36.30839115923105L636.6880474999999,35.72445285320286L638.5661833333332,35.92276921055535L640.4443191666667,36.153239456090105L642.322455,35.569342006336576L644.2005908333333,35.52229600602931L646.0787266666666,35.32810613242067L647.9568625,35.69695658033548L649.8349983333333,35.976903774521595L651.7131341666666,35.55967949737204L653.59127,35.45294247974051L655.4694058333333,35.33172191273085L657.3475416666666,35.18921522660691L659.2256775,35.10648127035663L661.1038133333334,35.75566704706714L662.9819491666667,35.72755793007941L664.8600849999999,35.958150744438214L666.7382208333332,35.11160873283041L668.6163566666667,35.37423286654735L670.4944925,35.615918159484906L672.3726283333333,35.01112272522668L674.2507641666666,36.00192824277015L676.1289,35.28867982734335L678.0070358333332,35.83946326645942L679.8851716666666,35.61787926067007L681.7633075,35.13759332353419L683.6414433333333,34.90387500416151L685.5195791666666,35.47817122936253L687.397715,35.014493367888726L689.2758508333334,35.154691674492604L691.1539866666667,35.49943692033945L693.0321224999999,34.706334916028155L694.9102583333333,35.228559819134844L696.7883941666666,34.99247183583001L698.66653,35.13614292578266L700.5446658333333,35.332845460284865L702.4228016666667,35.12934035604654L704.3009375,34.99604675986553L706.1790733333333,35.13900286501108L708.0572091666666,35.61653100360525L709.935345,34.826697501269294L711.8134808333333,35.02460529587487L713.6916166666666,35.28461462801157L715.5697524999999,34.93267867781902L717.4478883333334,35.50930371067742L719.3260241666667,35.0430927601728L721.20416,34.871230840683026L723.0822958333333,34.669543840668446L724.9604316666666,34.671178091656095L726.8385675,35.01202156326989L728.7167033333333,35.298628330230756L730.5948391666667,34.86571524359966L732.472975,34.88189432837749L734.3511108333333,34.85517432472924L736.2292466666665,35.13747075471015L738.1073825,34.82502239400691L739.9855183333333,34.946508526802106L741.8636541666666,34.84798362038354L743.7417899999999,35.25442184101454L745.6199258333334,35.542969281023204L747.4980616666667,35.05818915367131L749.3761975,35.115612647750176L751.2543333333333,34.6440290971236" style="fill: none;" fill="none"></path></g></g></g></g></g></g><g transform="translate(41, 377)" clip-path="url(#clip_1)"><clipPath id="clip_1"><rect width="845" height="23"></rect></clipPath><g><g><line x1="0" y1="0" x2="0" y2="5" style="visibility: inherit;" fill="rgb(0, 0, 0)" stroke="rgb(204, 204, 204)" stroke-width="1px"></line><line x1="93.90679166666666" y1="0" x2="93.90679166666666" y2="5" style="visibility: inherit;" fill="rgb(0, 0, 0)" stroke="rgb(204, 204, 204)" stroke-width="1px"></line><line x1="187.81358333333333" y1="0" x2="187.81358333333333" y2="5" style="visibility: inherit;" fill="rgb(0, 0, 0)" stroke="rgb(204, 204, 204)" stroke-width="1px"></line><line x1="281.720375" y1="0" x2="281.720375" y2="5" style="visibility: inherit;" fill="rgb(0, 0, 0)" stroke="rgb(204, 204, 204)" stroke-width="1px"></line><line x1="375.62716666666665" y1="0" x2="375.62716666666665" y2="5" style="visibility: inherit;" fill="rgb(0, 0, 0)" stroke="rgb(204, 204, 204)" stroke-width="1px"></line><line x1="469.5339583333333" y1="0" x2="469.5339583333333" y2="5" style="visibility: inherit;" fill="rgb(0, 0, 0)" stroke="rgb(204, 204, 204)" stroke-width="1px"></line><line x1="563.44075" y1="0" x2="563.44075" y2="5" style="visibility: inherit;" fill="rgb(0, 0, 0)" stroke="rgb(204, 204, 204)" stroke-width="1px"></line><line x1="657.3475416666666" y1="0" x2="657.3475416666666" y2="5" style="visibility: inherit;" fill="rgb(0, 0, 0)" stroke="rgb(204, 204, 204)" stroke-width="1px"></line><line x1="751.2543333333333" y1="0" x2="751.2543333333333" y2="5" style="visibility: inherit;" fill="rgb(0, 0, 0)" stroke="rgb(204, 204, 204)" stroke-width="1px"></line><line x1="845.161125" y1="0" x2="845.161125" y2="5" style="visibility: inherit;" fill="rgb(0, 0, 0)" stroke="rgb(204, 204, 204)" stroke-width="1px"></line></g><g transform="translate(0, 8)"><text x="0" y="0" dx="0em" dy="0.95em" style="text-anchor: middle; visibility: hidden; font-family: Roboto, sans-serif; font-size: 12px; font-weight: 200;" fill="rgb(33, 33, 33)" stroke="none" stroke-width="1px">-50</text><text x="93.90679166666666" y="0" dx="0em" dy="0.95em" style="text-anchor: middle; visibility: inherit; font-family: Roboto, sans-serif; font-size: 12px; font-weight: 200;" fill="rgb(33, 33, 33)" stroke="none" stroke-width="1px">0</text><text x="187.81358333333333" y="0" dx="0em" dy="0.95em" style="text-anchor: middle; visibility: inherit; font-family: Roboto, sans-serif; font-size: 12px; font-weight: 200;" fill="rgb(33, 33, 33)" stroke="none" stroke-width="1px">50</text><text x="281.720375" y="0" dx="0em" dy="0.95em" style="text-anchor: middle; visibility: inherit; font-family: Roboto, sans-serif; font-size: 12px; font-weight: 200;" fill="rgb(33, 33, 33)" stroke="none" stroke-width="1px">100</text><text x="375.62716666666665" y="0" dx="0em" dy="0.95em" style="text-anchor: middle; visibility: inherit; font-family: Roboto, sans-serif; font-size: 12px; font-weight: 200;" fill="rgb(33, 33, 33)" stroke="none" stroke-width="1px">150</text><text x="469.5339583333333" y="0" dx="0em" dy="0.95em" style="text-anchor: middle; visibility: inherit; font-family: Roboto, sans-serif; font-size: 12px; font-weight: 200;" fill="rgb(33, 33, 33)" stroke="none" stroke-width="1px">200</text><text x="563.44075" y="0" dx="0em" dy="0.95em" style="text-anchor: middle; visibility: inherit; font-family: Roboto, sans-serif; font-size: 12px; font-weight: 200;" fill="rgb(33, 33, 33)" stroke="none" stroke-width="1px">250</text><text x="657.3475416666666" y="0" dx="0em" dy="0.95em" style="text-anchor: middle; visibility: inherit; font-family: Roboto, sans-serif; font-size: 12px; font-weight: 200;" fill="rgb(33, 33, 33)" stroke="none" stroke-width="1px">300</text><text x="751.2543333333333" y="0" dx="0em" dy="0.95em" style="text-anchor: middle; visibility: inherit; font-family: Roboto, sans-serif; font-size: 12px; font-weight: 200;" fill="rgb(33, 33, 33)" stroke="none" stroke-width="1px">350</text><text x="845.161125" y="0" dx="0em" dy="0.95em" style="text-anchor: middle; visibility: hidden; font-family: Roboto, sans-serif; font-size: 12px; font-weight: 200;" fill="rgb(33, 33, 33)" stroke="none" stroke-width="1px">400</text></g><line x1="0" y1="0" x2="845.161125" y2="0" fill="rgb(0, 0, 0)" stroke="rgb(204, 204, 204)" stroke-width="1px"></line></g></g></g></g></svg>