<svg viewBox="0 0 886.3333740234375 400" xmlns="http://www.w3.org/2000/svg"><g><g><g><g><g><line x1="51.5625" y1="377" x2="46.5625" y2="377" style="visibility: inherit;" fill="rgb(0, 0, 0)" stroke="rgb(204, 204, 204)" stroke-width="1px"></line><line x1="51.5625" y1="329.87500000000006" x2="46.5625" y2="329.87500000000006" style="visibility: inherit;" fill="rgb(0, 0, 0)" stroke="rgb(204, 204, 204)" stroke-width="1px"></line><line x1="51.5625" y1="282.75" x2="46.5625" y2="282.75" style="visibility: inherit;" fill="rgb(0, 0, 0)" stroke="rgb(204, 204, 204)" stroke-width="1px"></line><line x1="51.5625" y1="235.625" x2="46.5625" y2="235.625" style="visibility: inherit;" fill="rgb(0, 0, 0)" stroke="rgb(204, 204, 204)" stroke-width="1px"></line><line x1="51.5625" y1="188.50000000000003" x2="46.5625" y2="188.50000000000003" style="visibility: inherit;" fill="rgb(0, 0, 0)" stroke="rgb(204, 204, 204)" stroke-width="1px"></line><line x1="51.5625" y1="141.375" x2="46.5625" y2="141.375" style="visibility: inherit;" fill="rgb(0, 0, 0)" stroke="rgb(204, 204, 204)" stroke-width="1px"></line><line x1="51.5625" y1="94.25000000000009" x2="46.5625" y2="94.25000000000009" style="visibility: inherit;" fill="rgb(0, 0, 0)" stroke="rgb(204, 204, 204)" stroke-width="1px"></line><line x1="51.5625" y1="47.12500000000004" x2="46.5625" y2="47.12500000000004" style="visibility: inherit;" fill="rgb(0, 0, 0)" stroke="rgb(204, 204, 204)" stroke-width="1px"></line><line x1="51.5625" y1="0" x2="46.5625" y2="0" style="visibility: inherit;" fill="rgb(0, 0, 0)" stroke="rgb(204, 204, 204)" stroke-width="1px"></line></g><g transform="translate(41.5625, 0)"><text x="0" y="377" dx="0em" dy="0.3em" style="text-anchor: end; visibility: hidden; font-family: Roboto, sans-serif; font-size: 12px; font-weight: 200;" fill="rgb(33, 33, 33)" stroke="none" stroke-width="1px">0.65</text><text x="0" y="329.87500000000006" dx="0em" dy="0.3em" style="text-anchor: end; visibility: inherit; font-family: Roboto, sans-serif; font-size: 12px; font-weight: 200;" fill="rgb(33, 33, 33)" stroke="none" stroke-width="1px">0.7</text><text x="0" y="282.75" dx="0em" dy="0.3em" style="text-anchor: end; visibility: inherit; font-family: Roboto, sans-serif; font-size: 12px; font-weight: 200;" fill="rgb(33, 33, 33)" stroke="none" stroke-width="1px">0.75</text><text x="0" y="235.625" dx="0em" dy="0.3em" style="text-anchor: end; visibility: inherit; font-family: Roboto, sans-serif; font-size: 12px; font-weight: 200;" fill="rgb(33, 33, 33)" stroke="none" stroke-width="1px">0.8</text><text x="0" y="188.50000000000003" dx="0em" dy="0.3em" style="text-anchor: end; visibility: inherit; font-family: Roboto, sans-serif; font-size: 12px; font-weight: 200;" fill="rgb(33, 33, 33)" stroke="none" stroke-width="1px">0.85</text><text x="0" y="141.375" dx="0em" dy="0.3em" style="text-anchor: end; visibility: inherit; font-family: Roboto, sans-serif; font-size: 12px; font-weight: 200;" fill="rgb(33, 33, 33)" stroke="none" stroke-width="1px">0.9</text><text x="0" y="94.25000000000009" dx="0em" dy="0.3em" style="text-anchor: end; visibility: inherit; font-family: Roboto, sans-serif; font-size: 12px; font-weight: 200;" fill="rgb(33, 33, 33)" stroke="none" stroke-width="1px">0.95</text><text x="0" y="47.12500000000004" dx="0em" dy="0.3em" style="text-anchor: end; visibility: inherit; font-family: Roboto, sans-serif; font-size: 12px; font-weight: 200;" fill="rgb(33, 33, 33)" stroke="none" stroke-width="1px">1</text><text x="0" y="0" dx="0em" dy="0.3em" style="text-anchor: end; visibility: hidden; font-family: Roboto, sans-serif; font-size: 12px; font-weight: 200;" fill="rgb(33, 33, 33)" stroke="none" stroke-width="1px">1.05</text></g><line x1="51.5625" y1="0" x2="51.5625" y2="377" fill="rgb(0, 0, 0)" stroke="rgb(204, 204, 204)" stroke-width="1px"></line></g></g><g transform="translate(51, 0)" clip-path="url(#clip_0)"><clipPath id="clip_0"><rect width="834" height="377"></rect></clipPath><g><g><g><line x1="0" y1="0" x2="0" y2="377" fill="rgb(0, 0, 0)" stroke="rgb(66, 66, 66)" stroke-width="1px" opacity="0.25"></line><line x1="92.75227777777776" y1="0" x2="92.75227777777776" y2="377" fill="rgb(0, 0, 0)" stroke="rgb(66, 66, 66)" stroke-width="1px" opacity="0.25"></line><line x1="185.50455555555553" y1="0" x2="185.50455555555553" y2="377" fill="rgb(0, 0, 0)" stroke="rgb(66, 66, 66)" stroke-width="1px" opacity="0.25"></line><line x1="278.2568333333333" y1="0" x2="278.2568333333333" y2="377" fill="rgb(0, 0, 0)" stroke="rgb(66, 66, 66)" stroke-width="1px" opacity="0.25"></line><line x1="371.00911111111105" y1="0" x2="371.00911111111105" y2="377" fill="rgb(0, 0, 0)" stroke="rgb(66, 66, 66)" stroke-width="1px" opacity="0.25"></line><line x1="463.7613888888889" y1="0" x2="463.7613888888889" y2="377" fill="rgb(0, 0, 0)" stroke="rgb(66, 66, 66)" stroke-width="1px" opacity="0.25"></line><line x1="556.5136666666666" y1="0" x2="556.5136666666666" y2="377" fill="rgb(0, 0, 0)" stroke="rgb(66, 66, 66)" stroke-width="1px" opacity="0.25"></line><line x1="649.2659444444445" y1="0" x2="649.2659444444445" y2="377" fill="rgb(0, 0, 0)" stroke="rgb(66, 66, 66)" stroke-width="1px" opacity="0.25"></line><line x1="742.0182222222221" y1="0" x2="742.0182222222221" y2="377" fill="rgb(0, 0, 0)" stroke="rgb(66, 66, 66)" stroke-width="1px" opacity="0.25"></line><line x1="834.7705" y1="0" x2="834.7705" y2="377" fill="rgb(0, 0, 0)" stroke="rgb(66, 66, 66)" stroke-width="1px" opacity="0.25"></line></g><g><line x1="0" y1="377" x2="834.7705" y2="377" fill="rgb(0, 0, 0)" stroke="rgb(66, 66, 66)" stroke-width="1px" opacity="0.25"></line><line x1="0" y1="329.87500000000006" x2="834.7705" y2="329.87500000000006" fill="rgb(0, 0, 0)" stroke="rgb(66, 66, 66)" stroke-width="1px" opacity="0.25"></line><line x1="0" y1="282.75" x2="834.7705" y2="282.75" fill="rgb(0, 0, 0)" stroke="rgb(66, 66, 66)" stroke-width="1px" opacity="0.25"></line><line x1="0" y1="235.625" x2="834.7705" y2="235.625" fill="rgb(0, 0, 0)" stroke="rgb(66, 66, 66)" stroke-width="1px" opacity="0.25"></line><line x1="0" y1="188.50000000000003" x2="834.7705" y2="188.50000000000003" fill="rgb(0, 0, 0)" stroke="rgb(66, 66, 66)" stroke-width="1px" opacity="0.25"></line><line x1="0" y1="141.375" x2="834.7705" y2="141.375" fill="rgb(0, 0, 0)" stroke="rgb(66, 66, 66)" stroke-width="1px" opacity="0.25"></line><line x1="0" y1="94.25000000000009" x2="834.7705" y2="94.25000000000009" fill="rgb(0, 0, 0)" stroke="rgb(66, 66, 66)" stroke-width="1px" opacity="0.25"></line><line x1="0" y1="47.12500000000004" x2="834.7705" y2="47.12500000000004" fill="rgb(0, 0, 0)" stroke="rgb(66, 66, 66)" stroke-width="1px" opacity="0.25"></line><line x1="0" y1="0" x2="834.7705" y2="0" fill="rgb(0, 0, 0)" stroke="rgb(66, 66, 66)" stroke-width="1px" opacity="0.25"></line></g></g></g><g><g><line x1="0" y1="989.625" x2="834.7705" y2="989.625" fill="rgb(0, 0, 0)" stroke="rgb(153, 153, 153)" stroke-width="1.5px"></line></g></g><g><g><line x1="92.75227777777776" y1="0" x2="92.75227777777776" y2="377" fill="rgb(0, 0, 0)" stroke="rgb(153, 153, 153)" stroke-width="1.5px"></line></g></g><g><g><g><g><g><path stroke="rgb(255, 112, 67)" stroke-width="2px" d="M118.72291555555555,390.96134342992167L120.5779611111111,374.1214671032067L122.43300666666666,363.11778676926934L124.2880522222222,353.8923119386197L126.14309777777777,339.80480378085235L127.99814333333332,328.682783823014L129.8531888888889,320.1078374697092L131.70823444444443,309.80830082070673L133.56328,300.9437914476194L135.41832555555555,295.0816063688207L137.27337111111112,291.281639046704L139.12841666666665,283.01671758003425L140.98346222222222,280.11010014335204L142.83850777777778,273.6860356701808L144.69355333333334,265.4528640358893L146.54859888888888,263.1263368646749L148.40364444444444,260.1502185393577L150.25869,257.32699660339347L152.11373555555556,254.78404366924656L153.9687811111111,254.42446951313957L155.82382666666666,251.07834168767775L157.67887222222222,244.46582779541342L159.5339177777778,239.32261688920576L161.38896333333332,234.40885826534523L163.24400888888889,233.0100201351348L165.09905444444445,231.52002592845034L166.9541,227.1100670991793L168.80914555555555,224.1537904416725L170.6641911111111,221.66057200760093L172.51923666666667,221.82088486873027L174.37428222222223,217.28434895510117L176.22932777777777,218.39756709965502L178.08437333333333,213.5522501384124L179.9394188888889,212.217869240884L181.79446444444443,212.1368279688603L183.64951,207.8754841227581L185.50455555555553,207.14349881047912L187.35960111111112,203.8946747257249L189.21464666666665,201.00598216496684L191.06969222222222,199.6467731382989L192.92473777777775,198.99535307803936L194.77978333333334,197.37763205479993L196.63482888888888,194.4393755514098L198.48987444444444,194.5495551895305L200.34491999999997,196.65364340968185L202.19996555555556,195.03550018088347L204.0550111111111,190.85506582985107L205.91005666666666,186.88374406534288L207.7651022222222,185.52928914092695L209.6201477777778,184.5452751842899L211.47519333333335,186.67668323086266L213.33023888888886,186.3574164889251L215.18528444444442,184.12266274583303L217.04033,184.08478859837038L218.89537555555557,181.01790189609045L220.75042111111108,178.64424208322245L222.60546666666664,179.72663584660927L224.46051222222223,177.27209221906327L226.3155577777778,175.3759683822803L228.1706033333333,173.8254352960117L230.02564888888887,175.2673512788492L231.88069444444446,174.9325970227645L233.73574000000002,173.18050730318592L235.59078555555553,172.9428367262529L237.4458311111111,171.4214842346577L239.30087666666668,171.13001700802258L241.1559222222222,165.91874487736004L243.01096777777775,168.8812048646103L244.8660133333333,166.34529191328826L246.7210588888889,168.37240167900163L248.5761044444444,165.8512764837995L250.43114999999997,164.28210939566233L252.28619555555554,164.17798913478816L254.14124111111113,161.38648738241181L255.99628666666663,162.62620351181027L257.8513322222222,160.77236877361295L259.7063777777778,159.53027571725457L261.5614233333333,158.67102474860917L263.41646888888886,157.04484741027693L265.27151444444445,156.34450004181588L267.12656,158.95353312302422L268.9816055555556,156.1058828890847L270.8366511111111,152.85944826963703L272.69169666666664,152.43947734572387L274.54674222222224,152.18576452814278L276.40178777777777,150.94129131843295L278.2568333333333,151.18146415120154L280.1118788888889,151.67836178282366L281.96692444444443,149.08210703694505L283.82197,148.67169848062804L285.67701555555556,146.6929205475939L287.5320611111111,146.9345366250689L289.3871066666667,145.3667029673585L291.2421522222222,144.28113255111742L293.09719777777775,144.5979961705706L294.95224333333334,144.19580254271636L296.8072888888889,138.83751374074825L298.6623344444444,137.4381258940041L300.51738,136.63345798583856L302.37242555555554,137.9016836329224L304.22747111111113,138.9076422717525L306.0825166666666,136.9935271541091L307.9375622222222,135.96321034430343L309.7926077777778,134.97206988333988L311.6476533333333,134.35691457032755L313.50269888888886,134.1135688247657L315.35774444444445,133.04746581449368L317.21279,131.86180483898087L319.0678355555556,133.40455924034453L320.92288111111105,131.11598950958458L322.77792666666664,130.35540579757816L324.63297222222224,132.32686206699444L326.48801777777777,130.0917693436208L328.3430633333333,127.58085352540395L330.1981088888889,128.47692059493298L332.05315444444443,127.77679343829296L333.9082,129.67279807215772L335.7632455555555,128.8698769300332L337.6182911111111,129.3034334951133L339.4733366666667,127.47017363151852L341.3283822222222,125.72354868317206L343.18342777777775,122.26437325039241L345.03847333333334,123.93625861858573L346.8935188888889,121.47843642506147L348.74856444444447,119.63602846546864L350.60360999999995,119.99400437881886L352.45865555555554,120.33325652486286L354.31370111111113,118.51332113865739L356.16874666666666,117.30992646052675L358.0237922222222,118.89255533834834L359.8788377777778,117.42740426194992L361.7338833333333,116.20787870724392L363.58892888888886,115.8363053073846L365.4439744444444,114.53120520534291L367.29902,113.3921603371035L369.1540655555556,112.58242420013738L371.00911111111105,111.6753420690059L372.86415666666664,112.5738402044391L374.71920222222224,110.58715924236876L376.57424777777777,109.99530482657975L378.4292933333333,110.85160114984649L380.28433888888884,108.91952827346893L382.13938444444443,107.21666729910712L383.99443,107.62457509317125L385.8494755555555,104.95378127979112L387.7045211111111,105.91270129255574L389.5595666666667,105.70676080210282L391.4146122222222,107.91163645877407L393.26965777777775,106.21179198440295L395.1247033333333,105.49333310852283L396.9797488888889,103.94046296316284L398.83479444444447,103.20342919610675L400.68983999999995,101.86425845255094L402.54488555555554,102.73789791124845L404.39993111111113,100.92227133427735L406.25497666666666,101.91336839386621L408.1100222222222,100.3278724848557L409.96506777777773,99.37852991219334L411.8201133333333,97.6937360083817L413.6751588888889,98.13792116139885L415.5302044444444,98.68415065225687L417.38525,99.33162750969365L419.2402955555556,98.32592593532813L421.0953411111111,96.6014067703606L422.9503866666667,96.13410925710922L424.8054322222222,95.33150584605174L426.6604777777777,94.58226983014842L428.5155233333333,95.81429690280025L430.37056888888884,95.12296745871588L432.22561444444443,92.59529367503572L434.08066,90.54286957631733L435.93570555555556,91.79836515694997L437.79075111111115,92.34286242789116L439.6457966666666,90.74494630137744L441.50084222222216,89.08186713480758L443.35588777777775,88.62273821606514L445.2109333333333,88.2501638852017L447.0659788888889,86.11816141143181L448.92102444444447,86.9392523117944L450.77607,87.1344813435129L452.6311155555556,86.87785943322491L454.4861611111111,86.9802573679276L456.3412066666666,85.92450785388871L458.1962522222222,85.03044005483595L460.05129777777773,83.82425267845522L461.9063433333333,84.40652945846404L463.7613888888889,82.67771455770779L465.61643444444445,82.85255366042887L467.47148000000004,83.84200364038732L469.3265255555555,82.91418800166485L471.18157111111105,83.73135009653112L473.03661666666665,80.7063591792985L474.8916622222222,78.98558532683876L476.7467077777778,78.83804953985708L478.60175333333336,79.8969847136337L480.4567988888889,79.4316961630344L482.3118444444444,78.68712716485018L484.16688999999997,78.39649146309472L486.0219355555555,76.30351776785238L487.8769811111111,76.48439133707633L489.7320266666666,75.86856437053653L491.5870722222222,75.62470327810276L493.4421177777778,75.30605689880751L495.29716333333334,73.93273974774773L497.1522088888888,74.56286717247063L499.0072544444444,73.01529547447619L500.86229999999995,73.56763307377493L502.71734555555554,73.6236091859627L504.5723911111111,72.35331791683963L506.42743666666667,72.40665891197293L508.28248222222226,71.66480889574868L510.1375277777778,71.82313380632523L511.99257333333327,71.42740812297892L513.8476188888889,69.63972426889082L515.7026644444444,68.5800796952114L517.5577099999999,69.10116492547192L519.4127555555556,69.51969918511877L521.2678011111111,70.128984230176L523.1228466666666,68.73157431925266L524.9778922222223,67.43986681845743L526.8329377777777,66.51309598533497L528.6879833333332,67.37510779528729L530.5430288888889,66.05309000628539L532.3980744444444,65.95328794132077L534.25312,65.69572974568847L536.1081655555556,64.87616703108695L537.9632111111111,65.48743850705473L539.8182566666666,63.42448486517337L541.6733022222222,63.20172554034271L543.5283477777778,64.44583136903213L545.3833933333333,63.487401336830764L547.2384388888888,62.302908653260474L549.0934844444445,61.827034481907624L550.94853,61.11725842269942L552.8035755555555,62.031447954849526L554.6586211111111,61.163797395155484L556.5136666666666,60.56305317683562L558.3687122222221,59.74527784945691L560.2237577777778,59.28593715883565L562.0788033333333,59.3313752225475L563.9338488888889,59.654018712725446L565.7888944444445,59.5157762722291L567.64394,60.06224214769111L569.4989855555555,60.38070634446566L571.3540311111111,59.79478431607497L573.2090766666666,58.430690043361274L575.0641222222222,57.836785693878724L576.9191677777777,57.614504778334386L578.7742133333334,57.475675787895305L580.6292588888889,57.203689817410314L582.4843044444444,55.9702742480168L584.33935,56.499833642418956L586.1943955555555,56.14818211732852L588.049441111111,55.07147534095377L589.9044866666667,54.460168894547934L591.7595322222222,54.625317380677934L593.6145777777778,55.01172005286882L595.4696233333334,54.498604685968544L597.3246688888888,54.521013504807044L599.1797144444444,54.40493623408309L601.03476,54.154803192571514L602.8898055555555,54.72822057959775L604.7448511111111,54.00406941030826L606.5998966666666,54.004009605970474L608.4549422222223,54.10875576825539L610.3099877777778,53.09257086570022L612.1650333333332,52.835226908057685L614.0200788888889,53.216550478178135L615.8751244444444,53.108235412143365L617.7301699999999,53.304740830244334L619.5852155555556,52.67330527542933L621.4402611111111,51.94254884862244L623.2953066666666,52.47899720515816L625.1503522222223,51.88380423454053L627.0053977777777,52.219512815878446L628.8604433333333,51.77860582805014L630.7154888888889,51.73220962844092L632.5705344444444,51.957889178763594L634.42558,51.451009714228306L636.2806255555555,51.09513143516923L638.1356711111112,50.667995606764286L639.9907166666667,50.81744960242758L641.8457622222221,51.21506391343037L643.7008077777778,50.99468579516742L645.5558533333333,50.745048204814964L647.4108988888888,50.46192302689286L649.2659444444445,50.13529056540327L651.12099,49.84830373663424L652.9760355555555,50.390215993754346L654.8310811111112,50.68444331933989L656.6861266666666,51.11463181048594L658.5411722222221,50.44154869240501L660.3962177777778,50.32658536864511L662.2512633333333,50.52346119662047L664.1063088888889,49.976311715721586L665.9613544444444,50.737908096480204L667.8164,50.410292667965805L669.6714455555555,50.81958519388482L671.526491111111,50.82141830306789L673.3815366666666,50.294203637728394L675.2365822222222,49.72078468721473L677.0916277777777,50.00845916462755L678.9466733333334,49.67101820345416L680.8017188888889,49.6227717640143L682.6567644444444,49.973043670781905L684.51181,49.31079461010007L686.3668555555555,49.48789256710834L688.221901111111,49.33445455967793L690.0769466666667,49.40042995416768L691.9319922222222,49.656387978813946L693.7870377777778,49.586107178939656L695.6420833333333,49.39731574321594L697.4971288888889,49.44129259744173L699.3521744444444,49.99295966243072L701.2072199999999,49.455143048854545L703.0622655555555,49.35015165477508L704.9173111111111,49.57316708367775L706.7723566666666,49.31984679580759L708.6274022222223,49.80214215922975L710.4824477777778,49.578687331727856L712.3374933333333,49.255566323788L714.1925388888889,48.83983801900812L716.0475844444444,48.592198712226576L717.9026299999999,48.818542946932865L719.7576755555556,49.269616931413566L721.6127211111111,49.06405692680775L723.4677666666666,48.95851791729988L725.3228122222222,48.86580250758204L727.1778577777777,49.1206993347304L729.0329033333333,48.929944234245845L730.8879488888888,48.94912592002988L732.7429944444444,48.852257534439815L734.59804,49.24121854577987L736.4530855555555,49.79199733659342L738.3081311111112,49.589206470994405L740.1631766666667,49.530697795121874L742.0182222222221,48.97685068390911" style="fill: none;" fill="none"></path></g></g></g></g><g opacity="0.2"><g><g><g><path stroke="rgb(255, 112, 67)" stroke-width="2px" d="M116.86787000000001,385.9135746359825L118.72291555555555,363.52610313892365L120.5779611111111,348.8814472556114L122.43300666666666,346.6200269162655L124.2880522222222,340.0580036044121L126.14309777777777,318.67711836099625L127.99814333333332,312.0014482140541L129.8531888888889,307.246201723814L131.70823444444443,294.3595606982708L133.56328,287.64731907844543L135.41832555555555,286.28844448924065L137.27337111111112,285.5817330777645L139.12841666666665,270.61939412355423L140.98346222222222,275.7501863837242L142.83850777777778,264.0499553978443L144.69355333333334,253.10311922430992L146.54859888888888,259.6365482509136L148.40364444444444,255.68604269623756L150.25869,253.09216463565826L152.11373555555556,250.96961477398872L153.9687811111111,253.88510832190514L155.82382666666666,246.0591501891613L157.67887222222222,234.5470572412014L159.5339177777778,231.60780066251755L161.38896333333332,227.0382204055786L163.24400888888889,230.91176295280457L165.09905444444445,229.28503462672234L166.9541,220.49512887001038L168.80914555555555,219.71937546133995L170.6641911111111,217.92074435949326L172.51923666666667,222.06135416030884L174.37428222222223,210.47954508662224L176.22932777777777,220.06739431619644L178.08437333333333,206.28427469730377L179.9394188888889,210.21629789471626L181.79446444444443,212.01526606082916L183.64951,201.48346835374832L185.50455555555553,206.04552084207535L187.35960111111112,199.0214385986328L189.21464666666665,196.67294332385063L191.06969222222222,197.60795959830284L192.92473777777775,198.01822298765182L194.77978333333334,194.95105051994324L196.63482888888888,190.0319907963276L198.48987444444444,194.71482464671135L200.34491999999997,199.80977573990822L202.19996555555556,192.60828533768654L204.0550111111111,184.5844143033028L205.91005666666666,180.92676141858104L207.7651022222222,183.497606754303L209.6201477777778,183.06925424933436L211.47519333333335,189.87379530072212L213.33023888888886,185.87851637601855L215.18528444444442,180.7705321311951L217.04033,184.0279773771763L218.89537555555557,176.41757184267047L220.75042111111108,175.08375236392024L222.60546666666664,181.3502264916897L224.46051222222223,173.59027677774432L226.3155577777778,172.53178262710574L228.1706033333333,171.49963566660884L230.02564888888887,177.4302252531052L231.88069444444446,174.43046563863757L233.73574000000002,170.55237272381785L235.59078555555553,172.58633086085322L237.4458311111111,169.1394554972649L239.30087666666668,170.69281616806987L241.1559222222222,158.101836681366L243.01096777777775,173.32489484548572L244.8660133333333,162.54142248630527L246.7210588888889,171.4130663275719L248.5761044444444,162.0695886909962L250.43114999999997,161.92835876345637L252.28619555555554,164.0218087434769L254.14124111111113,157.19923475384715L255.99628666666663,164.48577770590785L257.8513322222222,157.99161666631701L259.7063777777778,157.66713613271716L261.5614233333333,157.38214829564097L263.41646888888886,154.60558140277865L265.27151444444445,155.29397898912433L267.12656,162.86708274483684L268.9816055555556,151.8344075381756L270.8366511111111,147.98979634046557L272.69169666666664,151.80952095985415L274.54674222222224,151.8051953017712L276.40178777777777,149.07458150386813L278.2568333333333,151.5417234003544L280.1118788888889,152.42370823025706L281.96692444444443,145.1877249181271L283.82197,148.05608564615252L285.67701555555556,143.7247536480427L287.5320611111111,147.29696074128154L289.3871066666667,143.01495248079303L291.2421522222222,142.65277692675593L293.09719777777775,145.07329159975055L294.95224333333334,143.592512100935L296.8072888888889,130.80008053779605L298.6623344444444,135.33904412388804L300.51738,135.4264561235905L302.37242555555554,139.80402210354808L304.22747111111113,140.41658022999766L306.0825166666666,134.122354477644L307.9375622222222,134.41773512959483L309.7926077777778,133.48535919189456L311.6476533333333,133.43418160080913L313.50269888888886,133.74855020642283L315.35774444444445,131.44831129908565L317.21279,130.08331337571147L319.0678355555556,135.7186908423901L320.92288111111105,127.68313491344456L322.77792666666664,129.2145302295685L324.63297222222224,135.28404647111896L326.48801777777777,126.73913025856022L328.3430633333333,123.81447979807858L330.1981088888889,129.8210211992264L332.05315444444443,126.72660270333294L333.9082,132.51680502295497L335.7632455555555,127.66549521684651L337.6182911111111,129.9537683427334L339.4733366666667,124.72028383612637L341.3283822222222,123.10361126065258L343.18342777777775,117.07561010122303L345.03847333333334,126.44408667087559L346.8935188888889,117.7917031347752L348.74856444444447,116.87241652607922L350.60360999999995,120.53096824884419L352.45865555555554,120.84213474392895L354.31370111111113,115.7834180593491L356.16874666666666,115.50483444333081L358.0237922222222,121.26649865508084L359.8788377777778,115.22967764735226L361.7338833333333,114.37859037518506L363.58892888888886,115.27894520759587L365.4439744444444,112.57355505228047L367.29902,111.6835930347443L369.1540655555556,111.36781999468808L371.00911111111105,110.31471887230877L372.86415666666664,113.921587407589L374.71920222222224,107.60713779926304L376.57424777777777,109.10752320289616L378.4292933333333,112.1360456347466L380.28433888888884,106.0214189589024L382.13938444444443,104.66237583756451L383.99443,108.23643678426747L385.8494755555555,100.94759055972104L387.7045211111111,107.35108131170277L389.5595666666667,105.39785006642346L391.4146122222222,111.21894994378094L393.26965777777775,103.66202527284626L395.1247033333333,104.41564479470257L396.9797488888889,101.61115774512295L398.83479444444447,102.09787854552273L400.68983999999995,99.85550233721737L402.54488555555554,104.0483570992947L404.39993111111113,98.19883146882061L406.25497666666666,103.4000139832497L408.1100222222222,97.94962862133984L409.96506777777773,97.95451605319981L411.8201133333333,95.16654515266423L413.6751588888889,98.8041988909245L415.5302044444444,99.50349488854413L417.38525,100.30284279584889L419.2402955555556,96.8173735737801L421.0953411111111,94.0146280229092L422.9503866666667,95.43316298723225L424.8054322222222,94.12760072946553L426.6604777777777,93.45841580629353L428.5155233333333,97.66233751177792L430.37056888888884,94.08597329258923L432.22561444444443,88.80378299951558L434.08066,87.46423342823987L435.93570555555556,93.68160852789883L437.79075111111115,93.15960833430294L439.6457966666666,88.34807211160664L441.50084222222216,86.58724838495259L443.35588777777775,87.9340448379517L445.2109333333333,87.69130238890652L447.0659788888889,82.9201577007771L448.92102444444447,88.1708886623383L450.77607,87.42732489109044L452.6311155555556,86.49292656779294L454.4861611111111,87.13385426998143L456.3412066666666,84.34088358283047L458.1962522222222,83.68933835625653L460.05129777777773,82.01497161388401L461.9063433333333,85.27994462847714L463.7613888888889,80.08449220657353L465.61643444444445,83.11481231451039L467.47148000000004,85.3261786103249L469.3265255555555,81.52246454358105L471.18157111111105,84.95709323883061L473.03661666666665,76.16887280344967L474.8916622222222,76.40442454814915L476.7467077777778,78.61674585938458L478.60175333333336,81.48538747429852L480.4567988888889,78.73376333713536L482.3118444444444,77.57027366757397L484.16688999999997,77.96053791046147L486.0219355555555,73.16405722498898L487.8769811111111,76.75570169091229L489.7320266666666,74.94482392072682L491.5870722222222,75.25891163945202L493.4421177777778,74.82808732986454L495.29716333333334,71.87276402115826L497.1522088888888,75.5080583095551L499.0072544444444,70.69393792748455L500.86229999999995,74.39613947272305L502.71734555555554,73.70757335424427L504.5723911111111,70.44788101315503L506.42743666666667,72.48667040467267L508.28248222222226,70.55203387141232L510.1375277777778,72.06062117218976L511.99257333333327,70.83381959795956L513.8476188888889,66.95819848775868L515.7026644444444,66.99061283469204L517.5577099999999,69.88279277086262L519.4127555555556,70.14750057458882L521.2678011111111,71.04291179776196L523.1228466666666,66.63545945286755L524.9778922222223,65.5023055672646L526.8329377777777,65.12293973565106L528.6879833333332,68.6681255102158L530.5430288888889,64.07006332278256L532.3980744444444,65.80358484387402L534.25312,65.30939245224003L536.1081655555556,63.64682295918469L537.9632111111111,66.40434572100644L539.8182566666666,60.33005440235142L541.6733022222222,62.867586553096814L543.5283477777778,66.31199011206631L545.3833933333333,62.049756288528485L547.2384388888888,60.526169627904935L549.0934844444445,61.113223224878354L550.94853,60.05259433388714L552.8035755555555,63.40273225307469L554.6586211111111,59.862321555614514L556.5136666666666,59.66193684935574L558.3687122222221,58.51861485838894L560.2237577777778,58.59692612290387L562.0788033333333,59.39953231811528L563.9338488888889,60.13798394799237L565.7888944444445,59.30841261148457L567.64394,60.88194096088414L569.4989855555555,60.8584026396275L571.3540311111111,58.91590127348904L573.2090766666666,56.38454863429074L575.0641222222222,56.94592916965489L576.9191677777777,57.281083405017895L578.7742133333334,57.2674323022366L580.6292588888889,56.795710861682934L582.4843044444444,54.12015089392666L584.33935,57.29417273402218L586.1943955555555,55.62070482969288L588.049441111111,53.456415176391644L589.9044866666667,53.54320922493939L591.7595322222222,54.87304010987286L593.6145777777778,55.59132406115536L595.4696233333334,53.72893163561825L597.3246688888888,54.554626733064694L599.1797144444444,54.23082032799725L601.03476,53.77960363030438L602.8898055555555,55.58834666013722L604.7448511111111,52.91784265637402L606.5998966666666,54.003919899463696L608.4549422222223,54.26587501168255L610.3099877777778,51.568293511867566L612.1650333333332,52.4492109715939L614.0200788888889,53.78853583335881L615.8751244444444,52.94576281309132L617.7301699999999,53.599498957395596L619.5852155555556,51.72615194320683L621.4402611111111,50.84641420841221L623.2953066666666,53.28366973996167L625.1503522222223,50.99101477861409L627.0053977777777,52.72307568788533L628.8604433333333,51.1172453463078L630.7154888888889,51.66261532902722L632.5705344444444,52.29640850424771L634.42558,50.69069051742558L636.2806255555555,50.561314016580624L638.1356711111112,50.027291864156766L639.9907166666667,51.04163059592251L641.8457622222221,51.81148537993435L643.7008077777778,50.6641186177731L645.5558533333333,50.37059181928639L647.4108988888888,50.03723526000981L649.2659444444445,49.64534187316899L651.12099,49.417823493480725L652.9760355555555,51.20308437943463L654.8310811111112,51.12578430771832L656.6861266666666,51.759914547205014L658.5411722222221,49.43192401528363L660.3962177777778,50.154140383005185L662.2512633333333,50.81877493858342L664.1063088888889,49.155587494373364L665.9613544444444,51.88030266761784L667.8164,49.91886952519421L669.6714455555555,51.43352398276333L671.526491111111,50.824167966842694L673.3815366666666,49.50338163971905L675.2365822222222,48.860656261444134L677.0916277777777,50.439970880746884L678.9466733333334,49.164856761694L680.8017188888889,49.550402104854626L682.6567644444444,50.49845153093342L684.51181,48.317421019077344L686.3668555555555,49.75353950262074L688.221901111111,49.10429754853253L690.0769466666667,49.499393045902295L691.9319922222222,50.04032501578335L693.7870377777778,49.48068597912793L695.6420833333333,49.11412858963017L697.4971288888889,49.50725787878041L699.3521744444444,50.82046025991444L701.2072199999999,48.64841812849049L703.0622655555555,49.192664563655896L704.9173111111111,49.90769022703175L706.7723566666666,48.93986636400227L708.6274022222223,50.52558520436291L710.4824477777778,49.243505090475125L712.3374933333333,48.77088481187825L714.1925388888889,48.21624556183819L716.0475844444444,48.22073975205426L717.9026299999999,49.1580592989922L719.7576755555556,49.9462279081345L721.6127211111111,48.75571691989903L723.4677666666666,48.80020940303807L725.3228122222222,48.726729393005414L727.1778577777777,49.50304457545285L729.0329033333333,48.643811583519025L730.8879488888888,48.977898448705716L732.7429944444444,48.70695495605473L734.59804,49.82466006278996L736.4530855555555,50.61816552281384L738.3081311111112,49.28502017259602L740.1631766666667,49.442934781312985L742.0182222222221,48.146080017089886" style="fill: none;" fill="none"></path></g></g></g></g></g></g><g transform="translate(51, 377)" clip-path="url(#clip_1)"><clipPath id="clip_1"><rect width="834" height="23"></rect></clipPath><g><g><line x1="0" y1="0" x2="0" y2="5" style="visibility: inherit;" fill="rgb(0, 0, 0)" stroke="rgb(204, 204, 204)" stroke-width="1px"></line><line x1="92.75227777777776" y1="0" x2="92.75227777777776" y2="5" style="visibility: inherit;" fill="rgb(0, 0, 0)" stroke="rgb(204, 204, 204)" stroke-width="1px"></line><line x1="185.50455555555553" y1="0" x2="185.50455555555553" y2="5" style="visibility: inherit;" fill="rgb(0, 0, 0)" stroke="rgb(204, 204, 204)" stroke-width="1px"></line><line x1="278.2568333333333" y1="0" x2="278.2568333333333" y2="5" style="visibility: inherit;" fill="rgb(0, 0, 0)" stroke="rgb(204, 204, 204)" stroke-width="1px"></line><line x1="371.00911111111105" y1="0" x2="371.00911111111105" y2="5" style="visibility: inherit;" fill="rgb(0, 0, 0)" stroke="rgb(204, 204, 204)" stroke-width="1px"></line><line x1="463.7613888888889" y1="0" x2="463.7613888888889" y2="5" style="visibility: inherit;" fill="rgb(0, 0, 0)" stroke="rgb(204, 204, 204)" stroke-width="1px"></line><line x1="556.5136666666666" y1="0" x2="556.5136666666666" y2="5" style="visibility: inherit;" fill="rgb(0, 0, 0)" stroke="rgb(204, 204, 204)" stroke-width="1px"></line><line x1="649.2659444444445" y1="0" x2="649.2659444444445" y2="5" style="visibility: inherit;" fill="rgb(0, 0, 0)" stroke="rgb(204, 204, 204)" stroke-width="1px"></line><line x1="742.0182222222221" y1="0" x2="742.0182222222221" y2="5" style="visibility: inherit;" fill="rgb(0, 0, 0)" stroke="rgb(204, 204, 204)" stroke-width="1px"></line><line x1="834.7705" y1="0" x2="834.7705" y2="5" style="visibility: inherit;" fill="rgb(0, 0, 0)" stroke="rgb(204, 204, 204)" stroke-width="1px"></line></g><g transform="translate(0, 8)"><text x="0" y="0" dx="0em" dy="0.95em" style="text-anchor: middle; visibility: hidden; font-family: Roboto, sans-serif; font-size: 12px; font-weight: 200;" fill="rgb(33, 33, 33)" stroke="none" stroke-width="1px">-50</text><text x="92.75227777777776" y="0" dx="0em" dy="0.95em" style="text-anchor: middle; visibility: inherit; font-family: Roboto, sans-serif; font-size: 12px; font-weight: 200;" fill="rgb(33, 33, 33)" stroke="none" stroke-width="1px">0</text><text x="185.50455555555553" y="0" dx="0em" dy="0.95em" style="text-anchor: middle; visibility: inherit; font-family: Roboto, sans-serif; font-size: 12px; font-weight: 200;" fill="rgb(33, 33, 33)" stroke="none" stroke-width="1px">50</text><text x="278.2568333333333" y="0" dx="0em" dy="0.95em" style="text-anchor: middle; visibility: inherit; font-family: Roboto, sans-serif; font-size: 12px; font-weight: 200;" fill="rgb(33, 33, 33)" stroke="none" stroke-width="1px">100</text><text x="371.00911111111105" y="0" dx="0em" dy="0.95em" style="text-anchor: middle; visibility: inherit; font-family: Roboto, sans-serif; font-size: 12px; font-weight: 200;" fill="rgb(33, 33, 33)" stroke="none" stroke-width="1px">150</text><text x="463.7613888888889" y="0" dx="0em" dy="0.95em" style="text-anchor: middle; visibility: inherit; font-family: Roboto, sans-serif; font-size: 12px; font-weight: 200;" fill="rgb(33, 33, 33)" stroke="none" stroke-width="1px">200</text><text x="556.5136666666666" y="0" dx="0em" dy="0.95em" style="text-anchor: middle; visibility: inherit; font-family: Roboto, sans-serif; font-size: 12px; font-weight: 200;" fill="rgb(33, 33, 33)" stroke="none" stroke-width="1px">250</text><text x="649.2659444444445" y="0" dx="0em" dy="0.95em" style="text-anchor: middle; visibility: inherit; font-family: Roboto, sans-serif; font-size: 12px; font-weight: 200;" fill="rgb(33, 33, 33)" stroke="none" stroke-width="1px">300</text><text x="742.0182222222221" y="0" dx="0em" dy="0.95em" style="text-anchor: middle; visibility: inherit; font-family: Roboto, sans-serif; font-size: 12px; font-weight: 200;" fill="rgb(33, 33, 33)" stroke="none" stroke-width="1px">350</text><text x="834.7705" y="0" dx="0em" dy="0.95em" style="text-anchor: middle; visibility: hidden; font-family: Roboto, sans-serif; font-size: 12px; font-weight: 200;" fill="rgb(33, 33, 33)" stroke="none" stroke-width="1px">400</text></g><line x1="0" y1="0" x2="834.7705" y2="0" fill="rgb(0, 0, 0)" stroke="rgb(204, 204, 204)" stroke-width="1px"></line></g></g></g></g></svg>